<?xml version="1.0" encoding="UTF-8"?>
<svg id="Layer_2" data-name="Layer 2" xmlns="http://www.w3.org/2000/svg" viewBox="0 0 340.55 63.15">
  <g id="Layer_1-2" data-name="Layer 1">
    <g>
      <g>
        <path d="M20.93,63.15h-11.8L0,11.48h15.22l7.2,41.05h.37l-1.86,10.61ZM64.65,11.48h15.22l-9.13,51.66h-27.32l-3.93-22.05-3.86,22.05h-13.21l1.93-10.61,7.2-41.05h16.78l7.27,41.05h1.86l7.2-41.05Z"/>
        <path d="M98.72,31.6v31.55h-15.22V11.48h15.22v20.12Z"/>
        <path d="M121.88,23.66l-.07,22.64h-15.22l.07-22.64v-12.17h15.22v12.17ZM118.84,63.15h-12.17v-13.58h29.39v13.58h-17.22Z"/>
        <path d="M178.74,36.87c4.5,1.34,6.75,5.79,6.75,13.36,0,8.27-4.43,12.57-13.29,12.92h-31.1v-11.51h25.61c1.29,0,2.13-.33,2.52-1,.4-.67.57-1.57.52-2.71-.05-1.09-.25-1.99-.59-2.71-.35-.72-1.16-1.08-2.45-1.08h-11.43v4.31h-14.18V11.48h14.18v18.85h10.39c1.24,0,2.05-.31,2.45-.93.4-.62.59-1.5.59-2.64s-.2-1.94-.59-2.56c-.4-.62-1.21-.93-2.45-.93h-6.83v-11.8h10.39c9.9,0,14.85,4.43,14.85,13.29,0,7.27-1.78,11.31-5.34,12.1Z"/>
        <path d="M205.83,50.97v12.17h-1.94c-8.16,0-12.24-4.06-12.24-12.17v-27.32c0-8.12,4.08-12.17,12.24-12.17h1.94v39.49ZM223.87,11.48c8.12,0,12.17,4.06,12.17,12.17v27.32c0,8.12-4.06,12.17-12.17,12.17h-15.07v-12.17h12.84v-27.32h-13.06v-12.17h15.29Z"/>
        <path d="M276.5,11.48l10.47,51.66h-15.14l-2.15-12.17h-13.51l-2.15,12.17h-15.22l7.94-37.93h14.7l-3.12,13.58h9.2l-3.27-16.7-17.15.15,1.86-10.76h27.54Z"/>
        <path d="M303.59,23.66v39.49h-14.18V11.48h14.18v12.17ZM318.74,11.48c8.12,0,12.17,4.06,12.17,12.17v12.4c0,8.12-4.06,12.17-12.17,12.17h-12.1v-12.17h9.87v-12.4h-4.97,2.67-7.72v-12.17h12.25ZM306.86,49.86h14.7l8.16,13.29h-15.14l-7.72-13.29Z"/>
      </g>
      <g>
        <path d="M333.88,13.34c-3.68,0-6.67-2.99-6.67-6.67s2.99-6.67,6.67-6.67,6.67,2.99,6.67,6.67-2.99,6.67-6.67,6.67M333.88,1.42c-2.89,0-5.25,2.35-5.25,5.25s2.36,5.25,5.25,5.25,5.25-2.36,5.25-5.25-2.35-5.25-5.25-5.25"/>
        <g>
          <path d="M333.03,5.55h-1.2v3.26h-.81v-3.26h-1.18v-.65h3.19v.65Z"/>
          <path d="M334.54,4.89l1.01,2.84,1-2.84h1.06v3.92h-.81v-1.07l.08-1.85-1.06,2.92h-.55l-1.05-2.92.08,1.85v1.07h-.81v-3.92h1.05Z"/>
        </g>
      </g>
    </g>
  </g>
</svg>