<svg width="513" height="95" viewBox="0 0 513 95" fill="none" xmlns="http://www.w3.org/2000/svg">
<g clip-path="url(#clip0_6339_451)">
<path d="M31.5401 94.9999H13.7507L0 17.2748H22.9255L33.7813 79.0306H34.3416L31.5401 94.9999ZM97.3986 17.2748H120.324L106.573 94.9999H65.4149L59.485 61.8257L53.6719 94.9999H33.758L36.6762 79.0306L47.532 17.2748H72.7921L83.7413 79.0306H86.5428L97.3986 17.2748Z" fill="white"/>
<path d="M148.711 47.5349V94.9999H125.785V17.2748H148.711V47.5349Z" fill="white"/>
<path d="M183.613 35.5987L183.496 69.6588H160.57L160.687 35.5987V17.2748H183.613V35.5987ZM179.013 94.9999H160.687V74.5545H204.974V94.9999H179.037H179.013Z" fill="white"/>
<path d="M269.269 55.4613C276.063 57.4662 279.448 64.1803 279.448 75.557C279.448 87.9828 272.771 94.4637 259.441 94.9766H212.586V77.6785H251.153C253.091 77.6785 254.352 77.1656 254.959 76.1631C255.566 75.1607 255.822 73.8085 255.752 72.0834C255.682 70.4515 255.379 69.076 254.865 68.0036C254.352 66.9312 253.114 66.395 251.176 66.395H233.947V72.876H212.586V17.2748H233.947V45.6466H249.612C251.48 45.6466 252.694 45.1803 253.301 44.2478C253.908 43.3153 254.188 41.9864 254.188 40.2846C254.188 38.5828 253.885 37.3705 253.301 36.438C252.694 35.5055 251.48 35.0392 249.612 35.0392H239.317V17.2748H254.982C269.9 17.2748 277.347 23.9423 277.347 37.2539C277.347 48.1877 274.662 54.2723 269.293 55.4613H269.269Z" fill="white"/>
<path d="M310.08 76.676V94.9999H307.162C294.882 94.9999 288.719 88.892 288.719 76.676V35.5987C288.719 23.3828 294.859 17.2748 307.162 17.2748H310.08V76.676ZM337.255 17.2748C349.488 17.2748 355.604 23.3828 355.604 35.5987V76.6993C355.604 88.9153 349.488 95.0233 337.255 95.0233H314.563V76.6993H333.916V35.5987H314.236V17.2748H337.278H337.255Z" fill="white"/>
<path d="M416.535 17.2748L432.293 94.9999H409.484L406.239 76.676H385.882L382.636 94.9999H359.711L371.664 37.93H393.796L389.103 58.3754H402.971L398.045 33.2441L372.224 33.4772L375.026 17.2981H416.511L416.535 17.2748Z" fill="white"/>
<path d="M457.342 35.5987V94.9999H435.98V17.2748H457.342V35.5987ZM480.151 17.2748C492.384 17.2748 498.5 23.3828 498.5 35.5987V54.249C498.5 66.465 492.384 72.5729 480.151 72.5729H461.918V54.249H476.789V35.5987H469.295H473.31H461.684V17.2748H480.127H480.151ZM462.268 74.9975H484.4L496.703 94.9766H473.894L462.268 74.9975Z" fill="white"/>
<path d="M502.961 20.0723C497.428 20.0723 492.922 15.5729 492.922 10.0478C492.922 4.52264 497.428 0.0232544 502.961 0.0232544C508.494 0.0232544 512.999 4.52264 512.999 10.0478C512.999 15.5729 508.494 20.0723 502.961 20.0723ZM502.961 2.14473C498.595 2.14473 495.046 5.68828 495.046 10.0478C495.046 14.4073 498.595 17.9509 502.961 17.9509C507.326 17.9509 510.875 14.4073 510.875 10.0478C510.875 5.68828 507.326 2.14473 502.961 2.14473Z" fill="white"/>
<path d="M501.677 8.34596H499.879V13.265H498.665V8.34596H496.891V7.36682H501.7V8.34596H501.677Z" fill="white"/>
<path d="M503.962 7.36682L505.48 11.6331L506.997 7.36682H508.585V13.265H507.371V11.6564L507.488 8.88216L505.9 13.265H505.06L503.472 8.88216L503.589 11.6564V13.265H502.375V7.36682H503.962Z" fill="white"/>
</g>
<defs>
<clipPath id="clip0_6339_451">
<rect width="513" height="95" fill="white"/>
</clipPath>
</defs>
</svg>
