<?xml version="1.0" encoding="UTF-8"?>
<svg id="Layer_2" data-name="Layer 2" xmlns="http://www.w3.org/2000/svg" viewBox="0 0 169.65 168.13">
  <g id="Layer_1-2" data-name="Layer 1">
    <g>
      <g>
        <path d="M146.84,45.13c-.59-1.07-1.26-2.08-2-3.31-.62.34-1.1.59-1.56.87-15.82,9.28-31.93,20.49-47.74,29.83,0,0-.01-.02-.02-.02l-.22.17s-.09.05-.13.08h0s-7.73,5.87-7.73,5.87l1.37,1.81,5.97-4.52c1.07,1.92,1.34,3.93.83,6.02s-1.73,3.87-3.66,5.33c-1.59,1.2-3.32,1.95-5.21,2.23-1.88.28-3.68.08-5.4-.62-1.72-.7-3.11-1.75-4.18-3.16-1.04-1.38-1.67-2.96-1.87-4.75-.21-1.79.08-3.55.87-5.27.78-1.73,1.91-3.15,3.38-4.26,1.18-.89,2.59-1.55,4.24-1.96,1.65-.41,3.38-.5,5.2-.26l.41-2.48c-2.29-.26-4.35-.14-6.19.35-1.84.49-3.55,1.33-5.13,2.54-1.96,1.49-3.39,3.25-4.29,5.29-.9,2.04-1.22,4.16-.95,6.36.27,2.2,1.07,4.19,2.41,5.97,1.81,2.39,4.18,3.9,7.1,4.54,3.81.83,7.45-.07,10.91-2.69,2.85-2.16,4.49-4.74,4.9-7.73.19-1.37.1-2.74-.25-4.09,13.78-8.9,27.54-17.83,41.34-26.71.44-.28,1.36-.21,1.87.06,1.83.94,3.77.86,5.09-.41,1.33-1.27,1.6-3.29.63-5.06Z"/>
        <path d="M71.43,50.79c-.5-.26-.69-.42-.91-.47-10.37-2.4-20.72-4.9-31.13-7.15-8.91-1.92-17.22,4.55-17.36,13.38-.03,1.63-.5,2.78-1.58,3.96-6.35,6.97-12.63,13.99-18.93,21-1.97,2.19-2.05,4.26-.18,6.34,6.77-5.76,13.53-11.53,20.27-17.27l.79-.07-.37.75-8.06,7.92c-3.53,3.02-7.06,6.06-10.59,9.09.09.19.18.38.27.57,1.03-.38,2.17-.59,3.08-1.17,6.35-4.08,12.65-8.23,18.96-12.36,2.07-1.35,4.14-2.7,6.21-4.05,7.47,5.93,14.8,11.74,22.33,17.72-5.12-17.79,1.3-30.07,17.2-38.19ZM30.09,60.03c-1.76,0-3.19-1.43-3.19-3.19s1.43-3.19,3.19-3.19,3.19,1.43,3.19,3.19-1.43,3.19-3.19,3.19Z"/>
        <path d="M97.78,132.35c1.03.45,1.64.91,2.27.95,1.91.1,3.83,0,5.74.05,3.4.11,5.96,2.35,6.73,5.96h-18.35c-.47-1.59-.72-3.21-1.46-4.56-.33-.6-1.67-.89-2.54-.88-2.41.05-3.41,2.02-2.85,5.5h-29.64c-.04-3.3,3-6,6.87-6.02,5.27-.04,10.54-.06,15.8.02,1.25.02,1.95-.35,2.61-1.4,1.52-2.4,3.9-3.51,6.65-3.97.61-.1,1.42-.32,1.71-.77,3-4.55,5.91-9.17,8.88-13.82-2.16-2.45-4.19-4.85-6.36-7.12-.41-.43-1.44-.59-2.09-.45-10.47,2.25-19.61-.23-26.91-8.1-11.91-12.83-8.77-33.07,6.41-42,22.08-12.99,44.2-25.9,66.3-38.84,9.02-5.28,18.04-10.55,27.06-15.83.58-.34,1.17-.64,1.94-1.07.88,1.49,1.77,2.85,2.51,4.29,1.06,2.04.62,4.12-1.07,5.54-1.59,1.33-3.69,1.41-5.5.19-.39-.27-.74-.6-1.15-.93-22.47,14.72-44.93,29.42-67.42,44.15q3.54,2.24,6.82.31c18.44-10.82,36.88-21.63,55.33-32.45.7-.41,1.41-.8,2.34-1.32.91,1.53,1.9,2.92,2.59,4.43.87,1.9.14,4.13-1.49,5.31-1.84,1.33-3.78,1.13-6.24-.73-6.46,4.14-12.96,8.27-19.43,12.46-12.39,8.01-24.78,16.04-37.13,24.11-1.06.69-1.76.74-2.88.05-5.58-3.46-11.42-3.69-17.1-.43-5.59,3.21-8.4,8.25-8.35,14.75.06,8.34,6.76,15.4,15.31,16.17,7.88.71,15.87-5.09,17.34-12.92.45-2.4,1.5-3.71,3.55-4.9,11.88-6.88,23.67-13.91,35.5-20.89.64-.38,1.29-.72,2.1-1.17.82,1.34,1.65,2.58,2.35,3.89,1.1,2.04.71,4.16-.93,5.59-1.56,1.37-3.8,1.45-5.68.19-.28-.19-.54-.39-.89-.65-8.03,5.11-16.05,10.2-24.01,15.36-.56.36-.91,1.34-1,2.07-.46,3.93-1.68,7.6-3.79,10.94-.65,1.03-.43,1.62.32,2.44,3.04,3.34,6.01,6.74,8.98,10.13,4.09,4.67,3.44,10.44-1.66,13.99-5.27,3.67-10.63,7.21-15.95,10.82-.56.38-1.09.78-2.17,1.55ZM111.31,108.3c-2.27-.04-4.24,1.86-4.23,4.07.02,2.1,1.93,4.04,4.06,4.09,2.22.06,4.19-1.89,4.18-4.13-.01-2.2-1.8-4-4.01-4.04Z"/>
      </g>
      <g>
        <path d="M49.94,166.47c-2.25,1.18-4.73,1.66-7.27,1.66-5.41,0-9.35-3.55-9.35-9.11s3.94-9.11,9.35-9.11c2.74,0,5.17.61,6.91,2.23l-2.69,2.94c-1.03-1.08-2.28-1.64-4.21-1.64-3.26,0-5.39,2.35-5.39,5.58s2.13,5.58,5.39,5.58c1.66,0,2.89-.47,3.6-.86v-2.82h-3.11v-3.53h6.78v9.06Z"/>
        <path d="M71.88,154.86c-.76-.91-1.86-1.42-3.28-1.42-2.89,0-5.02,2.35-5.02,5.58s2.13,5.58,4.9,5.58c1.54,0,2.79-.69,3.58-1.86l3.18,2.38c-1.44,2.06-3.89,3.01-6.27,3.01-5.41,0-9.35-3.55-9.35-9.11s3.94-9.11,9.35-9.11c1.93,0,4.38.66,5.85,2.55l-2.94,2.4Z"/>
        <path d="M77.32,150.35h6.71c3.55,0,6.54,1.22,6.54,5.26,0,2.42-1.3,4.31-3.75,4.75l4.41,7.32h-4.58l-3.62-6.93h-1.89v6.93h-3.82v-17.34ZM81.14,157.53h2.25c1.4,0,3.21-.05,3.21-1.93,0-1.74-1.57-2.01-2.96-2.01h-2.5v3.94Z"/>
        <path d="M101.61,149.91c5.41,0,9.35,3.55,9.35,9.11s-3.94,9.11-9.35,9.11-9.35-3.55-9.35-9.11,3.94-9.11,9.35-9.11ZM101.61,164.61c3.26,0,5.39-2.35,5.39-5.58s-2.13-5.58-5.39-5.58-5.39,2.35-5.39,5.58,2.13,5.58,5.39,5.58Z"/>
        <path d="M111.74,150.35h4.16l2.77,11.12h.05l3.62-11.12h3.55l3.6,11.41h.05l2.91-11.41h3.87l-5.07,17.34h-3.4l-3.82-12h-.05l-3.82,12h-3.28l-5.14-17.34Z"/>
      </g>
    </g>
  </g>
</svg>