<svg width="537" height="191" viewBox="0 0 537 191" fill="none" xmlns="http://www.w3.org/2000/svg">
<path d="M283.676 138.579C277.18 141.944 270.013 143.321 262.692 143.321C247.07 143.321 235.676 133.176 235.676 117.321C235.676 101.466 247.07 91.3206 262.692 91.3206C270.632 91.3206 277.592 93.054 282.593 97.6932L274.808 106.054C271.818 102.995 268.26 101.364 262.64 101.364C253.257 101.364 247.07 108.093 247.07 117.27C247.07 126.446 253.205 133.176 262.64 133.176C267.435 133.176 270.993 131.85 273.003 130.728V122.674H264.032V112.63H283.624V138.477L283.676 138.579Z" fill="black"/>
<path d="M348.059 105.493C345.899 102.893 342.71 101.415 338.596 101.415C330.264 101.415 324.144 108.144 324.144 117.321C324.144 126.497 330.264 133.227 338.236 133.227C342.659 133.227 346.259 131.289 348.521 127.925L357.676 134.705C353.51 140.568 346.464 143.321 339.624 143.321C324.042 143.321 312.676 133.176 312.676 117.321C312.676 101.466 324.042 91.3206 339.624 91.3206C345.179 91.3206 352.224 93.2069 356.493 98.6108L348.059 105.442V105.493Z" fill="black"/>
<path d="M364.676 92.3206H383.983C394.201 92.3206 402.776 95.9447 402.776 107.815C402.776 114.958 399.028 120.473 391.993 121.786L404.676 143.321H391.531L381.107 122.942H375.664V143.321H364.676V92.3731V92.3206ZM375.613 113.382H382.083C386.088 113.382 391.325 113.225 391.325 107.71C391.325 102.615 386.807 101.827 382.802 101.827H375.613V113.435V113.382Z" fill="black"/>
<path d="M434.176 91.3206C450.077 91.3206 461.676 101.466 461.676 117.321C461.676 133.176 450.077 143.321 434.176 143.321C418.274 143.321 406.676 133.176 406.676 117.321C406.676 101.466 418.274 91.3206 434.176 91.3206ZM434.176 133.226C443.727 133.226 450.025 126.497 450.025 117.321C450.025 108.144 443.78 101.415 434.176 101.415C424.572 101.415 418.327 108.144 418.327 117.321C418.327 126.497 424.572 133.226 434.176 133.226Z" fill="black"/>
<path d="M464.676 92.3206H476.859L484.963 125.024H485.12L495.735 92.3206H506.14L516.65 125.918H516.807L525.329 92.3206H536.676L521.826 143.321H511.891L500.702 107.989H500.545L489.356 143.321H479.735L464.676 92.3206Z" fill="black"/>
<path d="M201.152 61.5428C200.347 60.0695 199.444 58.6698 198.42 57C197.59 57.4666 196.931 57.8103 196.297 58.1787C174.682 70.9231 152.7 86.3441 131.109 99.1868C131.109 99.1868 131.109 99.1868 131.109 99.1622L130.816 99.3832C130.816 99.3832 130.694 99.4569 130.621 99.4814L120.057 107.536L121.936 110.016L130.084 103.803C131.548 106.431 131.914 109.206 131.231 112.079C130.548 114.952 128.864 117.407 126.23 119.421C124.058 121.066 121.692 122.097 119.13 122.49C116.568 122.883 114.104 122.588 111.762 121.631C109.42 120.673 107.517 119.224 106.053 117.284C104.638 115.394 103.785 113.208 103.492 110.753C103.199 108.297 103.614 105.866 104.663 103.509C105.736 101.127 107.273 99.1868 109.274 97.6643C110.884 96.4365 112.811 95.528 115.056 94.9632C117.3 94.3984 119.667 94.2756 122.155 94.5948L122.716 91.1816C119.594 90.8378 116.764 90.9851 114.275 91.6482C111.762 92.3112 109.445 93.4898 107.273 95.1351C104.59 97.1732 102.638 99.6042 101.418 102.404C100.198 105.203 99.7591 108.125 100.125 111.145C100.491 114.166 101.589 116.916 103.419 119.347C105.883 122.637 109.127 124.7 113.129 125.584C118.325 126.738 123.302 125.486 128.035 121.876C131.938 118.905 134.159 115.369 134.72 111.244C134.988 109.353 134.866 107.487 134.378 105.62C153.188 93.3916 171.998 81.1137 190.832 68.9095C191.442 68.5166 192.686 68.6149 193.394 68.9832C195.882 70.2847 198.542 70.1619 200.347 68.4184C202.152 66.675 202.543 63.9002 201.201 61.4691L201.152 61.5428Z" fill="black"/>
<path d="M98 69.8611C97.3138 69.4951 97.0442 69.2999 96.7501 69.2267C82.5111 65.9573 68.321 62.5416 54.0575 59.4674C41.8281 56.8324 30.4319 65.6646 30.2359 77.7417C30.2114 79.9619 29.5496 81.5478 28.0792 83.1581C19.3789 92.6734 10.7521 102.262 2.10089 111.826C-0.594974 114.803 -0.717513 117.633 1.85581 120.487C11.1443 112.607 20.4082 104.75 29.6722 96.8943L30.7505 96.7967L30.2359 97.8214L19.1828 108.63C14.3303 112.753 9.50225 116.901 4.6497 121.048C4.77224 121.317 4.89478 121.561 5.01732 121.829C6.43877 121.317 8.00727 121.024 9.23266 120.219C17.9329 114.656 26.5842 108.971 35.2355 103.335C38.0784 101.481 40.9213 99.6513 43.7642 97.797C54.0085 105.897 64.0567 113.827 74.399 122C67.3652 97.6994 76.1635 80.9378 97.9755 69.8367L98 69.8611ZM41.2889 82.4749C38.8871 82.4749 36.9265 80.5231 36.9265 78.132C36.9265 75.741 38.8871 73.7892 41.2889 73.7892C43.6907 73.7892 45.6513 75.741 45.6513 78.132C45.6513 80.5231 43.6907 82.4749 41.2889 82.4749Z" fill="black"/>
<path d="M133.915 181.355C135.306 181.967 136.159 182.603 137.013 182.652C139.623 182.799 142.232 182.652 144.842 182.725C149.476 182.872 152.989 185.932 154.037 190.902H128.989C128.354 188.723 128.013 186.496 126.989 184.659C126.549 183.852 124.696 183.435 123.525 183.46C120.232 183.533 118.867 186.226 119.623 191H79.1591C79.1103 186.471 83.2567 182.774 88.525 182.75C95.7201 182.701 102.915 182.677 110.086 182.774C111.793 182.799 112.745 182.285 113.647 180.865C115.72 177.56 118.964 176.067 122.72 175.43C123.549 175.283 124.647 174.99 125.062 174.377C129.159 168.135 133.135 161.819 137.184 155.429C134.232 152.075 131.476 148.77 128.501 145.661C127.94 145.074 126.549 144.854 125.647 145.049C111.354 148.134 98.8909 144.731 88.9152 133.935C72.6713 116.358 76.9396 88.6209 97.6713 76.3804C127.818 58.5828 158.013 40.8831 188.184 23.1589C200.501 15.9126 212.818 8.69072 225.135 1.46885C225.916 1.00372 226.721 0.587542 227.769 0C228.964 2.03191 230.184 3.91694 231.208 5.87542C232.672 8.66624 232.062 11.5305 229.745 13.4645C227.574 15.3006 224.696 15.3985 222.233 13.7093C221.696 13.3421 221.233 12.9014 220.672 12.4363C189.989 32.6086 159.33 52.7563 128.623 72.9286C131.842 74.9687 134.948 75.1156 137.94 73.3693C163.111 58.5583 188.281 43.7229 213.477 28.9119C214.428 28.3489 215.403 27.8103 216.672 27.1004C217.916 29.2057 219.257 31.0907 220.208 33.1716C221.403 35.7666 220.403 38.8267 218.184 40.4425C215.672 42.2785 213.013 41.9847 209.647 39.4387C200.842 45.1183 191.964 50.7734 183.111 56.5019C166.184 67.4939 149.281 78.4858 132.428 89.5511C130.964 90.5059 130.013 90.5549 128.501 89.6246C120.867 84.8753 112.915 84.5815 105.159 89.037C97.525 93.4436 93.6957 100.347 93.7689 109.258C93.8421 120.691 103.013 130.361 114.671 131.413C125.428 132.393 136.33 124.436 138.33 113.714C138.94 110.409 140.379 108.622 143.184 107.006C159.403 97.5809 175.501 87.9354 191.647 78.3879C192.525 77.8738 193.403 77.3841 194.501 76.7721C195.623 78.6082 196.745 80.3218 197.72 82.1089C199.208 84.8998 198.696 87.813 196.452 89.7715C194.33 91.6565 191.257 91.7544 188.696 90.0408C188.306 89.796 187.964 89.5022 187.477 89.1594C176.525 96.161 165.574 103.138 154.696 110.213C153.94 110.703 153.452 112.049 153.33 113.053C152.696 118.439 151.037 123.457 148.159 128.035C147.281 129.455 147.574 130.238 148.598 131.389C152.745 135.967 156.793 140.618 160.867 145.27C166.452 151.659 165.574 159.567 158.598 164.438C151.403 169.457 144.086 174.329 136.818 179.274C136.062 179.788 135.33 180.351 133.867 181.403L133.915 181.355ZM152.379 148.379C149.281 148.33 146.598 150.925 146.598 153.96C146.598 156.849 149.232 159.493 152.135 159.567C155.159 159.64 157.867 156.972 157.842 153.911C157.842 150.9 155.379 148.428 152.379 148.379Z" fill="black"/>
</svg>
