<svg width="60" height="61" viewBox="0 0 60 61" fill="none" xmlns="http://www.w3.org/2000/svg">
<g clip-path="url(#clip0_2069_808)">
<path d="M26.423 8.40723L27.5318 28.343H30.439L31.0739 14.6581H35.0899L35.8827 28.343H39.1059V33.7854L38.152 36.1024C37.9788 36.1551 38.0609 35.8887 38.0487 35.8887H33.9264V38.853L34.0844 39.0141H36.8852L35.5607 42.3563L33.7654 42.3811L33.6105 42.5174V46.2902C33.6105 46.3739 33.9233 46.4265 33.9203 46.5009L31.1772 53.458H0V28.3492H9.40509L10.2496 10.8915H15.3228L16.1673 28.3492H19.6547L20.6055 8.41342H26.4169L26.423 8.40723ZM23.4884 9.40464C23.2576 9.64005 23.3244 10.179 23.616 10.3556C23.8682 10.5074 25.1744 10.5074 25.5025 10.433C26.1283 10.2905 26.101 9.44181 25.6119 9.29003C25.3445 9.20639 23.6616 9.22808 23.4915 9.40154L23.4884 9.40464ZM25.867 11.8827C25.6969 11.7092 24.0261 11.6937 23.7284 11.7526C23.1695 11.8641 23.1998 12.7562 23.6646 12.8894C24.0049 12.9885 25.4752 12.9978 25.7425 12.8336C26.0341 12.6571 26.101 12.1181 25.8701 11.8827H25.867ZM12.1817 13.2301C12.5371 13.6111 15.0615 13.8001 14.6727 12.5796C14.4965 11.9725 12.3153 12.0468 12.1148 12.5301C12.0267 12.7407 12.0207 13.0597 12.1817 13.2301ZM23.6403 14.2492C23.4581 14.305 23.2576 14.6302 23.2576 14.8192C23.2029 15.6927 25.6058 15.4913 25.8883 15.2466C26.2164 14.9616 26.0888 14.3638 25.7152 14.2461C25.5177 14.1842 23.8408 14.1842 23.6434 14.2461L23.6403 14.2492ZM12.3123 16.0582H14.4266C14.8458 16.0582 15.0828 14.9864 14.1107 14.8718C13.2449 14.7665 11.3432 14.7417 12.3123 16.0582ZM23.6434 16.7272C23.1209 16.879 23.1209 17.7154 23.6434 17.8671C23.8712 17.9322 25.3688 17.9353 25.6271 17.8857C26.1496 17.7866 26.3531 16.9379 25.7941 16.752C25.5359 16.6653 23.9016 16.6498 23.6434 16.7272ZM12.4399 17.5915C11.9538 17.737 11.7867 18.5672 12.3336 18.7345C12.5371 18.7964 14.1836 18.7995 14.4236 18.753C14.9947 18.6415 15.0706 17.7494 14.4023 17.5915C14.138 17.5295 12.6768 17.5202 12.4399 17.5915ZM23.3821 19.3168C23.1512 19.5522 23.2181 20.0912 23.5097 20.2677C23.7406 20.4071 25.4023 20.4288 25.7334 20.3669C26.3683 20.2461 26.3774 19.3106 25.7334 19.1867C25.4174 19.1278 23.5553 19.1433 23.3821 19.3168ZM12.4399 20.2863C11.8354 20.4288 11.7776 21.262 12.3336 21.4262C12.61 21.5068 14.5785 21.4882 14.7517 21.3519C15.101 21.0762 15.0008 20.3978 14.5086 20.2863C14.1897 20.2151 12.7558 20.212 12.4399 20.2863ZM23.6434 21.6864C23.0419 21.8227 23.0419 22.6869 23.6434 22.8232C24.014 22.9068 25.8701 22.913 26.104 22.6838C26.3896 22.3214 26.2954 21.7917 25.8184 21.6833C25.4843 21.609 23.9775 21.609 23.6464 21.6833L23.6434 21.6864ZM14.8762 23.0896C14.7031 22.913 12.7437 22.8976 12.4216 22.9595C11.7776 23.0834 11.7867 24.0189 12.4216 24.1397C12.7467 24.2016 14.7061 24.183 14.8762 24.0096C15.0463 23.8361 15.0524 23.2693 14.8762 23.0896ZM23.537 24.1614C23.0601 24.3069 23.0601 25.1588 23.537 25.3043C23.8287 25.3942 25.8367 25.3601 26.0584 25.2238C26.4776 24.9667 26.3652 24.2915 25.9248 24.1614C25.706 24.0963 23.7466 24.0963 23.537 24.1614ZM14.9825 25.7845C14.8124 25.611 12.6464 25.5893 12.3153 25.6544C11.7321 25.769 11.7199 26.6735 12.3366 26.8129C12.692 26.8934 14.6089 26.8872 14.8549 26.7354C15.1466 26.5589 15.2134 26.0199 14.9825 25.7845ZM23.537 26.6425C22.9842 26.8036 23.0145 27.6864 23.6221 27.801C23.9471 27.8629 25.9764 27.8412 26.1648 27.7049C26.5779 27.4045 26.4351 26.7633 25.9217 26.6425C25.6362 26.5743 23.7922 26.5681 23.537 26.6425ZM6.6589 30.0684H2.11432V33.1938H6.6589V30.0684ZM11.8384 30.0684H7.71607V33.1938H11.8384V30.0684ZM17.1212 30.0684H12.9988V33.1938H17.1212V30.0684ZM22.407 33.1938V30.2294L22.249 30.0684H18.1814V33.1938H22.41H22.407ZM27.5834 30.0684H23.4611V33.1938H27.5834V30.0684ZM32.8692 30.0684H28.8016L28.6436 30.2294V33.0327L28.8016 33.1938H32.8692V30.0684ZM38.0487 30.0684H33.9264V33.1938H38.0487V30.0684ZM6.6589 35.8887H2.11432V39.0141H6.50094L6.6589 38.853V35.8887ZM11.8384 35.8887H7.71607V39.0141H11.8384V35.8887ZM17.1212 35.8887H12.9988V39.0141H17.1212V35.8887ZM22.407 35.8887H18.1783V38.853L18.3363 39.0141H22.246L22.4039 38.853V35.8887H22.407ZM27.5834 35.8887H23.4611V39.0141H27.5834V35.8887ZM32.8692 35.8887H28.8016L28.6436 36.0497V38.853L28.8016 39.0141H32.7113L32.8692 38.853V35.8887ZM5.07316 46.4482V42.5143C5.07316 42.2046 4.08891 42.4586 3.86411 42.4648C3.27781 42.4802 2.69151 42.4802 2.11432 42.3532V46.4482H5.07316ZM9.30181 42.4617C8.43299 42.3966 7.36064 42.2448 6.49486 42.3471C6.33993 42.3656 6.2245 42.3594 6.13032 42.5143V46.2871L6.28829 46.4482H9.30181V42.4617ZM18.072 42.3532H11.9417V51.7295H18.072V42.3532ZM23.8864 42.4617C23.13 42.44 22.3675 42.4895 21.6111 42.4648C21.4227 42.4586 20.6116 42.2077 20.6116 42.5143V46.2871L20.7696 46.4482H23.8864V42.4617ZM27.9024 46.4482V42.5143C27.8295 42.3842 27.4771 42.3532 27.3222 42.3532H25.1015L24.9435 42.5143V46.4482H27.9024ZM32.5533 46.4482V42.5143C32.4591 42.3594 32.3437 42.3656 32.1888 42.3471C31.484 42.2634 30.6152 42.3811 29.9104 42.4617V46.2871L30.0684 46.4482H32.5533Z" fill="black"/>
<path d="M40.9771 17.3768L50.4551 17.3613C52.4722 17.8043 52.8854 20.2916 51.3118 21.5554L51.2814 33.8682C53.8028 40.6208 57.0837 47.2434 59.5504 53.996C60.805 57.4312 59.3924 60.4482 55.7531 61.0027L35.7764 60.9965C32.9937 60.7363 31.086 58.0135 31.6267 55.2598L40.242 34.085L40.2116 21.4501C38.7352 20.1708 39.1727 18.0056 40.9771 17.3768ZM47.8244 21.7691H41.4298V34.1098C41.4298 34.3297 40.5701 35.8847 40.6916 35.9962L50.8379 35.8878L50.2 34.0045L50.3002 20.8461C51.4819 20.242 51.491 18.7552 50.1513 18.4269C47.4264 18.6809 44.1365 18.0985 41.4784 18.4269C40.3453 18.5663 39.9929 20.0624 41.0622 20.5828L47.8001 20.6076C48.514 20.7686 48.4198 21.6421 47.8213 21.7691H47.8244ZM49.0334 40.119C49.0334 39.326 48.4046 38.6848 47.6269 38.6848C46.8492 38.6848 46.2204 39.326 46.2204 40.119C46.2204 40.912 46.8492 41.5532 47.6269 41.5532C48.4046 41.5532 49.0334 40.912 49.0334 40.119ZM52.4996 44.31C51.9285 44.4649 52.1411 45.0937 52.2657 45.4778C53.3137 48.6744 55.3734 51.9578 56.4852 55.1855C56.9257 56.028 57.8431 55.4859 57.5515 54.6372L53.1861 44.6507C53.0677 44.3998 52.773 44.2387 52.4996 44.3131V44.31ZM45.1146 45.5738C45.1146 44.9636 44.6286 44.468 44.0301 44.468C43.4317 44.468 42.9456 44.9636 42.9456 45.5738C42.9456 46.184 43.4317 46.6796 44.0301 46.6796C44.6286 46.6796 45.1146 46.184 45.1146 45.5738ZM49.7838 50.1427C49.7838 49.2103 49.0425 48.4514 48.1251 48.4514C47.2077 48.4514 46.4665 49.2072 46.4665 50.1427C46.4665 51.0781 47.2077 51.8339 48.1251 51.8339C49.0425 51.8339 49.7838 51.0781 49.7838 50.1427ZM45.2483 55.4147C45.2483 54.6217 44.6195 53.9805 43.8418 53.9805C43.0641 53.9805 42.4353 54.6217 42.4353 55.4147C42.4353 56.2077 43.0641 56.8489 43.8418 56.8489C44.6195 56.8489 45.2483 56.2077 45.2483 55.4147Z" fill="black"/>
<path d="M45.8407 0.0181505C46.1718 -0.046898 46.4118 0.176125 46.506 0.492075C46.5516 0.969098 45.5673 1.9758 45.3547 2.44663L46.5151 4.36711L45.3547 6.21634L46.506 8.14921L45.3759 10.079C45.5643 10.525 46.4756 11.4977 46.503 11.9189C46.5364 12.4331 45.543 13.3221 45.3759 13.8518C45.5521 14.4341 46.9404 15.5771 46.348 16.1719C46.0534 16.4661 45.6797 16.2462 45.4488 16.0077C45.3486 15.9055 44.2762 14.3257 44.2368 14.2266C43.8996 13.3903 44.9567 12.7429 45.2149 12.0057C45.0509 11.318 44.0636 10.5963 44.179 9.87455C44.2459 9.46257 45.2332 8.44348 45.2332 8.14302C45.0752 7.59475 44.2459 6.93807 44.179 6.40839C44.094 5.75171 45.0205 4.99281 45.2332 4.3702C45.0205 3.7476 44.094 2.9887 44.179 2.33202C44.2064 2.12139 45.2757 0.488978 45.461 0.290735C45.5795 0.166833 45.6554 0.0584186 45.8407 0.0212481V0.0181505Z" fill="black"/>
<path d="M32.7933 13.5485C32.7265 13.4927 31.9245 12.2011 31.9184 12.1174C31.8819 11.724 32.4196 11.2966 32.5351 10.9218L31.9245 9.754L32.5351 8.66056L31.9245 7.49279L32.529 6.32811L31.9245 5.23158C32.1979 4.72668 32.8601 3.14383 33.5619 3.66112C34.297 4.20319 33.1821 4.91253 33.1821 5.22848C33.1821 5.4546 33.7502 5.99048 33.7988 6.3343C33.8596 6.75557 33.2277 7.19542 33.2004 7.51137C33.1821 7.7282 33.811 8.30434 33.811 8.67915C33.811 9.05395 33.1821 9.52788 33.1821 9.754L33.811 10.9435L33.2064 12.1081C33.3522 12.4055 33.8079 12.8701 33.811 13.2047C33.811 13.7591 33.1274 13.8335 32.7933 13.5516V13.5485Z" fill="black"/>
<path d="M13.2905 10.1044C13.1203 10.2747 12.7133 10.284 12.5158 10.1384C12.4611 10.0982 11.7594 9.09457 11.7229 9.00784C11.328 8.08786 12.1634 7.86484 12.1513 7.38162C12.1422 7.10594 11.6348 6.76831 11.6166 6.30058C11.5984 5.78019 12.1604 5.46424 12.1513 5.11732C12.1452 4.85402 11.5771 4.3801 11.565 4.04247C11.5468 3.60881 12.1543 3.10391 12.1543 2.85611C12.1543 2.54635 11.5407 2.23969 11.6288 1.57062C11.6743 1.2237 12.4763 0.0156556 12.853 -0.00292969C13.9436 0.282045 13.2084 1.11219 12.8074 1.68833L13.4363 2.85301L12.8074 3.94954C12.7771 4.15088 13.3846 4.70844 13.4272 5.0151C13.5061 5.58505 12.7862 5.97534 12.8105 6.28199C12.8317 6.54219 13.3968 6.94797 13.4241 7.38472C13.4515 7.82767 12.8257 8.2892 12.8257 8.56179C12.8257 8.89323 13.8008 9.58708 13.2935 10.0982L13.2905 10.1044Z" fill="black"/>
<path d="M24.178 0.135879C24.6336 0.603609 23.9501 1.29126 23.7101 1.67226C24.3663 2.60153 24.5486 3.02899 23.701 3.93347C23.8711 4.37332 24.3602 4.71096 24.3086 5.21895C24.2691 5.59066 23.7071 6.09556 23.701 6.19778C23.6767 6.52302 24.7065 7.15492 24.1537 7.76824C23.5886 8.39394 22.577 6.82039 22.5102 6.40841C22.413 5.80439 23.1117 5.33666 23.1117 5.12293C23.1117 4.9092 22.413 4.44147 22.5102 3.83745C22.5558 3.54938 23.1147 2.98562 23.1117 2.85862C23.1117 2.67897 22.4707 2.17407 22.498 1.67536C22.5072 1.51429 23.2605 0.250488 23.3851 0.145172C23.5765 -0.0189982 23.9987 -0.0437786 24.1749 0.138977L24.178 0.135879Z" fill="black"/>
<path d="M44.5162 34.8197C45.2645 34.8197 45.8711 34.2011 45.8711 33.4381C45.8711 32.6752 45.2645 32.0566 44.5162 32.0566C43.768 32.0566 43.1614 32.6752 43.1614 33.4381C43.1614 34.2011 43.768 34.8197 44.5162 34.8197Z" fill="black"/>
<path d="M47.1105 30.1797C47.8571 30.1797 48.4623 29.5625 48.4623 28.8013C48.4623 28.04 47.8571 27.4229 47.1105 27.4229C46.3639 27.4229 45.7587 28.04 45.7587 28.8013C45.7587 29.5625 46.3639 30.1797 47.1105 30.1797Z" fill="black"/>
<path d="M44.7228 26.0662C45.3319 26.0662 45.8256 25.5628 45.8256 24.9418C45.8256 24.3208 45.3319 23.8174 44.7228 23.8174C44.1138 23.8174 43.6201 24.3208 43.6201 24.9418C43.6201 25.5628 44.1138 26.0662 44.7228 26.0662Z" fill="black"/>
</g>
<defs>
<clipPath id="clip0_2069_808">
<rect width="60" height="61" fill="white"/>
</clipPath>
</defs>
</svg>
