<svg width="81" height="53" viewBox="0 0 81 53" fill="none" xmlns="http://www.w3.org/2000/svg">
<g clip-path="url(#clip0_2069_737)">
<path d="M26.6142 35.0683C28.2072 28.7709 30.4347 22.6058 32.3852 16.3965C32.975 15.1247 33.757 14.944 35.0574 14.6354C41.0406 13.2093 47.5378 12.6604 53.568 11.2872C54.3053 11.1792 55.094 11.3291 55.6659 11.8074C59.5781 16.52 65.9546 20.8843 69.6255 25.5881C70.4655 26.6659 70.5571 27.347 70.3002 28.6894L67.0069 39.1064L66.6852 39.4503C62.2435 40.041 59.8931 35.8971 55.7106 35.1256C49.1375 33.9133 48.3309 37.1028 43.6435 38.9808C38.4958 41.0417 36.6548 38.1344 32.9393 36.2123C31.1117 35.2667 28.616 34.7333 26.6119 35.0705L26.6142 35.0683ZM45.8822 25.3169C46.2352 25.6608 48.7376 26.3882 49.2693 26.0135C49.7653 25.663 50.5495 23.0863 50.1876 22.5C49.9351 22.09 47.158 21.2634 46.6352 21.6359C46.1124 22.0084 45.2991 24.7505 45.8822 25.3169ZM52.2431 23.1987C51.5974 23.3861 50.7618 26.0531 51.0768 26.6902C51.3606 27.2655 53.8853 27.9995 54.5444 27.6821C55.2035 27.3646 55.8782 24.9378 55.5498 24.2655C55.2906 23.7343 52.7905 23.04 52.2453 23.1987H52.2431ZM45.317 26.5028C44.5864 26.7012 43.8647 29.4476 44.0747 30.0714C44.2222 30.51 46.9547 31.3124 47.33 31.1603C48.1232 30.8407 48.9275 28.3874 48.7063 27.7217C48.5588 27.2765 45.7951 26.3728 45.3192 26.5006L45.317 26.5028ZM50.6769 28.275C49.9552 28.4888 49.1666 31.0875 49.5106 31.7664C49.7609 32.258 52.395 33.0515 52.9782 32.7605C53.4809 32.5093 54.2763 29.9259 53.9858 29.3374C53.6954 28.7489 51.3427 28.0766 50.6769 28.275Z" fill="black"/>
<path d="M45.6075 7.51663L55.7822 5.52845L56.7876 5.63204C63.8612 12.2028 70.4857 19.3091 77.3828 26.087C77.6397 26.5896 77.5794 27.0988 77.499 27.63C77.3962 28.3177 75.1463 35.3006 74.8782 35.6268L70.6265 38.3732L73.8728 27.3588C68.7296 21.8506 63.1842 16.7324 57.8846 11.3784C56.9798 10.4637 56.4301 8.96259 54.9086 9.07721C51.4143 9.3373 47.1916 10.9927 43.6726 11.2417C39.6801 11.5239 42.4103 6.96118 42.8929 4.97519C42.8527 4.58505 39.8119 3.94803 39.26 3.75407C38.8154 3.8268 37.1576 11.3343 36.3421 12.1543C35.1915 13.393 31.438 13.1704 29.8494 13.9044L23.6606 33.3675C22.7781 34.7517 20.6555 34.4079 20.4768 32.6754L26.9784 11.7245C27.7492 10.0581 32.0256 10.3138 33.7169 9.67675L36.7867 0.47201C37.3028 -0.107695 38.268 -0.0305476 38.9606 0.0774583C39.613 0.178851 45.8667 2.2001 46.1705 2.44036C47.5848 3.55348 45.7907 6.12578 45.6053 7.51663H45.6075Z" fill="black"/>
<path d="M80.3945 40.072C79.8539 40.493 77.6531 40.5371 76.7617 40.7884C74.628 41.3923 73.14 43.1997 71.156 44.0748C69.172 44.9499 67.0472 45.1637 64.9359 44.9851C58.5973 44.4451 56.3676 37.5063 48.8851 41.7207C44.9037 43.9624 43.9162 45.5781 38.592 44.9653C34.2062 44.4605 31.887 40.3387 27.3962 40.3629C22.2418 40.3894 20.5572 45.5582 13.3116 44.9984C9.07326 44.6699 7.73495 41.994 4.48861 40.9184C2.909 40.3938 -0.138497 40.839 0.00449396 38.7054C0.120674 36.9729 2.38396 37.1845 3.65077 37.3366C8.84537 37.9604 9.73459 42.4084 16.225 41.6833C18.7922 41.3967 21.0756 38.5886 23.6606 37.7774C26.431 36.909 29.9812 37.0412 32.6199 38.291C34.6664 39.2586 36.3868 41.3504 38.8087 41.6634C45.612 42.5407 47.0195 36.6004 54.884 37.266C60.2417 37.7179 61.3209 42.263 67.6214 41.6921C71.795 41.3129 73.7522 36.7635 79.2417 37.266C80.9821 37.4247 81.5519 39.1749 80.3968 40.0742L80.3945 40.072Z" fill="black"/>
<path d="M0.317245 45.7131C0.605461 45.3604 1.24892 45.237 1.68683 45.1951C8.42752 44.5471 11.2494 52.8569 18.9485 48.5587C23.0908 46.2465 23.6047 44.708 29.1791 45.215C33.3906 45.5985 35.5824 49.2949 39.2265 49.63C45.9091 50.2428 47.2139 44.3068 55.2973 45.237C59.1246 45.6779 61.6917 49.3016 64.7035 49.6234C70.7717 50.2692 71.0219 47.0819 75.6467 45.647C76.9918 45.2304 80.0772 44.5603 80.7341 46.1518C81.7485 48.605 78.2005 48.3229 76.7616 48.7307C73.4818 49.6586 72.072 52.5373 67.8314 52.9253C61.3879 53.5138 61.0594 50.7629 56.4837 48.918C50.0625 46.3303 47.5334 52.447 41.9143 52.9253C35.3277 53.4851 35.2004 50.6571 30.5643 48.9202C23.9331 46.4339 21.8128 52.4293 15.9971 52.9253C8.86767 53.5336 8.53923 49.7226 3.64626 48.5852C2.84193 48.3978 1.48798 48.4111 0.924957 48.184C0.0580731 47.8336 -0.292702 46.467 0.317245 45.7175V45.7131Z" fill="black"/>
<path d="M15.2129 25.3615C15.0007 25.6657 11.0863 25.6502 10.4071 25.5995C7.99633 25.4188 1.45672 23.6224 4.37687 20.294C6.86804 17.455 11.2695 20.8561 13.3138 22.7319C13.7473 23.1286 15.6307 24.7641 15.2129 25.3615Z" fill="black"/>
<path d="M16.082 31.5679C16.7501 32.6325 14.3013 33.0756 13.6668 33.2056C11.5532 33.6399 6.28043 33.9683 4.66061 32.432C3.96576 31.7729 3.87862 30.5716 4.39697 29.7891C5.73527 27.7701 10.9924 29.5224 12.8781 30.2145C13.316 30.3754 15.9904 31.4202 16.0843 31.5679H16.082Z" fill="black"/>
<path d="M19.6256 17.0576C20.7047 17.9348 21.0555 23.6878 20.8053 25.0368C20.4701 26.8376 18.5219 24.0493 18.0058 23.6107C16.1469 22.0303 13.8635 22.1934 15.3984 19.0414C15.9816 17.8445 18.323 15.9974 19.6256 17.0554V17.0576Z" fill="black"/>
</g>
<defs>
<clipPath id="clip0_2069_737">
<rect width="81" height="53" fill="white"/>
</clipPath>
</defs>
</svg>
