<svg width="58" height="51" viewBox="0 0 58 51" fill="none" xmlns="http://www.w3.org/2000/svg">
<g clip-path="url(#clip0_2069_755)">
<path d="M51.8975 13.2462C52.0936 13.3068 52.1082 14.1686 52.0613 14.3401C52.0289 14.4603 51.741 14.3809 51.741 14.3966V22.8676L56.018 21.0897V48.6991H58V50.9999H10.7446V48.6991H12.2051V26.3188L24.9286 21.1347C24.9922 21.0427 25.1403 21.233 25.1403 21.2466V25.273L35.3122 21.0918C35.4624 21.1891 35.4562 21.2937 35.4729 21.4505C35.6085 22.7013 35.3539 24.0243 35.4176 25.274L45.6917 21.0897V25.273C45.8545 25.2814 46.5263 25.0178 46.5263 24.9069V14.3966C46.4292 14.3788 46.1382 14.4269 46.1079 14.3966C46.0662 14.3568 46.1392 13.4334 46.1079 13.2451H51.8975V13.2462ZM17.0558 37.8227H20.4982C20.5765 37.8227 20.734 37.5686 20.7559 37.4535C20.8185 37.1272 20.8216 35.2354 20.5765 35.1026C20.276 34.9405 17.1445 34.9405 16.9243 35.1287C16.5978 35.4079 16.5154 37.6669 17.0558 37.8217V37.8227ZM23.3148 37.8227H26.7572C27.2976 37.8227 27.0462 35.4581 26.8876 35.1297C26.6675 34.9405 23.5359 34.9415 23.2355 35.1036C22.9903 35.2364 22.9945 37.1283 23.0561 37.4546C23.079 37.5769 23.2115 37.7945 23.3137 37.8238L23.3148 37.8227ZM29.5738 37.8227H33.0162C33.4815 37.8227 33.4345 35.8367 33.3584 35.4926C33.253 35.0137 32.7909 35.022 32.3945 34.9948C31.828 34.9561 30.4093 34.9185 29.8951 35.0095C29.7282 35.0388 29.507 35.1151 29.4089 35.2532C29.2639 35.4581 29.2535 37.372 29.3662 37.6125C29.3891 37.6606 29.5383 37.8133 29.5727 37.8238L29.5738 37.8227ZM39.4317 37.8227C39.7092 37.3971 39.7686 35.5062 39.4828 35.2103C39.3514 35.0743 39.1281 35.0409 38.9508 35.0137C38.3885 34.9258 36.9396 34.9415 36.3502 34.9948C36.0278 35.0241 35.6481 35.0879 35.5751 35.4728C35.5229 35.7447 35.524 37.1827 35.5751 37.4546C35.597 37.5696 35.7556 37.8238 35.8328 37.8238H39.4317V37.8227ZM42.0918 37.8227H45.5342C46.0735 37.8227 45.9942 35.4728 45.7407 35.2103C45.457 34.9154 43.1234 34.9478 42.6081 34.9948C42.2858 35.0241 41.9061 35.0879 41.833 35.4728C41.7809 35.7447 41.7819 37.1827 41.833 37.4546C41.856 37.5769 41.9885 37.7945 42.0907 37.8238L42.0918 37.8227ZM48.3507 37.8227H51.8975C52.2376 37.8227 52.2011 35.8932 52.152 35.5805C52.0884 35.1726 51.8693 35.0419 51.4823 34.9969C50.8658 34.9248 49.4993 34.9373 48.8671 34.9938C48.5448 35.0231 48.1651 35.0869 48.092 35.4717C48.0399 35.7436 48.0409 37.1816 48.092 37.4535C48.115 37.5759 48.2475 37.7934 48.3497 37.8227H48.3507ZM17.0558 40.6464C16.6166 40.6464 16.53 42.9524 16.9014 43.3111C17.0276 43.4324 17.2029 43.4523 17.3677 43.4711C17.7996 43.5213 20.3668 43.5182 20.5952 43.3571C20.7048 43.2797 20.735 43.239 20.759 43.103C20.8112 42.8154 20.8101 41.2979 20.7559 41.0145C20.734 40.8995 20.5754 40.6454 20.4982 40.6454H17.0558V40.6464ZM23.3148 40.6464C23.2522 40.7154 23.1458 40.7761 23.1082 40.8577C22.9977 41.094 23.0029 43.1616 23.1562 43.3164C23.2626 43.4241 23.4765 43.4554 23.6267 43.4722C24.0846 43.5245 26.3692 43.537 26.7113 43.423C26.7979 43.3937 26.9231 43.3394 26.9679 43.262C27.187 42.8771 27.283 40.6464 26.6539 40.6464H23.3158H23.3148ZM29.7021 40.6705C29.6134 40.6903 29.4757 40.7395 29.4152 40.8012C29.2702 40.9476 29.2692 42.6805 29.3078 43.0057C29.3516 43.3833 29.531 43.4314 29.8857 43.4722C30.329 43.5234 32.7575 43.5245 33.0444 43.3927C33.567 43.1532 33.5242 40.9152 33.0694 40.6987C32.8691 40.6035 30.0234 40.5993 29.7021 40.6705ZM35.9611 40.6705C35.8724 40.6903 35.7347 40.7395 35.6742 40.8012C35.5292 40.9476 35.5282 42.6805 35.5668 43.0057C35.6106 43.3833 35.79 43.4314 36.1447 43.4722C36.588 43.5234 39.0165 43.5245 39.3034 43.3927C39.826 43.1532 39.7832 40.9152 39.3284 40.6987C39.1281 40.6035 36.2824 40.5993 35.9611 40.6705ZM41.9603 43.3415C42.0751 43.4565 42.3432 43.4617 42.5048 43.4753C42.9159 43.5098 45.3652 43.5245 45.5874 43.4188C46.0026 43.2212 45.9974 41.3074 45.8451 40.9633C45.8127 40.8901 45.6573 40.7342 45.5843 40.7018C45.3183 40.5837 42.2274 40.6025 42.0052 40.7437C41.7413 40.911 41.7559 43.1365 41.9603 43.3415ZM48.2193 40.7761C48.0357 40.9601 48.0295 42.8918 48.1452 43.1543C48.1776 43.2275 48.333 43.3833 48.406 43.4157C48.6762 43.5349 51.5314 43.5119 51.8193 43.3906C51.9111 43.3519 52.0665 43.2431 52.1072 43.1563C52.1927 42.9765 52.2032 41.3722 52.1562 41.1191C52.127 40.9633 51.982 40.7614 51.8433 40.7008C51.5835 40.5857 49.1988 40.6056 48.7638 40.6422C48.6021 40.6558 48.3341 40.66 48.2193 40.7761Z" fill="black"/>
<path d="M20.8633 12.8797C20.9061 13.0115 22.4677 13.4298 22.7441 13.5124L24.9942 10.4294C26.8469 11.5599 28.5535 12.9937 30.3509 14.2382L28.0737 17.3924L29.1231 18.9799C29.2681 19.0667 30.1047 18.7781 30.3321 18.7122C30.9194 18.5417 32.3757 17.8913 32.8295 17.863C32.9306 17.8567 32.9578 17.8609 33.0172 17.9519L33.7996 20.4619L26.2888 23.3912V19.3125L22.3738 20.8791C16.144 15.8143 7.72986 22.2617 10.9574 29.6106L11.0096 40.8081C10.9866 41.0622 10.1135 42.3339 9.9059 42.2796L4.70468 38.5439L6.97043 35.2601L5.84486 33.684L2.03835 34.7926L0 28.5156L3.74079 27.3496V25.4441L0.0156475 24.073L1.98306 17.8473L5.83547 19.1013C6.08687 18.524 6.5104 17.9885 6.94122 17.5357C7.04032 17.3223 4.86741 14.7172 4.70259 14.2529L9.96745 10.4189L12.3041 13.5114L14.1871 12.9331V8.95898H20.7068C20.7183 8.95898 20.8633 9.10435 20.8633 9.11586V12.8808V12.8797Z" fill="black"/>
<path d="M49.5503 12.6187H48.0899V10.1611C48.0899 10.1213 47.8906 9.84418 47.8312 9.79293C47.3597 9.38507 45.2556 9.65384 44.4931 9.58377C40.3611 9.20414 40.3955 3.63416 44.1008 3.12903C44.7132 3.04536 45.9118 3.32146 45.8878 2.31539C45.8742 1.73915 45.4006 1.56973 44.9124 1.52998C43.0097 1.37102 40.9087 1.67431 38.9841 1.51221C38.2706 1.10225 38.3686 0.261416 39.1771 0.0763079C41.1268 0.225859 43.4186 -0.145404 45.3255 0.070033C47.2324 0.28547 48.0648 2.74208 46.5742 4.04202C45.5174 4.96338 44.4461 4.20098 43.4478 4.98639C42.4484 5.77284 42.7562 7.72014 43.9913 7.99728C45.5519 8.34762 47.9605 7.36561 49.132 9.01381C49.2561 9.18846 49.5503 9.78143 49.5503 9.95399V12.6208V12.6187Z" fill="black"/>
<path d="M35.334 0.091892C35.6053 0.031235 37.0292 0.0197311 37.2722 0.091892C37.8303 0.255038 37.9659 1.11888 37.4037 1.43471C37.1304 1.58845 35.5896 1.59158 35.2548 1.487C34.5892 1.27993 34.6309 0.248764 35.3351 0.0929378L35.334 0.091892Z" fill="black"/>
</g>
<defs>
<clipPath id="clip0_2069_755">
<rect width="58" height="51" fill="white"/>
</clipPath>
</defs>
</svg>
