<svg width="60" height="55" viewBox="0 0 60 55" fill="none" xmlns="http://www.w3.org/2000/svg">
<g clip-path="url(#clip0_2069_770)">
<path d="M60 54.2979C59.7 54.6631 59.4365 55.036 58.8913 54.9974H1.1113C0.537391 55.0206 0.0417391 54.5705 0 54.0124L0.0313043 39.2497L0.414783 38.5862L6.33391 34.6923L6.3287 23.8543C6.2687 23.5791 6.75391 22.8744 6.97565 22.8744H11.4287L11.6035 22.7021V18.3119C11.6035 18.1704 12.2296 17.5995 12.4774 17.6715L21.0835 17.6638C21.5557 13.7005 24.433 10.2439 28.4791 9.47229V0H37.093C37.3565 0 37.8 0.470657 37.847 0.756137C38.1209 2.40215 37.6513 4.69628 37.86 6.41688C37.9148 6.74866 37.2209 7.27847 36.9757 7.27847H30.5896V9.35913C35.0896 9.70891 38.4183 13.343 38.9217 17.6638L47.5278 17.6715C47.7757 17.5995 48.4017 18.1704 48.4017 18.3119V22.7021L48.5765 22.8744H53.0296C53.2513 22.8744 53.7365 23.5791 53.6765 23.8543L53.6713 34.6923L59.5904 38.5862L60 39.1648V54.3004V54.2979ZM35.7444 2.08066H30.5896V5.20037H35.7444V2.08066ZM36.6809 17.6766C36.4096 14.1326 33.24 11.2289 29.5852 11.4321C26.3374 11.6147 23.507 14.5106 23.3217 17.6766H36.6809ZM46.2887 19.7547H13.7139V22.8744H46.2913V19.7547H46.2887ZM51.5635 24.9551H8.43913V52.9142H12.6574V38.0692C12.6574 37.7066 13.4504 37.3722 13.7817 37.3285C14.64 37.2128 16.7557 37.2333 17.6426 37.3131C18.1539 37.3594 18.9861 37.7143 18.9861 38.3007V52.9142H22.1504V38.0692C22.1504 37.6628 22.92 37.3748 23.2774 37.3311C24.1826 37.223 26.2122 37.2282 27.1304 37.3182C27.7304 37.3774 28.4791 37.7143 28.4791 38.4138V52.9116H31.5261V38.4138C31.5261 37.7143 32.2748 37.3774 32.8748 37.3182C33.793 37.2256 35.82 37.2205 36.7278 37.3311C37.0852 37.3748 37.8548 37.6628 37.8548 38.0692V52.9142H41.0191V38.3007C41.0191 37.7143 41.8513 37.3619 42.3626 37.3131C43.2522 37.2308 45.3652 37.2128 46.2235 37.3285C46.5548 37.3722 47.3478 37.7066 47.3478 38.0692V52.9142H51.5661V24.9551H51.5635ZM6.3313 37.3156C6.13304 37.2771 6.02348 37.4185 5.87478 37.5008C4.60696 38.1952 3.3287 39.2317 2.11304 40.0316V52.9142H6.3313V37.3182V37.3156ZM57.8896 52.9116V40.029C56.6739 39.2291 55.3957 38.1927 54.1278 37.4982C53.9765 37.4159 53.8696 37.2745 53.6713 37.3131V52.909H57.8896V52.9116ZM16.8757 52.9116V39.5686L16.7009 39.3963H14.7678V52.9142H16.8783L16.8757 52.9116ZM26.3687 52.9116V39.5686L26.1939 39.3963H24.2609V52.9142H26.3713L26.3687 52.9116ZM35.7444 39.3963H33.8113L33.6365 39.5686V52.9116H35.747V39.3937L35.7444 39.3963ZM45.2348 39.3963H43.3017L43.127 39.5686V52.9116H45.2374V39.3937L45.2348 39.3963Z" fill="black"/>
<path d="M12.9339 33.9263C12.7774 33.772 12.6809 33.5534 12.6522 33.3373C12.5348 32.3832 12.5609 30.0376 12.6522 29.0526C12.7409 28.0932 13.3696 28.0187 14.2357 27.9544C14.9843 27.9003 17.7522 27.8618 18.3104 28.1061C18.5191 28.1961 18.7461 28.4199 18.8374 28.6256C19.0774 29.1606 19.0565 32.2597 18.9835 32.9824C18.9365 33.4428 18.7957 33.9932 18.287 34.1449C17.8096 34.2864 14.1652 34.2786 13.5313 34.2015C13.3096 34.1758 13.0878 34.078 12.9339 33.9237V33.9263ZM16.8757 32.1183V30.2125L16.7009 30.0402H14.7678V32.1208H16.8783L16.8757 32.1183Z" fill="black"/>
<path d="M47.0687 33.9263C46.9122 34.0806 46.6904 34.1757 46.4713 34.204C45.8374 34.2812 42.193 34.2889 41.7156 34.1474C41.207 33.9957 41.0661 33.4453 41.0191 32.9849C40.9461 32.2622 40.9252 29.1631 41.1652 28.6281C41.2565 28.4224 41.4835 28.1986 41.6922 28.1086C42.2322 27.872 45.2713 27.8926 45.9939 27.9646C46.4583 28.0109 47.1365 28.1575 47.2904 28.6513C47.4339 29.1142 47.4261 32.72 47.3478 33.3399C47.3217 33.5585 47.2226 33.7771 47.0661 33.9288L47.0687 33.9263ZM45.2348 30.0375H43.3017L43.127 30.2099V32.1156H45.2374V30.035L45.2348 30.0375Z" fill="black"/>
<path d="M23.293 27.9878C24.0365 27.8824 27.3104 27.867 27.8843 28.137C28.2939 28.3299 28.4322 28.8726 28.4765 29.2866C28.5574 30.0762 28.5756 32.9927 28.3017 33.6177C28.1322 34.0061 27.9078 34.1501 27.4852 34.199C26.5356 34.307 23.9765 34.3096 23.027 34.199C22.4896 34.1372 22.2104 33.8698 22.1478 33.3322C22.0461 32.4758 22.0278 29.6493 22.1583 28.8314C22.2522 28.245 22.7687 28.0624 23.2956 27.9878H23.293ZM26.3687 32.1183V30.2125L26.1939 30.0402H24.2609V32.1209H26.3713L26.3687 32.1183Z" fill="black"/>
<path d="M32.7887 27.9904C33.5922 27.885 36.7278 27.849 37.3513 28.1627C37.6904 28.3325 37.8131 28.5691 37.8548 28.9369C37.9644 29.8705 37.967 32.3986 37.8548 33.3322C37.7922 33.862 37.5209 34.1372 36.9757 34.199C36.0287 34.307 33.4644 34.3096 32.5174 34.199C31.7635 34.1115 31.5939 33.5406 31.5261 32.8667C31.4531 32.1389 31.4348 29.068 31.7113 28.5459C31.9331 28.1293 32.3583 28.0496 32.7913 27.993L32.7887 27.9904ZM35.7444 30.0376H33.8113L33.6365 30.21V32.1157H35.747V30.0351L35.7444 30.0376Z" fill="black"/>
</g>
<defs>
<clipPath id="clip0_2069_770">
<rect width="60" height="55" fill="white"/>
</clipPath>
</defs>
</svg>
