<svg width="66" height="56" viewBox="0 0 66 56" fill="none" xmlns="http://www.w3.org/2000/svg">
<g clip-path="url(#clip0_2069_786)">
<path d="M16.7261 19.9707V41.6387H22.9109V24.67L27.3681 24.7206C27.6571 24.724 28.1176 24.535 28.3765 24.7678V41.6387C29.4891 41.696 30.6118 41.7264 31.7311 41.7061C32.4067 41.696 33.1328 41.5543 33.8151 41.6353C33.9092 41.6454 33.9832 41.642 34.0403 41.7365V52.1471H34.7798L37.2874 34.0314L47.3076 34.0112L49.758 52.0155L52.205 34.0078L62.2487 33.9977L64.7261 52.1437L64.8 52.2044C65.1664 52.1774 65.674 52.0256 65.9966 52.2415V55.9625L-0.00335693 55.9962V52.1471H1.55967V48.3958L7.22353 46.1456V41.7399L7.32101 41.642H11.3244V19.9707H16.7261ZM12.3025 47.1881H8.98152V50.5177H12.3025V47.1881ZM15.5563 47.1881V50.5177H18.8773V47.1881H15.5563ZM22.1311 47.1881V50.5177H25.4521V47.1881H22.1311ZM32.0235 47.1881H28.7025V50.5177H32.0235V47.1881Z" fill="black"/>
<path d="M43.8689 0C43.3008 3.15084 41.6168 7.41494 38.0806 8.06265C34.1311 8.78795 28.958 7.79952 24.9008 7.56675C20.9546 7.34072 18.6353 7.74554 15.1899 9.64819L12.6285 11.2236C14.1277 9.25012 15.8722 7.24627 17.9966 5.93735C19.7008 4.88819 21.2437 4.74651 23.2067 4.56771C26.5378 4.2641 29.9058 4.34843 33.2302 3.98072C37.0554 3.55566 40.4874 1.68675 43.8722 0L43.8689 0Z" fill="black"/>
<path d="M50.3126 8.81152C49.9597 10.9672 48.7428 14.0269 46.437 14.6814C45.1731 15.0424 43.0924 14.9918 41.7513 14.9479C38.1983 14.8366 34.6319 14.0877 31.0891 14.6308C29.6168 14.8568 28.1613 15.265 26.7496 15.7306C27.5361 14.9985 28.558 14.3575 29.5059 13.8279C33.2773 11.7195 37.1294 12.1074 41.2975 11.8139C44.2185 11.6082 45.9731 11.0684 48.558 9.75948C49.1496 9.46261 49.7143 9.09152 50.3126 8.81152Z" fill="black"/>
<path d="M62.2891 27.9355H52.2017V33.2218H62.2891V27.9355Z" fill="black"/>
<path d="M47.3176 27.9355H37.2302V33.2218H47.3176V27.9355Z" fill="black"/>
<path d="M28.3799 18.666H22.9109V23.9523H28.3799V18.666Z" fill="black"/>
<path d="M16.726 13.9658H11.3243V19.188H16.726V13.9658Z" fill="black"/>
<path d="M47.9059 25.8447H36.6454V27.1536H47.9059V25.8447Z" fill="black"/>
<path d="M62.874 25.8447H51.6135V27.1536H62.874V25.8447Z" fill="black"/>
<path d="M17.1193 12.0098H10.9344V13.1837H17.1193V12.0098Z" fill="black"/>
<path d="M28.7697 16.7734H22.5143V17.9508H28.7697V16.7734Z" fill="black"/>
</g>
<defs>
<clipPath id="clip0_2069_786">
<rect width="66" height="56" fill="white"/>
</clipPath>
</defs>
</svg>
