<svg width="61" height="60" viewBox="0 0 61 60" fill="none" xmlns="http://www.w3.org/2000/svg">
<path d="M56.4161 35.5381V38.4998C55.4865 38.537 54.5408 38.4494 53.6112 38.4945C53.0847 38.5184 52.1443 38.5636 51.6715 38.6353C50.5995 38.8 50.2744 41.1641 49.8741 42.1389C49.404 43.2864 47.8511 45.2176 48.6034 46.2907C48.9392 46.7688 51.7655 49.3587 51.7199 49.6217L45.9355 55.338C45.812 55.3141 45.7206 55.2344 45.6185 55.168C44.6782 54.5677 43.5659 52.9766 42.5477 52.2779C41.4542 51.5289 39.9014 52.8597 38.7945 53.3298C37.7709 53.7655 36.3765 54.0125 35.4872 54.4375C35.1541 54.5969 34.8639 54.9449 34.8075 55.3088L34.6705 60.0024H26.3365L26.1995 55.3088C26.1431 54.9449 25.8503 54.5969 25.5198 54.4375C24.6305 54.0125 23.2362 53.7628 22.2126 53.3298C21.1057 52.8597 19.5528 51.5289 18.4593 52.2779C17.4653 52.958 16.3235 54.5703 15.3885 55.168C15.2864 55.2317 15.1951 55.3141 15.0715 55.338L9.28718 49.6217C9.24151 49.3587 12.0678 46.7715 12.4037 46.2907C13.1398 45.2415 11.7669 43.5786 11.2995 42.4869C10.9072 41.5705 10.5687 39.9263 10.1711 39.225C10.0932 39.0895 9.92391 38.9116 9.79226 38.8266C9.45106 38.6114 8.04058 38.5184 7.52475 38.4945C6.55219 38.4467 5.56082 38.5397 4.58826 38.4998V35.5381H13.7685C13.9619 35.5381 14.0855 37.1345 14.1554 37.4719C17.9059 55.6541 44.251 54.9369 47.0263 36.6165C47.0612 36.3881 46.9672 35.5381 47.2359 35.5381H56.4161Z" fill="black"/>
<path d="M1.81295 29.3864L58.9576 29.3545C61.8081 29.915 61.6308 33.8675 58.6997 34.1278L2.17564 34.1225C-0.524425 33.7214 -0.787715 30.2018 1.81563 29.3864H1.81295Z" fill="black"/>
<path d="M29.719 27.9416H18.0644C18.051 27.9416 17.8683 27.761 17.8683 27.7477V8.69159C18.6662 7.95846 23.3624 1.89152 23.8111 1.81184C23.9804 1.78262 24.0852 1.95793 24.1872 2.05621L29.719 8.56144V27.939V27.9416ZM27.0834 10.203C26.6858 9.80989 21.8338 10.1685 20.931 10.0463C20.1788 10.2827 20.1788 11.2204 20.931 11.4568C22.7042 11.3133 24.7998 11.6587 26.53 11.4621C27.2796 11.3771 27.5428 10.6572 27.0834 10.203ZM21.2212 14.7081C20.168 14.894 20.0471 16.0548 21.0681 16.2142C21.909 16.3443 25.6891 16.3496 26.5219 16.2142C27.5348 16.0495 27.5912 14.8515 26.3876 14.6895C25.4688 14.5646 22.1024 14.554 21.2212 14.7081ZM20.9552 19.4708C20.1627 19.6541 20.1842 20.6316 20.931 20.8573C21.8767 20.7112 26.5972 21.107 27.0619 20.7431C27.4891 20.4084 27.2205 19.5319 26.6563 19.4469L20.9579 19.4708H20.9552ZM27.0834 25.4633C27.3628 25.1871 27.3548 24.2441 26.7852 24.2096H20.931C20.0579 24.5761 20.2003 25.5111 21.1863 25.6254C22.406 25.7661 25.1491 25.7316 26.4037 25.628C26.6052 25.6121 26.941 25.6068 27.0834 25.4633Z" fill="black"/>
<path d="M56.416 0V27.7475C56.416 27.7608 56.2334 27.9414 56.2199 27.9414H44.7587C44.7453 27.9414 44.5626 27.7608 44.5626 27.7475V0H56.4134H56.416ZM45.957 1.3122C45.8065 1.35736 45.6964 1.49548 45.6212 1.62564C45.4062 2.00283 45.4089 4.41208 45.4734 4.96193C45.5298 5.43474 45.683 5.73756 46.1854 5.80131C46.7979 5.881 48.8424 5.88366 49.4523 5.80131C50.4437 5.6685 50.2475 3.07863 50.1616 2.25518C50.0971 1.63361 49.9762 1.36267 49.318 1.28829C48.8397 1.23251 46.3089 1.21126 45.9543 1.31486L45.957 1.3122ZM51.4323 1.31751C51.1771 1.3733 50.9971 1.47423 50.9461 1.73986C50.8816 2.08783 50.9111 5.37631 51.0105 5.541C51.118 5.71897 51.4592 5.7774 51.6607 5.79865C52.1497 5.85444 54.9357 5.85444 55.1883 5.67647C55.2823 5.61272 55.4112 5.40021 55.4462 5.28599C55.5805 4.84505 55.5698 2.65893 55.508 2.12237C55.4515 1.64955 55.2984 1.34673 54.796 1.28298C54.2372 1.21126 51.9428 1.20861 51.4323 1.31751ZM46.0913 7.36586C45.6534 7.4668 45.5244 7.76164 45.4761 8.17337C45.4009 8.80822 45.4009 10.3754 45.4761 11.0103C45.5325 11.4831 45.6856 11.7859 46.188 11.8497C46.8006 11.9293 48.8451 11.932 49.455 11.8497C50.4464 11.7168 50.2502 9.12697 50.1643 8.30352C50.0998 7.68727 49.9816 7.41102 49.3207 7.33664C48.7484 7.27023 46.5964 7.25164 46.0913 7.36586ZM51.4323 7.36851C51.1771 7.4243 50.9971 7.52523 50.9461 7.79086C50.8493 8.30618 50.8655 10.7154 50.9407 11.2732C50.9971 11.6956 51.0965 11.7965 51.5264 11.8523C52.1497 11.932 54.1727 11.9347 54.7933 11.8523C55.293 11.7859 55.4489 11.4937 55.5053 11.0129C55.5805 10.3781 55.5805 8.81087 55.5053 8.17602C55.4381 7.61024 55.2339 7.4057 54.659 7.33929C54.084 7.27289 51.967 7.25429 51.4297 7.37117L51.4323 7.36851ZM49.8714 13.5523C49.6216 13.3186 46.9591 13.3372 46.4486 13.385C45.82 13.4408 45.554 13.555 45.4761 14.2244C45.4009 14.8566 45.4009 16.4291 45.4761 17.0613C45.5029 17.303 45.5889 17.6324 45.7958 17.7758C46.0779 17.9724 49.6001 17.9724 49.8553 17.7758C50.3281 17.4172 50.3174 13.9614 49.8741 13.5497L49.8714 13.5523ZM51.1073 13.5497C50.8655 13.7887 50.8574 17.4571 51.0643 17.7174C51.1905 17.8741 51.3437 17.8794 51.5264 17.9033C52.1497 17.983 54.1727 17.9857 54.7933 17.9033C55.293 17.8369 55.4489 17.5447 55.5053 17.0639C55.5805 16.4317 55.5805 14.8566 55.5053 14.227C55.4623 13.8711 55.3629 13.5683 54.9894 13.4487C54.573 13.3159 51.3356 13.3239 51.1046 13.5523L51.1073 13.5497ZM46.0913 19.4705C45.6534 19.5715 45.5244 19.8663 45.4761 20.278C45.4009 20.9129 45.4009 22.4801 45.4761 23.1149C45.5298 23.5798 45.691 23.8507 46.1504 23.9915C46.7092 24.1642 49.4335 24.1854 49.8472 23.8268C50.261 23.4682 50.2422 21.0324 50.1696 20.4055C50.0998 19.8132 49.7962 19.5077 49.1917 19.4386C48.6382 19.3749 46.5803 19.359 46.0913 19.4679V19.4705ZM51.5613 19.4705C51.2792 19.5316 51.0079 19.7308 50.9487 20.0257C50.8547 20.5065 50.8682 22.8493 50.9407 23.3779C51.0723 24.3448 53.3264 24.1482 54.1432 24.0845C54.745 24.0393 55.4166 23.9835 55.5107 23.2477C55.5913 22.6288 55.5805 20.9076 55.5053 20.278C55.4381 19.7122 55.2339 19.5077 54.659 19.4413C54.084 19.3749 52.0718 19.359 51.5586 19.4705H51.5613Z" fill="black"/>
<path d="M31.2826 27.9409V14.293H42.9372C42.9506 14.293 43.1333 14.4736 43.1333 14.4869V27.7497C43.1333 27.763 42.9506 27.9436 42.9372 27.9436H31.2826V27.9409Z" fill="black"/>
<path d="M16.4363 19.5713V27.7473C16.4363 27.7606 16.2536 27.9412 16.2402 27.9412H4.77901C4.76558 27.9412 4.58289 27.7606 4.58289 27.7473V19.5713H16.4336H16.4363Z" fill="black"/>
<path d="M48.6033 20.9873H47.0397V22.5333H48.6033V20.9873Z" fill="black"/>
<path d="M53.9417 20.9873H52.3781V22.5333H53.9417V20.9873Z" fill="black"/>
<path d="M48.6033 2.7041H47.0397V4.38021H48.6033V2.7041Z" fill="black"/>
<path d="M48.6033 8.75488H47.0397V10.431H48.6033V8.75488Z" fill="black"/>
<path d="M48.6033 14.8057H47.0397V16.4818H48.6033V14.8057Z" fill="black"/>
<path d="M53.9417 2.7041H52.3781V4.38021H53.9417V2.7041Z" fill="black"/>
<path d="M53.9417 8.75488H52.3781V10.431H53.9417V8.75488Z" fill="black"/>
<path d="M53.9417 14.8057H52.3781V16.4818H53.9417V14.8057Z" fill="black"/>
</svg>
