<svg width="96" height="96" viewBox="0 0 96 96" fill="none" xmlns="http://www.w3.org/2000/svg">
<g clip-path="url(#clip0_488_2157)">
<path d="M96 86.9827V90.354C95.04 93.3499 92.8805 95.3116 89.8013 95.9743C89.2035 95.918 88.5011 96.0526 87.9235 95.9743C86.7421 95.8156 85.0979 94.9482 84.164 94.1972C78.2028 88.0449 71.7827 82.2399 66.0991 75.8727L65.6624 72.5616L54.6737 60.277L54.1766 60.3332C34.4694 75.5213 5.49838 64.6503 0.678251 40.336C-4.93081 12.038 25.3625 -9.80444 50.4855 4.52026C66.8116 13.8291 71.8471 33.9909 62.9756 50.3898C62.6918 50.9159 61.3193 52.6568 61.5245 53.0684L72.6984 65.5418C73.2136 66.0378 73.9965 65.7225 74.6606 65.833C75.8521 66.0277 76.5042 66.4715 77.4058 67.2164C82.0367 71.0275 87.201 76.9992 91.5784 81.3685C92.2747 82.0632 93.1442 82.6254 93.8405 83.4226C94.7864 84.5069 95.4667 85.6454 95.998 86.9847L96 86.9827ZM33.2297 3.66889C9.19549 4.07249 -4.94288 31.3264 8.80706 51.1488C21.4803 69.4171 49.1915 68.2003 60.158 48.8899C71.7344 28.5032 56.5917 3.27734 33.2297 3.66889ZM59.2926 55.7029L56.9359 58.2248L67.357 69.7424L69.8888 67.4032L59.2926 55.7008V55.7029ZM72.8413 69.0356C72.5857 69.1099 69.1603 72.5054 69.0496 72.7463C68.8383 73.2122 68.8725 74.4611 69.1301 74.9069L86.2491 91.9282C90.24 94.902 95.1527 89.9906 91.8622 86.1413L75.0571 69.3689C74.5741 68.9212 73.435 68.8589 72.8413 69.0336V69.0356Z" fill="black"/>
<path d="M72.1482 84.9203V88.1049H15.5203C13.3467 88.1049 10.4647 86.1452 9.37988 84.2999C9.14441 83.9003 8.28906 81.9526 8.28906 81.6414V64.124H11.2013C11.4689 64.2887 11.4609 64.4975 11.4931 64.7706C12.0908 69.8447 10.9899 76.0291 11.5273 81.2217C11.7447 82.8481 13.9062 84.9203 15.5203 84.9203H72.1482Z" fill="black"/>
<path d="M88.1101 68.9973H84.9161V16.0738C84.9161 15.3911 84.095 13.6101 83.5999 13.078C83.2215 12.6703 81.549 11.6724 81.066 11.6724H62.5664V8.48779H81.2552C84.6202 8.48779 88.1101 12.8491 88.1101 16.0758V68.9993V68.9973Z" fill="black"/>
<path d="M64.0686 76.8643H14.6719V80.0489H64.0686V76.8643Z" fill="black"/>
<path d="M57.6827 70.4951H14.6719V73.6797H57.6827V70.4951Z" fill="black"/>
<path d="M81.7241 19.5392H67.2617V16.6357L67.9098 16.3445C72.0617 16.726 77.0268 15.8706 81.0761 16.3445C81.3498 16.3766 81.5591 16.3686 81.7241 16.6357V19.5392Z" fill="black"/>
<path d="M81.7255 24.4106H70.457V27.5952H81.7255V24.4106Z" fill="black"/>
<path d="M81.7255 40.3335H70.457V43.5181H81.7255V40.3335Z" fill="black"/>
<path d="M81.7255 35.4622H70.457V32.5587C70.6221 32.2917 70.8314 32.2997 71.1051 32.2676C73.1499 32.0286 79.0346 32.0286 81.0794 32.2676C81.3531 32.2997 81.5624 32.2917 81.7275 32.5587V35.4622H81.7255Z" fill="black"/>
<path d="M81.7255 51.3875H70.457V48.484C70.6221 48.217 70.8314 48.225 71.1051 48.1929C73.1499 47.9539 79.0346 47.9539 81.0794 48.1929C81.3531 48.225 81.5624 48.217 81.7275 48.484V51.3875H81.7255Z" fill="black"/>
<path d="M81.7283 56.2568H72.1484V59.4414H81.7283V56.2568Z" fill="black"/>
<path d="M33.2312 6.8529C54.2405 6.47139 67.767 29.107 57.3419 47.3914C47.9472 63.8666 24.5268 65.7259 12.6123 50.9133C-1.44956 33.4261 10.8131 7.25851 33.2312 6.8529ZM33.4224 10.0335C13.6347 10.3226 2.77686 33.1811 14.9751 48.7447C26.1187 62.959 48.8589 59.8667 55.8405 43.2711C62.5323 27.3661 50.6782 9.7825 33.4204 10.0335H33.4224Z" fill="black"/>
<path d="M15.6786 31.9683C16.2582 31.3579 17.3772 30.4905 18.0735 29.9544C29.1347 21.4768 44.7342 23.3322 53.5271 34.0205C43.8547 46.3914 23.916 46.2348 14.3281 33.904C14.3623 33.5105 15.3525 32.3097 15.6786 31.9663V31.9683ZM31.3888 27.9705C27.4179 28.338 23.433 29.9484 20.2451 32.3097C19.909 32.5587 18.3855 33.6912 18.4438 34.0305C21.7666 37.1689 26.2426 39.3917 30.8252 39.7692C30.5153 39.3857 30.0061 39.205 29.6016 38.8375C26.4096 35.9361 26.5485 31.6772 29.7988 28.9082L31.3908 27.9685L31.3888 27.9705ZM36.0861 39.956C40.9827 39.4219 45.7103 37.3035 49.2303 33.8699C45.6378 30.6049 41.1558 28.4424 36.2753 27.9705L37.8713 28.9062C41.1477 31.6451 40.9988 36.5505 37.5734 39.1006L36.0881 39.958L36.0861 39.956ZM33.027 30.8218C28.5128 31.7515 31.0124 39.2672 35.4662 36.6248C38.461 34.8477 36.5953 30.0869 33.027 30.8218Z" fill="black"/>
<path d="M44.9142 18.0396H22.5625V21.2242H44.9142V18.0396Z" fill="black"/>
<path d="M44.9142 46.7026H22.5625V49.8872H44.9142V46.7026Z" fill="black"/>
</g>
<defs>
<clipPath id="clip0_488_2157">
<rect width="96" height="96" fill="white"/>
</clipPath>
</defs>
</svg>
