<svg width="100" height="96" viewBox="0 0 100 96" fill="none" xmlns="http://www.w3.org/2000/svg">
<g clip-path="url(#clip0_489_2180)">
<path d="M61.2004 84.8753C63.1776 86.5719 68.91 87.9535 69.6068 90.5675C70.3866 93.4882 68.2352 95.5579 65.4617 95.7651C55.4266 96.514 44.4678 95.1793 34.3359 95.7651C31.9053 95.6297 30.1162 93.7922 30.2876 91.2942C30.5144 87.9784 36.6339 86.7515 38.8018 84.878V78.4535L38.4921 78.144H3.23232C1.74461 78.144 -0.160648 75.378 0.0107978 73.9025V4.45708C0.243079 1.75465 1.74185 0.210005 4.46839 0H95.7385C98.2687 0.229348 99.8366 1.94531 99.9887 4.45708V73.8969C100.16 75.3725 98.2521 78.1385 96.7672 78.1385H61.5101L61.2004 78.448V84.8725V84.8753ZM97.4944 63.6316V3.63641C97.4944 3.16113 96.3081 2.299 95.7412 2.4869H4.25823C3.69412 2.299 2.50506 3.16113 2.50506 3.63641V63.6316H97.4917H97.4944ZM97.4944 66.1185H2.50783V74.5132C2.50783 74.9718 3.85727 76.0992 4.46839 75.8699H95.5339C96.145 76.0992 97.4944 74.9718 97.4944 74.5132V66.1185ZM41.3929 78.1385L41.0832 78.448V86.1159C41.0832 86.2486 40.6988 86.7017 40.5356 86.8123C38.5364 88.0391 36.0615 88.9151 34.1009 90.1226C32.2869 91.239 31.9827 92.2973 34.1258 93.2782L66.2387 93.223C66.8194 92.9107 67.5163 92.0624 67.3365 91.3937C67.248 91.145 67.0849 90.9626 66.9051 90.7775C65.3372 89.1804 60.6916 88.0612 58.9218 86.3232V78.448L58.6121 78.1385H41.3984H41.3929Z" fill="black"/>
<path d="M89.6118 57.8287H94.4842C94.5284 57.8287 95.0621 58.3565 95.1091 58.4559C95.4686 59.2269 94.7469 60.2658 93.8731 60.1194L28.9282 59.9204C28.1982 59.354 28.6241 57.8287 29.155 57.8287H34.0274C34.326 53.5208 33.6319 48.6962 34.0163 44.4519C34.0771 43.7721 34.2182 43.1504 34.9095 42.8575C35.645 42.5453 42.655 42.5895 43.8855 42.6945C44.4164 42.7387 45.6415 42.9487 45.6415 43.634V57.8314H48.7524V33.4819C48.7524 33.0757 49.4962 32.6281 49.9055 32.5617C51.6227 32.2882 56.9735 32.3683 58.8207 32.5396C59.4871 32.6004 60.3664 32.8491 60.3664 33.6891V57.8342C60.9997 57.7071 63.2313 58.1547 63.4497 57.4943L63.4829 39.9119C63.6295 39.1493 64.3844 39.0222 65.0231 38.9641C67.028 38.7845 71.5851 38.7403 73.5401 38.9697C74.0462 39.0277 74.4665 39.1714 74.779 39.5969L74.9117 57.4943C75.1274 58.1547 77.3617 57.7071 77.995 57.8342V28.5109C77.995 27.8283 79.1536 27.4139 79.7481 27.3613C81.7751 27.179 86.0446 27.1624 88.0522 27.3724C88.5444 27.4249 89.609 27.704 89.609 28.3036V57.837L89.6118 57.8287ZM87.1231 29.851H80.4865V57.8287H87.1231V29.851ZM57.8805 35.0321H51.0365V57.5192L51.3462 57.8287H57.8777V35.0321H57.8805ZM72.6055 41.4566H65.7615V57.8287H72.293L72.6027 57.5192V41.4593L72.6055 41.4566ZM36.5189 57.8287H43.0504L43.3601 57.5192V45.4992L43.0504 45.1897H36.5189V57.8314V57.8287Z" fill="black"/>
<path d="M31.9849 24.7005C31.9185 25.057 31.5231 25.687 31.5811 25.9909C31.7526 26.8779 33.9593 27.262 33.6025 29.5279C33.4753 30.3375 30.5774 33.2278 29.7671 33.3605C29.3579 33.4268 28.7772 33.4268 28.3762 33.3218C27.6047 33.1228 26.3244 31.3765 26.0479 31.3599C25.8598 31.3488 25.2791 31.7909 24.9279 31.7384C24.9362 34.3359 25.1381 35.9938 22.0991 36.2701C18.3273 36.6128 16.823 35.7562 17.2046 31.7384C15.4984 30.6718 15.2329 32.805 13.9028 33.2582C13.4272 33.4212 12.8576 33.4378 12.3681 33.3577C11.5524 33.2251 8.65992 30.3292 8.53272 29.5251C8.176 27.2786 10.5735 26.679 10.5569 25.85C10.5514 25.5626 10.2112 25.0404 10.1532 24.6977C8.34468 24.6287 6.10758 25.1205 5.82276 22.7055C5.6928 21.6029 5.63473 18.5938 6.3371 17.8228C7.70314 16.3196 10.1836 18.3865 10.5652 15.8913C8.95303 14.1256 7.57594 13.2221 9.35953 10.8927C10.1642 9.84263 11.9561 8.06864 13.3498 8.3422C14.9592 8.65721 15.5924 11.4121 17.2073 9.82329C17.2156 7.94153 17.0608 5.86912 19.414 5.60385C20.2574 5.50713 22.2816 5.50437 23.0973 5.65358C25.6856 6.12057 24.5048 9.54697 25.116 10.0609C26.6424 11.3458 27.4913 7.83653 29.7367 8.33944C30.6271 8.53839 33.2624 11.1552 33.5251 12.0201C34.222 14.3274 31.4263 14.938 31.5756 16.0184C31.8991 18.37 35.0432 16.1566 36.083 18.1682C36.4231 18.8286 36.4314 22.0533 36.3042 22.8961C35.9668 25.0984 33.6413 24.6314 31.9904 24.7005H31.9849ZM22.4171 7.88351H19.7182C20.0196 10.6163 19.4582 12.1886 16.6211 12.7661C14.6301 13.1723 14.2762 11.9344 12.9792 10.7904L11.0132 12.7551C13.1673 14.4849 13.6872 15.9936 12.1303 18.4335C11.2178 19.8621 9.56416 19.4393 8.1041 19.4891L8.19535 22.197C8.52165 22.6668 10.626 22.1252 11.5026 22.6226C12.1552 22.9928 13.123 25.4687 13.0733 26.2009C12.9765 27.5936 11.5303 27.9805 11.0989 28.8177C10.8389 29.3234 12.4373 30.4508 12.7995 30.8735C13.3553 30.9703 14.4448 28.5276 16.4054 28.8978C16.7234 28.9586 18.4711 29.6964 18.7559 29.8788C19.9422 30.6276 19.7127 32.5729 19.7154 33.7915H22.4143C22.442 32.6862 22.218 31.2134 22.9369 30.2712C23.3296 29.7572 25.7409 28.779 26.4018 28.8536C27.8591 29.0167 28.2241 30.3706 29.0509 30.7962C29.557 31.0559 30.6852 29.4588 31.1083 29.0968C31.2244 28.4364 28.7219 27.624 29.1367 25.488C29.2307 24.9962 30.0437 23.1034 30.3921 22.7966C31.2493 22.045 32.6319 22.5397 33.6855 22.3573C34.3381 22.1445 33.904 20.0942 34.0256 19.4835C32.4992 19.4062 30.9534 19.9422 29.9994 18.428C28.4509 15.9715 28.9514 14.4931 31.1166 12.7468L29.1505 10.7821C27.4498 12.8932 26.0644 13.5371 23.5812 11.9924C22.0382 11.0308 22.4447 9.45026 22.4115 7.87798L22.4171 7.88351Z" fill="black"/>
<path d="M59.1363 21.9568L65.4991 25.6705C66.6522 25.4329 67.2799 24.5929 68.5575 24.463C69.835 24.3331 70.637 24.7034 71.8343 25.0571L79.5577 17.834C76.9169 12.8823 83.5507 8.22076 87.3281 12.1335C90.4473 15.3637 87.6958 20.9123 83.1304 20.2629C82.3838 20.1579 81.5266 19.5113 80.9044 19.7959L73.4714 27.0107C75.7969 31.664 70.1641 36.3338 66.0743 32.9516C64.4373 31.5977 64.2078 29.7795 64.4207 27.7734L57.9804 23.8993C56.183 25.408 53.9818 25.7838 51.9272 24.4934L44.2841 31.3075C44.0546 31.8215 44.5412 32.236 44.6076 32.8466C45.263 38.8207 37.6862 40.6002 35.5016 35.7287C34.0499 32.4929 36.3727 28.8427 39.9011 28.8925C40.9298 28.9063 41.7677 29.4119 42.73 29.5501L50.163 22.6724C47.3093 13.913 60.6903 13.1227 59.1335 21.9568H59.1363ZM83.3378 13.1089C80.5891 13.5566 80.7716 18.0551 83.8743 17.9667C87.3391 17.8672 86.8414 12.5369 83.3378 13.1089ZM53.8823 18.0882C51.1502 18.6437 51.4986 23.529 55.24 22.7581C58.0191 22.1861 57.2918 17.3947 53.8823 18.0882ZM67.4901 27.4362C65.7038 29.1384 67.3436 32.4598 70.0231 31.5203C73.6566 30.2464 70.2996 24.7559 67.4901 27.4362ZM41.6322 31.9928C39.4145 29.6717 35.8832 33.1699 38.0899 35.4303C40.2772 37.6712 43.9329 34.3996 41.6322 31.9928Z" fill="black"/>
<path d="M20.2979 13.9545C29.4897 12.9846 30.6538 26.657 22.2972 27.7623C12.4861 29.0638 11.2749 14.905 20.2979 13.9545ZM19.8721 16.4276C18.8821 16.6293 17.4304 17.8147 16.9824 18.7211C14.8504 23.0455 19.673 27.3644 23.7296 24.6344C27.8139 21.8877 25.0348 15.3776 19.8721 16.4248V16.4276Z" fill="black"/>
</g>
<defs>
<clipPath id="clip0_489_2180">
<rect width="100" height="96" fill="white"/>
</clipPath>
</defs>
</svg>
