<svg width="103" height="103" viewBox="0 0 103 103" fill="none" xmlns="http://www.w3.org/2000/svg">
<g clip-path="url(#clip0_488_2149)">
<path d="M43.2976 4.78413H57.8228C58.5394 7.16326 57.5355 13.2838 59.7821 14.6073C60.9247 15.2788 63.9653 15.9115 65.5599 16.5765C66.9253 17.1479 70.4662 19.3236 71.5411 19.3269C73.5746 19.3333 78.1549 13.6679 79.2427 13.8552L89.0875 23.9334C88.2935 25.8897 83.6196 29.4955 83.6293 31.4162C84.6654 34.0956 86.0824 36.5554 87.1153 39.2444C87.5188 40.2968 88.1224 43.3732 88.7163 43.8607C90.1785 45.0615 96.079 44.5805 98.1706 45.1325V59.6591C96.1597 59.8883 89.604 59.5946 88.5259 61.1505C87.777 62.232 87.0411 65.8249 86.3858 67.4034C85.5111 69.5049 82.9547 72.5588 83.9714 74.6054L88.9842 80.3256C89.1521 80.5581 89.1715 80.7905 89.1004 81.0617C88.7647 82.34 80.7726 88.8576 79.6235 90.6686L78.8101 90.83C76.9541 89.6453 73.5714 85.4713 71.5507 85.4487C70.6695 85.439 66.5121 87.5373 65.8794 88.2087C64.7174 89.4354 65.1306 91.0592 66.6315 91.6983C68.5682 92.5247 70.2596 90.0488 71.4797 90.3716C72.6998 90.6944 76.6507 95.1202 78.171 95.9692L80.1981 96.0725L94.1262 82.2431L94.6233 81.1036C93.5516 78.0434 90.398 75.7869 88.5872 73.0591L92.0345 64.6498C94.2327 63.7201 101.15 64.6692 102.315 62.6645C102.612 62.1513 102.661 61.3926 102.712 60.8019C103.061 56.6667 103.158 47.7183 102.699 43.6799C102.577 42.5888 102.241 41.5074 101.179 41.0038L92.0119 40.0999L88.6098 31.739C89.5233 29.715 95.059 25.1988 94.5006 23.178C93.9841 21.3122 88.9552 17.3448 87.3606 15.7662C86.0598 14.475 80.9728 8.82575 79.7882 8.46097C77.7546 7.83149 73.3131 13.5356 71.228 14.3523L62.9873 11.0854C62.0286 8.44806 62.8291 4.38384 61.9479 1.79488C61.6962 1.05564 60.8279 0.57142 60.1113 0.403557C57.2127 -0.280806 46.9095 0.0742881 43.446 0.255063C41.5836 0.351907 39.5952 0.180816 39.1853 2.44051C38.8916 4.06749 38.9658 10.0234 38.3138 10.9305L30.1732 14.4201C29.547 14.475 24.4664 9.51657 23.2657 8.84835C22.2166 8.26406 21.542 8.31894 20.5478 8.9807C18.6692 11.6956 7.40734 20.8441 6.89734 23.0941C6.76823 23.6655 6.72304 24.2498 7.00063 24.7921L12.6009 31.4808C12.9302 32.7397 9.6765 35.3384 11.9683 37.2527C13.0367 38.1469 14.1535 37.7143 15.1315 36.9718C15.4124 35.3061 17.6751 32.956 17.6686 31.413C17.6589 29.7247 13.2013 25.7282 12.1426 24.1465L12.304 23.333C14.1148 22.1838 20.6317 14.1877 21.91 13.8552C22.1811 13.7842 22.4135 13.8035 22.6459 13.9714C24.1017 15.0044 28.0687 19.2623 29.5954 19.343C32.026 18.5263 34.321 17.1414 36.7741 16.1633C38.5333 15.4628 42.0968 15.169 42.6391 13.3129C43.3266 10.9628 43.02 7.29885 43.3105 4.78413H43.2976ZM47.4259 21.664C41.5707 22.2322 35.1699 25.0471 30.7026 28.8273C29.3437 29.9765 25.4993 33.9019 25.0313 35.4417C24.4632 37.3108 26.3934 38.9507 28.2139 37.9629C29.0887 37.4883 31.6871 33.8405 32.9588 32.701C46.5577 20.518 68.7458 25.6153 75.2563 42.705C79.4589 53.7355 76.1407 64.595 67.829 72.4167C66.5153 73.6531 63.281 74.8733 65.2339 77.2654C66.8123 79.199 69.0266 77.1298 70.4113 75.9677C93.5968 56.4923 77.5545 18.749 47.4227 21.664H47.4259ZM36.0349 48.6867C40.5281 49.3162 46.3963 48.2186 51.0443 48.6867L11.0225 88.877C9.64745 90.3103 10.9031 92.5796 12.8043 92.5538L54.1108 51.9213C54.5724 51.8826 54.4594 53.6258 54.4562 53.9486C54.4271 56.431 53.6653 66.8546 55.0017 68.2944C56.5155 69.9278 58.6104 68.4945 58.8073 66.2929C59.2592 61.2926 59.2301 51.5953 58.8073 46.5723C58.6814 45.1035 58.3296 44.3513 56.7092 44.1512C50.4278 43.37 42.5164 44.7484 36.0575 44.1835C33.0944 44.6451 33.6851 48.3542 36.0382 48.6835L36.0349 48.6867ZM19.4116 52.5605V62.7291C19.4116 63.8783 22.9945 64.511 23.5465 62.6678L23.6272 46.5723C23.5626 45.5232 22.8719 44.9292 21.8519 44.7968C17.1134 44.1867 10.9805 45.2262 6.08715 44.884C3.54685 45.4683 4.8509 49.0128 5.69659 49.0128H15.8642C16.0063 49.5777 15.6318 49.6584 15.3833 49.9844C11.497 55.0623 4.69273 59.7528 0.548201 64.8467C-1.03666 67.058 1.1163 69.4242 3.45647 68.0781L18.4465 53.0479L19.4181 52.5669L19.4116 52.5605ZM53.9494 87.1015V97.2701C53.9494 98.1126 57.4903 99.42 58.0778 96.8795C57.7227 92.0115 58.7879 85.8231 58.1617 81.1133C57.9971 79.8737 57.2611 79.4863 56.0539 79.3475C51.3155 78.7987 45.4796 79.7123 40.6217 79.425C38.0814 80.0093 39.3854 83.5538 40.2311 83.5538H50.3988L49.9178 84.5254L34.8891 99.5169C33.6012 101.754 35.7574 103.904 37.991 102.619L52.981 87.5889L53.9526 87.1079L53.9494 87.1015Z" fill="white"/>
<path d="M43.2999 4.78413C43.0094 7.29885 43.3161 10.9628 42.6286 13.3129C42.0863 15.169 38.5228 15.4628 36.7636 16.1633C34.3104 17.1414 32.0155 18.5263 29.5849 19.343C28.0581 19.2623 24.0911 15.0044 22.6354 13.9714C22.403 13.8035 22.1706 13.7842 21.8994 13.8552C20.6212 14.1909 14.1042 22.1838 12.2934 23.333L12.132 24.1465C13.1908 25.7282 17.6484 29.7214 17.6581 31.413C17.6678 32.956 15.4051 35.3029 15.121 36.9718C14.143 37.7175 13.0294 38.1469 11.9577 37.2527C9.66598 35.3352 12.9196 32.7397 12.5904 31.4808L6.99011 24.7921C6.71251 24.2498 6.7577 23.6655 6.88682 23.0941C7.39681 20.8441 18.6587 11.6956 20.5373 8.9807C21.5315 8.31894 22.2061 8.26406 23.2551 8.84835C24.4559 9.51657 29.5397 14.475 30.1627 14.4201L38.3033 10.9305C38.9553 10.0234 38.8811 4.07071 39.1748 2.44051C39.5847 0.180816 41.5731 0.351907 43.4355 0.255063C46.899 0.0742881 57.2022 -0.280806 60.1008 0.403557C60.8174 0.57142 61.6857 1.05887 61.9374 1.79488C62.8154 4.38384 62.0181 8.44806 62.9768 11.0854L71.2174 14.3523C73.2994 13.5356 77.7441 7.83149 79.7776 8.46097C80.9622 8.82898 86.0461 14.475 87.3501 15.7662C88.9447 17.3448 93.9769 21.3154 94.4901 23.178C95.0485 25.1988 89.5128 29.7118 88.5993 31.739L92.0014 40.0999L101.168 41.0038C102.227 41.5074 102.563 42.5888 102.689 43.6799C103.147 47.715 103.05 56.6667 102.702 60.8019C102.653 61.3926 102.602 62.1545 102.305 62.6645C101.143 64.6692 94.2222 63.7201 92.024 64.6498L88.5767 73.0591C90.3907 75.7869 93.5411 78.0434 94.6127 81.1036L94.1156 82.2431L80.1876 96.0725L78.1605 95.9692C76.6402 95.1202 72.7345 90.7073 71.4692 90.3716C70.2039 90.0359 68.5577 92.5247 66.621 91.6983C65.1201 91.0592 64.7069 89.4354 65.8689 88.2087C66.5048 87.5405 70.659 85.439 71.5402 85.4487C73.5608 85.4681 76.9436 89.6453 78.7996 90.83L79.613 90.6686C80.7621 88.8576 88.7574 82.34 89.0899 81.0617C89.1609 80.7905 89.1416 80.5581 88.9737 80.3256L83.9609 74.6054C82.9441 72.5588 85.5006 69.5049 86.3753 67.4034C87.0338 65.8249 87.7665 62.232 88.5154 61.1505C89.5935 59.5946 96.1524 59.8883 98.1601 59.6591V45.1325C96.0685 44.5773 90.1648 45.0615 88.7058 43.8607C88.1119 43.37 87.5083 40.2968 87.1048 39.2444C86.0719 36.5554 84.6549 34.0923 83.6187 31.4162C83.6091 29.4955 88.283 25.8897 89.077 23.9334L79.2321 13.8552C78.1443 13.6679 73.5641 19.3333 71.5305 19.3269C70.4557 19.3236 66.9147 17.1446 65.5494 16.5765C63.9548 15.9115 60.9142 15.2788 59.7715 14.6073C57.525 13.2838 58.5288 7.16326 57.8123 4.78413H43.287H43.2999Z" fill="black"/>
<path d="M47.4263 21.6638C77.558 18.7456 93.6003 56.4921 70.4149 75.9674C69.0301 77.1296 66.8158 79.1988 65.2374 77.2651C63.2846 74.8731 66.5189 73.6496 67.8326 72.4165C76.1443 64.598 79.4625 53.7385 75.2598 42.7048C68.7525 25.615 46.5644 20.5178 32.9624 32.7008C31.6906 33.8403 29.0922 37.4881 28.2175 37.9626C26.3937 38.9505 24.4667 37.3106 25.0348 35.4415C25.5029 33.9017 29.3472 29.9795 30.7061 28.827C35.1734 25.0437 41.571 22.2287 47.4295 21.6638H47.4263Z" fill="black"/>
<path d="M36.0343 48.6867C33.6812 48.3574 33.0905 44.6483 36.0536 44.1866C42.5125 44.7483 50.4239 43.3731 56.7053 44.1544C58.3256 44.3545 58.6775 45.1067 58.8034 46.5755C59.2294 51.5984 59.2585 61.2957 58.8034 66.2961C58.6032 68.4977 56.5116 69.931 54.9977 68.2976C53.6614 66.8578 54.4264 56.4342 54.4522 53.9517C54.4555 53.6289 54.5684 51.8857 54.1069 51.9245L12.8003 92.557C10.8992 92.5828 9.64353 90.3102 11.0186 88.8801L51.0404 48.6899C46.3924 48.2218 40.5242 49.3194 36.031 48.6899L36.0343 48.6867Z" fill="black"/>
<path d="M19.4103 52.5603L18.4387 53.0412L3.44866 68.0714C1.10849 69.4208 -1.04447 67.0513 0.540389 64.8401C4.68492 59.7493 11.4892 55.0556 15.3755 49.9778C15.624 49.6517 15.9985 49.571 15.8564 49.0061H5.68877C4.84631 49.0061 3.53904 45.4648 6.07934 44.8773C10.9695 45.2227 17.1024 44.1833 21.8441 44.7901C22.864 44.9225 23.5548 45.5165 23.6194 46.5656L23.5387 62.6611C22.9867 64.5043 19.4038 63.8749 19.4038 62.7224V52.5538L19.4103 52.5603Z" fill="black"/>
<path d="M53.9505 87.1013L52.9789 87.5823L37.9889 102.612C35.7552 103.897 33.599 101.747 34.8869 99.5102L49.9157 84.5188L50.3966 83.5471H40.229C39.3865 83.5471 38.0793 80.0059 40.6196 79.4183C45.4774 79.7056 51.3133 78.7921 56.0518 79.3409C57.2558 79.4797 57.995 79.8671 58.1596 81.1067C58.7858 85.8165 57.7174 92.0016 58.0756 96.8729C57.4914 99.4134 53.9473 98.1092 53.9473 97.2635V87.0948L53.9505 87.1013Z" fill="black"/>
</g>
<defs>
<clipPath id="clip0_488_2149">
<rect width="103" height="103" fill="white"/>
</clipPath>
</defs>
</svg>
