<svg width="116" height="116" viewBox="0 0 116 116" fill="none" xmlns="http://www.w3.org/2000/svg">
<g clip-path="url(#clip0_489_2209)">
<path d="M59.881 63.8198V90.868H56.0141V63.8198H44.7782C44.3877 63.8198 42.2767 63.1681 41.7603 62.9713C34.4558 60.2 32.4546 50.799 37.5254 44.979C38.9941 43.2949 41.331 42.4206 42.1896 40.2236C44.0197 35.5521 39.843 34.0649 38.7875 30.1999C37.9967 27.306 38.455 24.3089 40.311 21.928C42.167 19.5471 45.1817 18.5793 46.3147 15.6112C47.8414 11.614 46.4857 7.27155 49.494 3.57436C53.4319 -1.26811 62.8699 -1.20036 66.6013 3.85181C69.3546 7.57803 68.0796 11.6978 69.5741 15.6112C71.2493 19.9988 76.7494 20.1956 77.4466 26.5769C78.047 32.0937 74.7256 32.6712 73.5313 36.2941C71.9529 41.0818 76.0135 42.2883 78.3633 44.9822C83.4341 50.799 81.4329 60.2032 74.1285 62.9745C73.6152 63.1681 71.501 63.823 71.1105 63.823H59.8746L59.881 63.8198ZM59.881 59.9548H70.8748C73.8089 59.9548 77.0076 56.419 77.2755 53.5541C77.9179 46.6243 71.727 46.5372 69.9162 41.114C69.1157 38.7202 69.2577 36.5038 70.2293 34.1939C71.6011 30.9322 75.0387 29.716 73.144 25.3284C71.911 22.4765 67.9472 21.3989 66.1978 17.5404C63.8867 12.4463 66.6529 4.43897 58.8062 3.91956C54.7844 3.65179 51.9794 5.0713 51.2532 9.18789C50.4785 13.5819 51.0272 17.1533 47.5735 20.7247C45.6497 22.712 42.8932 23.3766 42.3542 26.6156C41.7248 30.3967 44.4458 31.2807 45.6723 34.1939C46.6439 36.5038 46.7859 38.7202 45.9854 41.114C44.1746 46.5372 37.9838 46.6275 38.6261 53.5541C38.8908 56.4222 42.0927 59.9548 45.0268 59.9548H56.0206V55.0027C56.0206 54.4962 49.4424 48.9826 49.0066 47.7567C49.0066 47.3954 51.1273 45.1241 51.7438 45.2467L56.0206 49.3278V37.6169L47.0732 28.4416C47.0732 28.0803 49.1938 25.8091 49.8104 25.9317L56.0206 31.942V11.6559H59.8875V24.2121L62.4245 22.0313L64.9712 24.5767L59.8875 29.8902V37.7395L64.1643 33.6584C64.7808 33.5358 66.9014 35.807 66.9014 36.1683L59.8875 43.4143V53.196L65.1294 48.1503C65.7459 48.0277 67.8666 50.2989 67.8666 50.6602L60.1134 58.616L59.8843 59.9581L59.881 59.9548Z" fill="black"/>
<path d="M30.8876 62.1293C37.6724 62.6165 43.6471 68.6526 44.1764 75.4114C52.0167 75.5405 52.2459 86.5482 44.4217 87.003L44.454 90.9551C48.0497 92.552 49.6604 96.8235 46.9394 100.024C46.1324 100.976 44.4314 101.498 44.0699 101.985C43.7407 102.431 43.2823 104.192 42.9014 104.924C35.2161 119.684 14.9489 119.649 7.28287 104.924C6.90199 104.192 6.44688 102.431 6.11442 101.985C5.53342 101.208 3.85174 101.098 2.76398 99.298C0.714339 95.9137 2.4412 92.552 5.73354 90.9551L5.76582 87.003C-2.05832 86.4836 -1.84206 75.6179 6.0079 75.4114C6.49207 68.701 12.5506 62.5874 19.2967 62.1293C19.5258 54.1478 30.6714 54.0994 30.8909 62.1293H30.8876ZM27.024 69.614V61.2841C27.024 59.6 23.1571 59.6 23.1571 61.2841V69.614H19.2902V65.991C14.5551 66.5975 10.4687 70.6883 9.86833 75.4082H40.3128C39.7092 70.6883 35.626 66.5943 30.8909 65.991V69.614H27.024ZM5.20741 79.3248C3.12226 80.0216 3.42567 82.9542 5.63348 83.1413H44.5444C46.991 82.8994 46.9878 79.5087 44.5444 79.2667L5.20741 79.3248ZM40.5516 87.003H9.62624V94.7297C8.39646 94.7878 6.51466 94.32 5.88524 95.7008C4.83299 98.001 8.69987 98.3591 9.32606 99.1367C9.46808 99.3109 10.3202 102.395 10.7075 103.189C16.5046 115.032 33.6732 115.038 39.4735 103.189C39.8609 102.395 40.7162 99.3141 40.855 99.1367C41.4812 98.3591 45.3481 98.001 44.2958 95.7008C43.6632 94.32 41.7846 94.7878 40.5548 94.7297V87.003H40.5516Z" fill="black"/>
<path d="M92.1985 63.8716C92.6439 63.8103 93.0409 63.7716 93.4767 63.9265L115.829 70.0852C115.823 78.0409 116.746 86.2935 114.367 94.0105C111.846 102.186 105.494 109.79 97.9762 113.851C96.9885 114.384 93.8027 115.961 92.857 116.003C91.0623 116.081 85.7236 112.832 84.1097 111.69C77.6057 107.093 72.4897 99.9208 70.582 92.1264C68.839 85.0062 69.6879 77.3699 69.6524 70.0852L92.1985 63.8716ZM112.036 73.0275L92.8182 67.7592L73.4419 73.0307C73.5516 78.4829 72.9609 84.0932 73.9712 89.4648C75.4947 97.5528 80.5462 104.896 87.444 109.325C88.4672 109.98 91.7789 111.912 92.8376 111.867C93.8963 111.822 97.3048 109.809 98.3248 109.135C105.068 104.689 110 97.4399 111.51 89.4712C112.524 84.1126 111.914 78.4732 112.033 73.0339L112.036 73.0275Z" fill="black"/>
<path d="M107.959 64.0619L104.121 63.5522C104.754 56.3224 104.083 49.1054 101.616 42.266C96.8458 29.0354 86.22 18.8021 73.0312 14.0725L73.8963 10.4463C88.2922 15.021 99.9735 26.5384 105.128 40.6884C107.872 48.2247 108.705 56.0675 107.962 64.0587L107.959 64.0619Z" fill="black"/>
<path d="M42.0003 10.4497L42.8686 14.0824C23.0371 21.1961 10.8361 39.4658 11.5462 60.5746C11.5591 60.9618 11.6236 61.3038 11.8044 61.6425L7.94073 62.1296C5.65224 39.54 20.4032 17.2408 42.0003 10.4497Z" fill="black"/>
<path d="M70.9736 102.721L71.9581 106.312C64.2147 108.39 55.8709 109.067 48.0273 107.141C48.0435 106.505 48.3889 103.586 48.9053 103.454C56.2711 105.157 63.695 104.35 70.9736 102.721Z" fill="black"/>
<path d="M104.748 78.0924C105.371 77.9279 107.166 79.9732 107.486 80.6023L89.1131 99.2109L88.5031 99.0915L81.9797 92.5521C81.5988 91.7262 83.6808 90.1099 84.4038 89.6517C85.1591 89.6517 87.7575 93.207 88.6354 93.6586C88.8226 93.7554 88.9324 93.8199 89.1131 93.6586L104.748 78.0924Z" fill="black"/>
</g>
<defs>
<clipPath id="clip0_489_2209">
<rect width="116" height="116" fill="white"/>
</clipPath>
</defs>
</svg>
