<svg width="108" height="113" viewBox="0 0 108 113" fill="none" xmlns="http://www.w3.org/2000/svg">
<g clip-path="url(#clip0_489_2187)">
<path d="M28.4041 60.0892C29.1033 60.8228 44.0692 60.87 46.0596 60.5954C49.5512 60.1149 54.7414 56.262 58.5161 56.3264C61.8019 56.3864 66.0527 59.5657 69.4714 60.4195C71.5647 60.943 77.6814 61.6123 79.3458 60.4195C79.779 60.1106 79.7232 59.2825 80.0149 58.9436C80.6111 58.2528 90.0737 53.8507 91.3477 53.5375C93.5696 52.9883 93.7498 53.5461 94.7278 55.3181C98.6097 62.3331 102.779 72.5274 106.009 80.0745C107.244 82.9578 109.672 85.7852 106.232 87.7417C104.847 88.5312 97.3658 92.058 96.1776 92.294C92.7332 92.9847 93.1278 88.8143 91.9482 88.544C89.9879 89.3464 88.0619 90.3032 86.1917 91.29C85.2352 91.7963 79.3029 95.0228 79.0927 95.3703C78.7795 95.8937 79.9163 98.9357 77.7243 100.957C75.734 102.784 73.4049 101.802 72.4569 102.433C72.0065 102.733 71.6204 105.209 69.8832 106.294C68.0559 107.435 66.8806 106.56 65.4694 107.028C64.7573 107.264 64.071 109.353 62.4281 109.992C60.7853 110.632 59.4555 110.108 58.1901 110.473C56.9934 110.821 56.1398 112.897 53.3731 112.983C50.6621 113.069 48.0799 110.374 47.3807 110.37C46.244 110.37 45.5019 112.944 41.5771 111.902C39.6425 111.387 38.7761 109.366 37.7208 108.898C36.3268 108.285 34.7826 108.735 33.0325 107.581C31.0808 106.29 30.5489 103.226 30.017 102.874C29.0218 102.214 26.4524 102.458 24.8525 100.746C23.6686 99.4849 23.6343 96.9235 23.0509 96.3271C22.1115 95.3703 19.9582 96.0525 18.6199 93.2508C17.2816 90.449 19.2762 87.3727 16.3036 87.2268C15.4586 89.1233 14.7722 92.6115 12.25 92.3669C11.5165 92.294 3.22931 88.5183 2.10547 87.8876C-1.50625 85.8539 0.355371 83.9703 1.62505 80.924C5.41693 71.8066 10.1697 62.7064 14.3218 53.722C14.8194 53.2715 15.4028 53.2629 16.0291 53.3273C16.8054 53.4088 26.9715 57.9696 27.6192 58.5145C28.3226 59.1109 28.1554 59.8103 28.4084 60.0763L28.4041 60.0892ZM26.5468 59.8103L15.4157 55.2323L1.87813 85.5235L12.8677 90.4791L26.5468 59.8103ZM81.5119 59.8103L95.1996 90.4876L106.172 85.5364L92.6517 55.2366L81.5076 59.8103H81.5119ZM80.1822 61.9212C75.807 63.4658 71.4188 62.9081 67.1079 61.4965C64.4871 60.6384 60.2834 57.8495 57.7912 58.137C52.9184 58.699 40.2259 65.6025 36.4383 68.992C34.2678 70.9357 30.2786 75.0932 36.1252 74.2565C45.2403 72.9522 49.6112 65.9801 59.1381 72.8964C66.3616 78.1395 72.8858 85.8582 77.8444 93.2379L78.6165 93.624L91.2833 86.6004L80.1736 61.9169L80.1822 61.9212ZM42.4478 62.3503H29.365C29.1291 62.3503 28.4385 61.6552 27.8765 61.9298L17.1915 85.3133C18.7915 87.2826 19.3105 85.6694 20.5716 85.3047C24.8653 84.069 26.92 85.3261 29.3564 88.9002C32.6722 86.7806 37.4763 88.7757 37.7337 92.8174C40.3374 91.6804 43.6446 92.9805 44.391 95.8036C44.6397 96.7347 44.4381 98.3865 44.6612 98.7555C44.9271 99.1974 47.2091 99.0602 48.2343 101.832C49.2981 104.715 48.393 105.389 48.4316 107.637C48.4874 110.73 56.4014 113.15 55.2261 108.581C54.7886 106.882 48.4874 101.634 49.3153 100.536C49.4397 100.369 50.3919 100.227 50.8166 100.493C53.6733 102.3 55.8996 108.542 59.833 108.718C61.0341 108.77 62.9472 108.083 63.0673 106.736C63.2346 104.852 55.209 97.9017 53.8106 95.8251L54.2567 94.5336C57.0277 93.8128 65.508 111.237 70.2478 103.239L70.1105 100.978C67.2409 97.1208 63.0072 93.6669 60.2362 89.8355C59.8116 89.2477 59.4212 88.9774 59.6142 88.1021L61.5702 88.5011C63.9037 90.5048 70.1706 99.6136 72.4569 100.352C76.0729 101.519 77.8187 99.1588 77.1024 95.7049C76.5662 93.1178 69.4714 84.9743 67.3481 82.7261C64.7745 80.0059 57.684 73.1238 54.3468 72.1327C48.5603 70.4122 41.8173 75.3378 36.2024 76.05C34.6067 76.2516 31.9472 76.3932 31.3896 74.4925C30.017 69.8287 39.6683 64.9546 42.4564 62.3589L42.4478 62.3503ZM21.734 86.9008C18.0708 87.7674 19.3276 95.529 24.1361 94.0188C24.5093 93.9029 26.5082 91.5002 26.757 91.054C28.4642 88.0206 24.6037 86.2186 21.734 86.9008ZM35.0356 90.788C33.5429 89.2906 31.1322 89.754 29.5623 90.8652C28.8159 91.393 25.5945 94.967 25.3801 95.6964C24.3334 99.2704 28.6229 102.424 31.2695 100.296C31.7628 99.8968 35.3745 94.9627 35.6147 94.3363C36.0651 93.1735 35.9364 91.6976 35.0314 90.788H35.0356ZM39.3337 94.1646C37.6951 94.465 32.7665 100.673 32.3419 102.248C31.5097 105.316 35.5547 107.967 38.1369 105.878C38.6774 105.44 42.4821 99.5536 42.6795 98.8328C43.3272 96.4644 41.9889 93.6798 39.3337 94.1646ZM44.4424 100.605C43.6103 100.768 40.0329 105.874 39.8827 106.787C39.1621 111.138 46.4413 112.249 47.0762 105.771C47.2263 104.217 46.4756 100.21 44.4424 100.605Z" fill="black"/>
<path d="M75.0457 11.7219C83.1871 26.7817 74.8484 45.5871 57.622 48.1314C38.9113 50.8988 24.606 32.4538 31.6536 14.8625C37.3543 0.622233 55.8804 -4.63797 68.1783 4.64247L65.4073 6.88642C47.7305 -4.58219 25.9872 14.884 35.6428 33.7624C46.8983 55.7686 81.2569 41.9101 73.7889 17.9174C72.8796 14.9955 70.6448 13.7942 75.0457 11.7176V11.7219Z" fill="black"/>
<path d="M81.9108 0.141602C73.7308 7.74015 66.5546 16.1196 61.2485 26.0222C60.0646 28.2361 56.3671 37.7139 54.5827 38.2459C53.965 38.4304 53.3173 38.4561 52.7468 38.1086C51.9747 37.6409 48.6075 29.4846 47.3421 27.6397C46.0295 25.7175 44.1679 23.8039 42.4521 22.2336C41.2296 21.1138 38.6516 20.6075 39.6511 18.5866C41.1695 15.5232 46.5013 18.8827 48.23 20.3157C50.8423 22.4782 51.8803 24.632 53.5575 27.4123C53.7891 27.7941 53.3344 28.2618 54.454 28.0301C58.1601 15.2229 69.8703 5.09289 81.9108 0.141602Z" fill="black"/>
</g>
<defs>
<clipPath id="clip0_489_2187">
<rect width="108" height="113" fill="white"/>
</clipPath>
</defs>
</svg>
