<svg width="96" height="96" viewBox="0 0 96 96" fill="none" xmlns="http://www.w3.org/2000/svg">
<g clip-path="url(#clip0_489_2192)">
<path d="M25.7328 29.2442C26.193 22.7318 32.661 19.8489 38.5994 20.3385C28.5387 13.1684 34.4475 -2.28933 47.0419 0.28695C54.3561 1.78525 57.5183 11.7344 52.7132 17.3864L49.4866 20.3385C56.5385 19.6116 62.1009 23.1966 62.8382 30.4854C62.9966 32.0282 63.2984 39.6285 61.606 39.6285H26.4751C24.9361 37.7692 26.0594 34.555 25.7328 32.2111H16.8251V54.9576C17.6367 53.5186 23.2139 49.9435 22.1945 53.6373C22.0213 54.2703 15.6721 60.4563 15.1574 60.3624L7.95703 53.6522L8.91213 52.2181L10.0454 52.0401L13.8559 54.9527V29.981L14.5982 29.2393H25.7328V29.2442ZM42.4297 3.15498C33.24 4.71262 35.2492 19.2654 44.6616 18.7363C55.1083 18.1479 54.3561 1.12758 42.4297 3.15498ZM59.8789 36.6615C60.2896 31.954 59.8244 24.5911 54.074 23.4241C51.5651 22.9147 36.521 22.9147 34.012 23.4241C32.3195 23.7702 28.702 26.8113 28.702 28.5025V36.6615H59.8789Z" fill="black"/>
<path d="M30.1871 96.0001H0.742306L0 95.2584V87.841C0 85.4675 3.95402 81.5462 6.16114 80.6462C7.42801 80.127 8.93242 80.5127 9.88752 79.4347C0.346409 71.6515 11.9957 57.5981 21.2844 65.5841C25.6739 69.362 25.278 75.9783 20.7945 79.4347C21.6308 80.4732 22.9917 80.0677 24.1151 80.5572C30.2614 83.2027 31.7311 89.9031 30.1871 96.0001ZM11.0554 67.9824C5.91371 72.8877 12.5202 82.0407 19.0575 77.2145C25.8125 72.23 17.1968 62.1227 11.0554 67.9824ZM27.7128 93.0332C28.2868 87.0647 25.7382 83.0841 19.5672 82.6291C11.2039 82.011 1.54895 81.7934 2.96922 93.0332H27.7128Z" fill="black"/>
<path d="M79.4259 40.1226H89.3233L90.0656 40.8643V87.8407L89.3233 88.5824H79.4259L78.6836 87.8407V40.8643L79.4259 40.1226ZM87.0964 43.0895H81.6528V85.6155H87.0964V43.0895Z" fill="black"/>
<path d="M40.0837 93.0331H95.2618C96.2417 93.0331 96.2466 96 95.2618 96H38.3517L37.6094 95.2583V62.622C37.6094 61.6924 40.0837 61.6924 40.0837 62.622V93.0331Z" fill="black"/>
<path d="M63.59 52.4849H72.9925C73.0816 52.4849 74.2297 53.6321 74.2297 53.7211V87.8408L73.4874 88.5825H63.59L62.8477 87.8408V53.2266L63.59 52.4849ZM71.2605 55.4518H65.8169V85.6156H71.2605V55.4518Z" fill="black"/>
<path d="M58.3962 64.3525V87.8407L57.6539 88.5825H48.7462L48.0039 87.8407V64.3525H58.3962ZM55.427 67.3195H50.4783V85.6155H55.427V67.3195Z" fill="black"/>
<path d="M72.2097 48.9793L69.9927 48.5589C69.1514 47.3672 71.0319 43.9454 69.5374 44.5783L50.1879 56.9405C48.4113 57.074 47.867 55.5659 49.2279 54.4533L68.0528 42.1059C67.3154 40.1477 64.0295 42.1454 64.8658 38.6791C65.5042 37.7544 73.437 39.4554 74.011 40.6224L72.2097 48.9842V48.9793Z" fill="black"/>
</g>
<defs>
<clipPath id="clip0_489_2192">
<rect width="96" height="96" fill="white"/>
</clipPath>
</defs>
</svg>
