<svg width="97" height="100" viewBox="0 0 97 100" fill="none" xmlns="http://www.w3.org/2000/svg">
<g clip-path="url(#clip0_489_2201)">
<path d="M18.0193 61.7457C22.4055 53.9298 31.951 49.4605 40.8072 51.0081C44.4267 51.6409 47.1988 53.7437 50.8245 54.0259C55.4187 54.3857 67.4133 53.08 70.741 54.5966C71.3867 54.8913 71.9579 55.4496 72.5539 55.8372L84.4988 44.2561C91.6447 38.5151 100.181 46.331 95.8136 54.0104L76.0927 78.0381C75.1148 78.7825 74.1122 79.3283 72.8612 79.4617C64.4457 80.3705 54.4378 78.798 45.8422 79.4493C43.9828 79.5889 39.1154 80.9629 38.4201 82.8579C38.2959 83.1991 38.656 85.3639 38.4853 86.3657C38.0414 88.9897 30.0512 96.9699 27.6982 98.8495C26.2299 100.022 24.9448 100.568 23.343 99.1627L0.834467 76.6796C-0.0719589 75.8143 -0.255107 74.1581 0.359525 73.088L10.9511 62.58C13.1768 61.0261 15.508 61.1936 18.0224 61.7457H18.0193ZM33.7917 77.0921C34.3133 77.5791 35.0831 79.1671 35.9181 79.1671C38.2928 77.3185 40.5837 75.7895 43.6817 75.4359L72.6874 75.2622C73.4075 75.0172 74.6089 73.4416 75.1769 72.7872C81.1153 65.9948 86.3148 58.5015 92.2562 51.7029C94.423 48.3532 90.5862 45.0346 87.4447 47.2056C85.8585 49.6031 75.239 57.8905 74.8789 59.7731C74.3574 62.5118 75.4097 64.1959 72.8208 66.7113C68.6053 70.8084 56.4959 68.1597 50.8307 68.8978C48.2045 68.293 48.0338 65.5606 50.511 64.5805L68.6736 64.4223C72.2217 62.732 71.3836 58.4332 67.2767 58.0486C61.5681 57.5121 55.0058 58.5697 49.2662 58.0548C46.3358 57.7912 44.3088 56.1629 41.5895 55.4899C33.4844 53.4832 24.8982 57.1864 21.2166 64.6828C25.2707 68.9599 29.4831 73.0663 33.7886 77.089L33.7917 77.0921ZM27.8938 77.0921C24.7182 73.8727 21.0118 69.909 17.7244 66.9377C16.7155 66.0258 15.6912 65.2504 14.257 65.5699C12.4255 65.9793 6.73245 73.2462 4.72403 74.6605L25.3607 95.2796C27.4995 92.544 31.684 89.7806 33.59 87.0698C34.2388 86.1486 34.7634 84.9794 34.2884 83.8938C33.8662 82.9261 29.0578 78.2769 27.8907 77.0952L27.8938 77.0921Z" fill="black"/>
<path d="M31.7266 32.3211C31.5993 32.7926 31.8539 32.836 32.0339 33.0996C32.7913 34.2069 36.7647 38.1954 37.9381 39.2965C38.1585 39.5043 38.3013 39.8362 38.6862 39.7524L45.3851 32.7801C45.68 32.0916 44.0627 32.3925 43.4015 31.9768C41.1727 30.5812 44.0285 23.2894 45.1367 21.3696C52.3509 8.87034 71.0351 8.7804 78.4231 21.1804C87.062 35.6832 74.549 53.3837 58.0533 50.217C56.2156 49.8635 51.8077 48.9609 53.0028 46.2843C53.9123 44.2497 56.9513 46.1199 58.4134 46.4455C72.8355 49.6619 83.2811 32.7026 73.9406 21.3168C65.4258 10.9391 48.8494 15.6875 46.6299 28.5962C49.0573 28.5962 52.8879 27.9386 51.6928 31.6326C48.5451 34.6597 45.6769 38.0714 42.6099 41.1667C41.1634 42.6275 39.009 45.7477 37.0037 43.648C34.0454 39.8889 29.5288 36.564 26.6078 32.9445C23.0379 28.5217 26.9027 28.3666 30.8046 28.5993C32.543 6.14098 57.1469 -7.04058 77.0541 3.93578C84.7805 8.19731 92.4106 18.1812 92.8824 27.216C93.0004 29.4925 91.1875 31.3658 89.6323 29.5204C89.1729 28.9777 88.2075 23.2057 87.6115 21.6146C77.7588 -4.70512 39.4809 -1.08562 34.5576 27.5509C34.2006 29.6197 34.955 32.194 31.7266 32.3242V32.3211Z" fill="black"/>
<path d="M60.3615 25.5723C58.1327 28.1559 64.8067 30.051 66.1632 31.2544C69.3947 34.1202 67.765 40.0038 63.4315 40.7389L63.0808 43.2574C59.8431 45.3509 60.6502 41.353 59.9859 40.8444C58.9677 40.0659 55.4662 40.5652 55.938 37.7676C56.3509 35.3112 58.977 37.0977 60.1566 37.259C62.0253 37.5133 64.1362 37.4606 63.6488 35.0352C63.1615 32.6098 56.7017 32.1321 56.0187 28.066C55.5003 24.9769 57.1487 22.3033 60.256 21.7481L60.5757 19.1956C60.9171 18.6559 62.4444 18.4264 62.938 18.9816L63.5371 21.4814C64.9091 22.2971 66.8927 22.263 66.9672 24.2294C67.0976 27.7682 61.9881 23.7021 60.3677 25.5754L60.3615 25.5723Z" fill="black"/>
<path d="M91.4843 35.5591C94.961 35.5653 92.6732 41.5482 90.0812 38.6823C88.883 37.358 89.8918 35.556 91.4843 35.5591Z" fill="black"/>
<path d="M90.9299 30.8265C93.3449 30.4605 94.0247 33.8381 92.038 34.4274C89.1046 35.2989 88.6296 31.1739 90.9299 30.8265Z" fill="black"/>
<path d="M17.0522 74.7255C14.9537 76.8221 11.4553 73.6617 13.5444 71.3758C15.7391 68.9783 19.2406 72.5358 17.0522 74.7255Z" fill="black"/>
</g>
<defs>
<clipPath id="clip0_489_2201">
<rect width="97" height="100" fill="white"/>
</clipPath>
</defs>
</svg>
