<svg width="78" height="79" viewBox="0 0 78 79" fill="none" xmlns="http://www.w3.org/2000/svg">
<g clip-path="url(#clip0_508_497)">
<path d="M17.7695 59.2151L17.6417 58.9968C19.1455 55.7848 20.4904 52.4921 21.6718 49.147C23.2648 44.6376 24.5637 40.4082 24.7752 35.5662C24.9293 32.0346 24.1558 28.6867 24.9857 25.1908C25.4791 23.1122 26.341 21.1366 26.9575 19.1001C27.4237 17.5611 27.5599 17.3072 25.7545 17.9011C22.6558 18.9212 21.4453 22.4761 19.8992 24.9922C19.4312 25.7529 19.4218 25.633 18.5675 25.4447C18.091 25.3398 15.5393 24.4986 15.3024 24.2503C14.9716 23.9037 15.2601 23.0401 15.371 22.6326C16.7752 17.458 20.543 12.1992 26.3231 11.816C30.8804 11.5135 34.2122 11.669 37.8363 14.6712C38.8372 15.5002 40.0778 17.1142 41.1943 17.6004C42.9293 18.3564 44.9707 18.2945 46.7836 17.8768C47.2441 17.7709 48.6342 17.2164 48.9537 17.266C49.1304 17.2932 49.3776 17.5302 49.4894 17.6707C49.7526 18.0004 51.1285 20.7816 51.1774 21.1441C51.3165 22.167 50.3024 22.537 49.5524 22.8855C46.8024 24.1623 43.9077 24.6981 40.9368 23.8522C40.6069 23.7585 38.9979 23.0476 38.872 23.1534L36.9885 28.5828C40.1173 29.1279 45.7197 29.6413 47.8447 32.2351C50.3785 35.3282 47.9443 38.2059 46.465 40.9786C44.8832 43.9416 43.3109 46.911 41.8005 49.9123L41.5477 50.2224H35.0628L34.9622 50.0322C37.4387 45.6249 39.3955 40.9365 41.1962 36.2153C41.1633 35.9849 39.9472 35.9024 39.6718 35.8865C37.8137 35.7835 35.9218 35.9315 34.0693 36.0242C33.2987 39.4443 32.2094 42.765 30.9509 46.0305C29.2235 50.5128 27.216 54.9108 25.1004 59.2151H17.7695ZM34.7639 15.592C34.9443 15.3794 35.715 14.9213 35.5355 14.5345C35.3851 14.2104 33.5139 12.9383 33.1784 12.942C33.0534 12.9429 33.0242 12.9954 32.9509 13.0797C33.3682 13.8478 33.4096 14.8651 33.7761 15.6276C33.9829 16.0557 34.3287 16.2993 34.496 16.7836C35.1098 18.5606 34.1849 21.0795 32.6605 22.1614C32.481 22.2888 31.5534 22.671 31.5346 22.745C31.5214 23.1375 31.9039 25.307 32.1633 25.3913C33.3879 25.2976 34.2592 24.2906 34.8447 23.307C35.9302 21.4832 36.4509 18.9147 35.3146 16.999C35.0158 16.496 34.3203 16.1147 34.7648 15.592H34.7639Z" fill="black"/>
<path d="M77.7504 78.5804C77.6574 78.6947 77.2486 78.8839 77.0747 78.8895C73.32 78.63 69.1151 79.2258 65.414 78.8914C64.9694 78.8511 64.7053 78.6881 64.5455 78.2582L64.5211 37.8996C64.4967 37.5212 64.7598 37.2224 65.0615 37.0331L77.1687 37.0116C77.6189 37.0285 77.8247 37.3629 77.9234 37.7582L77.9694 77.6259C77.9525 77.8722 77.8989 78.3987 77.7504 78.5795V78.5804Z" fill="black"/>
<path d="M49.0866 44.2479L61.1946 44.2235C61.4399 44.2469 61.7774 44.4568 61.8544 44.69L61.8995 78.0014C61.8864 78.6337 61.4785 78.8379 60.9118 78.8904C57.221 79.2342 52.9992 78.6234 49.252 78.8885C48.8403 78.8782 48.6354 78.5785 48.4992 78.2337L48.4503 45.1125C48.4296 44.7059 48.7125 44.3753 49.0856 44.2469L49.0866 44.2479Z" fill="black"/>
<path d="M32.9217 55.0204L45.0279 54.9979C45.3503 55.0054 45.5975 55.2293 45.7535 55.4925L45.8287 77.9068C45.8024 78.5176 45.5486 78.8352 44.9368 78.8914C41.1802 79.2351 36.9001 78.6235 33.0881 78.8895C32.5214 78.8464 32.2582 78.3443 32.2873 77.8141L32.3804 55.7923C32.3635 55.4241 32.5665 55.1216 32.9217 55.0204Z" fill="black"/>
<path d="M6.98907 24.8629C7.43644 24.8208 7.73343 24.8798 8.14133 25.0671C8.80674 25.3725 10.7861 27.0109 11.2128 27.0746C11.49 27.1158 11.896 26.5931 12.146 26.4451C13.1761 25.8352 13.9336 26.2765 14.9477 25.9533L18.1902 27.2291C18.6658 27.6141 18.1272 28.342 18.1047 28.8319C18.0906 29.1241 18.2175 29.3995 18.194 29.7536C18.1658 30.1742 17.6554 31.185 17.7654 31.3939C18.8725 32.3297 20.4468 33.006 21.5276 33.9268C22.4994 34.7549 22.6047 35.7469 22.0285 36.8579C20.6376 39.5407 18.2428 42.2104 16.7278 44.8764C15.8114 45.874 14.7729 45.7485 13.6893 45.1106C10.7701 43.3898 7.6714 40.9898 4.8199 39.0564C3.61501 38.2396 2.06708 37.404 0.961816 36.5319C0.130989 35.8762 -0.142507 35.1511 0.196779 34.1151C1.88193 31.4894 3.46558 28.4965 5.27761 25.9711C5.73907 25.3275 6.15449 24.9435 6.98813 24.8638L6.98907 24.8629ZM13.8707 27.3659C13.381 27.2947 12.9975 27.4895 12.5596 27.6525L12.6423 27.9813C13.6723 28.623 14.6319 29.393 15.6639 30.0281C15.8284 30.1293 16.4524 30.5527 16.5915 30.4543L16.7842 29.615C16.5549 29.6431 16.3904 29.5953 16.1817 29.512C15.8613 29.3836 14.2118 28.3504 14.0088 28.119C13.8058 27.8876 13.8744 27.6638 13.8716 27.3659H13.8707Z" fill="black"/>
<path d="M16.7565 64.2004L29.0986 64.2248C29.608 64.4037 29.7095 64.6482 29.7574 65.1606C29.5262 69.256 30.0516 73.6615 29.7574 77.7204C29.7076 78.4051 29.6305 78.821 28.8645 78.8913C25.108 79.236 20.826 78.6206 17.013 78.8913C16.4604 78.9297 16.1333 78.4033 16.1202 77.9077C16.4115 73.772 15.7489 69.1426 16.1202 65.065C16.1606 64.6219 16.3241 64.3587 16.7555 64.1995L16.7565 64.2004Z" fill="black"/>
<path d="M32.551 0.0412604C39.458 -0.707195 41.1206 8.98432 34.8057 10.6255C27.0369 12.6432 25.0426 0.855288 32.551 0.0412604Z" fill="black"/>
<path d="M0.589644 71.9753L13.115 72.0044C13.3754 72.2198 13.5474 72.4006 13.5887 72.75C13.7259 73.8994 13.7005 76.7302 13.5906 77.9077C13.5408 78.4407 13.3744 78.821 12.7898 78.8894L0.527614 78.836C0.261637 78.689 0.048291 78.5175 0.0511105 78.1869C0.175171 76.4333 -0.107724 74.4755 0.048291 72.7472C0.0840053 72.3519 0.18269 72.1018 0.589644 71.9753Z" fill="black"/>
<path d="M29.6298 61.1176C30.19 61.7209 29.6185 62.593 28.8601 62.5874H17.018C16.5462 62.5752 16.0452 62.1686 16.0246 61.6956C15.9917 60.9275 16.689 60.8469 17.2962 60.8038C21.0086 60.5415 25.0255 61.0108 28.7699 60.8038C29.0199 60.8038 29.4635 60.9378 29.6298 61.1176Z" fill="black"/>
<path d="M53.4121 15.118C55.8679 14.7293 57.6696 17.251 56.2034 19.3052C54.4299 21.7885 50.5559 19.886 51.4158 16.969C51.6734 16.0941 52.4948 15.2632 53.4121 15.118Z" fill="black"/>
<path d="M32.5069 51.9385C32.5821 51.857 32.7278 51.8008 32.8293 51.7465L45.4421 51.7727C46.1413 52.0968 46.0624 52.9839 45.4224 53.3361L33.0859 53.4092C32.3603 53.3567 32.0248 52.4649 32.5069 51.9376V51.9385Z" fill="black"/>
<path d="M77.845 35.1146C77.7491 35.2317 77.3459 35.4181 77.1702 35.4247L64.8328 35.3516C64.1457 34.9329 64.3196 33.8397 65.1326 33.7301H77.266C77.9136 33.7526 78.2031 34.6771 77.845 35.1146Z" fill="black"/>
</g>
<defs>
<clipPath id="clip0_508_497">
<rect width="78" height="79" fill="white"/>
</clipPath>
</defs>
</svg>
