<svg width="80" height="79" viewBox="0 0 80 79" fill="none" xmlns="http://www.w3.org/2000/svg">
<g clip-path="url(#clip0_508_428)">
<path d="M14.3451 55.886C16.9826 58.325 19.6778 60.7074 22.3586 63.1039C23.5693 63.7845 25.1691 62.3381 24.3332 61.1611C21.7677 58.5803 18.8275 56.3397 16.2187 53.8014C13.3217 50.9795 15.6999 47.4485 19.3896 48.427C23.3243 51.9154 27.3887 55.3329 31.2081 58.949C35.0708 62.6076 37.7948 66.0393 38.0687 71.5697C38.1552 73.399 38.2272 76.1642 38.0687 77.9651C38.0543 78.1778 37.9966 78.6316 37.8525 78.7876C37.6795 78.9294 37.4922 78.9294 37.276 78.9436C35.2726 79.1138 33.0962 78.9011 31.0928 78.8302C29.0894 78.7592 27.7202 79.213 26.3798 77.9084C25.5006 77.0576 25.515 75.7813 24.7656 74.8596L7.16744 58.9773C6.50445 58.2825 6.10089 57.4742 6 56.5241L6.02883 40.1597C6.72064 36.9265 11.9525 37.0258 12.284 40.3441C12.6876 44.3146 11.8516 49.0509 12.284 53.0073C12.457 54.5955 13.2785 54.9217 14.3306 55.9002L14.3451 55.886Z" fill="black"/>
<path d="M61.6782 68.9746C60.7846 69.7829 59.9054 70.6479 59.0118 71.4562C57.9597 72.4205 55.2212 74.4625 54.7312 75.5969C54.2411 76.7313 54.3853 76.8023 53.9673 77.4262C52.6845 79.3264 50.4361 78.8301 48.4904 78.8301C46.7032 78.8301 44.916 78.8301 43.1432 78.8301C42.8261 78.8301 42.1487 79.0853 42.0478 78.5748C42.2208 74.8312 41.5434 70.9173 42.7541 67.3155C44.3106 62.65 48.1733 59.5303 51.69 56.3113C54.27 53.9432 57.2678 51.022 59.963 48.8949C62.86 46.6118 67.2416 50.398 63.8978 53.6879C61.3467 56.1979 58.3632 58.4668 55.7833 60.9484C54.6879 62.2388 56.4031 63.8837 57.7723 63.0046L66.9965 54.7656C67.4577 54.2551 67.6739 53.3759 67.7316 52.7095C68.0631 48.5971 67.4433 44.116 67.7748 39.9753C68.7405 36.8981 73.3526 37.1108 74.0012 40.2447V56.524C73.8859 58.013 73.0644 58.7078 72.0699 59.6721C68.7837 62.8486 65.094 65.8974 61.6926 68.9888L61.6782 68.9746Z" fill="black"/>
<path d="M29.5079 54.3538C20.7305 46.2 24.7805 30.9842 36.6855 28.5735C47.8123 26.333 57.0654 35.6922 54.8602 46.5687C52.5541 57.9699 38.0548 62.3091 29.4935 54.3538H29.5079ZM40.8941 30.3745V35.1108L44.8721 34.8555C44.2091 33.0262 42.7245 31.1969 40.8941 30.3745ZM39.1069 30.4879C38.9051 30.4596 38.7466 30.5588 38.5736 30.6439C37.6944 31.0693 35.0569 33.9338 35.1145 34.8697L39.0925 35.125V30.4879H39.1069ZM49.268 33.9905C49.441 33.7636 48.1726 32.8419 47.942 32.6717C46.9331 31.9343 45.8089 31.3955 44.6559 30.8992L45.8954 32.615L46.861 34.4585C47.1925 34.657 48.8068 34.0472 49.268 33.9905ZM35.2298 30.9984C33.4859 31.594 31.8284 32.6008 30.6177 33.9905C31.151 34.0898 32.6932 34.7137 33.14 34.4585C33.5868 34.2032 33.6588 33.3666 33.7886 33.1397C34.2209 32.3881 34.7398 31.7216 35.2298 31.0126V30.9984ZM31.4537 42.3429C31.4104 40.3292 31.9581 38.3723 32.3905 36.4296C32.3761 36.3303 32.2896 36.3161 32.2175 36.2878C32.0734 36.2169 29.5512 35.5362 29.407 35.5504C29.1044 35.5787 28.499 36.5714 28.3261 36.855C27.3748 38.4574 26.7839 40.4852 26.7406 42.3429H31.4537ZM53.2459 42.3429C53.1162 40.8965 52.8136 39.4642 52.2515 38.1171C51.6894 36.7699 51.084 35.7489 50.7381 35.5929C50.3922 35.4369 48.3167 36.302 47.6682 36.2878L47.4952 36.4296C48.1582 38.3298 48.4465 40.3434 48.5329 42.3429H53.2459ZM39.1069 36.9826L34.3074 36.6848C33.6588 38.4999 33.3994 40.4285 33.2409 42.3429H39.1069V36.9826ZM40.8941 36.9826V42.3429H46.6593C46.7025 40.4285 46.2269 38.5141 45.708 36.6848L40.8941 36.9826ZM31.4537 44.2998H26.7406C26.8127 46.753 27.7351 49.1212 29.1764 51.0781L32.3905 50.2131C31.8716 48.2845 31.4248 46.2993 31.4537 44.2998ZM39.1069 44.2998H33.2409C33.3994 46.2 33.6012 48.1286 34.2786 49.9295L38.8475 49.6601L39.1069 49.5041V44.2998ZM46.7601 44.2998H40.8941V49.5041C41.4706 49.816 42.3498 49.6175 43.0416 49.6601C43.9208 49.7168 44.8144 49.9011 45.708 49.9579C45.9963 49.0503 46.2557 48.1427 46.4142 47.2068C46.5728 46.2709 46.6304 45.2783 46.7601 44.2998ZM53.2459 44.2998H48.5329C48.5618 46.3702 47.9852 48.3696 47.5961 50.3833C48.4465 50.2556 49.8733 51.1207 50.594 51.1065C51.3146 51.0923 51.1273 50.6385 51.3146 50.3691C52.4677 48.6674 53.1595 46.3276 53.2604 44.2998H53.2459ZM39.1069 56.254V51.6737L38.8475 51.5177L35.0281 51.773C35.7487 53.5881 37.2476 55.5025 39.1213 56.254H39.1069ZM40.8941 51.5035V56.1973C40.8941 56.4809 41.4994 56.0555 41.6147 55.9846C43.056 55.0487 44.1947 53.347 44.973 51.8722C44.9009 51.7588 44.8288 51.7446 44.7135 51.7162C44.2811 51.6312 41.0238 51.3759 40.8941 51.5035ZM33.1256 52.1417C32.9526 52.0424 31.3095 52.4536 31.0069 52.5529C30.7042 52.6522 30.5457 52.6096 30.6321 52.794C30.7474 53.0776 32.4193 54.2687 32.7797 54.4956C33.5868 55.0061 34.4515 55.4174 35.3451 55.7293C34.4371 54.6374 33.6588 53.4605 33.1256 52.1417ZM49.3689 52.638C48.8644 52.638 47.207 51.9573 46.861 52.17C46.5151 52.3827 46.0827 53.7157 45.8954 54.0135C45.5351 54.6233 45.0594 55.1479 44.6559 55.7293C45.8521 55.233 47.1061 54.6374 48.1438 53.8575C49.1815 53.0776 49.513 52.794 49.3689 52.638Z" fill="black"/>
<path d="M34.4232 26.4328C33.789 25.7947 34.1926 23.5683 34.1782 22.7033C34.1638 21.8383 34.0773 22.1645 34.0629 21.895C34.0485 21.3562 34.135 20.6471 34.0629 20.1508C33.9332 19.2858 32.5495 19.3142 32.4054 20.4628C32.1604 22.4339 32.636 24.8871 32.4054 26.8441C32.1748 28.7442 29.1481 29.0704 28.4707 27.0993C28.1536 26.1776 28.2257 22.3204 28.3121 21.1718C28.5716 17.3998 32.2469 14.6488 35.706 13.6987C39.165 12.7486 37.8102 13.6136 39.4677 13.6987C40.7793 13.7696 42.0332 13.2591 43.3015 13.4292C46.3859 13.8688 50.4071 16.634 51.3151 19.6687C51.7331 21.0726 51.7187 24.8871 51.5745 26.4186C51.4592 27.7658 50.4359 28.6592 49.0523 28.3756C47.6542 28.0919 47.5389 26.8582 47.4813 25.6954C47.3948 24.0505 47.7263 21.7532 47.4813 20.2359C47.3372 19.3567 46.1121 19.3142 45.9391 20.0516C45.795 21.7249 46.0544 23.5258 45.9103 25.1849C45.8382 25.9932 45.7661 26.603 44.8149 26.6881C41.7161 26.9717 38.1994 26.4612 35.0574 26.6881C34.8268 26.6881 34.5818 26.603 34.4232 26.4328Z" fill="black"/>
<path d="M50.6367 30.1762L50.6944 29.9635C52.0924 29.5523 53.1878 28.2477 53.3463 26.8154C53.5049 25.3123 53.5193 21.0581 53.2022 19.6684C53.1013 19.2572 52.8707 18.8459 52.7842 18.4347C53.7355 18.775 55.2344 19.1012 56.0704 19.6259C56.7622 20.0655 57.3099 21.2566 58.0738 21.7813C58.8376 22.306 60.4519 22.5329 61.2158 23.2277C61.5184 23.4972 63.2912 26.4184 63.5939 26.9572C64.3434 28.3186 64.7181 29.5664 64.401 31.1121C64.1272 32.4593 62.0805 35.735 61.2014 36.9262C59.5439 39.1951 56.5172 37.3374 57.4972 35.2387C58.1458 33.849 59.933 31.9346 60.3942 30.5591C60.8555 29.1836 59.8465 29.0418 59.0106 29.5097L56.6469 33.3668C55.9407 33.9341 55.4218 33.693 54.7444 33.2959C53.2743 32.4026 52.1501 30.9845 50.6367 30.1762Z" fill="black"/>
<path d="M27.1581 18.534C27.0139 19.1154 26.6969 19.6259 26.6392 20.2357C26.4807 21.8097 26.423 24.4331 26.5239 26.0072C26.6248 27.5812 27.4463 29.3822 29.3632 30.0203C27.9508 30.9704 26.6392 32.3601 25.2123 33.2535C24.5782 33.6505 24.1025 33.9483 23.3963 33.3953L21.047 29.6516C20.3119 28.8858 19.1877 29.5523 19.5769 30.5733C20.1102 32.0197 21.8109 33.7781 22.5027 35.2246C23.526 37.3658 20.4561 39.1242 18.8562 37.068C18.0059 35.9761 15.8007 32.275 15.5701 31.0129C15.2963 29.5098 15.671 28.2477 16.4061 26.9431C16.752 26.3333 18.4815 23.4972 18.8418 23.1569C19.6634 22.4195 21.0902 22.3202 21.9262 21.753C22.7621 21.1858 23.2378 19.9804 23.9872 19.5692C24.3331 19.3848 27.0284 18.3922 27.1581 18.5198V18.534Z" fill="black"/>
<path d="M62.2235 9.18906C70.6983 9.0898 70.0065 21.7105 61.8056 20.9873C54.21 20.3208 54.7432 9.27414 62.2235 9.18906Z" fill="black"/>
<path d="M16.565 9.27399C21.8834 8.56496 25.7028 13.8827 22.6617 18.3779C19.2458 23.4404 11.0593 20.6894 11.6646 14.3506C11.8953 11.9683 14.1293 9.60014 16.565 9.27399Z" fill="black"/>
<path d="M39.7112 3.33171e-05C47.8978 -0.283578 48.0995 11.7983 39.9851 11.8125C32.1012 11.8125 32.1157 0.269464 39.7112 3.33171e-05Z" fill="black"/>
</g>
<defs>
<clipPath id="clip0_508_428">
<rect width="68" height="79" fill="white" transform="translate(6)"/>
</clipPath>
</defs>
</svg>
