<svg width="78" height="77" viewBox="0 0 78 77" fill="none" xmlns="http://www.w3.org/2000/svg">
<g clip-path="url(#clip0_508_469)">
<path d="M21.6602 1.97812H33.4154V15.7983H38.4329V3.72382H38.863V15.7983H47.8944V7.79712H53.5569L53.772 8.23355H48.3244V15.7983H61.1548L61.3698 49.2575L68.681 49.1121V55.0766H68.2509V49.5485H61.3698V60.9683L61.1548 61.1865H48.8979V67.5874H54.202V68.0238H48.4678V61.1865H44.9556C44.9126 61.1865 44.8409 60.9974 44.7405 61.041V74.1338H55.4922C55.822 71.7626 59.0761 71.3552 60.008 73.5519C61.3842 76.796 56.1517 78.5708 55.4922 75.0066H43.8804V61.1865H38.863V73.2609H38.4329V61.4047C38.4329 61.3465 38.6623 61.2883 38.5046 61.1865L38.3612 61.041C38.3039 61.041 38.2609 61.1865 38.2178 61.1865H33.4154V75.0066H22.162C21.6029 76.4759 20.2553 77.4361 18.6928 76.7814C16.8291 75.9959 16.8721 73.0282 18.7644 72.2863C20.3844 71.6462 21.6029 72.6499 22.162 74.1338H32.5553V61.1865H28.828V68.0238H23.0938V67.5874H28.398V61.1865H16.8578L16.6428 60.9683V49.1121H8.75819V54.4947L8.32812 54.4365C8.02707 54.2183 8.32812 53.389 8.32812 52.9817C8.37113 51.5997 8.3998 50.0286 8.18477 48.6902H16.6428V44.3259H2.88059V55.8185C5.2603 56.2113 5.53268 59.6445 3.21031 60.4446C-0.0151977 61.5356 -1.39142 56.444 2.02046 55.8185V43.4531H16.6428V38.216H3.88409V37.7796H16.6428V32.6879H2.02046V20.9772C1.77675 20.6717 1.37536 20.6862 1.08864 20.468C-1.64946 18.4168 1.37536 14.489 3.95576 16.5402C6.53617 18.5914 4.88758 20.5407 2.88059 20.759V31.8151H16.6428V28.1782H9.54665L9.33161 27.96V22.2137H9.76168V27.5236L9.97672 27.7418H16.6428V16.031L16.8578 15.8128H28.9714V8.2481H23.6672V7.81167H29.4015V15.8128H32.5553V2.85097H21.8753C21.2445 4.93126 18.4921 5.76047 17.3022 3.70927C15.4386 0.508817 20.9004 -1.84788 21.6602 1.97812ZM52.1951 25.1087H25.8176V51.8761H52.1951V25.1087Z" fill="black"/>
<path d="M75.9946 44.0205V56.3859C78.4173 56.7205 78.747 60.1682 76.4677 61.012C73.2421 62.2049 71.7369 57.0696 75.1344 56.3859V44.8934H61.5156V44.0205H75.9946Z" fill="black"/>
<path d="M75.9946 21.3263V33.2553H61.5156V32.3824H75.1344V21.3263C72.3247 20.7589 72.7404 16.5838 75.4928 16.5111C78.5463 16.4238 78.919 20.7735 75.9946 21.3263Z" fill="black"/>
<path d="M55.3513 1.97825C55.724 -0.392995 58.9925 -0.742135 59.867 1.54182C61.1285 4.85866 56.0107 6.38615 55.3513 2.8511H44.7429V15.6529H43.8828V1.97825H55.3513Z" fill="black"/>
<path d="M68.11 22.7812V28.5275C67.9666 28.7457 67.5796 28.7457 67.3215 28.7457H61.5156V28.1638H67.3215C67.3789 28.1638 67.4792 28.4257 67.6799 28.0911V22.7812H68.11Z" fill="black"/>
<path d="M74.1309 38.3477H61.5156V38.7841H74.1309V38.3477Z" fill="black"/>
<path d="M29.5469 46.2027L35.1521 31.0151C35.4961 30.5205 37.3024 30.9133 37.9475 30.7678L43.7535 46.2027H41.1014L39.5961 42.3476L33.6612 42.2749L32.2133 46.2172H29.5612L29.5469 46.2027ZM38.865 40.2382L36.643 33.1099L34.2776 40.2382H38.865Z" fill="black"/>
<path d="M48.4671 30.7822V46.3481C48.3668 46.3917 48.2951 46.2026 48.2521 46.2026H45.8867V30.7822H48.4671Z" fill="black"/>
</g>
<defs>
<clipPath id="clip0_508_469">
<rect width="78" height="77" fill="white"/>
</clipPath>
</defs>
</svg>
