<svg width="67" height="80" viewBox="0 0 67 80" fill="none" xmlns="http://www.w3.org/2000/svg">
<g clip-path="url(#clip0_447_119)">
<path d="M5.60699 57.9726C4.89651 57.8368 3.67265 56.6321 3.46254 55.992C2.94917 54.4403 4.14703 52.9037 3.75063 51.671C3.54052 51.0159 2.21053 50.5224 1.63867 50.0633C-2.65889 46.6151 2.63942 42.876 4.5391 39.7295C7.12543 35.4452 5.93191 33.8719 6.0857 29.3311C6.79402 8.34245 28.4443 -5.67657 48.0844 2.23917C65.6105 9.30363 72.477 30.8138 62.1642 46.7272C60.1627 49.8155 58.1417 50.9641 57.6565 54.9877C56.7229 62.7569 59.8378 71.3623 63.0956 78.2867C63.3274 79.0043 63.0653 79.7069 62.3656 79.9979H28.1367C27.1923 79.7048 26.9713 77.3988 26.6464 76.4785C25.8861 74.3213 24.541 72.4118 22.3055 71.6015C17.9278 70.0154 13.4245 72.886 8.97963 71.6317C5.02214 70.5175 6.95431 67.0111 5.85176 64.4185C5.58749 63.7979 4.929 63.4746 4.56509 62.9574C3.57951 61.5587 3.86327 60.3173 4.8012 59.02C4.97882 58.7743 5.78028 58.2096 5.60699 57.9704V57.9726ZM59.7641 77.4893C56.6882 70.6791 54.4117 63.0414 54.9012 55.4705C55.2803 49.5935 58.6832 47.8328 61.1461 43.1325C70.1939 25.8484 58.902 4.92228 39.5565 2.82105C25.1302 1.25212 11.6829 11.3273 9.22656 25.5166C8.16084 31.6694 10.3746 35.3741 6.81135 41.1821C5.73479 42.9363 4.277 44.2596 3.20261 45.8177C1.67333 48.0397 4.25534 48.1884 5.45103 49.3349C6.48427 50.3241 6.52759 51.7098 6.42361 53.0568C6.30881 54.533 5.37305 55.0265 7.00413 55.8541C8.12185 56.4209 10.3486 56.2205 9.95221 58.0157C9.77459 58.8195 8.05686 59.52 7.38753 60.1471C5.97306 61.4746 6.77236 61.16 7.61714 62.1794C8.34496 63.0587 8.66337 64.3819 8.828 65.4918C8.91464 66.0823 8.9558 68.565 9.08793 68.7826C9.8829 70.1037 16.2339 68.5671 17.6874 68.4594C22.5482 68.0995 26.5836 69.7934 28.6588 74.317C29.1331 75.3493 29.3584 76.4699 29.8458 77.4915H59.762L59.7641 77.4893Z" fill="black"/>
<path d="M42.5787 39.7401L52.5211 34.0657C57.475 30.9171 63.3993 35.3135 59.1061 40.294C53.3681 43.2982 47.7687 47.8778 42.0393 50.7376C40.7028 51.4036 39.1822 51.8217 37.6789 51.6342L25.0526 48.3735L24.2663 48.8713C25.4707 50.9079 25.4339 52.1579 23.4324 53.5199C21.7732 54.6492 19.124 56.1362 17.638 53.9876C15.5218 49.5653 12.0365 45.1236 10.0632 40.7142C9.65593 39.8069 9.4848 39.1302 9.95485 38.1733C10.4249 37.2165 13.908 35.2122 14.9369 35.2208C15.851 35.2294 16.6503 35.8544 17.1983 36.5204C17.4583 36.8372 17.3131 37.3242 17.8178 37.1302C21.2988 35.5268 25.1848 31.8308 29.2073 32.1498C30.8947 32.2834 33.5806 33.5851 35.32 34.1346C38.6125 35.1756 42.9101 35.0743 42.5787 39.7379V39.7401ZM39.6197 39.8651C39.845 39.641 39.8797 38.8737 39.7865 38.5656C39.5309 37.7143 36.65 37.3501 35.7662 37.0807C33.8276 36.4859 31.6246 35.4643 29.7314 35.0204C28.3148 34.6863 27.6325 34.8695 26.3025 35.4105C23.8375 36.4147 21.2923 38.4125 18.9052 39.6625L22.7977 46.5179C22.9125 46.5998 24.6238 45.3154 25.0981 45.5826L37.9475 48.9424C39.0024 49.0179 39.7367 48.8605 40.6811 48.423L57.1588 38.3608C58.0209 37.863 58.114 36.251 57.1284 35.8307C55.9002 35.307 53.9464 36.404 52.8439 36.9708C49.8308 38.5225 43.7657 42.9986 40.7071 43.1279C38.8811 43.2055 33.6889 41.9383 31.9062 41.2422C30.091 40.5332 30.6217 38.3263 32.7293 38.6518C34.4341 38.9147 36.8406 40.1388 38.4869 40.1862C38.7511 40.1927 39.4616 40.0224 39.6197 39.8651ZM15.0106 37.9664C14.8936 37.8802 12.9354 39.0397 12.63 39.2229C12.4979 39.3004 12.3506 39.1582 12.4394 39.4772L19.8237 52.3109C20.0814 52.3841 21.719 51.4467 22.1046 51.2312C22.2519 51.1493 22.3732 51.2937 22.2887 50.9812L15.0127 37.9664H15.0106Z" fill="black"/>
<path d="M40.4894 21.1674C41.3883 20.9562 43.2035 22.4131 43.6563 22.454C43.8144 22.4691 45.7271 21.3118 46.5675 21.2084C51.3265 20.6222 54.0969 24.6307 52.429 28.9754C51.4131 31.6219 47.3321 35.2834 44.7956 36.5442C43.3053 37.2855 42.9783 36.8351 41.6808 36.0356C38.9558 34.3567 36.3651 31.9301 34.8748 29.0982C34.1037 29.665 32.0394 31.3633 31.1448 31.3633C29.4726 31.3633 24.5057 26.7233 23.4724 25.2751C19.0232 19.0317 24.7483 12.7905 31.1448 16.8356C35.2387 13.9327 40.3616 16.0469 40.4894 21.1696V21.1674ZM26.975 18.1589C26.2017 18.2214 25.4501 18.661 25.032 19.3054C23.5591 21.579 25.7858 24.2018 27.4104 25.7126C27.9931 26.2535 30.3173 28.1457 30.9498 28.3332C31.3614 28.456 32.3946 27.6457 32.7997 27.3569C34.5109 26.1393 37.4265 23.5811 37.6951 21.4196C37.981 19.1201 36.1658 17.6869 33.9781 18.3658C32.9903 18.6718 31.8769 20.0381 31.1426 20.0381C30.1224 20.0381 28.9614 17.9994 26.9729 18.1589H26.975ZM39.6728 23.7837C39.5081 24.3225 39.1486 24.8268 38.8172 25.2751C38.2366 26.0552 37.0561 26.9022 37.3009 27.8095C37.9009 30.0465 41.6418 32.7684 43.5371 34.0248C46.1148 32.8869 52.2406 27.8461 49.6369 24.7341C48.4759 23.3484 46.756 23.732 45.4108 24.5747C44.4361 25.1845 44.135 26.1673 42.8461 25.357C41.8432 24.7255 41.1631 23.7061 39.6728 23.7837Z" fill="black"/>
<path d="M42.0446 7.83837C43.2858 7.64441 44.1089 7.85992 45.2288 8.30172C45.4714 8.39655 45.779 8.71981 45.9263 8.74137C46.0411 8.75861 47.4837 7.92458 48.0448 7.83622C52.3857 7.1552 54.7316 11.2715 52.7582 14.9459C51.9329 16.4804 48.27 20.0299 46.6346 20.4652C45.2223 20.8402 43.405 19.3144 42.3371 18.4394C39.9218 16.461 37.4113 13.3986 38.9796 10.1077C39.5016 9.01076 40.8554 8.02156 42.0468 7.83622L42.0446 7.83837ZM50.2997 10.9202C49.4874 10.112 48.3502 10.5086 47.4859 10.9956C46.8881 11.3318 46.7516 11.8814 45.9003 11.8447C44.9711 11.8059 44.4858 10.5409 43.0844 10.4762C40.9139 10.3749 40.9529 12.627 41.8583 14.0774C42.3327 14.8403 45.2786 17.7088 46.0476 17.6441C46.626 17.5967 49.2535 15.2175 49.704 14.6528C50.4686 13.696 51.3719 11.9848 50.2997 10.9202Z" fill="black"/>
<path d="M13.7543 39.4582C14.6424 38.5746 16.2323 40.081 15.106 40.8827C14.1031 41.5961 13.0265 40.1823 13.7543 39.4582Z" fill="black"/>
</g>
<defs>
<clipPath id="clip0_447_119">
<rect width="67" height="80" fill="white"/>
</clipPath>
</defs>
</svg>
