<svg width="79" height="79" viewBox="0 0 79 79" fill="none" xmlns="http://www.w3.org/2000/svg">
<g clip-path="url(#clip0_447_142)">
<path d="M78.9986 66.3496V75.6966C78.5778 77.4459 77.3896 78.6422 75.6129 79.0001H58.6844C56.7916 78.601 55.4325 77.2306 55.2954 75.2564C55.0858 72.2536 55.3672 68.8744 55.4155 65.8611C55.9798 63.1606 58.1709 61.0501 60.9125 60.6382C62.4449 60.4085 62.5118 60.8494 63.8008 61.2751C66.3369 62.1118 68.727 61.9353 71.201 61.0115C71.8072 60.7849 71.9257 60.5133 72.6706 60.5479C75.7613 60.6914 78.6649 63.2275 78.9995 66.3488L78.9986 66.3496ZM61.4099 63.2235C59.8057 63.3323 58.1797 64.9115 57.979 66.4907C57.6364 69.1904 58.1934 72.4914 57.9564 75.2548C58.0137 75.7329 58.4208 76.123 58.8424 76.3028L75.1728 76.3447C75.7604 76.3141 76.3134 75.7538 76.3417 75.1766C76.1401 72.4326 76.598 69.3339 76.3368 66.6317C76.1958 65.1702 74.9503 63.7708 73.5517 63.3718C73.3735 63.321 72.9092 63.1993 72.7536 63.2097C72.4537 63.2299 71.176 63.8393 70.694 63.9715C68.3393 64.6164 65.7678 64.5866 63.4219 63.9087C62.9641 63.7765 61.7162 63.2025 61.4091 63.2235H61.4099Z" fill="black"/>
<path d="M20.3949 79.0001H3.38571C1.59532 78.647 0.353888 77.4064 0 75.616V66.3496L0.469163 64.6834C1.4486 62.3279 3.75411 60.6681 6.32887 60.5496C7.09388 60.5141 7.77102 61.0333 8.50217 61.2767C10.6586 61.995 13.0414 61.9901 15.197 61.2751C16.4844 60.8478 16.5707 60.4125 18.087 60.6399C21.1083 61.0937 23.4936 63.6491 23.704 66.7092C23.8943 69.4798 23.5517 72.4633 23.704 75.2573C23.567 77.2105 22.2498 78.5471 20.3949 79.0009V79.0001ZM6.11121 63.2243C4.44818 63.3396 2.94799 64.8801 2.68116 66.4915L2.65859 75.2557C2.71583 75.7337 3.12292 76.1239 3.54452 76.3036C9.1108 76.3415 14.7198 76.4181 20.278 76.2649C20.6601 76.1319 20.9938 75.6474 21.0422 75.2557C20.8431 72.4866 21.3034 69.3581 21.0398 66.6326C20.8987 65.1711 19.6533 63.7717 18.2546 63.3726C18.0773 63.3218 17.6105 63.2001 17.4566 63.2106C17.2405 63.2251 16.0805 63.7604 15.7008 63.8732C12.7988 64.7382 10.0588 64.5737 7.21399 63.6112C6.88187 63.4992 6.42399 63.2025 6.11202 63.2243H6.11121Z" fill="black"/>
<path d="M40.3865 0.0332553C47.0716 0.709592 49.827 9.38105 44.7823 13.8139C38.8355 19.04 29.7964 13.3939 31.9012 5.77285C32.717 2.81841 35.5151 0.334745 38.613 0.0332553C39.0612 -0.0102753 39.9399 -0.0118876 40.3865 0.0332553ZM38.7565 2.71522C36.8234 2.93288 35.0403 4.49353 34.4792 6.33633C33.0846 10.9183 37.9488 14.8659 42.1043 12.5072C47.037 9.70753 44.6388 2.05259 38.7565 2.71442V2.71522Z" fill="black"/>
<path d="M33.9215 17.14C34.8163 17.0965 35.2766 17.5463 36.094 17.8212C38.5688 18.6547 40.8767 18.5338 43.3096 17.6591C44.4438 17.2512 44.3753 17.0021 45.7368 17.2069C48.763 17.6607 51.1435 20.2178 51.3539 23.2762C51.5473 26.096 51.2031 29.1367 51.349 31.9807C51.1443 33.9251 49.6312 35.3962 47.6852 35.5704H31.3153C29.3669 35.3979 27.8667 33.9235 27.6514 31.9807C27.7974 29.1367 27.4531 26.0968 27.6466 23.2762C27.8731 19.9719 30.6204 17.3012 33.9207 17.1392L33.9215 17.14ZM48.3406 32.5603C48.4873 32.4136 48.6663 32.0331 48.692 31.8235C48.4631 29.0698 48.9968 25.8227 48.6816 23.1279C48.5034 21.6035 46.7098 19.6736 45.1064 19.7784C44.8944 19.7921 43.7279 20.329 43.3507 20.4411C41.054 21.123 38.6083 21.1883 36.2753 20.6216C35.7683 20.4983 34.0819 19.7792 33.828 19.7808C32.1238 19.7881 30.4511 21.6285 30.3076 23.2778C30.0714 26.0025 30.4914 29.0625 30.3084 31.8235C30.4132 32.4039 30.8638 32.9021 31.4757 32.9126L47.8617 32.8481C48.0004 32.7514 48.2261 32.6732 48.3398 32.5603H48.3406Z" fill="black"/>
<path d="M24.7473 14.618C24.0685 15.0139 23.397 15.4363 22.7554 15.8893C15.5462 20.9743 11.1609 29.0484 10.5571 37.8618C10.5015 38.6792 10.7748 39.7997 10.1605 40.447C9.45595 41.1903 8.08715 40.7791 7.91948 39.7795C7.73971 38.7082 8.00654 36.5172 8.15325 35.3789C9.4503 25.3419 15.6623 16.4866 24.5054 11.6773C23.738 11.1759 21.7155 10.6785 21.2648 9.92158C20.6449 8.87926 21.5309 7.77084 22.6731 7.9498L28.27 10.4931C28.9472 10.9623 29.0842 11.5048 28.8174 12.2803C28.208 14.0481 26.8561 15.9344 26.2152 17.7369C25.3978 19.1033 23.3825 18.3794 23.7396 16.793C23.817 16.4488 24.8255 14.7091 24.7473 14.6189V14.618Z" fill="black"/>
<path d="M70.939 36.4543C71.6685 35.9828 72.6455 34.3979 73.4839 34.2859C74.7173 34.1214 75.5161 35.3661 74.7689 36.3753C73.3493 37.5386 72.0337 39.4346 70.6173 40.5245C70.0869 40.9324 69.4493 40.9307 68.9204 40.5245C68.2022 39.9723 65.313 37.1138 64.8116 36.4124C64.0547 35.3548 64.8294 34.0771 66.1361 34.2826C66.7673 34.3818 67.625 35.6514 68.157 36.0497C68.1965 35.2564 68.0007 34.3423 67.837 33.5491C66.0466 24.8752 60.4142 17.7749 52.6424 13.6862C52.0805 13.3904 50.7641 12.9567 50.382 12.5609C49.6033 11.7547 50.1942 10.365 51.3067 10.34C52.0475 10.3239 54.2039 11.5266 54.9495 11.9426C63.9023 16.9413 69.9829 26.2021 70.9382 36.4519L70.939 36.4543Z" fill="black"/>
<path d="M11.1077 43.4897C17.4527 42.9238 21.8824 49.7122 18.7151 55.2841C15.6938 60.5997 7.95015 60.561 4.9554 55.2317C2.16703 50.27 5.45439 43.9935 11.1077 43.4897ZM11.0239 46.1451C9.34313 46.3563 7.68977 47.7009 7.02472 49.2382C5.03763 53.8298 9.95981 58.3602 14.35 55.9967C19.4366 53.2583 17.0021 45.3938 11.0239 46.1451Z" fill="black"/>
<path d="M66.4072 43.4897C72.782 42.9214 77.2157 49.7702 73.9856 55.3349C70.9553 60.5545 63.3439 60.5553 60.3129 55.3349C57.4286 50.3684 60.7039 43.9976 66.4072 43.4897ZM66.4056 46.1467C62.7103 46.5643 60.7353 50.9101 62.6192 54.0773C64.5136 57.2623 69.1811 57.4961 71.3745 54.4981C74.1589 50.6924 71.0771 45.6195 66.4056 46.1475V46.1467Z" fill="black"/>
<path d="M32.163 67.3976C32.1751 67.5185 32.2815 67.5225 32.3685 67.554C32.9191 67.7515 33.9566 67.9151 34.5644 68.0183C39.0602 68.7801 43.747 68.5028 48.1057 67.1767C48.8384 66.9534 50.8166 66.0465 51.3761 66.0578C52.6522 66.082 53.1302 67.7232 52.0694 68.4794C51.2681 69.0509 48.524 69.828 47.4809 70.0973C41.8445 71.5499 35.9775 71.4 30.3903 69.8151C30.6862 70.4237 31.1674 71.1114 31.4278 71.7184C32.1557 73.412 30.1622 74.5197 29.1134 73.0646C28.4403 71.3959 27.111 69.6724 26.5064 68.0159C26.1574 67.059 26.3879 66.5108 27.3053 66.1271C28.5733 65.5967 30.7079 65.0509 32.0824 64.6979C32.7136 64.5358 33.0312 64.3625 33.6414 64.7511C34.5451 65.3274 34.3975 66.589 33.4568 67.038C33.0787 67.2186 32.5757 67.3121 32.163 67.3976Z" fill="black"/>
</g>
<defs>
<clipPath id="clip0_447_142">
<rect width="79" height="79" fill="white"/>
</clipPath>
</defs>
</svg>
