<svg width="75" height="75" viewBox="0 0 75 75" fill="none" xmlns="http://www.w3.org/2000/svg">
<g clip-path="url(#clip0_447_136)">
<path d="M-0.00195012 54.1993C0.498819 53.0075 1.51209 51.9076 2.86574 51.7217C3.99834 51.5671 7.52915 51.5808 8.64415 51.7746C9.09601 51.8528 9.71806 52.1112 10.0917 52.3773C10.5338 52.6944 11.1304 53.759 11.2184 53.7727C11.3964 53.8001 14.0313 52.6122 14.5634 52.4399C22.7791 49.7608 30.3728 51.7119 37.4325 56.2267C38.8937 57.1622 39.9481 58.5575 39.9716 60.3521L53.0933 57.0017C57.3733 56.5653 60.063 61.0644 57.2462 64.5244C56.4031 65.5597 55.3487 66.0293 54.1692 66.5734C47.89 69.4697 41.0572 71.7712 34.6646 74.4542L32.3564 75.0022H30.7465L11.6233 70.6146C11.3006 70.6224 11.058 71.5481 10.7626 71.9297C10.4457 72.3367 9.74741 72.8925 9.25642 73.0608C8.31356 73.3837 3.99442 73.3642 2.86769 73.2291C1.48862 73.0628 0.496863 71.9845 -0.00390625 70.7555V54.2032L-0.00195012 54.1993ZM24.6473 58.9372C25.0522 58.5282 25.8718 58.307 26.3941 58.628L34.4005 62.7788C36.5347 63.2152 37.8746 60.6769 36.3743 59.1916C35.717 58.5419 30.9479 56.1837 29.8662 55.7414C23.9763 53.3323 16.9205 53.9977 11.4434 57.1544L11.4199 67.5304C18.0081 68.8122 24.5318 70.5461 31.1142 71.9238C32.2644 72.0119 33.4029 71.6949 34.4846 71.3465C40.7697 69.323 47.088 65.7495 53.3926 63.6027C55.7419 62.861 56.2955 59.6887 53.1129 60.0996C48.7742 60.6613 43.7997 62.9392 39.3847 63.6496C37.2408 65.7162 35.3532 66.5205 32.4718 65.2935C29.9347 64.2113 27.4426 62.4304 24.8976 61.2993C24.1641 60.8413 24.0585 59.5341 24.6473 58.9411V58.9372ZM8.34486 54.7864H3.07309V70.1684H8.34486V54.7864Z" fill="black"/>
<path d="M31.6991 33.9832C31.2355 33.901 30.547 33.3785 30.4628 32.8775C30.2692 31.7052 30.3298 27.709 30.4687 26.4546C30.6995 24.3782 32.2116 22.1218 34.1071 21.2274C32.6439 18.1941 33.4968 14.4328 36.3234 12.5364C40.488 9.74574 46.2371 12.1215 46.8533 17.1373C47.9135 16.9181 49.0187 16.9181 50.073 17.1373C50.3 15.1353 51.5323 13.331 53.2518 12.3309C59.2493 8.83965 65.8062 15.0981 62.8133 21.2353C65.2741 22.3508 66.4498 25.0319 66.6258 27.6053C66.708 28.8147 66.7628 31.2805 66.6063 32.4332C66.5163 33.1006 65.951 33.9851 65.2272 33.9851H58.2712V38.4529C58.2712 38.7152 57.2931 39.6741 56.8843 39.5547C51.5088 39.177 45.4781 40.044 40.1809 39.5587C39.5706 39.5019 38.6512 38.9422 38.6512 38.3062V33.9851H31.6952L31.6991 33.9832ZM42.1292 21.3468C42.3209 21.1531 42.5576 20.3507 42.7806 20.02C43.477 18.9867 44.099 18.9652 43.9132 17.515C43.5806 14.9337 40.3491 13.5247 38.168 14.9631C34.7957 17.1882 36.6794 22.3997 40.9125 21.8106C41.159 21.7754 41.9805 21.4956 42.1312 21.3449L42.1292 21.3468ZM54.7991 21.3468C54.9066 21.4799 55.7947 21.7813 56.0177 21.8126C60.8474 22.4878 62.1952 16.0199 57.9778 14.5776C55.9434 13.8828 53.6273 15.0923 53.1285 17.1882C52.7001 18.9886 53.5882 19.0865 54.4391 20.4603C54.6093 20.7343 54.7032 21.2274 54.7991 21.3468ZM47.5477 20.1022C46.4112 20.294 45.1632 21.6032 44.8717 22.6972C44.0755 25.6953 46.8141 28.257 49.7542 27.2902C53.8601 25.9379 52.6747 19.2411 47.5477 20.1022ZM33.3833 27.4644C33.2797 28.5603 33.4596 29.7952 33.3833 30.9068H39.0933C39.3261 29.9185 39.997 28.7697 40.7051 28.0515C40.9712 27.7834 42.3053 26.9517 42.3248 26.8519C42.4109 26.437 41.7047 25.296 41.7243 24.7559C40.5213 25.0084 39.3163 24.9634 38.1348 24.6131C37.6399 24.4663 36.1767 23.57 35.9791 23.5993C35.5781 23.66 34.4514 24.6933 34.1971 25.0553C33.7667 25.6659 33.4518 26.7266 33.3833 27.4624V27.4644ZM63.5469 30.9068V27.0241C63.5469 26.1454 62.5551 24.7148 61.8587 24.1708C60.552 23.1492 60.6577 23.8792 59.4449 24.386C58.1108 24.9418 56.6085 25.0534 55.202 24.754L54.6347 26.7129C56.0803 27.8167 57.4496 29.0496 57.8369 30.9068H63.5469ZM55.2001 36.4744V32.4469C55.2001 31.5741 54.1887 30.2668 53.5119 29.7404C52.3089 28.801 52.4419 29.4605 51.2428 29.9537C48.9189 30.9107 46.3701 30.6171 44.3162 29.1748C43.209 29.6484 41.7282 31.3764 41.7282 32.5937V36.4764H55.2001V36.4744Z" fill="black"/>
<path d="M47.1174 0.0411549C73.6542 -1.36593 85.4556 33.2514 63.5938 48.3125C43.3068 62.2894 16.4531 43.3593 22.8535 19.5661C23.233 18.1551 23.7788 15.3214 25.6625 15.705C27.783 16.1355 26.1574 19.0221 25.8112 20.3274C18.8258 46.6764 54.668 61.577 68.5859 38.6586C80.9897 18.2334 58.1128 -5.50694 37.188 5.92781C36.4604 6.32508 34.1639 8.0668 33.7198 8.17053C31.9202 8.58932 31.0634 6.69691 32.4288 5.41507C35.7033 2.34258 42.7063 0.275995 47.1174 0.0411549Z" fill="black"/>
<path d="M28.0689 9.99242C30.8075 9.36422 30.5963 13.6442 27.9574 12.8242C26.731 12.4426 26.7838 10.2879 28.0689 9.99242Z" fill="black"/>
</g>
<defs>
<clipPath id="clip0_447_136">
<rect width="75" height="75" fill="white"/>
</clipPath>
</defs>
</svg>
