<svg width="69" height="79" viewBox="0 0 69 79" fill="none" xmlns="http://www.w3.org/2000/svg">
<g clip-path="url(#clip0_447_126)">
<path d="M51.1824 38.3415C53.1164 37.7654 55.3678 41.0301 57.1555 42.1782C58.041 42.7459 59.1939 43.3262 60.163 43.7437C63.6717 45.2592 68.3958 44.6371 68.7801 48.8412C69.5362 57.1616 68.5546 64.5009 62.9323 70.8675C61.2991 72.7127 54.1021 79.0042 51.9301 79.0042C49.8833 79.0042 42.9328 73.0342 41.3414 71.2808C38.6013 68.2666 35.8528 63.7953 35.4977 59.6748C35.3515 57.9882 35.2972 47.4593 35.7191 46.5742C36.1744 45.6182 43.1082 44.0944 45.0798 43.0507C46.6629 42.2116 50.677 38.4918 51.1908 38.3373L51.1824 38.3415ZM43.5092 55.8215C42.3982 56.8735 42.6321 58.5142 43.4006 59.6623C43.7264 60.1466 48.0705 64.4925 48.3963 64.6345C49.4448 65.0854 50.5726 65.0102 51.5291 64.4591C52.0763 64.146 60.1463 56.0761 60.4637 55.5292C61.9131 53.0118 59.8413 50.1103 57.1221 51.3627C55.6059 52.0599 51.1573 58.222 49.8416 58.222C48.0246 57.2701 45.8818 53.5754 43.5051 55.8215H43.5092Z" fill="black"/>
<path d="M0.178521 45.1215C0.838488 40.1994 5.84672 34.6302 10.454 32.9603C15.7337 31.0482 15.93 33.3945 20.4412 34.004C21.8906 34.2002 23.8789 34.2336 25.3366 34.1251C29.7517 33.7994 31.8695 31.2069 36.3263 32.6681C39.0289 33.5531 41.769 35.5153 43.4022 37.8448C39.693 40.141 33.4693 39.5983 31.0048 43.5268C30.679 44.0444 29.6891 46.3656 29.6891 46.7831V59.4537H0.800895L0.178521 58.8316C0.592044 54.5441 -0.381199 49.2755 0.178521 45.1215Z" fill="black"/>
<path d="M21.6924 0.158885C39.1356 -2.20406 44.4613 22.7363 28.2545 27.9047C8.28005 34.2755 1.88923 2.83912 21.6924 0.158885Z" fill="black"/>
</g>
<defs>
<clipPath id="clip0_447_126">
<rect width="69" height="79" fill="white"/>
</clipPath>
</defs>
</svg>
