<svg width="70" height="75" viewBox="0 0 70 75" fill="none" xmlns="http://www.w3.org/2000/svg">
<g clip-path="url(#clip0_447_110)">
<path d="M34.0205 75.0001C31.7205 74.4078 29.0612 72.5891 28.068 70.3971C27.7641 69.7308 27.8589 67.896 27.4048 67.352C27.1336 67.0269 26.1339 67.1203 25.8954 66.4185C25.2191 64.4389 27.4015 64.8349 27.5126 63.9014C27.7674 61.7866 26.1273 62.1696 25.8888 61.2587C25.5719 60.0452 27.1271 59.5237 27.1238 59.4046C27.1238 59.0537 26.3136 56.7683 26.0947 56.2469C24.1279 51.5087 19.3417 48.1514 16.9012 43.4164C7.98862 26.0988 23.4647 7.94752 42.3581 14.4722C55.6354 19.0591 59.5363 33.5022 52.4468 45.0387C50.1794 48.7308 44.8574 53.1696 43.8217 57.1417C43.7858 57.2769 45.1482 57.5666 45.0501 58.6932C44.9227 60.1546 42.5345 59.4754 43.1487 61.9121C43.2761 62.411 45.1057 62.1149 44.8116 63.8853C44.5862 65.234 42.7305 64.381 43.1552 66.1417C43.4231 67.2522 45.6807 66.8982 44.6385 68.8907C44.2759 69.5859 43.2631 69.3896 42.6783 69.8563C42.1686 70.2651 41.4923 71.9357 40.8748 72.5859C39.604 73.9185 37.9574 74.3724 36.301 75.0001H34.014H34.0205ZM41.146 57.5602C41.3126 57.4153 42.2503 54.2801 42.6946 53.4529C46.4615 46.4615 53.453 43.2426 53.5968 33.5859C53.9431 10.1074 14.3039 8.95503 17.0318 35.8874C18.0348 45.7984 28.4339 49.6868 29.4434 59.2308C31.0573 58.7351 40.5089 58.1203 41.1427 57.5602H41.146ZM40.5547 60.5151L30.332 61.8703C29.316 62.205 30.2536 63.219 30.1033 64.0591L40.5579 62.7715V60.5151H40.5547ZM40.5514 65.3434L30.0968 66.631C30.1262 67.2522 29.8126 68.411 30.7633 68.4271C33.7429 68.4722 37.4608 67.1718 40.5547 67.2748V65.3402L40.5514 65.3434ZM39.2478 70.175C37.1275 70.3134 34.9941 70.5452 32.8869 70.8284C32.5928 70.867 31.7336 70.6321 32.0636 71.2919C33.0633 73.2844 38.4539 72.5344 39.2478 70.1718V70.175Z" fill="black"/>
<path d="M37.6142 -0.000199085C38.6401 1.00731 38.5225 6.68864 37.7874 7.40967C37.3692 7.81847 36.4152 7.89894 35.9578 7.58349C35.5788 7.32276 35.0496 0.472977 36.6341 -0.00341797H37.6142V-0.000199085Z" fill="black"/>
<path d="M14.3326 13.1171C13.9406 13.5098 13.3656 13.4841 12.882 13.2877C12.5194 13.1396 8.36043 9.40252 8.26895 9.10638C7.46526 6.43471 10.1377 7.46797 11.4772 8.52698C12.5161 9.3478 15.5578 11.8811 14.3293 13.1171H14.3326Z" fill="black"/>
<path d="M58.9459 8.78769C59.9391 7.93469 61.5106 8.704 60.9976 10.3134C60.8898 10.6514 57.9691 14.9776 57.7306 15.1514C56.61 15.9722 55.3097 15.0484 55.6429 13.7641C55.7181 13.4744 58.7205 8.98404 58.9459 8.78769Z" fill="black"/>
<path d="M68.5576 30.6791C70.2238 30.7338 70.5277 32.4752 69.0575 33.0707C68.2865 33.383 63.3565 33.9237 62.7717 33.6373C61.7687 33.148 61.9288 31.6029 63.0036 31.2907C63.8661 31.0396 67.6429 30.6469 68.5544 30.6791H68.5576Z" fill="black"/>
<path d="M0.532049 35.7298C-0.06909 35.5463 -0.203039 33.9948 0.349094 33.6182C0.587589 33.4572 5.46531 33.0742 6.10565 33.1386C8.99373 33.4283 7.6477 35.7298 7.06617 35.7298C5.70707 35.7298 1.43376 36.0034 0.532049 35.7298Z" fill="black"/>
<path d="M44.5036 32.1568C45.0328 32.6106 47.4276 31.2169 47.7543 33.6214C48.4175 38.4851 45.8235 36.2641 44.4578 37.1654C44.35 37.2362 43.5659 38.9905 43.5463 39.1739C43.4614 40.0817 45.5817 40.5227 44.974 41.8424C44.8205 42.1772 42.6054 44.1954 42.2166 44.2823C41.2104 44.5012 40.2335 42.6246 39.7435 42.586C39.6455 42.5795 38.0152 43.2297 37.9368 43.2941C37.2376 43.88 38.0773 46.0688 36.4699 46.3553C30.795 47.3692 33.4021 43.9894 32.6736 43.1718C32.5952 43.0817 30.5892 42.3381 30.4389 42.3027C29.5895 42.0999 29.1451 44.5559 27.3025 43.4744C26.9235 43.2523 25.2214 41.4626 25.1789 41.028C25.0646 39.8628 26.5936 39.4765 26.7896 38.7233C26.8419 38.527 26.2342 36.4926 26.1427 36.4154C25.4958 35.8488 22.183 37.8188 22.9345 33.0194C23.3755 30.2094 26.6589 32.9325 27.113 29.7008C27.2829 28.4776 24.9437 27.8499 25.8258 26.5559C26.0153 26.2759 28.1814 24.2319 28.3512 24.1997C29.3118 24.0162 30.4618 25.954 30.9126 25.9894C31.0335 25.9991 33.0754 25.2201 33.1734 25.1525C33.8432 24.6954 32.6082 22.5033 34.1829 22.2201C34.7677 22.1139 37.1788 22.1235 37.6166 22.3778C38.7144 23.0184 37.9466 24.8789 38.0936 25.1364C38.1557 25.2491 40.031 26.2437 40.2139 26.2727C41.2202 26.4304 41.6514 23.3048 44.3239 25.7512C47.0944 28.2845 44.0952 28.7576 43.8861 29.8295C43.8632 29.9486 44.4121 32.0892 44.5068 32.1697L44.5036 32.1568ZM34.5946 29.3628C28.642 30.2126 29.3608 39.396 35.4604 39.2415C42.2134 39.0709 41.56 28.3682 34.5946 29.3628Z" fill="black"/>
</g>
<defs>
<clipPath id="clip0_447_110">
<rect width="70" height="75" fill="white"/>
</clipPath>
</defs>
</svg>
