<svg width="92" height="82" viewBox="0 0 92 82" fill="none" xmlns="http://www.w3.org/2000/svg">
<g clip-path="url(#clip0_447_131)">
<path d="M3.11293 79.0077H7.59042V33.5982C7.59042 33.0326 8.59909 32.5069 9.14261 32.5318C9.63762 32.5542 10.5754 33.2656 10.5754 33.7228V79.0077H17.0429V31.8541C17.0429 31.3458 17.9334 30.6743 18.472 30.6594C19.0105 30.6444 20.0279 31.1041 20.0279 31.7295V79.0077H26.4954L26.626 78.0784C26.9991 60.9486 26.1509 43.7278 26.5215 26.6217C26.5464 25.4469 27.1608 24.6172 28.417 24.8228C28.8896 24.9 29.6047 25.6786 29.6047 26.1234V79.0077H36.0722V31.3558C36.0722 30.779 37.0635 30.1573 37.6306 30.1698C38.1207 30.1797 39.0572 30.8662 39.0572 31.3558V79.0077H45.5247V38.0831C45.5247 37.52 46.3779 36.7937 46.9563 36.7675C47.4699 36.7439 48.5097 37.302 48.5097 37.8339V57.3308C48.8841 57.3893 48.7099 57.2411 48.7622 57.028C48.991 56.0937 49.1801 53.5983 49.7957 53.0128C50.4636 52.3774 52.4636 52.598 53.3603 52.2853C53.4424 52.2454 54.2695 50.8551 54.3056 50.7305C54.5133 49.9917 53.083 48.4183 53.119 47.5624C53.1675 46.44 54.4934 46.045 55.0767 45.2838C55.2832 43.4762 54.8889 41.3421 55.0991 39.5756C55.2645 38.1878 57.1052 37.8003 57.8192 38.9739C58.3938 39.9182 57.9423 41.894 58.0866 43.004C59.5281 42.7586 60.5815 43.8786 61.778 44.4728L63.9658 43.7515C64.1337 43.6593 64.5267 42.3363 64.5553 42.0697C64.8438 39.4286 64.2904 36.344 64.6125 33.6555C64.9894 32.6028 66.2057 32.1556 67.0876 32.928C67.202 33.0289 67.539 33.511 67.539 33.597V40.1374H71.7056C71.8797 40.1374 72.6695 40.5784 72.82 40.7653C73.2168 41.2549 73.4643 42.5755 73.7254 43.227C73.8013 43.4164 73.6521 43.5634 74.0053 43.5011V28.3646C74.0053 27.6894 74.8933 26.9294 75.56 26.9294C76.2266 26.9294 77.1147 27.6881 77.1147 28.3646V43.5011C78.3584 43.0638 78.8086 42.0298 80.2153 42.8246C80.8434 43.1797 83.9528 45.5405 84.4092 46.0363C85.791 47.535 83.6195 49.1645 83.8806 50.1051C83.9926 50.5075 84.7202 51.2052 84.8495 51.6972C86.4191 52.0747 88.5795 51.3596 89.1417 53.3168C89.4178 54.2798 90.0683 57.3532 90.0596 58.2626C90.0434 60.018 87.8843 60.013 86.842 60.9062L86.5883 62.7201C87.3992 63.9597 89.4912 64.6735 88.7288 66.4102C88.378 67.21 86.5647 70.0691 85.9963 70.7742C84.7538 72.3178 82.6282 70.4864 81.5922 70.9723C81.4578 71.0358 80.0163 72.2617 79.9927 72.3651C79.9927 73.1774 80.3559 74.539 80.1631 75.2716C79.8322 76.5286 78.0176 76.4663 77.1134 77.0742V79.0052H90.7325C90.8805 79.0052 91.613 79.4699 91.7262 79.6306C92.3643 80.5351 91.807 81.8357 90.7362 81.9989L0.989848 81.9404C0.370462 81.6289 0.0172375 81.016 -0.00390625 80.3196V1.82525C0.0607686 0.662919 0.673936 -0.173014 1.92515 0.0312972C2.41145 0.111029 3.11417 0.844807 3.11417 1.33192V79.0077H3.11293ZM71.682 45.9541C71.1322 45.4931 70.7541 43.4612 70.529 43.3105L67.3624 43.2457C67.0577 43.9944 66.8674 45.5006 66.2829 46.0438C65.8239 46.4686 64.717 46.5982 64.0852 46.8324C63.4869 47.0541 62.2867 47.7144 61.7556 47.7157C60.8303 47.7157 59.3328 46.217 58.7059 46.4175C58.5455 46.4686 56.6364 47.9362 56.6115 48.067C56.8453 48.9166 57.793 49.983 57.691 50.8825C57.6239 51.4668 56.8179 52.3849 56.4946 52.9331C56.2097 53.4165 55.9287 54.1913 55.6575 54.5863C55.0655 55.4484 53.1551 55.3562 52.1999 55.4571L51.634 57.9973C51.731 58.3436 53.8951 58.898 54.3578 59.42C54.8926 60.0229 54.8503 61.179 55.0145 61.9664C55.2222 62.9643 55.8292 63.7143 55.2048 64.7234C54.9797 65.0871 53.5245 66.3367 53.5133 66.4874C53.7832 66.8711 54.7471 68.766 55.1364 68.7672C55.7471 68.7672 56.9038 68.1942 57.6575 68.168C58.7171 68.1319 59.0057 68.8295 59.7134 69.344C60.2656 69.7464 61.7929 70.611 62.0504 71.1143C62.4297 71.8543 62.0131 73.1948 62.2481 74.0308L64.9197 74.9688C65.4495 75.0149 66.3276 72.6242 67.7293 72.5271C68.1497 72.4972 68.4694 72.6591 68.84 72.6604C69.7678 72.6616 71.3598 72.3427 72.1484 72.5869C72.8212 72.7949 73.5924 74.3273 74.2105 74.7483C74.3498 74.7745 76.7415 73.9822 76.9082 73.8813C77.3286 73.6271 76.999 73.1363 76.9865 72.7239C76.9716 72.2654 76.9318 71.5304 76.999 71.1069C77.1184 70.3519 78.2589 69.8623 78.7925 69.4151C79.326 68.9678 80.2837 67.9064 80.8708 67.7581C81.7663 67.5302 83.6008 68.401 84.0809 68.1095C84.3893 67.9213 85.102 66.3417 85.4316 65.9704C85.4652 65.6241 83.5448 64.4941 83.3633 63.5959C83.2115 62.8434 83.5722 62.2878 83.6742 61.5976C83.7824 60.8626 83.7513 59.6081 84.0995 59.0338C84.4714 58.4233 86.1181 57.8191 86.8059 57.5724C86.8905 57.4765 86.5124 55.3001 86.4204 55.0522C86.3843 54.955 86.3545 54.8815 86.2413 54.8578C85.3943 54.722 84.107 54.8354 83.3322 54.5327C82.6493 54.2661 82.2439 53.1411 81.8446 52.5344C81.4342 51.9103 80.5424 50.9684 80.5039 50.2633C80.4653 49.5582 81.571 47.9436 81.4131 47.6197L79.1668 45.913C78.0114 46.3976 77.0786 47.6633 75.7142 47.3369C74.8249 46.6492 72.3772 46.5396 71.682 45.9566V45.9541ZM48.5097 60.0092V78.5717C48.5097 78.639 48.7025 78.8483 48.6341 79.0077H55.1016V71.9067C54.2533 72.0238 53.7608 72.1197 53.1066 71.4756C52.7285 71.1031 50.2833 67.2125 50.1328 66.7291C49.6776 65.2665 51.481 64.3783 52.2211 63.3492L51.8392 61.4718C51.0482 61.118 50.1353 60.7978 49.3791 60.3855C49.1453 60.2584 48.746 60.1126 48.756 59.8249C48.7075 59.7962 48.5209 59.9681 48.5097 60.0105V60.0092ZM64.554 79.0077L64.4322 77.9463C63.074 77.3832 61.3551 77.0942 60.043 76.4875C58.548 75.7985 59.1873 74.0544 59.186 72.7401L58.0878 71.9054V79.0065H64.5553L64.554 79.0077ZM67.539 76.703C67.3885 77.23 67.6497 78.3973 67.539 79.0077H74.0065V78.0098C72.427 78.2652 71.8922 76.3068 70.789 75.583L68.498 75.669C68.3537 75.7113 67.5627 76.6195 67.539 76.7018V76.703Z" fill="black"/>
<path d="M82.386 23.0275C82.0589 22.7223 81.6808 21.996 81.4619 21.5824L58.5483 35.8008C55.2486 37.4589 51.4291 37.4515 48.1804 35.6749C42.2353 32.4221 36.5228 27.4165 30.5926 24.14C28.9173 23.2144 27.1686 23.0886 25.4199 23.9208L14.552 31.3483C8.78473 33.3229 3.65303 26.9605 6.9813 21.7718L23.7246 10.263C26.4833 8.73943 29.4533 8.82415 32.1796 10.3415C38.0364 13.6018 43.6246 18.3919 49.4702 21.6759C52.3793 23.3091 54.9228 23.1671 57.8008 21.5974L74.1287 11.2996C73.6014 10.5695 73.2718 9.96156 73.8302 9.12438C74.3315 8.37317 75.1399 8.47532 75.9371 8.4965C79.4246 8.58994 83.0986 9.2228 86.6035 9.39722C87.4256 9.70742 87.7129 10.43 87.5513 11.2834L84.9232 22.4781C84.5414 23.5695 83.1981 23.7837 82.386 23.0275ZM84.2093 12.2327L78.2393 11.7343L82.5937 18.2113C82.8885 18.2636 82.825 18.1801 82.8984 17.9646C83.4954 16.2217 83.6907 14.0304 84.2093 12.2327ZM9.24492 23.8523C8.12057 26.4174 10.3158 29.0174 12.9961 28.6698C16.1403 26.76 19.0805 24.4278 22.1786 22.4208C25.5417 20.2419 28.2357 19.4471 32.008 21.4765C37.8449 24.6159 43.4791 29.5406 49.2986 32.8108C52.0957 34.3818 54.5795 34.4466 57.4252 32.9354L79.6025 19.0235L75.8327 13.8659L58.506 24.6745C55.0235 26.395 51.3234 26.1844 47.9752 24.2945C42.1221 20.9907 36.524 16.1943 30.6846 12.9602C28.7954 11.9137 26.6586 11.9349 24.8415 13.1296L9.24367 23.8535L9.24492 23.8523Z" fill="black"/>
<path d="M68.5108 49.1459C76.4969 48.5666 82.3662 57.0194 78.2892 64.1728C74.3975 71.0023 64.154 71.0359 60.2262 64.2214C56.4116 57.6012 61.0894 49.6841 68.5096 49.1459H68.5108ZM69.0108 52.1321C59.1155 52.4859 59.9638 67.1776 69.9635 66.2981C79.2095 65.4846 78.3886 51.7957 69.0108 52.1321Z" fill="black"/>
</g>
<defs>
<clipPath id="clip0_447_131">
<rect width="92" height="82" fill="white"/>
</clipPath>
</defs>
</svg>
