<svg width="79" height="85" viewBox="0 0 79 85" fill="none" xmlns="http://www.w3.org/2000/svg">
<path d="M11.9658 46.663C12.0937 46.663 12.1363 46.4355 12.5627 46.663C12.989 46.8905 14.538 48.3615 14.6091 48.6496C14.8365 49.5595 13.927 50.0297 13.8133 50.7121C13.6996 51.3945 14.0264 51.622 13.998 52.0314C13.9696 52.4409 13.5859 53.3356 13.6712 53.7754C13.9127 54.9886 16.215 57.4454 16.8687 58.5676C18.3608 61.1457 18.1619 67.3937 19.0714 70.8513C19.5688 72.7167 20.3504 74.7185 22.0273 75.7042C21.9563 74.3242 21.5441 72.8531 21.4873 71.458C21.4305 70.0628 22.34 68.2581 22.7379 67.5302C23.0932 66.8781 23.9885 66.135 24.1874 65.4222C24.3864 64.7095 24.159 64.0877 24.3864 63.5873C24.6138 63.0868 25.7365 62.92 26.2054 62.556C26.9018 61.9949 28.4082 57.8397 28.3371 56.8691C28.1666 54.3214 25.8644 54.382 24.699 53.1992C23.5337 52.0163 23.9885 51.6372 23.42 50.9092C22.8516 50.1813 21.6152 49.7718 21.1889 49.1804C20.9189 48.8013 20.9189 48.1492 20.6488 47.9369C20.3788 47.7246 18.4461 47.4213 17.8635 46.9056L18.0766 46.5568L40.9993 46.4507C39.7061 48.589 36.8354 50.8031 37.1622 53.6238C37.4891 56.4445 39.4645 59.0832 42.3493 58.325C42.5199 58.2795 42.4772 57.9155 42.6478 57.87C43.5431 57.6425 46.499 59.3259 44.6515 60.0538C45.3763 61.267 45.2626 61.9646 45.3195 63.2081C45.3763 64.4517 45.5326 63.9664 45.5184 64.3758C45.5184 65.6194 44.5236 67.1966 44.481 68.0761C44.4526 68.6827 45.1774 69.1377 45.2342 69.6685C45.3053 70.3206 44.6089 72.1707 44.6515 73.0655C44.6942 73.6872 45.3479 75.0369 46.03 75.0369C47.2522 75.0369 49.8671 73.4597 50.7481 72.5043C51.5298 71.6551 51.6861 70.7452 52.2119 70.0628C52.7519 69.35 54.2157 68.6524 54.4573 67.5454C54.5852 66.9387 54.4999 65.2251 54.6989 64.846C55.111 64.0877 57.5837 62.2224 58.3653 61.4186C59.147 60.6149 60.4544 59.432 60.0707 59.0226C59.758 59.1439 57.74 58.5828 58.0243 58.1127C59.0048 57.5819 62.9271 56.6113 63.3961 55.5952C63.6235 55.1251 63.2824 54.0939 62.9556 53.7754C62.6287 53.457 62.0176 53.5783 61.6197 53.2447C61.3213 53.002 60.8239 51.8646 60.4828 51.4855C64.2488 52.6835 67.0768 54.1242 68.64 58.2188L69.0522 61.085C70.3312 57.5819 71.4396 53.9877 71.8375 50.2268C71.9512 49.0743 71.667 47.861 72.0791 46.7085L73.7703 46.6782C73.6708 61.2215 65.0872 74.6426 52.553 80.1779C40.0187 85.7132 37.1907 83.7569 29.9003 81.4973C15.5897 77.0842 5.17286 62.6774 5.21549 46.6782C7.46086 46.7692 9.72044 46.5568 11.9658 46.6782V46.663ZM32.0036 73.1868C30.3125 73.854 31.6625 75.5525 31.7904 76.7354C31.9894 78.5249 31.2078 78.3429 31.1793 78.5552C31.1367 78.8737 32.0462 80.284 32.3731 80.466C32.6999 80.648 35.4427 81.1181 35.6274 80.9513C35.9827 79.9352 35.599 78.8434 35.3432 77.7666C35.2722 77.4937 34.9595 77.2662 34.8742 76.9326C34.789 76.5989 35.0164 76.0681 34.8032 75.6435C34.59 75.2189 31.7762 74.4606 32.0036 73.2019V73.1868ZM31.7904 80.2689C31.6057 79.8898 30.2414 78.2671 29.8577 78.6765C29.7724 80.0262 30.7672 80.1931 31.7904 80.2689Z" fill="black"/>
<path d="M27.7118 44.6156C30.3835 41.9617 34.7037 41.4764 38.2139 41.4158C38.2849 39.2472 38.4555 37.3212 38.1855 35.1526C37.3754 28.7529 33.6237 22.9902 27.6123 21.2917L31.5773 24.5977C33.3963 26.7966 34.9737 29.2382 35.2153 32.2712C28.5076 32.8627 21.9847 31.9376 18.2472 25.3408C17.6361 24.2489 14.4528 16.3479 14.8649 15.8171C22.8516 14.0428 31.4209 14.1186 37.0344 21.2917L38.8534 24.0366C39.4503 16.6208 41.724 9.46289 48.0054 5.56546C52.894 2.51727 58.5075 2.13814 64.0356 1.6377C64.263 1.6377 64.1493 2.18364 64.1209 2.41112C63.5382 7.61275 62.4155 14.6342 59.8291 19.0927C56.7595 24.3702 51.4445 27.0089 45.7316 27.479C46.0158 25.9019 46.03 24.4005 46.3853 22.8082C47.4796 17.925 50.7055 13.9518 54.301 10.9036C53.5336 10.7064 52.4535 11.3889 51.7287 11.8135C42.8894 16.9393 41.5677 31.9073 42.733 41.431C46.2148 41.4764 50.6345 41.9466 53.2351 44.6308H27.7402L27.7118 44.6156Z" fill="black"/>
</svg>
