<svg width="68" height="79" viewBox="0 0 68 79" fill="none" xmlns="http://www.w3.org/2000/svg">
<g clip-path="url(#clip0_301_3898)">
<path d="M8.34506 55.8855C10.9826 58.3245 13.6778 60.7069 16.3586 63.1034C17.5693 63.7841 19.1691 62.3376 18.3332 61.1607C15.7677 58.5798 12.8275 56.3393 10.2187 53.8009C7.32175 50.979 9.69987 47.448 13.3896 48.4265C17.3243 51.9149 21.3887 55.3324 25.2081 58.9485C29.0708 62.6071 31.7948 66.0388 32.0687 71.5692C32.1552 73.3985 32.2272 76.1637 32.0687 77.9646C32.0543 78.1773 31.9966 78.6311 31.8525 78.7871C31.6795 78.9289 31.4922 78.9289 31.276 78.9431C29.2726 79.1133 27.0962 78.9006 25.0928 78.8297C23.0894 78.7588 21.7202 79.2125 20.3798 77.9079C19.5006 77.0571 19.515 75.7808 18.7656 74.8591L1.16744 58.9768C0.504451 58.282 0.10089 57.4737 0 56.5236L0.0288258 40.1592C0.720644 36.926 5.95252 37.0253 6.28402 40.3436C6.68758 44.3141 5.85163 49.0504 6.28402 53.0068C6.45697 54.595 7.27851 54.9212 8.33065 55.8997L8.34506 55.8855Z" fill="black"/>
<path d="M55.677 68.9746C54.7834 69.7829 53.9042 70.6479 53.0106 71.4562C51.9584 72.4205 49.22 74.4625 48.7299 75.5969C48.2399 76.7313 48.384 76.8023 47.9661 77.4262C46.6833 79.3264 44.4349 78.8301 42.4892 78.8301C40.702 78.8301 38.9148 78.8301 37.142 78.8301C36.8249 78.8301 36.1475 79.0853 36.0466 78.5748C36.2196 74.8312 35.5422 70.9173 36.7528 67.3155C38.3094 62.65 42.1721 59.5303 45.6888 56.3113C48.2687 53.9432 51.2666 51.022 53.9618 48.8949C56.8588 46.6118 61.2403 50.398 57.8965 53.6879C55.3455 56.1979 52.362 58.4668 49.7821 60.9484C48.6867 62.2388 50.4018 63.8837 51.7711 63.0046L60.9953 54.7656C61.4565 54.2551 61.6727 53.3759 61.7304 52.7095C62.0619 48.5971 61.4421 44.116 61.7736 39.9753C62.7393 36.8981 67.3514 37.1108 68 40.2447V56.524C67.8847 58.013 67.0631 58.7078 66.0686 59.6721C62.7825 62.8486 59.0928 65.8974 55.6914 68.9888L55.677 68.9746Z" fill="black"/>
<path d="M23.5074 54.3543C14.73 46.2005 18.78 30.9847 30.6851 28.574C41.8118 26.3335 51.0649 35.6927 48.8597 46.5692C46.5536 57.9704 32.0543 62.3096 23.493 54.3543H23.5074ZM34.8936 30.375V35.1113L38.8716 34.856C38.2086 33.0267 36.7241 31.1974 34.8936 30.375ZM33.1064 30.4884C32.9046 30.46 32.7461 30.5593 32.5731 30.6444C31.694 31.0698 29.0564 33.9343 29.114 34.8702L33.092 35.1255V30.4884H33.1064ZM43.2675 33.991C43.4405 33.7641 42.1721 32.8424 41.9415 32.6722C40.9326 31.9348 39.8084 31.396 38.6554 30.8996L39.8949 32.6155L40.8606 34.459C41.192 34.6575 42.8063 34.0477 43.2675 33.991ZM29.2294 30.9989C27.4854 31.5945 25.8279 32.6013 24.6172 33.991C25.1505 34.0903 26.6927 34.7142 27.1395 34.459C27.5863 34.2037 27.6583 33.3671 27.7881 33.1402C28.2205 32.3886 28.7393 31.7221 29.2294 31.0131V30.9989ZM25.4532 42.3434C25.4099 40.3297 25.9576 38.3728 26.39 36.4301C26.3756 36.3308 26.2891 36.3166 26.2171 36.2883C26.0729 36.2174 23.5507 35.5367 23.4065 35.5509C23.1039 35.5792 22.4985 36.5719 22.3256 36.8555C21.3743 38.4579 20.7834 40.4857 20.7402 42.3434H25.4532ZM47.2455 42.3434C47.1157 40.897 46.8131 39.4647 46.251 38.1176C45.6889 36.7704 45.0835 35.7494 44.7376 35.5934C44.3917 35.4374 42.3163 36.3024 41.6677 36.2883L41.4947 36.4301C42.1577 38.3303 42.446 40.3439 42.5324 42.3434H47.2455ZM33.1064 36.9831L28.3069 36.6853C27.6583 38.5004 27.3989 40.429 27.2404 42.3434H33.1064V36.9831ZM34.8936 36.9831V42.3434H40.6588C40.702 40.429 40.2264 38.5146 39.7075 36.6853L34.8936 36.9831ZM25.4532 44.3003H20.7402C20.8122 46.7535 21.7347 49.1217 23.1759 51.0786L26.39 50.2136C25.8712 48.285 25.4244 46.2998 25.4532 44.3003ZM33.1064 44.3003H27.2404C27.3989 46.2005 27.6007 48.129 28.2781 49.93L32.847 49.6606L33.1064 49.5046V44.3003ZM40.7597 44.3003H34.8936V49.5046C35.4701 49.8165 36.3493 49.618 37.0411 49.6606C37.9203 49.7173 38.8139 49.9016 39.7075 49.9583C39.9958 49.0508 40.2552 48.1432 40.4138 47.2073C40.5723 46.2714 40.6299 45.2787 40.7597 44.3003ZM47.2455 44.3003H42.5324C42.5613 46.3707 41.9848 48.3701 41.5956 50.3838C42.446 50.2561 43.8728 51.1211 44.5935 51.107C45.3141 51.0928 45.1268 50.639 45.3141 50.3696C46.4672 48.6679 47.159 46.3281 47.2599 44.3003H47.2455ZM33.1064 56.2545V51.6742L32.847 51.5182L29.0276 51.7735C29.7482 53.5886 31.2472 55.5029 33.1208 56.2545H33.1064ZM34.8936 51.504V56.1978C34.8936 56.4814 35.499 56.056 35.6143 55.9851C37.0556 55.0492 38.1942 53.3475 38.9725 51.8727C38.9004 51.7593 38.8283 51.7451 38.713 51.7167C38.2806 51.6317 35.0233 51.3764 34.8936 51.504ZM27.1251 52.1422C26.9521 52.0429 25.309 52.4541 25.0064 52.5534C24.7037 52.6527 24.5452 52.6101 24.6316 52.7945C24.7469 53.0781 26.4188 54.2692 26.7792 54.4961C27.5863 55.0066 28.4511 55.4179 29.3447 55.7298C28.4366 54.6379 27.6583 53.4609 27.1251 52.1422ZM43.3684 52.6385C42.8639 52.6385 41.2065 51.9578 40.8606 52.1705C40.5146 52.3832 40.0823 53.7162 39.8949 54.014C39.5346 54.6238 39.0589 55.1484 38.6554 55.7298C39.8517 55.2335 41.1056 54.6379 42.1433 53.858C43.181 53.0781 43.5125 52.7945 43.3684 52.6385Z" fill="black"/>
<path d="M28.4222 26.4328C27.7881 25.7947 28.1916 23.5683 28.1772 22.7033C28.1628 21.8383 28.0763 22.1645 28.0619 21.895C28.0475 21.3562 28.134 20.6471 28.0619 20.1508C27.9322 19.2858 26.5486 19.3142 26.4044 20.4628C26.1594 22.4339 26.635 24.8871 26.4044 26.8441C26.1738 28.7442 23.1471 29.0704 22.4697 27.0993C22.1526 26.1776 22.2247 22.3204 22.3112 21.1718C22.5706 17.3998 26.2459 14.6488 29.705 13.6987C33.1641 12.7486 31.8093 13.6136 33.4667 13.6987C34.7783 13.7696 36.0322 13.2591 37.3006 13.4292C40.3849 13.8688 44.4061 16.634 45.3141 19.6687C45.7321 21.0726 45.7177 24.8871 45.5736 26.4186C45.4583 27.7658 44.435 28.6592 43.0513 28.3756C41.6533 28.0919 41.538 26.8582 41.4803 25.6954C41.3938 24.0505 41.7253 21.7532 41.4803 20.2359C41.3362 19.3567 40.1111 19.3142 39.9381 20.0516C39.794 21.7249 40.0534 23.5258 39.9093 25.1849C39.8372 25.9932 39.7652 26.603 38.8139 26.6881C35.7152 26.9717 32.1984 26.4612 29.0564 26.6881C28.8258 26.6881 28.5808 26.603 28.4222 26.4328Z" fill="black"/>
<path d="M44.6367 30.1761L44.6944 29.9634C46.0924 29.5521 47.1878 28.2475 47.3463 26.8153C47.5049 25.3122 47.5193 21.058 47.2022 19.6683C47.1013 19.257 46.8707 18.8458 46.7842 18.4346C47.7355 18.7749 49.2344 19.1011 50.0704 19.6257C50.7622 20.0653 51.3099 21.2565 52.0738 21.7812C52.8376 22.3059 54.4519 22.5328 55.2158 23.2276C55.5184 23.497 57.2912 26.4182 57.5939 26.9571C58.3434 28.3184 58.7181 29.5663 58.401 31.112C58.1272 32.4592 56.0805 35.7349 55.2014 36.926C53.5439 39.1949 50.5172 37.3373 51.4972 35.2386C52.1458 33.8489 53.933 31.9345 54.3942 30.559C54.8555 29.1834 53.8465 29.0416 53.0106 29.5096L50.6469 33.3667C49.9407 33.9339 49.4218 33.6929 48.7444 33.2958C47.2743 32.4024 46.1501 30.9844 44.6367 30.1761Z" fill="black"/>
<path d="M21.1581 18.5343C21.0139 19.1157 20.6969 19.6262 20.6392 20.2359C20.4807 21.81 20.423 24.4334 20.5239 26.0074C20.6248 27.5815 21.4463 29.3824 23.3632 30.0205C21.9508 30.9706 20.6392 32.3603 19.2123 33.2537C18.5782 33.6508 18.1025 33.9485 17.3963 33.3955L15.047 29.6518C14.3119 28.8861 13.1877 29.5526 13.5769 30.5736C14.1102 32.02 15.8109 33.7784 16.5027 35.2248C17.526 37.3661 14.4561 39.1245 12.8562 37.0683C12.0059 35.9764 9.80072 32.2752 9.57011 31.0132C9.29626 29.51 9.671 28.248 10.4061 26.9433C10.752 26.3336 12.4815 23.4975 12.8418 23.1571C13.6634 22.4197 15.0902 22.3205 15.9262 21.7532C16.7621 21.186 17.2378 19.9807 17.9872 19.5694C18.3331 19.3851 21.0284 18.3925 21.1581 18.5201V18.5343Z" fill="black"/>
<path d="M56.2246 9.18906C64.6994 9.0898 64.0076 21.7105 55.8067 20.9873C48.2111 20.3208 48.7443 9.27414 56.2246 9.18906Z" fill="black"/>
<path d="M10.5647 9.27399C15.883 8.56496 19.7024 13.8827 16.6613 18.3779C13.2455 23.4404 5.05894 20.6894 5.66428 14.3506C5.89489 11.9683 8.12889 9.60014 10.5647 9.27399Z" fill="black"/>
<path d="M33.7117 3.33171e-05C41.8983 -0.283578 42.1 11.7983 33.9856 11.8125C26.1017 11.8125 26.1161 0.269464 33.7117 3.33171e-05Z" fill="black"/>
</g>
<defs>
<clipPath id="clip0_301_3898">
<rect width="68" height="79" fill="white"/>
</clipPath>
</defs>
</svg>
