<svg width="78" height="77" viewBox="0 0 78 77" fill="none" xmlns="http://www.w3.org/2000/svg">
<g clip-path="url(#clip0_301_3952)">
<path d="M21.6607 1.97861H33.4159V15.7987H38.4334V3.72431H38.8635V15.7987H47.8949V7.79761H53.5575L53.7725 8.23404H48.325V15.7987H61.1553L61.3704 49.258L68.6815 49.1126V55.077H68.2514V49.549H61.3704V60.9688L61.1553 61.187H48.8984V67.5879H54.2026V68.0243H48.4683V61.187H44.9561C44.9131 61.187 44.8414 60.9979 44.7411 61.0415V74.1343H55.4928C55.8225 71.763 59.0767 71.3557 60.0085 73.5524C61.3847 76.7965 56.1522 78.5713 55.4928 75.0071H43.8809V61.187H38.8635V73.2614H38.4334V61.4052C38.4334 61.347 38.6628 61.2888 38.5051 61.187L38.3617 61.0415C38.3044 61.0415 38.2614 61.187 38.2184 61.187H33.4159V75.0071H22.1625C21.6034 76.4764 20.2559 77.4366 18.6933 76.7819C16.8297 75.9964 16.8727 73.0287 18.765 72.2868C20.3849 71.6467 21.6034 72.6504 22.1625 74.1343H32.5558V61.187H28.8286V68.0243H23.0943V67.5879H28.3985V61.187H16.8583L16.6433 60.9688V49.1126H8.75871V54.4951L8.32864 54.437C8.02759 54.2187 8.32864 53.3895 8.32864 52.9822C8.37165 51.6002 8.40032 50.0291 8.18528 48.6907H16.6433V44.3264H2.88111V55.819C5.26082 56.2117 5.5332 59.645 3.21083 60.4451C-0.0146789 61.5361 -1.3909 56.4445 2.02098 55.819V43.4536H16.6433V38.2165H3.8846V37.78H16.6433V32.6884H2.02098V20.9777C1.77727 20.6722 1.37587 20.6867 1.08916 20.4685C-1.64894 18.4173 1.37587 14.4895 3.95628 16.5407C6.53669 18.5919 4.8881 20.5412 2.88111 20.7594V31.8156H16.6433V28.1787H9.54717L9.33213 27.9605V22.2142H9.7622V27.524L9.97723 27.7423H16.6433V16.0315L16.8583 15.8133H28.9719V8.24858H23.6677V7.81216H29.402V15.8133H32.5558V2.85146H21.8758C21.245 4.93175 18.4926 5.76096 17.3027 3.70976C15.4391 0.509306 20.901 -1.84739 21.6607 1.97861ZM52.1956 25.1092H25.8181V51.8766H52.1956V25.1092Z" fill="black"/>
<path d="M75.993 44.021V56.3864C78.4157 56.721 78.7455 60.1687 76.4661 61.0125C73.2406 62.2054 71.7353 57.0701 75.1329 56.3864V44.8938H61.5141V44.021H75.993Z" fill="black"/>
<path d="M75.993 21.3268V33.2557H61.5141V32.3829H75.1329V21.3268C72.3231 20.7594 72.7388 16.5843 75.4913 16.5115C78.5448 16.4243 78.9175 20.774 75.993 21.3268Z" fill="black"/>
<path d="M55.3498 1.97825C55.7225 -0.392995 58.991 -0.742135 59.8655 1.54182C61.127 4.85866 56.0092 6.38615 55.3498 2.8511H44.7414V15.6529H43.8813V1.97825H55.3498Z" fill="black"/>
<path d="M68.1084 22.7812V28.5275C67.9651 28.7457 67.578 28.7457 67.32 28.7457H61.5141V28.1638H67.32C67.3773 28.1638 67.4777 28.4257 67.6784 28.0911V22.7812H68.1084Z" fill="black"/>
<path d="M74.1294 38.3472H61.5141V38.7836H74.1294V38.3472Z" fill="black"/>
<path d="M29.5457 46.2027L35.1509 31.0151C35.495 30.5205 37.3012 30.9133 37.9463 30.7678L43.7523 46.2027H41.1002L39.5949 42.3476L33.66 42.2749L32.2121 46.2172H29.56L29.5457 46.2027ZM38.8638 40.2382L36.6418 33.1099L34.2764 40.2382H38.8638Z" fill="black"/>
<path d="M48.4687 30.7827V46.3486C48.3683 46.3922 48.2966 46.2031 48.2536 46.2031H45.8882V30.7827H48.4687Z" fill="black"/>
</g>
<defs>
<clipPath id="clip0_301_3952">
<rect width="78" height="77" fill="white"/>
</clipPath>
</defs>
</svg>
