<svg width="105" height="84" viewBox="0 0 105 84" fill="none" xmlns="http://www.w3.org/2000/svg">
<g clip-path="url(#clip0_301_3870)">
<path d="M44.7194 78.7909L47.8407 76.576C48.3889 75.7816 49.0893 74.8193 49.2872 73.8569C49.942 70.7102 49.1654 65.9289 49.2568 62.6294L59.1995 58.78C60.0522 58.2606 60.6764 57.5732 60.981 56.6262C66.2797 58.4287 71.4414 57.2219 75.1109 53.0059C75.1718 58.3828 79.8767 60.445 84.0335 62.4308C89.0124 64.8138 94.7984 66.5858 99.5947 69.2284C101.955 70.5269 104.543 72.7113 104.985 75.5525C105.137 76.5149 104.817 78.7909 103.569 78.7909H44.7346H44.7194Z" fill="black"/>
<path d="M79.5266 31.3606C83.4701 28.3513 81.9932 34.6295 81.3537 36.707C80.7142 38.7844 80.3031 39.4413 78.2476 40.6328C76.192 41.8243 78.0496 41.198 77.7908 41.2591C75.6439 41.8243 70.9237 40.9077 68.2896 41.3202C64.1176 41.977 62.4123 47.5526 65.488 50.516C65.8534 50.8674 67.574 51.9367 67.9699 51.9367H72.2484C72.1418 52.7463 70.5431 53.7392 69.8275 54.0752C67.6044 55.1292 64.3156 55.1751 62.0469 54.228C59.5954 53.2045 55.5757 48.7135 54.7078 46.2083C54.3424 45.1543 53.7333 41.1827 53.4136 40.7244C53.0938 40.2662 52.1498 40.2967 51.5712 39.701C50.2009 38.2651 49.0437 33.1936 49.4396 31.2842C49.8354 29.3747 51.1449 30.9176 51.9671 31.3606V24.1963C51.9671 23.0354 53.17 19.9956 54.4947 19.6901C57.6617 18.9721 62.4427 21.8592 66.1427 21.737C69.2184 21.6301 74.776 18.7888 77.3644 19.8428C78.415 20.2705 79.5113 23.2034 79.5113 24.2116V31.3758L79.5266 31.3606Z" fill="black"/>
<path d="M58.423 56.3056L31.2138 66.9221C29.6455 67.3651 28.8994 67.3651 27.3311 66.9221C23.083 65.7306 16.962 63.0116 12.7139 61.2549C8.4658 59.4982 11.2522 60.8425 10.9629 60.2773C16.3378 59.5135 21.8192 59.0705 27.1636 58.154C29.5084 57.7568 32.3862 57.3291 32.2492 54.1671C32.1121 51.005 29.9195 50.7759 27.727 50.8981C19.7941 51.3258 11.1456 53.8463 3.12139 54.3504C2.07078 54.6101 0.563387 54.8545 0.319768 56.1071C-0.182697 56.1529 0.0609222 54.9919 0.182732 54.7934L26.8743 45.8725L29.5389 45.3989L58.0576 54.5948C58.7123 54.9461 58.895 55.7404 58.423 56.3056Z" fill="black"/>
<path d="M45.9375 41.962C43.5318 44.513 39.8318 42.7716 39.5273 39.3346C39.3293 37.0433 39.2684 31.6357 39.5577 29.4513C39.847 27.3586 40.7911 27.6183 41.6133 26.5643C42.4355 25.5102 42.8161 19.6292 43.2425 18.0405C46.5313 5.65209 55.4082 -0.809446 68.2439 0.0765328C81.2015 0.977787 87.9619 11.6859 89.3932 23.6772C89.4845 24.4562 89.2257 25.5866 89.4388 26.2435C89.652 26.9003 91.54 27.1142 91.9359 29.4666C92.2709 31.4371 92.2252 37.5015 91.9968 39.5637C91.5096 44.1158 85.48 44.0089 84.7796 40.5413C84.4751 38.9985 84.4751 30.5206 84.7339 28.8861C84.9928 27.2517 87.1245 27.2058 87.0788 25.22C86.6524 9.5168 73.832 -1.60377 58.2403 3.60517C49.7136 6.44642 44.689 16.6199 44.4454 25.22C44.3997 27.1295 46.5313 27.0378 46.8054 29.3902C47.0643 31.5899 47.0643 37.8987 46.8054 40.0831C46.7293 40.7246 46.3639 41.4731 45.9223 41.9467L45.9375 41.962Z" fill="black"/>
<path d="M46.8054 63.6685V73.7045C46.8054 74.346 44.9478 75.6292 44.3844 75.9652C37.9894 79.7536 22.9306 79.5703 16.0941 76.897C15.1653 76.5304 11.7394 74.7585 11.7394 73.7045V63.6685L26.3413 69.2135C28.6557 69.8703 30.1022 69.855 32.3861 69.1371C37.1824 67.6401 41.9177 65.028 46.8054 63.6685Z" fill="black"/>
<path d="M80.7446 16.6047C82.9524 18.8654 82.6479 22.9898 82.3891 25.8922L81.4298 21.5081C80.9426 19.8736 79.3743 17.6587 77.669 17.2004C73.8319 16.1922 68.8073 19.507 64.5896 19.1251C60.372 18.7432 60.981 18.0558 59.2757 17.6739C54.4337 16.6047 51.7387 16.6505 50.0029 21.9205L49.1502 26.3963C49.2416 24.8993 48.7848 23.6467 48.9218 22.1344C49.0589 20.6374 50.0334 15.3826 50.5054 14.0842C51.9671 10.0515 53.9313 10.1584 57.0222 8.38644C58.0271 7.80597 58.9102 6.81306 60.0522 6.20204C65.3509 3.37607 74.1669 4.56756 76.7249 10.5861C77.4862 12.3886 77.334 13.6412 78.8718 15.1993C79.4047 15.734 80.2574 16.0853 80.7446 16.5894V16.6047Z" fill="black"/>
<path d="M86.5459 45.6888C84.871 46.5443 83.3331 47.3539 81.4603 47.751C80.9122 47.8732 80.2727 47.6594 79.7093 47.8274C79.1459 47.9954 78.7348 48.8814 78.2019 49.1869C77.1361 49.7827 70.4974 49.7827 69.0662 49.5383C67.7567 49.3244 66.6757 48.4842 66.5234 47.1247C66.0362 42.6948 70.939 43.7947 73.6797 43.8405C76.4204 43.8863 76.5422 43.1225 78.3085 44.1766C78.8871 44.5126 79.2677 45.368 79.9225 45.4444C81.171 45.6125 83.1047 44.589 84.2772 44.1918L86.5306 45.7041L86.5459 45.6888Z" fill="black"/>
<path d="M4.20248 65.2419H2.13171V57.5583C2.13171 56.9626 4.0959 56.7793 4.64404 56.6876C12.5617 55.3281 20.6316 54.6865 28.5644 53.3423C30.4982 53.8311 29.8891 55.1295 28.1381 55.4961C21.1188 56.9473 13.3534 57.2681 6.21234 58.5207C5.54239 58.6429 4.67449 58.6429 4.21771 59.1317V65.2572L4.20248 65.2419Z" fill="black"/>
<path d="M0.700371 83.9999L0.350167 83.5722C0.228358 79.7533 1.67485 75.6137 1.84234 71.8559C1.87279 71.0005 1.44646 70.145 1.62917 69.0299C1.85756 67.6246 3.22792 67.0441 4.09582 68.3425C4.96371 69.6409 4.18717 70.588 4.2024 71.8559C4.23285 75.0485 5.69457 79.2798 5.78593 82.5487C5.87729 85.8177 5.80115 83.2209 5.72502 83.5569L5.37482 83.9846H0.700371V83.9999Z" fill="black"/>
</g>
<defs>
<clipPath id="clip0_301_3870">
<rect width="105" height="84" fill="white"/>
</clipPath>
</defs>
</svg>
