<svg width="64" height="79" viewBox="0 0 64 79" fill="none" xmlns="http://www.w3.org/2000/svg">
<g clip-path="url(#clip0_301_3884)">
<path d="M0.0587425 7.45765C10.9702 6.38011 21.8375 4.46608 31.8238 0C39.519 3.0341 47.4787 5.37347 55.732 6.5219C57.1124 6.72039 63.486 6.94724 63.7944 7.37258L64 43.8527C63.0014 56.9248 49.9605 68.012 39.3869 74.8458C37.9477 75.7816 32.7637 79.2836 31.4713 78.9716C30.7958 78.8157 27.5796 76.7173 26.6544 76.1644C15.508 69.5007 1.02799 57.3218 0 43.8668L0.0587425 7.45765ZM60.5489 10.3074C50.8417 9.17319 41.0317 7.45765 32.1469 3.37437C23.0858 7.27333 13.2905 9.24408 3.45112 10.3074L3.40707 44.6892C4.30289 54.7414 15.7577 64.7936 23.7614 70.3372C25.1712 71.3155 30.3258 74.9309 31.5741 75.1861C32.8224 75.4413 35.1427 73.7116 36.2295 73.0594C45.3786 67.5583 59.609 55.7055 60.5929 44.7033L60.5489 10.3216V10.3074Z" fill="black"/>
<path d="M55.8642 14.8443L55.9082 45.5114C55.1886 53.5928 44.2185 62.9787 37.6834 67.4448C36.4791 68.2671 32.7637 71.0602 31.4713 70.7483C30.2965 70.4647 23.3942 65.3322 21.9844 64.2122C16.727 60.0297 8.70859 52.3168 8.0918 45.4972L8.15054 14.8443C16.2423 13.7242 24.1432 11.7251 31.7797 9.00293C39.6659 11.4557 47.5668 13.8802 55.8495 14.8159L55.8642 14.8443ZM52.8389 17.765C45.687 16.4322 38.6379 14.745 31.7797 12.3915C25.1418 14.9577 18.1368 16.3897 11.1611 17.765C11.5723 26.0875 10.4121 35.2181 11.0877 43.4555C11.6751 50.7147 18.5773 57.3217 24.1285 61.7452C25.2593 62.6526 30.6342 66.6933 31.5741 66.9485C32.514 67.2038 34.5994 65.63 35.5686 64.992C42.324 60.5117 52.2515 51.7355 52.927 43.4555C53.6026 35.2181 52.4424 26.0875 52.8536 17.765H52.8389Z" fill="black"/>
<path d="M44.5856 28.4126C45.2758 29.4051 49.0059 31.872 48.4479 32.9354L30.0762 50.6438L18.3717 39.273L22.3956 35.0196L30.0762 42.4205L44.5709 28.441L44.5856 28.4126Z" fill="black"/>
</g>
<defs>
<clipPath id="clip0_301_3884">
<rect width="64" height="79" fill="white"/>
</clipPath>
</defs>
</svg>
