<svg width="80" height="79" viewBox="0 0 80 79" fill="none" xmlns="http://www.w3.org/2000/svg">
<g clip-path="url(#clip0_301_3911)">
<path d="M17.8162 27.2079H18.6077C18.7372 26.981 18.8667 26.7684 19.0106 26.5557C23.3855 19.651 31.1567 15.0431 40.0072 15.0148C48.8577 15.0431 56.6289 19.651 61.0038 26.5557C61.1477 26.7684 61.2772 26.9952 61.4067 27.2079H75.3085C75.2366 26.9952 75.1502 26.7684 75.0639 26.5557C74.8768 26.0736 74.6897 25.5916 74.4738 25.1095C72.5886 20.7002 69.8831 16.7587 66.4292 13.3559C62.9898 9.96739 58.9747 7.30192 54.499 5.43042C49.9083 3.51639 45.0153 2.5381 39.9928 2.52393C34.9559 2.52393 30.0774 3.51639 25.4866 5.43042C21.011 7.28774 17.0103 9.95321 13.5564 13.3559C10.117 16.7445 7.41143 20.7002 5.51181 25.1095C5.31033 25.5916 5.10886 26.0736 4.92177 26.5557C4.83543 26.7684 4.76347 26.9952 4.67712 27.2079H17.8018H17.8162ZM40.0072 3.19029C55.6647 3.23283 69.0484 12.9306 74.3443 26.5557H61.7953C60.7304 24.8118 59.4496 23.1955 57.9529 21.721C53.1607 16.9997 46.7854 14.3768 40.0072 14.3626C33.229 14.3909 26.8538 16.9997 22.0615 21.721C20.5649 23.1955 19.2841 24.8118 18.2191 26.5557H5.65572C10.9516 12.9306 24.3497 3.23283 40.0072 3.19029Z" fill="black"/>
<path d="M78.7768 29.7455C78.6185 29.15 78.4602 28.5546 78.2731 27.9591C78.2011 27.7039 78.1148 27.4628 78.0284 27.2076C77.9565 26.995 77.8845 26.7681 77.7982 26.5555C77.5103 25.7331 77.1937 24.925 76.8484 24.131C74.8336 19.4239 71.941 15.1989 68.2569 11.5693C64.5728 7.9397 60.2842 5.08991 55.5064 3.10499C50.599 1.04917 45.3751 0 40.0072 0C34.6249 0 29.4154 1.04917 24.4936 3.10499C19.7158 5.08991 15.4272 7.9397 11.7431 11.5693C8.059 15.1989 5.1664 19.4239 3.15165 24.131C2.80626 24.9392 2.48966 25.7473 2.20183 26.5555C2.12988 26.7681 2.04353 26.995 1.97158 27.2076C1.88523 27.4628 1.81328 27.7039 1.72693 27.9591C1.53985 28.5546 1.36715 29.15 1.22324 29.7455C0.417341 32.9072 0 36.1682 0 39.5C0 42.8318 0.417341 46.0928 1.23763 49.2545C1.39593 49.85 1.55424 50.4454 1.74132 51.0409C1.81328 51.2961 1.89962 51.5371 1.98597 51.7924C2.05792 52.005 2.12988 52.2319 2.21623 52.4445C2.50405 53.2669 2.82065 54.075 3.16604 54.869C5.18079 59.5761 8.07339 63.8012 11.7575 67.4307C15.4416 71.0603 19.7302 73.9101 24.508 75.895C29.4298 77.9366 34.6393 78.9858 40.0216 79C45.4038 79 50.6134 77.9508 55.5352 75.895C60.313 73.9101 64.6015 71.0603 68.2857 67.4307C71.9698 63.8012 74.8624 59.5761 76.8771 54.869C77.2225 54.0608 77.5391 53.2527 77.8269 52.4445C77.8989 52.2319 77.9852 52.005 78.0572 51.7924C78.1435 51.5371 78.2155 51.2961 78.3018 51.0409C78.4889 50.4454 78.6616 49.85 78.8055 49.2545C79.6258 46.0928 80.0432 42.8177 80.0432 39.5C80.0432 36.1823 79.6258 32.9072 78.8055 29.7455H78.7768ZM3.89998 27.2076C3.97194 26.995 4.05828 26.7681 4.13024 26.5555C9.49811 12.1364 23.5438 1.82897 40.0072 1.78643C56.4562 1.82897 70.5163 12.1506 75.8698 26.5555C75.9561 26.7681 76.0281 26.995 76.1 27.2076C76.1864 27.4628 76.2727 27.7039 76.359 27.9591H61.1909C61.0469 27.7039 60.903 27.4628 60.7447 27.2076C60.6152 26.9808 60.4713 26.7681 60.3274 26.5555C59.392 25.1377 58.3126 23.8049 57.0606 22.5856C52.4986 18.0912 46.44 15.61 39.9784 15.5817C33.5312 15.61 27.4726 18.0912 22.8962 22.5856C21.6586 23.8049 20.5648 25.1377 19.6294 26.5555C19.4855 26.7681 19.3416 26.995 19.2121 27.2076C19.0538 27.4487 18.9099 27.7039 18.766 27.9591H3.64094C3.72729 27.7039 3.81364 27.4628 3.89998 27.2076ZM59.0754 27.9591H20.9246C21.0829 27.7039 21.2412 27.4487 21.4139 27.2076C21.5578 26.9808 21.7161 26.7681 21.8744 26.5555C25.9471 21.0118 32.5526 17.3964 40.0072 17.3681C47.4618 17.3964 54.0673 21.0118 58.1399 26.5555C58.2983 26.7681 58.4566 26.995 58.6005 27.2076C58.7732 27.4487 58.9315 27.7039 59.0898 27.9591H59.0754ZM76.1 51.7924C76.0281 52.005 75.9417 52.2319 75.8698 52.4445C70.5019 66.8494 56.4562 77.171 40.0072 77.2136C23.5582 77.171 9.49811 66.8494 4.14463 52.4445C4.05828 52.2319 3.98633 52.005 3.91437 51.7924C3.82803 51.5371 3.74168 51.2961 3.65533 51.0409H18.8235C18.9674 51.2961 19.1113 51.5371 19.2697 51.7924C19.3992 52.0192 19.5431 52.2319 19.687 52.4445C20.6224 53.8623 21.7017 55.1951 22.9538 56.4144C27.5157 60.9088 33.5744 63.39 40.036 63.4183C46.4832 63.39 52.5418 60.9088 57.1182 56.4144C58.3558 55.1951 59.4495 53.8623 60.385 52.4445C60.5289 52.2319 60.6728 52.005 60.8023 51.7924C60.9606 51.5513 61.1045 51.2961 61.2484 51.0409H76.4166C76.3303 51.2961 76.2439 51.5371 76.1576 51.7924H76.1ZM20.9246 51.0409H59.0898C58.9315 51.2961 58.7732 51.5513 58.6005 51.7924C58.4566 52.0192 58.2983 52.2319 58.1399 52.4445C54.0673 57.9882 47.4618 61.6036 40.0072 61.6319C32.5526 61.6036 25.9471 57.9882 21.8744 52.4445C21.7161 52.2319 21.5578 52.005 21.4139 51.7924C21.2412 51.5513 21.0829 51.2961 20.9246 51.0409ZM76.8915 49.2545H3.10847C2.2594 46.1353 1.81328 42.8744 1.81328 39.5C1.81328 36.1256 2.2594 32.8505 3.10847 29.7455H76.8915C77.7406 32.8647 78.1867 36.1256 78.1867 39.5C78.1867 42.8744 77.7406 46.1495 76.8915 49.2545Z" fill="black"/>
<path d="M62.1838 51.7925H61.3923C61.2628 52.0193 61.1333 52.232 60.9894 52.4447C56.6145 59.3494 48.8433 63.9572 39.9928 63.9856C31.1423 63.9572 23.3711 59.3494 18.9962 52.4447C18.8523 52.232 18.7228 52.0052 18.5932 51.7925H4.69147C4.76342 52.0052 4.84977 52.232 4.93612 52.4447C5.1232 52.9267 5.31028 53.4088 5.52615 53.8908C7.41138 58.3002 10.1169 62.2417 13.5708 65.6444C17.0102 69.033 21.0253 71.6984 25.501 73.5699C30.0917 75.484 34.9847 76.4623 40.0072 76.4764C45.044 76.4764 49.9226 75.484 54.5134 73.5699C58.989 71.7126 62.9897 69.0471 66.4436 65.6444C69.883 62.2559 72.5886 58.3002 74.4882 53.8908C74.6897 53.4088 74.8911 52.9267 75.0782 52.4447C75.1646 52.232 75.2365 52.0052 75.3229 51.7925H62.1982H62.1838ZM40.0072 75.8101C24.3497 75.7675 10.966 66.0698 5.67006 52.4447H18.2191C19.284 54.1886 20.5648 55.8049 22.0615 57.2794C26.8537 62.0007 33.229 64.6236 40.0072 64.6378C46.7854 64.6094 53.1606 62.0007 57.9528 57.2794C59.4495 55.8049 60.7303 54.1886 61.7953 52.4447H74.3443C69.0484 66.0698 55.6647 75.7675 40.0072 75.8101Z" fill="black"/>
<path d="M76.6756 31.2484C76.6181 31.0357 76.5749 30.8089 76.5173 30.5962H3.66971C3.61215 30.8089 3.55458 31.0357 3.51141 31.2484C2.89259 33.9422 2.57599 36.6927 2.57599 39.5C2.57599 42.3072 2.89259 45.072 3.51141 47.7516C3.56897 47.9643 3.61215 48.1911 3.66971 48.4038H76.5173C76.5749 48.1911 76.6325 47.9643 76.6756 47.7516C77.2945 45.0578 77.6111 42.3072 77.6111 39.5C77.6111 36.6927 77.2945 33.928 76.6756 31.2484ZM75.9849 47.7516H4.20218C3.56897 45.1003 3.23798 42.3356 3.23798 39.5C3.23798 36.6644 3.56897 33.8997 4.20218 31.2484H75.9993C76.6325 33.8997 76.9635 36.6644 76.9635 39.5C76.9635 42.3356 76.6325 45.1003 75.9993 47.7516H75.9849Z" fill="black"/>
<path d="M17.8881 57.5766L16.7512 55.9603L12.2324 59.0369L11.5992 58.1437L16.118 55.0671L14.9955 53.465L15.7294 52.9688L18.6076 57.0804L17.8737 57.5766H17.8881Z" fill="black"/>
<path d="M19.615 62.9219L17.7298 61.1213L16.3626 62.5108L18.5645 64.6091L17.9457 65.2329L14.9379 62.369L19.3704 57.8462L22.3493 60.6818L21.7305 61.3198L19.5431 59.2356L18.3198 60.4833L20.2051 62.2839L19.6006 62.9078L19.615 62.9219Z" fill="black"/>
<path d="M25.1268 67.5722C24.7095 68.1109 24.2058 68.4229 23.6445 68.5079C23.0689 68.593 22.4789 68.4512 21.86 68.0684C21.4283 67.799 21.1117 67.4588 20.9102 67.0618C20.7088 66.6506 20.6368 66.2111 20.6944 65.729C20.7519 65.247 20.939 64.7649 21.2412 64.2687L21.5578 63.7725C21.8744 63.2762 22.2486 62.8793 22.6803 62.6099C23.1121 62.3405 23.5582 62.1987 24.0187 62.2129C24.4936 62.2129 24.9397 62.3547 25.3858 62.624C25.9759 62.9927 26.3644 63.4464 26.5227 63.9993C26.681 64.5381 26.6091 65.1194 26.2925 65.7432L25.3571 65.1619C25.5585 64.7508 25.6161 64.4105 25.5442 64.1269C25.4722 63.8434 25.2563 63.5882 24.9109 63.3755C24.508 63.1203 24.0907 63.0777 23.6877 63.2337C23.2848 63.3897 22.8962 63.7583 22.522 64.3254L22.2198 64.7933C21.8456 65.3746 21.673 65.8708 21.6873 66.3103C21.7017 66.7499 21.9176 67.0901 22.3206 67.3312C22.6947 67.558 23.0257 67.6572 23.3135 67.6005C23.6014 67.558 23.8892 67.3595 24.1914 67.0051L25.1268 67.5864V67.5722Z" fill="black"/>
<path d="M31.1711 72.0667L30.1205 71.7122L31.0559 69.0751L28.3504 68.1535L27.415 70.7907L26.3644 70.4362L28.4655 64.4956L29.5161 64.8501L28.6382 67.3312L31.3438 68.2528L32.2216 65.7716L33.2722 66.1261L31.1711 72.0667Z" fill="black"/>
<path d="M39.1149 73.1868L38.0068 73.0733L35.6179 68.3521L35.1718 72.7898L34.0637 72.6764L34.6969 66.4097L35.805 66.5231L38.1939 71.2586L38.6544 66.7925L39.7481 66.9059L39.1149 73.1726V73.1868Z" fill="black"/>
<path d="M46.7278 69.529C46.8142 70.1386 46.771 70.6916 46.6271 71.1736C46.4688 71.6698 46.2097 72.0526 45.85 72.3504C45.4902 72.6481 45.0441 72.8324 44.526 72.9033C44.0079 72.9742 43.533 72.9033 43.1013 72.7048C42.6695 72.5063 42.3098 72.1944 42.0219 71.7691C41.7341 71.3437 41.5614 70.8333 41.4751 70.2237L41.4319 69.8692C41.3456 69.2596 41.3887 68.7066 41.547 68.2104C41.7053 67.7142 41.9644 67.3172 42.3242 67.0194C42.6839 66.7217 43.1301 66.5374 43.6481 66.4665C44.1662 66.3956 44.6411 66.4665 45.0728 66.6508C45.5046 66.8493 45.8644 67.1612 46.1378 67.5866C46.4112 68.0119 46.5983 68.5365 46.6846 69.1461L46.7278 69.4864V69.529ZM45.5909 69.3446C45.5046 68.6499 45.2887 68.1395 44.9721 67.7992C44.6555 67.459 44.2526 67.3314 43.7633 67.3881C43.2884 67.4448 42.943 67.6858 42.7271 68.0828C42.5112 68.4798 42.4393 69.0185 42.5256 69.6991L42.5688 70.0535C42.6551 70.7341 42.871 71.2587 43.1876 71.5848C43.5042 71.925 43.9072 72.0668 44.3965 71.9959C44.8858 71.9392 45.2311 71.6982 45.447 71.3012C45.6629 70.9042 45.7204 70.3513 45.6197 69.6424L45.5765 69.3163L45.5909 69.3446Z" fill="black"/>
<path d="M50.4551 70.5924L53.1894 69.6425L53.4916 70.4648L49.7068 71.7833L47.5769 65.8428L48.6275 65.4741L50.4695 70.5924H50.4551Z" fill="black"/>
<path d="M58.2263 64.4532C58.5429 64.9778 58.73 65.5024 58.7875 66.0128C58.8451 66.5232 58.7587 66.9911 58.5429 67.4023C58.327 67.8134 57.996 68.1679 57.5499 68.4231C57.1038 68.6783 56.6432 68.8059 56.1683 68.8059C55.6934 68.8059 55.2329 68.6499 54.8012 68.3664C54.3695 68.0828 53.9953 67.6858 53.6787 67.1612L53.4916 66.8635C53.175 66.3389 52.9879 65.8143 52.9303 65.3039C52.8728 64.7935 52.9591 64.3256 53.175 63.9003C53.3909 63.4891 53.7219 63.1489 54.168 62.8795C54.6141 62.6101 55.0746 62.4825 55.5495 62.4967C56.0244 62.4967 56.4706 62.6526 56.9023 62.9362C57.334 63.2197 57.7082 63.6309 58.0248 64.1555L58.2119 64.4532H58.2263ZM57.1038 64.7368C56.744 64.1413 56.341 63.7443 55.9237 63.56C55.5064 63.3757 55.0746 63.4041 54.6573 63.6593C54.2399 63.9003 54.0241 64.2547 53.9809 64.7084C53.9377 65.1621 54.096 65.6867 54.4414 66.268L54.6285 66.5799C54.9883 67.1754 55.3912 67.5582 55.823 67.7425C56.2547 67.9269 56.672 67.8985 57.0894 67.6575C57.5067 67.4023 57.737 67.062 57.7801 66.6083C57.8089 66.1546 57.6506 65.63 57.2765 65.0204L57.1038 64.7368Z" fill="black"/>
<path d="M64.8894 61.4192C64.9325 61.7879 64.8606 62.1707 64.6735 62.5677C64.4864 62.9646 64.1986 63.3333 63.8244 63.6877C63.4359 64.0563 63.0185 64.2974 62.5436 64.3966C62.0831 64.51 61.6082 64.4817 61.1333 64.3116C60.6584 64.1414 60.2123 63.8437 59.7805 63.4325L59.4351 63.0781C58.7588 62.3975 58.4134 61.7028 58.3702 60.9939C58.327 60.2992 58.6005 59.6612 59.2049 59.094C59.723 58.612 60.241 58.3426 60.7879 58.3142C61.3348 58.2717 61.8672 58.4702 62.3853 58.8814L61.6082 59.6186C60.9894 59.1507 60.3993 59.1933 59.8381 59.7179C59.4783 60.0581 59.3344 60.4409 59.392 60.8805C59.4495 61.3058 59.723 61.7737 60.1979 62.2699L60.5432 62.6244C61.0182 63.1206 61.4931 63.39 61.968 63.4609C62.4429 63.5318 62.8602 63.39 63.2344 63.0355C63.6373 62.6527 63.8388 62.2841 63.8388 61.9296L62.9753 61.0364L62.0255 61.9296L61.4355 61.3342L63.1768 59.6753L64.875 61.4192H64.8894Z" fill="black"/>
<path d="M65.5945 56.3008L63.8964 53.4368L64.5728 52.4302L66.7458 56.3859L68.703 57.676L68.0842 58.5834L66.127 57.2932L61.5794 56.8395L62.2702 55.8329L65.6089 56.2866L65.5945 56.3008Z" fill="black"/>
<path d="M13.7578 19.2823L12.6497 20.9128L17.2261 23.9186L16.6217 24.826L12.0453 21.8202L10.9516 23.4365L10.2032 22.9545L13.0095 18.8003L13.7578 19.2823Z" fill="black"/>
<path d="M19.7013 16.8858L17.8449 18.7148L19.2408 20.09L21.4139 17.9491L22.0471 18.573L19.0825 21.4795L14.5637 17.0276L17.4995 14.1353L18.1327 14.7591L15.9884 16.8716L17.2405 18.1051L19.0969 16.2761L19.7157 16.8858H19.7013Z" fill="black"/>
<path d="M25.8752 13.5117C26.1918 14.1072 26.2781 14.6885 26.1198 15.2414C25.9615 15.7943 25.5729 16.2622 24.9685 16.6592C24.5368 16.9286 24.1051 17.0704 23.6445 17.0845C23.184 17.0845 22.7523 16.9711 22.3349 16.7159C21.9176 16.4607 21.5434 16.0921 21.2124 15.61L20.8815 15.1138C20.5505 14.6176 20.349 14.1213 20.277 13.6251C20.2051 13.1289 20.277 12.6752 20.4641 12.2498C20.6656 11.8245 20.9822 11.4842 21.4139 11.2007C22.004 10.8178 22.5796 10.6761 23.1552 10.7611C23.7309 10.8462 24.2346 11.1581 24.6663 11.6969L23.7453 12.2924C23.4431 11.9379 23.1552 11.7394 22.8674 11.6827C22.5796 11.626 22.263 11.7111 21.9032 11.9379C21.5003 12.1931 21.2844 12.5476 21.2556 12.9729C21.2268 13.3983 21.3995 13.9087 21.7737 14.4616L22.0903 14.9295C22.4645 15.4966 22.853 15.8652 23.2704 16.0354C23.6733 16.2055 24.0763 16.163 24.4792 15.8936C24.839 15.6526 25.0693 15.3974 25.1412 15.1138C25.2132 14.8302 25.1412 14.49 24.9541 14.0788L25.8752 13.4833V13.5117Z" fill="black"/>
<path d="M32.826 12.9869L31.7899 13.3556L30.8113 10.7326L28.1345 11.6967L29.1131 14.3197L28.077 14.7025L25.8751 8.79025L26.9113 8.40744L27.8323 10.8744L30.509 9.91031L29.588 7.44334L30.6242 7.07471L32.826 12.9869Z" fill="black"/>
<path d="M39.2876 12.0797L38.1795 12.2073L34.8264 8.09563L35.3588 12.5334L34.2507 12.661L33.5024 6.40845L34.6105 6.28085L37.978 10.4067L37.4455 5.95475L38.5393 5.82715L39.2876 12.0797Z" fill="black"/>
<path d="M46.1809 9.69783C46.109 10.3075 45.9363 10.8321 45.6628 11.2716C45.3894 11.7111 45.044 12.023 44.6123 12.2357C44.1806 12.4342 43.7057 12.5051 43.1876 12.4484C42.6695 12.3917 42.2234 12.2073 41.8492 11.9238C41.475 11.626 41.2016 11.2432 41.0433 10.7612C40.885 10.2791 40.8274 9.74037 40.8994 9.14489L40.9426 8.79044C41.0145 8.18078 41.1872 7.6562 41.4607 7.21668C41.7341 6.77716 42.0939 6.45106 42.5112 6.25257C42.9429 6.05408 43.4178 5.98319 43.9359 6.0399C44.454 6.09661 44.9001 6.26675 45.2743 6.56449C45.6485 6.84805 45.9075 7.24503 46.0802 7.72709C46.2385 8.20914 46.2961 8.76208 46.2241 9.37174L46.1809 9.72619V9.69783ZM45.116 9.24414C45.2023 8.54941 45.116 8.01065 44.9001 7.59948C44.6843 7.2025 44.3245 6.97565 43.8352 6.91894C43.3603 6.86223 42.9573 7.00401 42.6551 7.34428C42.3385 7.68455 42.137 8.18078 42.0651 8.86133L42.0219 9.21578C41.9356 9.89633 42.0219 10.4493 42.2378 10.8604C42.468 11.2716 42.8134 11.4984 43.3027 11.5552C43.792 11.6119 44.195 11.4701 44.4972 11.1298C44.7994 10.7895 45.0009 10.2791 45.0872 9.57023L45.1304 9.24414H45.116Z" fill="black"/>
<path d="M48.4691 12.5616L51.2178 13.469L50.93 14.2913L47.1307 13.0295L49.1599 7.06055L50.2104 7.415L48.4547 12.5616H48.4691Z" fill="black"/>
<path d="M57.6363 14.5324C57.3197 15.0711 56.9599 15.4823 56.5281 15.78C56.1108 16.0778 55.6503 16.2337 55.1754 16.2479C54.7005 16.2621 54.24 16.1487 53.7795 15.8935C53.3333 15.6383 52.9879 15.298 52.7721 14.8868C52.5418 14.4757 52.4555 14.0078 52.4986 13.4974C52.5418 12.987 52.7145 12.4766 53.0167 11.952L53.1894 11.6401C53.506 11.1013 53.8658 10.6901 54.2975 10.3924C54.7293 10.0947 55.1754 9.9387 55.6503 9.92452C56.1252 9.91034 56.5857 10.0238 57.0462 10.279C57.4923 10.5342 57.8377 10.8744 58.0536 11.2856C58.2839 11.6968 58.3702 12.1646 58.327 12.6609C58.2839 13.1713 58.1112 13.6959 57.7946 14.2205L57.6219 14.5182L57.6363 14.5324ZM56.8447 13.7101C57.2045 13.1004 57.3484 12.5758 57.3053 12.1221C57.2621 11.6684 57.0318 11.314 56.6001 11.0729C56.1828 10.8319 55.7654 10.8177 55.3481 11.002C54.9307 11.1864 54.5422 11.5692 54.1968 12.1646L54.0097 12.4766C53.6643 13.072 53.506 13.6108 53.5492 14.0645C53.5924 14.5324 53.8226 14.8727 54.2544 15.1137C54.6861 15.3547 55.1034 15.3831 55.5208 15.1987C55.9381 15.0144 56.3267 14.6033 56.6864 13.9936L56.8591 13.7101H56.8447Z" fill="black"/>
<path d="M61.2916 20.6005C60.9174 20.6572 60.5289 20.6005 60.1259 20.4445C59.723 20.2744 59.3344 20.0192 58.9458 19.6789C58.5573 19.3244 58.2838 18.9133 58.1543 18.4596C58.0248 18.0059 58.0248 17.538 58.1543 17.0701C58.2838 16.6023 58.5717 16.1344 58.9746 15.6949L59.32 15.3404C59.982 14.6457 60.6584 14.2629 61.3635 14.1778C62.0687 14.0927 62.7307 14.3338 63.3351 14.8867C63.8532 15.3688 64.141 15.865 64.213 16.4038C64.2849 16.9425 64.1122 17.4671 63.7237 18.0059L62.9322 17.2686C63.3639 16.6306 63.3063 16.0493 62.7451 15.5389C62.3853 15.1986 61.9824 15.0852 61.5506 15.1703C61.1189 15.2553 60.6584 15.5389 60.1835 16.0351L59.8525 16.3896C59.3776 16.8858 59.1185 17.3679 59.0754 17.8357C59.0322 18.3036 59.1905 18.7148 59.579 19.0692C59.9964 19.452 60.3706 19.6222 60.7303 19.608L61.5794 18.7006L60.6152 17.8216L61.1908 17.2119L62.9609 18.8424L61.2916 20.6005Z" fill="black"/>
<path d="M65.5801 22.0894L68.9044 21.579L69.6096 22.5714L65.062 23.096L63.1192 24.4146L62.486 23.5072L64.4288 22.1886L66.5299 18.1904L67.2351 19.1829L65.5801 22.0752V22.0894Z" fill="black"/>
<path d="M7.78557 41.1305V44.5616H5.3103V34.4668H9.39737C10.1745 34.4668 10.8797 34.6086 11.4841 34.8921C12.0885 35.1757 12.549 35.5869 12.88 36.1114C13.211 36.636 13.3693 37.2315 13.3693 37.8979C13.3693 38.8762 13.0095 39.6701 12.29 40.2656C11.5704 40.8611 10.5918 41.1447 9.3398 41.1447H7.75679L7.78557 41.1305ZM7.78557 39.2448H9.39737C9.87227 39.2448 10.2464 39.1314 10.4911 38.8903C10.7357 38.6493 10.8653 38.3232 10.8653 37.8979C10.8653 37.4725 10.7357 37.0472 10.4767 36.7636C10.2177 36.4801 9.87227 36.3383 9.42615 36.3383H7.78557V39.2448Z" fill="black"/>
<path d="M19.2696 42.6617H15.8877L15.2977 44.5474H12.6641L16.4202 34.4526H18.7372L22.522 44.5474H19.8741L19.2696 42.6617ZM16.4634 40.7902H18.6652L17.5571 37.2882L16.4634 40.7902Z" fill="black"/>
<path d="M30.4659 36.3383H27.3862V44.5616H24.9109V36.3383H21.8888V34.4526H30.4515V36.3383H30.4659Z" fill="black"/>
<path d="M37.8629 40.2656H33.9773V42.6759H38.5681V44.5474H31.5021V34.4526H38.5681V36.3383H33.9629V38.465H37.8485V40.2656H37.8629Z" fill="black"/>
<path d="M48.1237 44.5474H45.6629L42.0363 38.2665V44.5474H39.561V34.4526H42.0363L45.6629 40.7335V34.4526H48.1237V44.5474Z" fill="black"/>
<path d="M57.5211 36.3383H54.4414V44.5616H51.9662V36.3383H48.944V34.4526H57.5067V36.3383H57.5211Z" fill="black"/>
<path d="M64.9182 40.2656H61.0326V42.6759H65.6233V44.5474H58.5573V34.4526H65.6233V36.3383H61.0182V38.465H64.9038V40.2656H64.9182Z" fill="black"/>
<path d="M66.6307 44.5474V34.4526H69.9262C70.8329 34.4526 71.6388 34.6511 72.3727 35.0623C73.0923 35.4735 73.6535 36.0406 74.0709 36.7778C74.4738 37.5151 74.6753 38.3374 74.6897 39.259V39.7269C74.6897 40.6484 74.4882 41.4849 74.0996 42.208C73.6967 42.9453 73.1498 43.5124 72.4303 43.9236C71.7107 44.3347 70.9048 44.5474 70.027 44.5474H66.6595H66.6307ZM69.1059 36.3383V42.6759H69.9694C70.6746 42.6759 71.2214 42.4207 71.5956 41.9245C71.9698 41.4282 72.1712 40.691 72.1712 39.7127V39.2732C72.1712 38.2949 71.9842 37.5576 71.5956 37.0614C71.2214 36.5652 70.6602 36.3241 69.9406 36.3241H69.1059V36.3383Z" fill="black"/>
</g>
<defs>
<clipPath id="clip0_301_3911">
<rect width="80" height="79" fill="white"/>
</clipPath>
</defs>
</svg>
