<svg width="73" height="83" viewBox="0 0 73 83" fill="none" xmlns="http://www.w3.org/2000/svg">
<path d="M43.4644 83C42.0499 82.64 40.6834 82.1839 39.5327 81.2238C37.5429 79.5677 36.5839 77.4315 36.5599 74.8392C36.5599 74.4312 36.5599 74.0471 36.5599 73.5671H35.5291C26.9225 73.5671 18.3159 73.5671 9.70936 73.5671C8.9422 73.5671 8.12709 73.4231 7.45583 73.111C6.13727 72.535 5.48998 71.4069 5.37011 69.9667C5.34614 69.4867 5.37011 69.0066 5.37011 68.4066C4.81872 68.4066 4.36322 68.4066 3.88374 68.4066C1.72611 68.3586 0.167816 66.8704 0.0479475 64.7102C0.0479475 64.4222 0.0479475 64.1102 0.0479475 63.8221C0 49.6608 0 35.4994 0 21.3621C0 21.002 0 20.666 0.0479475 20.306C0.143842 19.6819 0.575369 19.3459 1.17471 19.3459C1.822 19.3459 2.25353 19.6819 2.3734 20.33C2.44532 20.666 2.42135 21.026 2.42135 21.3861C2.42135 35.5474 2.42135 49.6848 2.42135 63.8461C2.42135 65.6703 2.75698 66.0064 4.60296 66.0064C14.8877 66.0064 25.1484 66.0064 35.4332 66.0064H36.488C36.488 65.6463 36.536 65.3343 36.536 65.0223C36.536 61.6139 36.536 58.2056 36.536 54.8213C36.5599 50.5489 39.245 47.2846 43.3685 46.6845C44.7589 46.4685 46.2213 46.5885 47.6598 46.5885C49.0263 46.5885 50.3928 46.5885 51.8552 46.5885C51.8552 46.2525 51.9031 45.9644 51.9031 45.6764C51.9031 31.9231 51.9031 18.1938 51.9031 4.44043C51.9031 2.90428 51.5195 2.52024 50.0092 2.52024C39.0053 2.52024 28.0013 2.52024 16.9974 2.52024H16.1103C16.1103 2.85627 16.0624 3.1203 16.0624 3.40833C16.0624 6.2166 16.0624 9.02487 16.0624 11.8331C16.0624 14.6174 14.5521 16.1296 11.7471 16.1296C8.36683 16.1296 5.01051 16.1296 1.63021 16.1296C1.0069 16.1296 0.407553 16.0335 0.143842 15.4095C-0.143842 14.7374 0.167816 14.2334 0.647291 13.7533C4.98654 9.3849 9.30181 5.06449 13.6411 0.720069C14.1445 0.216021 14.6719 0.0240023 15.3672 0.0240023C26.8985 0.0240023 38.4539 0.0720069 49.9852 0C52.5025 0 54.5402 1.68016 54.3245 4.34442C54.3245 4.58444 54.3245 4.82446 54.3245 5.2085C54.708 5.2085 55.0437 5.2085 55.3793 5.2085C58.1842 5.2085 59.6466 6.69665 59.6466 9.50492C59.6466 21.5061 59.6466 33.4832 59.6466 45.4844V46.5165C61.5166 46.5165 63.2667 46.5165 65.0407 46.5165C67.4381 46.5165 69.4519 47.4766 71.0102 49.2767C72.137 50.5729 72.8082 52.085 72.9041 53.8132C72.9521 54.9173 72.952 56.0214 72.952 57.1255C72.952 58.0376 72.4966 58.5416 71.7534 58.5416C70.9862 58.5416 70.5547 58.0376 70.5307 57.0775C70.5307 56.1174 70.5547 55.1333 70.4828 54.1732C70.291 51.1489 67.9895 48.9647 64.9448 48.9407C58.1363 48.9407 51.3517 48.9407 44.5432 48.9407C41.3787 48.9407 38.9573 51.2209 38.9333 54.4132C38.8614 61.3019 38.8614 68.1906 38.9333 75.0792C38.9573 78.2955 41.4026 80.5278 44.6631 80.5518C51.3277 80.5518 57.9924 80.5518 64.6571 80.5518C68.1573 80.5518 70.4828 78.2475 70.5067 74.7192C70.5307 71.0468 70.5067 67.3745 70.5067 63.7021C70.5067 63.3901 70.4348 62.9581 70.6026 62.766C70.8903 62.406 71.2739 61.998 71.7054 61.902C72.2808 61.7579 72.7363 62.166 72.8801 62.766C72.952 63.0781 72.952 63.4141 72.952 63.7261C72.952 67.2305 72.952 70.7588 72.952 74.2632C72.952 78.9916 70.7704 81.7759 66.1915 82.904C66.1435 82.904 66.0956 82.976 66.0716 83H43.4164H43.4644ZM54.3724 7.70474V46.4685H57.2253V45.3644C57.2253 33.6272 57.2013 21.8661 57.2253 10.129C57.2253 7.56073 56.5301 7.58473 54.5642 7.65674C54.5163 7.65674 54.4683 7.68074 54.3245 7.72874L54.3724 7.70474ZM7.81543 68.4306C7.55172 70.6628 7.98325 71.1429 10.1169 71.1429C18.5796 71.1429 27.0424 71.1429 35.5051 71.1429H36.488V68.4306H7.81543ZM13.6171 4.51243C10.5724 7.58473 7.52775 10.657 4.55501 13.6333C7.00033 13.6333 9.61346 13.6333 12.2266 13.6333C13.1136 13.6333 13.5931 13.0573 13.6171 12.0972C13.6411 11.0171 13.6171 9.93696 13.6171 8.85685C13.6171 7.39271 13.6171 5.90457 13.6171 4.53644V4.51243Z" fill="#2B2B2B"/>
<path d="M20.9531 19.3938C20.9531 16.4175 20.9531 13.4652 20.9531 10.4889C20.9531 8.18471 22.2957 6.84058 24.5492 6.84058C30.5186 6.84058 36.4641 6.84058 42.4336 6.84058C44.6631 6.84058 46.0296 8.20871 46.0296 10.4169C46.0296 16.4175 46.0296 22.3941 46.0296 28.3947C46.0296 30.5549 44.6392 31.947 42.5055 31.947C36.4881 31.947 30.4707 31.947 24.4533 31.947C22.3196 31.947 20.9531 30.5789 20.9531 28.4667C20.9531 25.4424 20.9531 22.4181 20.9531 19.3938ZM40.4677 29.5228C41.139 29.5228 41.7144 29.5228 42.2897 29.5228C43.3686 29.5228 43.6323 29.2587 43.6323 28.2026C43.6323 22.3461 43.6323 16.4895 43.6323 10.6329C43.6323 9.50483 43.3925 9.26481 42.2418 9.26481C36.4162 9.26481 30.5906 9.26481 24.7649 9.26481C23.5663 9.26481 23.3745 9.45683 23.3745 10.7049C23.3745 16.5135 23.3745 22.3221 23.3745 28.1066C23.3745 28.2986 23.3026 28.5387 23.3745 28.6587C23.6142 28.9707 23.8779 29.4268 24.1896 29.4748C24.9088 29.5948 25.676 29.5228 26.515 29.5228C26.3232 26.1624 26.2993 22.9461 29.6556 21.386C29.5357 20.0178 29.3439 18.7937 29.3679 17.5696C29.3919 15.5294 31.07 13.8252 33.0838 13.6572C35.1456 13.4892 37.0155 14.8093 37.4471 16.8495C37.7347 18.3137 37.7347 19.8018 37.0395 21.194C37.1114 21.266 37.1594 21.338 37.2313 21.362C39.4848 22.5861 40.4917 24.4823 40.4198 27.0025C40.4198 27.8186 40.4198 28.6107 40.4198 29.5228H40.4677ZM37.9984 29.4748C37.9984 28.3466 38.0704 27.2425 37.9984 26.1384C37.8786 24.5303 36.584 23.2822 34.9778 23.2102C34.0188 23.1621 33.0359 23.1621 32.0769 23.2102C30.7344 23.2582 29.4638 24.1222 29.2001 25.4184C28.9364 26.7385 28.9843 28.1066 28.8884 29.4748H37.9984ZM31.8132 18.3377C31.8132 18.6017 31.8132 18.8657 31.8132 19.1538C31.8851 20.0418 32.5564 20.7379 33.4195 20.7619C34.2825 20.8099 35.0497 20.1859 35.1456 19.2978C35.2175 18.7217 35.2175 18.1217 35.1456 17.5216C35.0257 16.6335 34.2585 16.0335 33.3955 16.0815C32.5564 16.1295 31.9091 16.7775 31.8132 17.6176C31.7893 17.8576 31.8132 18.0977 31.8132 18.3377Z" fill="#2B2B2B"/>
<path d="M52.6476 65.0223C52.8874 64.6383 53.0312 64.3742 53.223 64.1582C55.4046 61.95 57.5862 59.7658 59.7918 57.5816C61.1343 56.2375 62.7166 56.2375 64.0831 57.5816C64.7064 58.1816 65.3297 58.7817 65.9051 59.4298C67.0079 60.6059 67.0558 62.214 65.9051 63.3661C62.333 66.9665 58.7609 70.5668 55.1409 74.1192C53.6066 75.6313 51.2092 75.6313 49.6509 74.1432C47.709 72.295 45.8391 70.3988 43.9931 68.4786C42.9383 67.3985 42.9622 65.7904 43.9931 64.6623C44.7123 63.8942 45.4555 63.1501 46.2227 62.4301C47.3974 61.3499 48.9796 61.3499 50.1544 62.4781C50.9455 63.2461 51.6887 64.0622 52.6476 65.0463V65.0223ZM52.264 72.8471C52.6716 72.703 53.0312 72.583 53.3668 72.415C53.5346 72.343 53.6545 72.175 53.7984 72.055C57.1547 68.6947 60.487 65.3343 63.8673 61.998C64.3228 61.542 64.4187 61.2059 63.8673 60.7499C63.4118 60.3659 62.9803 59.9338 62.6207 59.5018C62.1652 58.9497 61.8296 58.9737 61.3261 59.5018C58.8089 62.07 56.2677 64.5903 53.7264 67.1105C52.8154 68.0226 52.288 68.0226 51.401 67.1345C50.49 66.2464 49.603 65.3583 48.7159 64.4462C48.3563 64.0622 48.0447 63.9662 47.6611 64.3982C47.1337 64.9743 46.5823 65.5264 46.0069 66.0544C45.6233 66.4144 45.6473 66.7025 46.0069 67.0625C47.733 68.7667 49.4351 70.4948 51.1613 72.199C51.4489 72.487 51.8805 72.631 52.264 72.8471Z" fill="#2B2B2B"/>
<path d="M27.1144 41.38C21.5046 41.38 15.8947 41.38 10.2849 41.38C10.0212 41.38 9.66156 41.476 9.49374 41.332C9.11017 41.068 8.60672 40.6839 8.55877 40.2999C8.51082 39.9159 8.8944 39.4118 9.23003 39.0998C9.4458 38.9078 9.9013 38.9558 10.2369 38.9558C21.4566 38.9558 32.6763 38.9558 43.896 38.9558C44.2077 38.9558 44.5433 38.9558 44.855 39.0758C45.4304 39.2678 45.718 39.7238 45.6461 40.3239C45.5742 40.924 45.2146 41.308 44.5913 41.38C44.3276 41.404 44.0639 41.38 43.7762 41.38C38.2143 41.38 32.6524 41.38 27.1144 41.38Z" fill="#2B2B2B"/>
<path d="M19.2993 59.8378C16.1828 59.8378 13.0422 59.8378 9.92561 59.8378C8.89474 59.8378 8.24745 59.0937 8.5591 58.2537C8.82282 57.5096 9.44613 57.4136 10.1414 57.4136C15.6314 57.4136 21.1453 57.4136 26.6353 57.4136C27.2826 57.4136 27.9299 57.4136 28.5772 57.4136C29.5841 57.4136 30.1594 57.8696 30.1834 58.6137C30.1834 59.3818 29.608 59.8378 28.6251 59.8378C25.5325 59.8378 22.4159 59.8378 19.3233 59.8378H19.2993Z" fill="#2B2B2B"/>
<path d="M19.2989 47.5246C16.2782 47.5246 13.2575 47.5246 10.2368 47.5246C9.99704 47.5246 9.68539 47.5966 9.51757 47.5006C9.13399 47.2125 8.67849 46.9005 8.53465 46.4925C8.34286 45.9404 8.67849 45.4364 9.25386 45.2204C9.56552 45.1003 9.9491 45.1003 10.2847 45.1003C16.3021 45.1003 22.3195 45.1003 28.313 45.1003C28.5048 45.1003 28.6966 45.1003 28.8883 45.1003C29.6795 45.1723 30.2069 45.7004 30.1589 46.3965C30.111 47.0685 29.6076 47.5246 28.8404 47.5246C25.6519 47.5246 22.4874 47.5246 19.2989 47.5246Z" fill="#2B2B2B"/>
<path d="M14.4338 53.6933C12.9474 53.6933 11.461 53.6933 9.99863 53.6933C9.0157 53.6933 8.51225 53.2852 8.48828 52.5172C8.48828 51.7491 9.0157 51.269 9.95068 51.269C12.9953 51.269 16.04 51.269 19.0847 51.269C19.9717 51.269 20.4991 51.7251 20.5231 52.4692C20.5231 53.2372 20.0196 53.6933 19.0607 53.6933C17.5264 53.6933 15.9921 53.6933 14.4577 53.6933H14.4338Z" fill="#2B2B2B"/>
<path d="M15.0546 26.6425C14.7669 27.0986 14.6231 27.4826 14.3594 27.7707C13.1607 29.0188 11.938 30.2189 10.7154 31.443C10.0681 32.0911 9.3968 32.1151 8.86937 31.611C8.34195 31.107 8.36593 30.3869 8.98924 29.7628C10.2359 28.4907 11.4825 27.1946 12.7771 25.9945C13.0887 25.7065 13.7121 25.5864 14.1436 25.6825C14.4792 25.7545 14.719 26.2585 15.0546 26.6425Z" fill="#2B2B2B"/>
<path d="M26.8987 53.6692C26.2514 53.6692 25.6041 53.6692 24.9568 53.6692C24.2615 53.6452 23.7581 53.1172 23.7821 52.4931C23.806 51.8211 24.1896 51.317 24.8609 51.293C26.2514 51.221 27.6658 51.245 29.0563 51.293C29.7276 51.293 30.207 51.9411 30.1591 52.5651C30.1111 53.2132 29.6317 53.6692 28.9124 53.6932C28.2412 53.6932 27.5699 53.6932 26.8987 53.6932V53.6692Z" fill="#2B2B2B"/>
</svg>
