<svg width="73" height="82" viewBox="0 0 73 82" fill="none" xmlns="http://www.w3.org/2000/svg">
<path fill-rule="evenodd" clip-rule="evenodd" d="M36.5102 2.65798C32.614 2.65798 28.8812 4.21047 26.1283 6.98615C23.3753 9.76182 21.8355 13.5254 21.8355 17.4537C21.8355 22.958 25.5217 28.6505 29.4878 33.1433C31.4475 35.3545 33.3839 37.1892 34.8537 38.4595C35.507 39.0475 36.0669 39.4945 36.4869 39.8473C36.9068 39.518 37.4667 39.0475 38.12 38.4595C39.5898 37.1657 41.5495 35.331 43.4859 33.1433C47.452 28.674 51.1382 22.9816 51.1382 17.4537C51.1382 13.5254 49.5984 9.76182 46.8454 6.98615C44.0925 4.21047 40.3597 2.65798 36.4635 2.65798H36.5102ZM36.5102 41.5174C35.9814 42.2231 35.717 42.5759 35.717 42.5759H35.6703C35.6703 42.5759 35.6003 42.4818 35.5303 42.4348C35.4137 42.3407 35.227 42.1996 34.9937 42.0114C34.5504 41.6586 33.8972 41.1175 33.1506 40.4589C31.6342 39.1181 29.5811 37.2128 27.5281 34.9075C23.492 30.3677 19.1992 24.0166 19.1992 17.4537C19.1992 12.8198 21.019 8.39751 24.2619 5.12786C27.5047 1.85821 31.9141 0.0234375 36.4869 0.0234375C41.0596 0.0234375 45.469 1.85821 48.7118 5.12786C51.9547 8.39751 53.7745 12.8433 53.7745 17.4537C53.7745 24.0166 49.4817 30.3677 45.4456 34.9075C43.3926 37.2128 41.3628 39.1416 39.8231 40.4589C39.0532 41.1175 38.4233 41.6586 37.98 42.0114C37.7467 42.1996 37.5834 42.3407 37.4434 42.4348C37.3734 42.4818 37.3267 42.5289 37.3034 42.5524H37.2567V42.5995C37.2567 42.5995 37.2567 42.5995 36.4635 41.5409L36.5102 41.5174ZM36.5102 41.5174L37.3034 42.5759L36.5102 43.164L35.717 42.5759L36.5102 41.5174Z" fill="#2B2B2B"/>
<path d="M36.4893 21.4761C38.7057 21.4761 40.5021 19.6648 40.5021 17.4302C40.5021 15.1955 38.7057 13.3843 36.4893 13.3843C34.273 13.3843 32.4766 15.1955 32.4766 17.4302C32.4766 19.6648 34.273 21.4761 36.4893 21.4761Z" fill="#2B2B2B"/>
<path fill-rule="evenodd" clip-rule="evenodd" d="M8.09444 42.9054C6.64797 42.9054 5.2715 43.47 4.2683 44.505C3.24177 45.54 2.68185 46.9278 2.68185 48.3627V73.626C2.68185 75.0844 3.24177 76.4723 4.2683 77.4837C5.29483 78.5187 6.6713 79.0833 8.09444 79.0833H26.5019L30.8413 72.8263C31.4712 71.8854 32.3111 71.1091 33.3143 70.5916C34.3175 70.0506 35.414 69.7683 36.5572 69.7683C37.7004 69.7683 38.7969 70.0506 39.8001 70.5916C40.8033 71.1326 41.6432 71.8854 42.2731 72.8498L46.5425 79.295H64.9267C66.3731 79.295 67.7496 78.7304 68.7528 77.6955C69.7793 76.6605 70.3392 75.2726 70.3392 73.8377V48.3862C70.3392 46.9278 69.7793 45.54 68.7528 44.5285C67.7263 43.4935 66.3498 42.929 64.9267 42.929H49.1555V40.8354H64.9267C66.9097 40.8354 68.8228 41.6352 70.2226 43.0466C71.6224 44.4579 72.4156 46.3868 72.4156 48.3862V73.8377C72.4156 75.8372 71.6224 77.766 70.2226 79.1774C68.8228 80.5887 66.9097 81.3885 64.9267 81.3885H45.4227L40.5233 74.0259C40.0801 73.3673 39.4968 72.8263 38.7969 72.4499C38.097 72.0735 37.3271 71.8854 36.5339 71.8854C35.7407 71.8854 34.9708 72.0735 34.2709 72.4499C33.571 72.8263 32.9877 73.3673 32.5444 74.0259L27.5751 81.2003H8.09444C6.11138 81.2003 4.19831 80.4006 2.7985 78.9892C1.39869 77.5778 0.605469 75.649 0.605469 73.6496V48.3862C0.605469 46.3868 1.39869 44.4579 2.7985 43.0466C4.19831 41.6352 6.11138 40.8354 8.09444 40.8354H23.8656V42.929H8.09444V42.9054Z" fill="#2B2B2B" stroke="#2B2B2B" stroke-width="0.5"/>
<path fill-rule="evenodd" clip-rule="evenodd" d="M17.5685 55.7251H11.2227V53.6316H17.5685V55.7251Z" fill="#2B2B2B"/>
<path fill-rule="evenodd" clip-rule="evenodd" d="M17.5685 68.4509H11.2227V66.3574H17.5685V68.4509Z" fill="#2B2B2B"/>
</svg>
