<svg width="64" height="82" viewBox="0 0 64 82" fill="none" xmlns="http://www.w3.org/2000/svg">
<g clip-path="url(#clip0_6339_693)">
<path fill-rule="evenodd" clip-rule="evenodd" d="M9.3945 9.39207C15.4693 3.34141 23.4862 0 32 0C40.5138 0 48.5533 3.34141 54.6055 9.39207C60.6577 15.4427 64 23.4802 64 31.9917V49.3761V49.4438V49.489C63.8871 56.0138 58.5575 61.2968 51.9859 61.2968C50.9471 61.2968 50.1115 60.4615 50.1115 59.4229V39.1713C50.1115 38.1327 50.9471 37.2974 51.9859 37.2974C54.7184 37.2974 57.2251 38.223 59.2576 39.7583L60.2287 40.5033V32.0143C60.2287 16.4361 47.5596 3.77037 31.9774 3.77037C16.3952 3.77037 3.77135 16.4361 3.77135 31.9917V40.4807L4.74241 39.7357C6.75229 38.2004 9.28158 37.2748 12.0141 37.2748C13.0529 37.2748 13.8885 38.1101 13.8885 39.1487V59.4003C13.8885 60.4389 13.0529 61.2742 12.0141 61.2742C5.46507 61.2968 0.112915 56.0363 0 49.489V49.4438C0 49.4438 0 49.3987 0 49.3761V31.9917C0 23.4802 3.34227 15.4427 9.3945 9.39207ZM10.1397 57.3684V41.2032L9.32675 41.4741C6.09739 42.603 3.77135 45.6735 3.77135 49.2632C3.77135 52.853 6.09739 55.946 9.32675 57.0523L10.1397 57.3232V57.3684ZM54.6958 41.4967L53.8829 41.2258V57.391L54.6958 57.12C57.9252 55.9912 60.2512 52.9207 60.2512 49.3309C60.2512 45.7412 57.9252 42.6481 54.6958 41.5419V41.4967Z" fill="#2B2B2B"/>
<path d="M56.0966 69.4473C55.0803 68.5216 53.4995 68.6119 52.5736 69.6279C48.7571 73.8724 43.7211 76.3558 37.8947 76.8977V73.9401C37.8947 72.5629 36.7656 71.4566 35.4106 71.4566H29.8552C28.4777 71.4566 27.3711 72.5629 27.3711 73.9401V79.4941C27.3711 80.8713 28.5002 81.9775 29.8552 81.9775H35.4106C43.7211 81.9775 50.9477 78.8619 56.2772 72.9467C57.2031 71.9307 57.1128 70.3503 56.0966 69.4247V69.4473Z" fill="#2B2B2B"/>
</g>
<defs>
<clipPath id="clip0_6339_693">
<rect width="64" height="82" fill="white"/>
</clipPath>
</defs>
</svg>
