<svg width="73" height="52" viewBox="0 0 73 52" fill="none" xmlns="http://www.w3.org/2000/svg">
<path d="M59.2916 21.6814C63.3488 21.6814 66.6379 18.3407 66.6379 14.2196C66.6379 10.0986 63.3488 6.75781 59.2916 6.75781C55.2344 6.75781 51.9453 10.0986 51.9453 14.2196C51.9453 18.3407 55.2344 21.6814 59.2916 21.6814Z" stroke="#2B2B2B" stroke-width="3"/>
<path fill-rule="evenodd" clip-rule="evenodd" d="M64.3041 21.2898H54.2199C50.9227 21.6619 48.6861 23.7967 47.3556 25.8922C47.2592 26.0489 47.1628 26.2252 47.0664 26.3818C47.8184 26.754 48.5318 27.224 49.1488 27.7528C49.2259 27.5961 49.3223 27.4198 49.438 27.2632C50.5371 25.5593 52.176 24.0904 54.432 23.7967H64.1692C66.4444 24.0708 68.064 25.5593 69.1631 27.2632C70.3393 29.0845 70.5128 31.4151 70.5128 34.0199V35.7434C69.6451 36.2134 68.5846 36.7618 67.1192 37.2514C65.3068 37.839 62.8002 38.3482 59.3102 38.3677C57.3242 38.3677 55.6467 38.1915 54.2584 37.9369C54.297 38.6419 54.3163 39.3666 54.3163 40.0716V40.5025C55.6853 40.7179 57.2664 40.855 59.0788 40.8746H59.3102H59.5416C63.1665 40.8354 65.8466 40.3066 67.8905 39.6408C69.7415 39.0336 71.0527 38.3286 71.9589 37.8194C72.0939 37.741 72.2288 37.6823 72.3445 37.6039L73.0001 37.2514V34.0199C73.0001 31.4347 72.8651 28.3991 71.2455 25.8922C69.8958 23.7967 67.6784 21.6619 64.3813 21.2898H64.3041Z" fill="#2B2B2B"/>
<path d="M13.69 21.6814C17.7473 21.6814 21.0363 18.3407 21.0363 14.2196C21.0363 10.0986 17.7473 6.75781 13.69 6.75781C9.63279 6.75781 6.34375 10.0986 6.34375 14.2196C6.34375 18.3407 9.63279 21.6814 13.69 21.6814Z" stroke="#2B2B2B" stroke-width="3"/>
<path fill-rule="evenodd" clip-rule="evenodd" d="M8.69599 21.2898H18.7802C22.0774 21.6619 24.3141 23.7967 25.6445 25.8922C25.7409 26.0489 25.8373 26.2252 25.9337 26.3818C25.1817 26.754 24.4683 27.224 23.8513 27.7528C23.7742 27.5961 23.6778 27.4198 23.5621 27.2632C22.463 25.5593 20.8241 24.0904 18.5681 23.7967H8.83096C6.55573 24.0708 4.93608 25.5593 3.83703 27.2632C2.66086 29.0845 2.48732 31.4151 2.48732 34.0199V35.7434C3.35499 36.2134 4.41548 36.7618 5.88088 37.2514C7.69334 37.839 10.1999 38.3482 13.6899 38.3677C15.6759 38.3677 17.3534 38.1915 18.7417 37.9369C18.7031 38.6419 18.6838 39.3666 18.6838 40.0716V40.5025C17.3148 40.7179 15.7338 40.855 13.9213 40.8746H13.6899H13.4585C9.8336 40.8354 7.15346 40.3066 5.10961 39.6408C3.25858 39.0336 1.94744 38.3286 1.0412 37.8194C0.906234 37.741 0.771263 37.6823 0.655573 37.6039L0 37.2514V34.0199C0 31.4347 0.134971 28.3991 1.75462 25.8922C3.10433 23.7967 5.32171 21.6619 8.61886 21.2898H8.6767H8.69599Z" fill="#2B2B2B"/>
<path fill-rule="evenodd" clip-rule="evenodd" d="M29.4231 24.1102H29.2881C23.9857 24.7173 20.7078 28.6342 18.9725 31.9833C17.642 34.5684 17.4492 37.467 17.4492 40.0914V46.0647L18.1048 46.4173C18.2783 46.5152 18.4711 46.6131 18.664 46.7306C19.9751 47.4552 21.8069 48.4541 24.3906 49.2962C27.2443 50.2363 31.0234 50.9609 36.1523 51.0197C36.268 51.0197 36.3837 51.0197 36.4801 51.0197H36.8079C41.9368 50.9609 45.6967 50.2167 48.5697 49.2766C51.1534 48.4345 52.9851 47.4357 54.2963 46.711C54.4891 46.5935 54.6819 46.4956 54.8555 46.3977L55.511 46.0451V40.0718C55.511 37.4474 55.3182 34.5489 53.9878 31.9637C52.2524 28.6147 48.9746 24.6977 43.6721 24.0906H43.6143H43.5372H29.4231V24.1102ZM36.1523 26.617H29.5002C25.4125 27.1066 22.7324 30.1423 21.1706 33.1388C20.1294 35.1364 19.9365 37.5258 19.9365 40.0718V44.5175C21.2284 45.2226 22.8481 46.1039 25.1618 46.8677C27.8227 47.7294 31.4284 48.4541 36.4801 48.4737C41.5319 48.4345 45.1568 47.7294 47.7984 46.8677C50.1122 46.1039 51.7318 45.2422 53.0237 44.5175V40.0718C53.0237 37.5062 52.8116 35.1364 51.7897 33.1388C50.2472 30.1619 47.5477 27.1066 43.4601 26.617H36.1331H36.1523Z" fill="#2B2B2B"/>
<path d="M36.4822 24.6389C42.5734 24.6389 47.5112 19.6234 47.5112 13.4364C47.5112 7.24942 42.5734 2.23389 36.4822 2.23389C30.391 2.23389 25.4531 7.24942 25.4531 13.4364C25.4531 19.6234 30.391 24.6389 36.4822 24.6389Z" stroke="#2B2B2B" stroke-width="3"/>
</svg>
