<svg width="79" height="82" viewBox="0 0 79 82" fill="none" xmlns="http://www.w3.org/2000/svg">
<path fill-rule="evenodd" clip-rule="evenodd" d="M23.8761 28.6958V68.9733H19.9727V28.6958H23.8761Z" fill="#2B2B2B"/>
<path fill-rule="evenodd" clip-rule="evenodd" d="M1.95174 17.6555C3.04108 17.6555 3.90348 18.5134 3.90348 19.5971V71.9534C3.90348 73.0371 3.04108 73.8951 1.95174 73.8951C0.862396 73.8951 0 73.0371 0 71.9534V19.5971C0 18.5134 0.862396 17.6555 1.95174 17.6555Z" fill="#2B2B2B"/>
<path fill-rule="evenodd" clip-rule="evenodd" d="M77.0494 17.6555C78.1387 17.6555 79.0011 18.5134 79.0011 19.5971V71.9534C79.0011 73.0371 78.1387 73.8951 77.0494 73.8951C75.9601 73.8951 75.0977 73.0371 75.0977 71.9534V19.5971C75.0977 18.5134 75.9601 17.6555 77.0494 17.6555Z" fill="#2B2B2B"/>
<path fill-rule="evenodd" clip-rule="evenodd" d="M35.5871 46.6897V68.9959H31.6836V46.6897H35.5871Z" fill="#2B2B2B"/>
<path fill-rule="evenodd" clip-rule="evenodd" d="M47.2941 36.417V68.9957H43.3906V36.417H47.2941Z" fill="#2B2B2B"/>
<path fill-rule="evenodd" clip-rule="evenodd" d="M59.005 46.6897V68.9959H55.1016V46.6897H59.005Z" fill="#2B2B2B"/>
<path fill-rule="evenodd" clip-rule="evenodd" d="M53.2173 12.0112H61.932C64.088 12.0112 65.8355 13.7496 65.8355 15.8944V74.2337C65.8355 76.3785 64.088 78.1169 61.932 78.1169H17.0648C14.9088 78.1169 13.1613 76.3785 13.1613 74.2337V15.8944C13.1613 13.7496 14.9088 12.0112 17.0648 12.0112H25.7795V8.12793H17.0648C12.7528 8.12793 9.25781 11.6048 9.25781 15.8944V74.2337C9.25781 78.5233 12.7528 82.0002 17.0648 82.0002H61.9547C66.2667 82.0002 69.7617 78.5233 69.7617 74.2337V15.8944C69.7617 11.6048 66.2667 8.12793 61.9547 8.12793H53.24V12.0112H53.2173Z" fill="#2B2B2B"/>
<path fill-rule="evenodd" clip-rule="evenodd" d="M23.8086 3.8835C23.8086 1.73868 25.5561 0.000244141 27.7121 0.000244141H51.2691C53.4251 0.000244141 55.1726 1.73868 55.1726 3.8835V12.8692C55.1726 15.014 53.4251 16.7524 51.2691 16.7524H27.7121C25.5561 16.7524 23.8086 15.014 23.8086 12.8692V3.8835ZM51.2691 3.8835H27.7121V12.8692H51.2691V3.8835Z" fill="#2B2B2B"/>
</svg>
