<?xml version="1.0" encoding="UTF-8"?>
<svg id="Layer_2" data-name="Layer 2" xmlns="http://www.w3.org/2000/svg" viewBox="0 0 687.14 90.2">
  <defs>
    <style>
      .cls-1 {
        fill: none;
        stroke: #000;
        stroke-miterlimit: 10;
        stroke-width: 1.03px;
      }
    </style>
  </defs>
  <g id="Layer_1-2" data-name="Layer 1">
    <g>
      <polygon points="601.62 51.82 601.62 42.67 594.28 51.82 601.62 51.82"/>
      <path d="M674.22,28.35h-102.54v39.98h115.46v-27.06c0-7.12-5.79-12.92-12.92-12.92ZM611.39,57.2h-3.8v7.02h-5.97v-7.02h-14.97v-5.21l16.42-19.55h4.52v19.38h3.8v5.37ZM624.74,64.22h-3.63v-19.24h3.63v19.24ZM651.54,64.22h-.39l-12.45-11.45v11.45h-3.63v-19.24h.39l12.45,11.63v-11.63h3.63v19.24ZM672.17,64.22h-5.97v-21.33l-4.56,4.42-4.09-4.42,10.83-10.45h3.8v31.78Z"/>
      <rect x="24.22" y="31.67" width="6.06" height="6.06" transform="translate(-16.8 32.37) rotate(-48.82)"/>
      <path d="M23.92,19.72h55.95V6.45H0v57.12c0,7.36,2.61,13.63,7.82,18.81,5.19,5.22,11.46,7.82,18.81,7.82h36.01v-13.31H26.64c-3.67,0-6.8-1.3-9.41-3.91-2.6-2.6-3.92-5.74-3.92-9.41V30.31c0-5.85,4.75-10.6,10.6-10.6h0ZM12.07,53.64c-6.75,4.93-10.87,3.13-10.87,3.13,7.33-.7,10.98-9.63,10.98-9.63l-.11,6.5Z"/>
      <path d="M79.88,90.15v-26.98c0-7.13-5.78-12.92-12.92-12.92h-26.05v12.64h12.31c7.09,0,12.83,5.74,12.83,12.83v14.43h13.82Z"/>
      <path d="M166.54,28.35v39.98h-8v-31.41l-26,29.46-26-29.46v31.41h-8V28.35h11.11l22.89,25.93,22.89-25.93h11.11Z"/>
      <path d="M209.48,28.35c4.4,0,8.17,1.56,11.31,4.67,3.11,3.13,4.67,6.9,4.67,11.31v24h-8v-12h-31.98v12h-8V28.35h32.01,0ZM217.46,48.32v-4c0-2.2-.78-4.08-2.33-5.65-1.57-1.57-3.45-2.35-5.66-2.35h-24.01v12h31.99Z"/>
      <path d="M304.38,28.35v39.98h-8v-31.41l-26,29.46-26-29.46v31.41h-8V28.35h11.11l22.89,25.93,22.89-25.93h11.11Z"/>
      <path d="M383.32,28.35v39.98h-8v-31.41l-26,29.46-26-29.46v31.41h-8V28.35h11.11l22.89,25.93,22.89-25.93h11.11Z"/>
      <path d="M498.48,28.35v7.97h-18.66v32h-8v-32h-18.66v-7.97h45.34,0Z"/>
      <path d="M557.4,28.35v39.98h-8v-16h-31.98v16h-8V28.35h8v15.97h31.98v-15.97h8Z"/>
      <path d="M410.24,28.35c-4.42,0-8.19,1.56-11.31,4.67-3.13,3.13-4.7,6.9-4.7,11.31v24h32.01c4.4,0,8.17-1.57,11.31-4.7,3.11-3.11,4.67-6.88,4.67-11.31v-23.97h-31.99,0ZM435.32,49.54c0,.26-.21.46-.46.46h-.94v.06h.09c0,.12-.03.24-.05.36-.02.15-.04.31-.06.46-.02.1-.03.19-.05.29-.03.17-.06.34-.1.51-.02.08-.04.15-.05.23-.04.19-.09.38-.13.56-.02.06-.03.11-.05.17-.06.2-.11.4-.17.6,0,.04-.03.08-.04.12-.07.21-.14.42-.22.63,0,.03-.02.06-.03.09-.06.17-.13.33-.2.49-.02.05-.04.1-.06.15,0,.02-.02.04-.03.06-.09.22-.19.44-.3.65,0,.02-.02.04-.03.05-.11.22-.22.43-.33.64,0,.02-.02.04-.03.06-.12.21-.23.42-.36.62-.02.03-.03.05-.05.08-.12.19-.24.38-.37.57-.03.05-.06.09-.1.13-.12.17-.23.34-.36.5-.05.06-.09.12-.14.18-.11.14-.22.29-.34.43-.08.1-.16.19-.24.28-.09.1-.17.21-.27.31-.17.19-.35.38-.54.56-2.55,2.55-5.94,4.25-9.73,4.66v-.16h-.15v.53c0,.26-.21.46-.46.46h-2.45c-.26,0-.46-.21-.46-.46v-.38c-3.78-.41-7.18-2.11-9.72-4.65-.18-.18-.36-.37-.54-.56-.04-.05-.08-.09-.12-.14-.13-.15-.27-.3-.39-.45-.03-.04-.06-.08-.09-.11-.14-.17-.27-.33-.4-.5-.02-.02-.03-.05-.05-.07-.14-.19-.27-.38-.41-.57h0c-.15-.24-.3-.47-.44-.7-1.2-2-1.99-4.27-2.24-6.72,0,0-.02,0-.03,0h-1.03c-.26,0-.46-.21-.46-.46v-2.45c0-.26.21-.46.46-.46h1.03s.04.02.07.03c.45-3.69,2.09-6.97,4.58-9.47,1.23-1.23,2.08-1.79,3.06-2.4,1.97-1.2,4.28-2.07,6.71-2.35v-.56c0-.26.21-.46.46-.46h2.45c.26,0,.46.21.46.46v.54c2.51.27,4.91,1.14,6.93,2.39,1.08.67,2.24,1.65,2.91,2.29,2.57,2.4,4.21,5.82,4.66,9.54h.89c.26,0,.46.21.46.46v2.45h0Z"/>
      <rect x="416.64" y="44.88" width="2.36" height="6.76" rx=".81" ry=".81"/>
      <path d="M405.95,40.36h-1.03c-.11,0-.2.09-.2.2v7.31c0,.11.09.2.2.2h1.03c.11,0,.2-.09.2-.2v-7.31c0-.11-.09-.2-.2-.2Z"/>
      <path d="M405.95,49.16h-1.03c-.11,0-.2.09-.2.2v7.31c0,.11.09.2.2.2h1.03c.11,0,.2-.09.2-.2v-7.31c0-.11-.09-.2-.2-.2Z"/>
      <path d="M410.4,35.96h-1.03c-.11,0-.2.09-.2.2v11.7c0,.11.09.2.2.2h1.03c.11,0,.2-.09.2-.2v-11.7c0-.11-.09-.2-.2-.2Z"/>
      <path d="M410.4,49.16h-1.03c-.11,0-.2.09-.2.2v12.05c0,.11.09.2.2.2h1.03c.11,0,.2-.09.2-.2v-12.05c0-.11-.09-.2-.2-.2Z"/>
      <path d="M414.89,33.59h-1.03c-.11,0-.2.11-.2.24v5.27h0v3.48h0v1.79h0v3.48c0,.07.02.13.06.17,0,0,0,0,.02.02.02.02.04.03.06.04.02,0,.04.02.06.02h1.03c.08,0,.15-.06.18-.15,0-.03.02-.06.02-.09v-14c0-.13-.09-.24-.2-.24v-.02Z"/>
      <path d="M414.89,49.21h-1.03c-.11,0-.2.11-.2.24v5.27h0v3.48h0v1.79h0v3.48c0,.07.02.13.06.17,0,0,0,0,.02.02.02.02.04.03.06.04.02,0,.04.02.06.02h1.03c.08,0,.15-.06.18-.15,0-.03.02-.06.02-.09v-14c0-.13-.09-.24-.2-.24v-.02Z"/>
      <path d="M429.51,56.91h1.03c.11,0,.2-.09.2-.2v-7.3c0-.11-.09-.2-.2-.2h-1.03c-.11,0-.2.09-.2.2v7.3c0,.11.09.2.2.2Z"/>
      <path d="M429.51,48.11h1.03c.11,0,.2-.09.2-.2v-7.31c0-.11-.09-.2-.2-.2h-1.03c-.11,0-.2.09-.2.2v7.31c0,.11.09.2.2.2Z"/>
      <path d="M425.06,61.31h1.03c.11,0,.2-.09.2-.2v-11.7c0-.11-.09-.2-.2-.2h-1.03c-.11,0-.2.09-.2.2v11.7c0,.11.09.2.2.2Z"/>
      <path d="M425.06,48.11h1.03c.11,0,.2-.09.2-.2v-12.05c0-.11-.09-.2-.2-.2h-1.03c-.11,0-.2.09-.2.2v12.05c0,.11.09.2.2.2Z"/>
      <path d="M420.56,63.68h1.03c.11,0,.2-.11.2-.24v-5.27h0v-3.48h0v-1.79h0v-3.48c0-.07-.02-.13-.06-.17,0,0,0,0-.02-.02-.02-.02-.04-.03-.06-.04-.02,0-.04-.02-.06-.02h-1.03c-.08,0-.15.06-.18.15,0,.03-.02.06-.02.09v14.01c0,.13.09.24.2.24h0Z"/>
      <path d="M420.56,48.07h1.03c.11,0,.2-.11.2-.24v-5.27h0v-3.48h0v-1.79h0v-3.48c0-.07-.02-.13-.06-.17,0,0,0,0-.02-.02-.02-.02-.04-.03-.06-.04-.02,0-.04-.02-.06-.02h-1.03c-.08,0-.15.06-.18.15,0,.03-.02.06-.02.09v14.01c0,.13.09.24.2.24h0Z"/>
      <path d="M562.68,9.2h-2.11v5.74h-1.42v-5.74h-2.08v-1.15h5.62v1.15Z"/>
      <path d="M566.12,8.05l1.77,5,1.76-5h1.87v6.89h-1.43v-1.88l.14-3.25-1.86,5.14h-.98l-1.86-5.13.14,3.25v1.88h-1.42v-6.89h1.86Z"/>
      <circle class="cls-1" cx="564.29" cy="11.5" r="10.98"/>
    </g>
  </g>
</svg>