<svg width="589" height="72" viewBox="0 0 589 72" fill="none" xmlns="http://www.w3.org/2000/svg">
<g clip-path="url(#clip0_326_2479)">
<path d="M27.0274 24.0283L23.1172 20.5979L19.6953 24.5178L23.6055 27.9482L27.0274 24.0283Z" fill="white"/>
<path d="M20.5126 11.4162H68.472V0H0V49.1132C0 55.4293 2.24498 60.8198 6.69874 65.2846C11.1525 69.7676 16.5115 72 22.83 72H53.6985V60.5475H22.83C19.6979 60.5475 17.0003 59.4222 14.7734 57.1898C12.5466 54.9574 11.4241 52.2531 11.4241 49.1132V20.5274C11.4241 15.4999 15.4976 11.4162 20.5126 11.4162ZM10.3378 40.5647C4.56238 44.7935 1.01386 43.2508 1.01386 43.2508C7.29619 42.6519 10.4283 34.9745 10.4283 34.9745L10.3378 40.5647Z" fill="white"/>
<path d="M68.4715 71.9456V48.7502C68.4715 42.6156 63.5108 37.6426 57.3914 37.6426H35.0684V48.5143H45.6234C51.7066 48.5143 56.6311 53.451 56.6311 59.5493V71.9456H68.4715Z" fill="white"/>
<path d="M142.756 18.8212V53.1787H135.894V26.1719L113.608 51.4907L91.3207 26.1719V53.1787H84.459V18.8212H93.982L113.608 41.1091L133.233 18.8212H142.756Z" fill="white"/>
<path d="M179.564 18.8212C183.348 18.8212 186.57 20.1643 189.25 22.8323C191.929 25.5185 193.251 28.7673 193.251 32.5424V53.1787H186.389V42.8696H158.979V53.1787H152.117V18.8212H179.564ZM186.407 35.9909V32.5606C186.407 30.673 185.738 29.0577 184.416 27.6964C183.076 26.3534 181.465 25.6818 179.564 25.6818H158.979V35.9909H186.389H186.407Z" fill="white"/>
<path d="M260.906 18.8212V53.1787H254.045V26.1719L231.758 51.4907L209.471 26.1719V53.1787H202.609V18.8212H212.132L231.758 41.1091L251.383 18.8212H260.906Z" fill="white"/>
<path d="M328.565 18.8212V53.1787H321.703V26.1719L299.416 51.4907L277.129 26.1719V53.1787H270.268V18.8212H279.791L299.416 41.1091L319.042 18.8212H328.565Z" fill="white"/>
<path d="M427.289 18.8212V25.6818H411.284V53.1968H404.423V25.6818H388.418V18.8212H427.271H427.289Z" fill="white"/>
<path d="M477.802 18.8212V53.1787H470.94V39.4212H443.53V53.1787H436.668V18.8212H443.53V32.5606H470.94V18.8212H477.802Z" fill="white"/>
<path d="M351.647 18.8213C347.863 18.8213 344.623 20.1643 341.961 22.8323C339.282 25.5185 337.924 28.7673 337.924 32.5425V53.1787H365.371C369.154 53.1787 372.377 51.8356 375.057 49.1313C377.736 46.4451 379.058 43.2145 379.058 39.4212V18.8031H351.629L351.647 18.8213ZM373.156 37.0436C373.156 37.2614 372.975 37.4429 372.757 37.4429H371.943V37.4973H372.015C372.015 37.6062 371.997 37.697 371.979 37.8059C371.979 37.9329 371.943 38.0781 371.924 38.2052C371.924 38.2959 371.888 38.3685 371.888 38.4593C371.87 38.6045 371.834 38.7497 371.798 38.8949C371.798 38.9675 371.762 39.0219 371.762 39.0945C371.725 39.2579 371.689 39.4212 371.653 39.5664C371.653 39.6208 371.617 39.6571 371.617 39.7116C371.562 39.8931 371.526 40.0564 371.472 40.2198C371.472 40.2561 371.454 40.2924 371.436 40.3287C371.381 40.5102 371.309 40.6917 371.255 40.8732C371.255 40.8913 371.236 40.9276 371.218 40.9458C371.164 41.091 371.11 41.2362 371.055 41.3632C371.055 41.3995 371.019 41.454 371.001 41.4903C371.001 41.5084 371.001 41.5266 370.983 41.5447C370.911 41.7262 370.82 41.9259 370.73 42.1074C370.73 42.1074 370.73 42.1437 370.711 42.1618C370.621 42.3433 370.53 42.5248 370.422 42.7063C370.422 42.7063 370.404 42.7426 370.404 42.7608C370.313 42.9423 370.205 43.1237 370.096 43.2871C370.096 43.3052 370.06 43.3415 370.06 43.3597C369.951 43.523 369.861 43.6864 369.752 43.8497C369.734 43.886 369.698 43.9223 369.679 43.9586C369.589 44.1038 369.48 44.249 369.372 44.3761C369.335 44.4305 369.299 44.485 369.245 44.5213C369.154 44.6483 369.064 44.7754 368.955 44.8843C368.883 44.9569 368.81 45.0476 368.756 45.1202C368.684 45.211 368.611 45.3017 368.539 45.3743C368.394 45.5377 368.231 45.701 368.086 45.8462C365.896 48.0423 362.999 49.4943 359.74 49.8573V49.7303H359.613V50.184C359.613 50.4018 359.432 50.5833 359.215 50.5833H357.115C356.898 50.5833 356.717 50.4018 356.717 50.184V49.8573C353.476 49.5125 350.561 48.0423 348.388 45.8644C348.225 45.701 348.081 45.5377 347.936 45.3743C347.9 45.338 347.863 45.3017 347.827 45.2654C347.718 45.1384 347.61 45.0113 347.501 44.8843C347.483 44.848 347.447 44.8117 347.429 44.7935C347.32 44.6483 347.193 44.5031 347.085 44.3579C347.085 44.3398 347.049 44.3216 347.049 44.3035C346.922 44.1401 346.813 43.9768 346.705 43.8134C346.578 43.6138 346.451 43.4141 346.324 43.2145C345.292 41.4903 344.623 39.5482 344.405 37.4429C344.405 37.4429 344.405 37.4429 344.387 37.4429H343.5C343.283 37.4429 343.102 37.2614 343.102 37.0436V34.9382C343.102 34.7204 343.283 34.5389 343.5 34.5389H344.387C344.387 34.5389 344.423 34.5571 344.442 34.5571C344.822 31.399 346.234 28.5677 348.37 26.4078C349.42 25.3552 350.144 24.8651 350.995 24.3388C352.679 23.3042 354.671 22.5601 356.753 22.306V21.8341C356.753 21.6163 356.934 21.4348 357.151 21.4348H359.251C359.468 21.4348 359.649 21.6163 359.649 21.8341V22.2879C361.804 22.5238 363.85 23.2679 365.588 24.3388C366.511 24.9196 367.507 25.7545 368.086 26.3171C370.295 28.3862 371.707 31.3264 372.087 34.5208H372.848C373.065 34.5208 373.246 34.7023 373.246 34.9201V37.0254L373.156 37.0436Z" fill="white"/>
<path d="M358.346 33.0325H357.929C357.489 33.0325 357.133 33.39 357.133 33.8311V38.0418C357.133 38.4828 357.489 38.8404 357.929 38.8404H358.346C358.786 38.8404 359.142 38.4828 359.142 38.0418V33.8311C359.142 33.39 358.786 33.0325 358.346 33.0325Z" fill="white"/>
<path d="M347.972 29.1484H347.085C346.994 29.1484 346.922 29.221 346.922 29.3118V35.5916C346.922 35.6823 346.994 35.7549 347.085 35.7549H347.972C348.062 35.7549 348.135 35.6823 348.135 35.5916V29.3118C348.135 29.221 348.062 29.1484 347.972 29.1484Z" fill="white"/>
<path d="M347.972 36.7169H347.085C346.994 36.7169 346.922 36.7895 346.922 36.8803V43.1601C346.922 43.2508 346.994 43.3234 347.085 43.3234H347.972C348.062 43.3234 348.135 43.2508 348.135 43.1601V36.8803C348.135 36.7895 348.062 36.7169 347.972 36.7169Z" fill="white"/>
<path d="M351.792 25.3552H350.905C350.815 25.3552 350.742 25.4278 350.742 25.5185V35.5916C350.742 35.6824 350.815 35.755 350.905 35.755H351.792C351.883 35.755 351.955 35.6824 351.955 35.5916V25.5185C351.955 25.4278 351.883 25.3552 351.792 25.3552Z" fill="white"/>
<path d="M351.792 36.7169H350.905C350.815 36.7169 350.742 36.7895 350.742 36.8803V47.2438C350.742 47.3345 350.815 47.4071 350.905 47.4071H351.792C351.883 47.4071 351.955 47.3345 351.955 47.2438V36.8803C351.955 36.7895 351.883 36.7169 351.792 36.7169Z" fill="white"/>
<path d="M355.65 23.3224H354.763C354.672 23.3224 354.6 23.4131 354.6 23.522V28.0413V31.036V32.5788V35.5735C354.6 35.5735 354.618 35.6824 354.654 35.7187C354.654 35.7187 354.69 35.7368 354.708 35.755C354.708 35.755 354.744 35.755 354.763 35.755H355.65C355.65 35.755 355.776 35.7005 355.813 35.6279C355.813 35.6098 355.813 35.5735 355.813 35.5553V23.522C355.813 23.4131 355.74 23.3224 355.65 23.3224Z" fill="white"/>
<path d="M355.65 36.7532H354.763C354.672 36.7532 354.6 36.8439 354.6 36.9528V41.4721V44.4668V46.0095V49.0042C354.6 49.0042 354.618 49.1131 354.654 49.1494C354.654 49.1494 354.69 49.1676 354.708 49.1857C354.708 49.1857 354.744 49.1857 354.763 49.1857H355.65C355.65 49.1857 355.776 49.1313 355.813 49.0587C355.813 49.0405 355.813 49.0042 355.813 48.9861V36.9528C355.813 36.8439 355.74 36.7532 355.65 36.7532Z" fill="white"/>
<path d="M368.159 43.3779H369.046C369.137 43.3779 369.209 43.3053 369.209 43.2145V41.1636V40.7099V36.9347C369.209 36.844 369.137 36.7714 369.046 36.7714H368.159C368.069 36.7714 367.996 36.844 367.996 36.9347V40.7099V41.1636V43.2145C367.996 43.3053 368.069 43.3779 368.159 43.3779Z" fill="white"/>
<path d="M368.159 35.8094H369.046C369.137 35.8094 369.209 35.7368 369.209 35.6461V31.8709V30.419V29.3844C369.209 29.2937 369.137 29.2211 369.046 29.2211H368.159C368.069 29.2211 367.996 29.2937 367.996 29.3844V30.419V31.8709V35.6461C367.996 35.7368 368.069 35.8094 368.159 35.8094Z" fill="white"/>
<path d="M364.358 47.153H365.245C365.336 47.153 365.408 47.0804 365.408 46.9897V43.2145V40.7099V39.4212V38.9675V36.9347C365.408 36.844 365.336 36.7714 365.245 36.7714H364.358C364.268 36.7714 364.195 36.844 364.195 36.9347V38.9675V39.4212V40.7099V43.2145V46.9897C364.195 47.0804 364.268 47.153 364.358 47.153Z" fill="white"/>
<path d="M364.358 35.8094H365.245C365.336 35.8094 365.408 35.7368 365.408 35.646V31.8709V29.3662V27.7872V26.9523V25.2825C365.408 25.1918 365.336 25.1192 365.245 25.1192H364.358C364.268 25.1192 364.195 25.1918 364.195 25.2825V26.9523V27.7872V29.3662V31.8709V35.646C364.195 35.7368 364.268 35.8094 364.358 35.8094Z" fill="white"/>
<path d="M360.501 49.2039H361.388C361.478 49.2039 361.551 49.1132 361.551 49.0043V44.485V41.4903V39.9476V36.9529C361.551 36.9529 361.533 36.844 361.497 36.8077C361.497 36.8077 361.46 36.7895 361.442 36.7714C361.442 36.7714 361.406 36.7714 361.388 36.7714H360.501C360.501 36.7714 360.374 36.8258 360.338 36.8984C360.338 36.9166 360.338 36.9529 360.338 36.971V39.9657V41.5084V44.5032V49.0224C360.338 49.1313 360.41 49.2221 360.501 49.2221V49.2039Z" fill="white"/>
<path d="M360.501 35.7731H361.388C361.478 35.7731 361.551 35.6823 361.551 35.5734V31.0542V28.0594V26.5167V23.522C361.551 23.522 361.533 23.4131 361.497 23.3768C361.497 23.3768 361.46 23.3587 361.442 23.3405C361.442 23.3405 361.406 23.3405 361.388 23.3405H360.501C360.501 23.3405 360.374 23.395 360.338 23.4676C360.338 23.4857 360.338 23.522 360.338 23.5402V26.5349V28.0776V31.0723V35.5916C360.338 35.7005 360.41 35.7912 360.501 35.7912V35.7731Z" fill="white"/>
<path d="M483.92 18.8213C479.629 18.8213 476.135 15.3184 476.135 11.0169C476.135 6.71542 479.629 3.21252 483.92 3.21252C488.211 3.21252 491.705 6.71542 491.705 11.0169C491.705 15.3184 488.211 18.8213 483.92 18.8213ZM483.92 4.86415C480.534 4.86415 477.782 7.62291 477.782 11.0169C477.782 14.4109 480.534 17.1697 483.92 17.1697C487.305 17.1697 490.057 14.4109 490.057 11.0169C490.057 7.62291 487.305 4.86415 483.92 4.86415Z" fill="white"/>
<path d="M490.041 18.8212H577.939C584.059 18.8212 589.019 23.7943 589.019 29.9289V53.1968H490.059V18.8212H490.041Z" fill="white"/>
<path d="M558.151 49.6577L547.469 39.8205V49.6577H544.355V33.1051H544.681L555.363 43.1056V33.1051H558.477V49.6577H558.151Z" fill="black"/>
<path d="M535.52 49.6577H532.406V33.1051H535.52V49.6577Z" fill="black"/>
<path d="M576.183 22.3423V49.6576H571.06V31.3264L567.149 35.1197L563.637 31.3264L572.924 22.3423H576.183Z" fill="black"/>
<path d="M524.08 39.0038V43.632H520.821V49.6758H515.698V43.632H502.861V39.1671L516.929 22.3605H520.803V39.0219H524.062L524.08 39.0038ZM515.698 31.1268L509.415 38.9856H515.698V31.1268Z" fill="black"/>
<path d="M482.942 9.69198H481.548V13.5216H480.606V9.69198H479.23V8.92969H482.96V9.69198H482.942Z" fill="white"/>
<path d="M484.698 8.92969L485.875 12.2511L487.051 8.92969H488.283V13.5216H487.341V12.2692L487.432 10.1094L486.201 13.5216H485.549L484.318 10.1094L484.408 12.2692V13.5216H483.467V8.92969H484.698Z" fill="white"/>
</g>
<defs>
<clipPath id="clip0_326_2479">
<rect width="589" height="72" fill="white"/>
</clipPath>
</defs>
</svg>
