<svg width="351" height="113" viewBox="0 0 351 113" fill="none" xmlns="http://www.w3.org/2000/svg">
<g clip-path="url(#clip0_6159_1491)">
<path d="M0 22.2741C0.15171 22.255 0.322384 22.1974 0.474094 22.1974C4.05824 22.1974 7.66135 22.1974 11.2455 22.1974C11.3403 22.1974 11.4541 22.1974 11.6248 22.2358V36.114C11.8713 35.999 12.042 35.9223 12.1937 35.8456C24.9753 29.5966 40.0325 37.0724 42.9529 51.1231C45.4182 63.0461 37.4155 74.9691 25.5821 77.001C14.0332 78.9946 3.26176 71.8254 0.60684 60.3433C0.322384 59.1357 0.265492 57.8897 0.0948187 56.6438C0.0568912 56.3562 0.0379275 56.0495 0 55.7428C0 44.5866 0 33.4304 0 22.2741ZM31.5557 55.4745C31.5557 49.9922 27.1561 45.5642 21.7325 45.5642C16.2709 45.5642 11.8903 50.0114 11.8903 55.5128C11.8903 60.9951 16.2899 65.4231 21.7135 65.4231C27.1751 65.4231 31.5557 60.9951 31.5557 55.4745Z" fill="white"/>
<path d="M94.0031 77.6336C93.9841 77.4035 93.9272 77.1735 93.9272 76.9435C93.9272 69.7744 93.9272 62.6052 93.9272 55.4361C93.9272 46.7527 99.1612 38.7784 107.088 35.3664C119.756 29.9416 134.13 37.5516 136.842 51.1806C137.127 52.5608 137.24 53.9985 137.259 55.4169C137.297 62.5861 137.278 69.7552 137.259 76.9243C137.259 77.1544 137.221 77.3844 137.203 77.6144H125.521C125.483 77.3844 125.426 77.1544 125.426 76.9243C125.426 69.736 125.426 62.5477 125.426 55.3786C125.426 50.2414 121.406 45.9092 116.342 45.5642C110.558 45.1616 105.761 49.6855 105.761 55.5511C105.761 62.6819 105.761 69.8127 105.761 76.9435C105.761 77.1735 105.704 77.4035 105.666 77.6336H93.9841H94.0031Z" fill="white"/>
<path d="M190.055 77.6336C190.055 77.4036 190.017 77.1735 190.017 76.9244C190.017 63.9279 190.017 50.9315 190.017 37.935V37.245H201.584C201.584 37.4558 201.584 37.6475 201.584 37.8392C201.584 50.8931 201.584 63.9279 201.584 76.9819C201.584 77.1927 201.547 77.4036 201.528 77.6144H190.055V77.6336Z" fill="white"/>
<path d="M173.537 36.114V22.2166H185.048C185.048 22.37 185.086 22.5041 185.086 22.6383C185.086 33.6412 185.143 44.6249 185.067 55.6278C184.991 66.3623 177.425 75.2375 166.957 77.0585C155.427 79.0712 144.124 71.0587 142.114 59.4232C140.085 47.7111 147.253 36.7657 158.726 34.1396C163.657 33.0086 168.417 33.622 172.968 35.8456C173.12 35.9223 173.291 35.999 173.537 36.114ZM173.272 55.5128C173.272 50.0689 168.91 45.5834 163.543 45.5642C158.044 45.545 153.625 49.9538 153.606 55.4745C153.606 60.9567 157.968 65.4039 163.391 65.4231C168.853 65.4422 173.253 61.0334 173.272 55.532V55.5128Z" fill="white"/>
<path d="M88.6557 77.3077H77.0878V74.9691C75.969 75.41 74.907 75.8892 73.8071 76.2534C61.3858 80.3747 48.1112 72.3814 45.7787 59.3849C43.6168 47.3086 51.7902 35.6923 63.7563 33.8713C75.1535 32.1269 85.7353 39.4302 88.2764 50.7973C88.7695 53.0017 88.8833 55.2253 88.6747 57.468C88.6557 57.6981 88.6557 57.9281 88.6557 58.1773C88.6557 64.3113 88.6557 70.4645 88.6557 76.5985V77.3077ZM67.1129 65.4039C72.5365 65.4039 76.9361 60.9759 76.9551 55.5128C76.9551 50.0305 72.5555 45.5642 67.1129 45.5642C61.7082 45.5642 57.2897 50.0114 57.2707 55.4745C57.2707 60.9568 61.6703 65.4231 67.1319 65.4231L67.1129 65.4039Z" fill="white"/>
<path d="M278.558 38.0117C268.868 47.6536 269.095 63.5445 278.558 72.9372C272.243 78.247 260.088 79.8955 251.061 71.8063C241.939 63.6404 241.389 49.1871 249.847 40.3311C258.476 31.3218 271.314 32.1077 278.558 37.9925V38.0117Z" fill="white"/>
<path d="M235.302 48.382C230.978 44.2224 224.663 44.8933 221.136 48.7271C217.742 52.4458 217.685 58.254 221.003 62.0494C224.455 65.9981 230.959 66.7841 235.302 62.5478C238.052 65.3464 240.82 68.145 243.57 70.9437C236.819 78.2278 223.639 80.1639 214.195 71.998C204.676 63.7554 204.126 48.9571 213.077 39.9669C221.989 31.0151 235.852 31.8969 243.589 39.9286C240.839 42.7272 238.09 45.5259 235.302 48.3437V48.382Z" fill="white"/>
<path d="M321.132 42.0755H317.908V33.6604H321.113V22.2358H332.681V33.6029H342.827V42.0755H332.946V42.708C332.946 46.906 332.946 51.0848 332.946 55.2828C332.946 60.5542 336.512 64.6946 341.689 65.3847C342.049 65.4422 342.428 65.4422 342.827 65.4614V77.346C341.044 77.4035 339.337 77.1735 337.649 76.7518C329.173 74.6432 322.782 67.6658 321.398 58.9823C321.227 57.8514 321.151 56.6821 321.132 55.532C321.094 51.2957 321.132 47.0402 321.132 42.8039V42.0946V42.0755Z" fill="white"/>
<path d="M295.74 33.5645C307.706 33.5645 317.434 43.379 317.434 55.4936C317.434 67.5891 307.725 77.4227 295.759 77.4227C283.755 77.4227 274.007 67.5891 274.007 55.4745C274.007 43.3981 283.774 33.5645 295.74 33.5645ZM295.512 76.0234C306.871 76.0234 316.05 66.9182 316.126 55.7045C316.202 43.7432 306.492 34.9639 295.152 34.9064C286.599 34.868 275.43 42.4205 275.354 55.3978C275.278 66.209 283.85 75.9084 295.512 76.0042V76.0234Z" fill="white"/>
<path d="M195.82 34.1204C192.558 34.1204 189.922 31.4943 189.884 28.1973C189.846 24.9002 192.539 22.1974 195.801 22.1974C199.044 22.1974 201.718 24.8811 201.718 28.1589C201.718 31.4368 199.082 34.1204 195.82 34.1204Z" fill="white"/>
<path d="M276.112 56.0879C276.7 56.0879 277.155 56.0879 277.591 56.0879C278.672 56.0879 278.919 55.9729 278.862 55.4745C278.805 54.9186 278.729 54.8419 277.553 54.8802C277.117 54.8802 276.662 54.8802 276.131 54.8802C276.378 48.4587 279.146 43.4557 284.096 39.6027C289.842 35.1364 298.508 34.408 304.861 38.0501C311.081 41.6155 315.652 48.8037 315.234 54.8802C314.647 54.8802 314.04 54.8802 313.452 54.8802C313.262 54.8802 313.016 54.8802 312.883 54.9761C312.693 55.1486 312.504 55.417 312.504 55.647C312.504 55.8004 312.845 56.0304 313.054 56.0687C313.547 56.1262 314.059 56.0879 314.552 56.1071C314.76 56.1071 314.969 56.1071 315.348 56.1071C315.234 57.2188 315.215 58.2731 315.007 59.3082C313.395 66.7266 307.725 73.589 299.077 74.9883C291.625 76.1959 285.291 73.8765 280.455 67.8383C278.388 65.2506 276.909 62.3944 276.397 59.0782C276.245 58.1198 276.207 57.1613 276.093 56.1071L276.112 56.0879ZM278.615 58.0431C278.615 58.2731 278.615 58.4265 278.615 58.5798C278.653 58.9057 278.672 59.2316 278.748 59.5383C279.677 63.5829 281.934 66.8032 285.082 69.3143C288.913 72.3813 293.35 73.6465 298.205 72.8031C305.506 71.5379 310.171 67.1291 312.504 60.0942C312.712 59.4424 312.75 58.7332 312.883 58.0623C311.385 57.6597 310.607 56.8546 310.55 55.6662C310.475 54.401 311.157 53.5001 312.561 52.9634C312.674 52.925 312.826 52.6758 312.788 52.5417C312.674 51.8516 312.598 51.1423 312.371 50.4714C310.892 45.8518 307.99 42.4014 303.799 40.0436C302.434 39.2769 301.031 38.5676 299.495 38.2992C292.383 36.9766 286.542 39.2385 281.972 44.8358C280.227 46.9635 278.995 49.4171 278.615 52.2158C278.559 52.695 278.615 52.9442 279.127 53.1359C280.739 53.7301 281.346 55.3403 280.55 56.7013C280.114 57.4489 279.469 57.8897 278.615 58.0239V58.0431Z" fill="white"/>
<path d="M299.001 70.3111C298.907 70.5411 298.793 70.752 298.698 70.982C298.622 71.1545 298.584 71.3846 298.452 71.5187C297.959 72.0938 297.257 71.7679 296.669 71.883C296.536 71.9021 296.309 71.6721 296.214 71.4996C296.024 71.1545 295.891 70.7903 295.683 70.2919C295.474 70.9245 295.285 71.4421 295.095 71.998C294.45 71.9021 293.805 71.8063 293.18 71.6721C293.047 71.6529 292.895 71.4804 292.819 71.3462C292.649 71.0587 292.516 70.7328 292.326 70.3111C292.231 70.5411 292.137 70.6753 292.099 70.8287C291.985 71.3271 291.7 71.4421 291.245 71.3079C289.159 70.6562 287.206 69.7361 285.537 68.2984C284.911 67.7617 284.418 67.0524 283.83 66.3623C283.83 66.3623 283.717 66.4582 283.584 66.554C283.281 66.1515 282.958 65.8064 282.731 65.4039C282.598 65.1547 282.484 64.7522 282.598 64.5605C283.148 63.6404 282.674 62.912 282.257 62.1069C282.048 62.6436 281.858 63.1228 281.65 63.6404C280.796 62.8736 280.417 61.4168 280.891 60.5159C281.213 59.8833 281.308 59.3466 280.967 58.6948C280.872 58.5031 280.929 58.1389 281.043 57.9281C281.289 57.4105 281.612 56.9505 281.934 56.4137C282.029 56.6821 282.105 56.8546 282.181 57.0655C283.015 56.3562 283.053 55.1869 282.275 53.9793C282.181 54.1327 282.086 54.286 281.915 54.5352C281.536 53.9218 281.138 53.3659 280.853 52.7717C280.777 52.6183 280.929 52.2925 281.043 52.0816C281.289 51.6407 281.308 51.2382 281.043 50.8165C280.948 50.6439 280.872 50.4522 280.815 50.2797C280.72 49.973 280.512 49.628 280.607 49.3788C280.834 48.7271 280.986 47.9795 281.65 47.5003C281.896 47.922 282.105 48.3245 282.351 48.7462C282.977 47.7495 283.034 47.5194 282.655 46.5035C282.484 46.0434 282.541 45.6601 282.901 45.3342C283.072 45.1808 283.224 44.9891 283.375 44.8166C283.565 44.5866 283.774 44.4141 284.02 44.8741C284.267 43.8007 284.892 43.1106 285.689 42.5355C286.22 42.1713 286.713 41.7496 287.282 41.4238C287.87 41.0979 288.534 40.887 289.159 40.5995C289.785 40.312 290.373 39.9286 291.018 39.7177C291.795 39.4685 291.814 39.526 292.137 40.2736C292.194 40.4078 292.25 40.5228 292.364 40.7528C292.516 40.3695 292.687 40.0819 292.762 39.7752C292.857 39.3535 293.142 39.181 293.521 39.1618C293.919 39.1427 294.317 39.0852 294.697 39.1618C294.905 39.2002 295.114 39.4302 295.247 39.6411C295.436 39.9669 295.531 40.3311 295.664 40.6762C295.721 40.6762 295.759 40.6762 295.816 40.6762C295.948 40.2736 296.119 39.8903 296.233 39.4877C296.309 39.2385 296.422 39.066 296.726 39.1235C296.783 39.1235 296.84 39.1235 296.878 39.1235C298.357 39.0852 298.395 39.1235 298.869 40.4845C298.907 40.5803 298.945 40.6762 299.039 40.9254C299.267 40.3886 299.438 40.0053 299.646 39.5452C300.101 39.6794 300.576 39.7944 301.031 39.9478C302.965 40.6187 304.729 41.5963 306.265 42.9381C306.758 43.379 307.099 43.9924 307.535 44.5674C307.573 44.5291 307.649 44.4716 307.763 44.3757C308.123 44.855 308.502 45.2958 308.825 45.7942C308.92 45.9284 308.901 46.216 308.825 46.3885C308.351 47.2894 308.635 48.0562 309.185 48.9187C309.394 48.3629 309.583 47.8836 309.773 47.4044C310.778 48.3437 311.025 49.4555 310.475 50.6056C310.228 51.1232 310.133 51.5832 310.437 52.1391C310.569 52.3883 310.512 52.8292 310.38 53.1359C310.152 53.6534 309.811 54.1135 309.526 54.6119C309.432 54.4585 309.299 54.2668 309.166 54.0751C308.426 55.0336 308.426 55.5511 309.166 56.9888C309.242 56.9121 309.299 56.8355 309.356 56.7588C309.413 56.6821 309.451 56.6054 309.545 56.4521C309.925 57.0463 310.304 57.583 310.626 58.1389C310.683 58.2539 310.626 58.484 310.55 58.6373C310.209 59.3274 310.114 59.9791 310.626 60.6692C310.816 60.9184 310.873 61.3785 310.778 61.6852C310.588 62.3369 310.247 62.9503 309.963 63.5829C309.906 63.5829 309.849 63.5637 309.792 63.5445C309.602 63.1037 309.432 62.6628 309.242 62.2219C308.597 62.7203 308.408 63.5829 308.749 64.388C309.014 65.0397 308.426 66.2665 307.744 66.4199C307.649 66.439 307.535 66.324 307.383 66.2473C306.758 67.8767 305.468 68.8543 304.046 69.6594C303.591 69.9277 303.06 70.0236 302.548 70.1961C302.453 70.2344 302.339 70.2536 302.282 70.3111C301.675 71.1545 300.765 71.2504 299.855 71.3654C299.741 71.3654 299.551 71.2312 299.476 71.1162C299.343 70.867 299.267 70.5986 299.153 70.3303C299.096 70.3303 299.058 70.3303 299.001 70.3303V70.3111ZM290.676 41.6921C289.975 42.5355 289.956 44.069 290.676 44.8933C291.359 43.839 291.549 42.7656 290.676 41.6921ZM285.651 62.1069C284.892 63.257 284.892 64.2346 285.613 65.2314C286.391 64.3688 286.429 63.1037 285.651 62.1069ZM305.791 48.8804C306.606 47.3852 306.587 46.7335 305.715 45.8326C305.07 46.8485 304.956 47.8645 305.791 48.8804ZM294.033 52.9634C294.773 51.9858 294.754 50.759 294.033 49.8197C293.274 50.9123 293.274 52.0049 294.033 52.9634ZM302.434 48.8612C303.192 47.6919 303.155 46.446 302.377 45.7559C301.789 46.791 301.486 47.807 302.434 48.8612ZM294.014 41.6538C293.255 42.7847 293.274 43.9349 294.014 44.74C294.716 43.8199 294.697 42.2672 294.014 41.6538ZM297.295 41.6921C296.852 42.74 296.859 43.7623 297.314 44.7591C298.281 43.379 298.3 43.1298 297.295 41.6921ZM307.421 52.9634C308.218 52.0624 308.218 50.9698 307.459 49.858C306.758 50.8165 306.72 51.9666 307.421 52.9634ZM287.358 58.1389C286.429 59.2699 286.429 60.1325 287.358 61.0334C288.097 60.0942 288.021 59.1357 287.358 58.1389ZM302.415 65.2506C303.155 64.3305 303.136 62.8736 302.396 62.126C301.619 63.1612 301.713 64.1963 302.415 65.2506ZM290.771 66.3048C289.88 67.2249 289.842 68.2025 290.638 69.3335C291.34 68.6051 291.378 67.6467 290.771 66.3048ZM294.033 69.3527C294.773 68.4517 294.754 67.0716 294.033 66.2473C293.293 67.3783 293.293 68.3176 294.033 69.3527ZM287.282 52.9634C288.097 52.0241 288.116 51.1615 287.32 49.9155C286.523 51.1423 286.504 51.7749 287.282 52.9634ZM307.44 61.1868C308.199 60.1708 308.161 58.6948 307.421 58.0623C306.682 59.0782 306.739 60.1133 307.44 61.1868ZM294.033 61.1868C294.754 59.9983 294.735 58.944 294.033 58.0431C293.293 59.0782 293.274 60.1517 294.033 61.1868ZM304.16 58.0814C303.268 59.1357 303.249 59.6533 304.008 61.1293C304.71 60.5542 304.766 59.4424 304.16 58.0814ZM305.734 65.1355C306.663 63.9087 306.663 63.0653 305.715 62.2411C305.051 63.1995 305.032 64.1579 305.734 65.1355ZM295.759 45.8517C294.867 46.9635 294.867 47.807 295.759 48.8421C296.366 47.8453 296.46 46.8485 295.759 45.8517ZM295.759 62.2219C294.811 63.2762 294.829 64.3113 295.759 65.1164C296.441 64.1579 296.422 63.1995 295.759 62.2219ZM288.97 48.8612C289.937 47.3469 289.861 47.2127 288.951 45.8326C288.23 46.8294 288.306 47.8453 288.97 48.8612ZM304.16 69.2952C304.861 67.8383 304.861 67.455 304.141 66.324C303.211 67.6275 303.136 67.8383 304.16 69.2952ZM297.446 69.3335C297.655 68.8735 297.845 68.4517 298.015 68.03C298.053 67.915 298.11 67.7617 298.072 67.685C297.864 67.2058 297.636 66.7266 297.371 66.1707C296.65 67.7233 296.688 68.5859 297.446 69.3527V69.3335ZM305.734 56.9505C306.682 55.7812 306.663 54.8802 305.696 54.056C305.089 55.0144 304.956 55.9729 305.734 56.9505ZM302.396 53.8835C301.694 55.3403 301.713 56.3562 302.434 57.0463C303.136 56.0112 303.117 54.9569 302.396 53.8835ZM297.314 61.0334C298.3 59.8258 298.338 59.4041 297.314 58.1006C296.612 59.4807 296.612 59.7108 297.314 61.0334ZM299.153 48.7654C299.855 47.5386 299.817 46.6568 299.039 45.7559C298.262 46.9635 298.3 47.8453 299.153 48.7654ZM304.103 49.9539C303.287 50.9506 303.325 51.9666 304.084 52.9634C304.842 51.9666 304.918 50.9698 304.103 49.9539ZM288.932 56.9505C289.88 55.8195 289.861 54.8802 288.932 54.056C288.211 54.9953 288.306 55.9729 288.932 56.9505ZM295.778 54.0176C294.811 55.2444 294.811 56.0687 295.778 56.9313C296.479 55.6087 296.479 55.5128 295.778 54.0176ZM285.689 53.9218C284.949 54.8419 284.93 56.2796 285.632 57.0271C286.277 56.0112 286.41 54.9953 285.689 53.9218ZM292.288 48.8612C293.161 47.9603 293.161 46.561 292.288 45.8517C291.858 46.8869 291.858 47.89 292.288 48.8612ZM288.932 65.1355C289.842 64.2154 289.842 63.2953 288.932 62.2411C288.23 63.1995 288.249 64.1771 288.932 65.1355ZM287.358 44.7591C288.078 43.5515 288.059 42.6697 287.32 41.7305C286.542 42.7464 286.542 43.7432 287.358 44.7591ZM285.67 48.8996C286.182 47.9411 286.466 47.0402 285.86 46.0818C285.803 46.0051 285.727 45.9284 285.632 45.8901C285.594 45.8901 285.499 45.9859 285.461 46.0434C284.892 46.9827 284.949 47.922 285.67 48.8996ZM300.727 58.1198C299.95 59.1165 300.063 60.075 300.67 61.0526C301.524 60.2667 301.543 59.0974 300.727 58.1198ZM300.708 49.9347C300.045 50.9506 299.969 51.9091 300.708 52.8867C301.543 51.8707 301.543 50.9506 300.708 49.9347ZM300.765 44.7591C301.524 43.5707 301.505 42.593 300.689 41.788C299.95 43.0914 299.969 43.7815 300.765 44.7591ZM292.383 65.1547C293.123 64.0429 293.085 62.912 292.288 62.2219C291.587 63.6212 291.606 64.3113 292.383 65.1547ZM297.371 52.925C298.186 51.9474 298.148 51.0657 297.295 49.9922C296.612 50.9698 296.612 51.9474 297.371 52.925ZM292.288 56.9696C293.161 56.0495 293.161 54.9186 292.307 54.056C291.568 54.9953 291.682 55.9729 292.288 56.9696ZM290.638 57.9856C289.937 59.2891 289.956 60.2858 290.676 61.1484C291.283 60.3242 291.283 58.829 290.638 57.9856ZM283.925 58.1006C283.281 59.0974 283.205 60.075 283.925 61.0526C284.741 60.2283 284.76 59.1165 283.925 58.1006ZM287.339 69.2568C288.04 68.2601 288.059 67.3016 287.339 66.324C286.523 67.3399 286.523 68.2984 287.339 69.2568ZM283.944 52.9634C284.76 51.7174 284.741 51.1232 283.887 49.9922C283.186 50.9698 283.281 51.9666 283.944 52.9634ZM299.077 53.8835C298.319 55.0528 298.357 56.6629 299.115 57.008C299.684 55.9729 299.665 54.9569 299.077 53.8835ZM300.651 66.3432C299.931 67.7808 299.969 68.3751 300.803 69.1802C301.656 68.2217 301.429 67.2824 300.651 66.3432ZM299.077 62.1069C298.319 63.0078 298.338 64.4646 299.077 65.2697C299.646 64.2154 299.665 63.1803 299.077 62.1069ZM304.122 44.7016C304.842 43.7048 304.861 42.7081 304.065 41.7305C303.306 43.2065 303.306 43.3406 304.122 44.7016ZM290.771 52.7908C291.53 51.8324 291.378 50.874 290.657 49.973C289.88 50.9315 289.899 51.9091 290.771 52.7908Z" fill="white"/>
<path d="M341.537 11.1946H340.304V14.5874H338.01V4.98389H341.746C342.296 4.98389 342.789 5.04139 343.225 5.17557C343.661 5.30976 344.04 5.48228 344.363 5.73147C344.685 5.98066 344.913 6.28736 345.083 6.6324C345.254 6.99661 345.33 7.41832 345.33 7.87837C345.33 8.24258 345.292 8.56845 345.216 8.85598C345.14 9.14351 345.026 9.39271 344.875 9.62273C344.723 9.83359 344.552 10.0253 344.344 10.1978C344.135 10.3511 343.907 10.5045 343.661 10.6195L345.652 14.4916V14.5874H343.206L341.537 11.1946ZM340.304 9.41188H341.746C342.182 9.41188 342.504 9.29686 342.732 9.06684C342.959 8.83681 343.054 8.51094 343.054 8.1084C343.054 7.70585 342.94 7.37999 342.713 7.13079C342.485 6.90077 342.163 6.78575 341.727 6.78575H340.285V9.43105L340.304 9.41188Z" fill="white"/>
<path d="M341.442 19.3413C336.17 19.3413 331.866 15.0092 331.866 9.66107C331.866 4.31298 336.152 -0.019165 341.442 -0.019165C346.733 -0.019165 351.019 4.31298 351.019 9.66107C351.019 15.0092 346.733 19.3413 341.442 19.3413ZM341.442 2.05106C337.289 2.05106 333.914 5.46311 333.914 9.66107C333.914 13.859 337.289 17.2711 341.442 17.2711C345.595 17.2711 348.971 13.859 348.971 9.66107C348.971 5.46311 345.595 2.05106 341.442 2.05106Z" fill="white"/>
<path d="M12.4782 95.3839H7.7562V108.534H5.1392V95.3839H0.474121V93.237H12.4782V95.3839Z" fill="white"/>
<path d="M16.7072 98.4126C17.5227 97.4541 18.5657 96.9557 19.8363 96.9557C22.2257 96.9557 23.4394 98.3359 23.4773 101.096V108.515H20.9551V101.192C20.9551 100.406 20.7844 99.8502 20.4431 99.5243C20.1017 99.1985 19.6087 99.0451 18.9639 99.0451C17.9588 99.0451 17.2003 99.5052 16.7072 100.406V108.515H14.1851V92.3744H16.7072V98.3742V98.4126Z" fill="white"/>
<path d="M30.9677 108.745C29.3748 108.745 28.0663 108.227 27.0802 107.211C26.0941 106.195 25.582 104.834 25.582 103.147V102.841C25.582 101.71 25.7906 100.694 26.2268 99.7927C26.663 98.8918 27.2698 98.2017 28.0473 97.7033C28.8248 97.2049 29.6972 96.9557 30.6643 96.9557C32.2004 96.9557 33.3761 97.4541 34.2105 98.4317C35.0449 99.4093 35.4621 100.809 35.4621 102.63V103.665H28.1232C28.199 104.604 28.5024 105.352 29.0524 105.888C29.6023 106.425 30.285 106.713 31.1005 106.713C32.2573 106.713 33.2055 106.233 33.9261 105.294L35.2915 106.617C34.8363 107.288 34.2485 107.824 33.4899 108.189C32.7314 108.572 31.897 108.745 30.9677 108.745ZM30.6643 99.0068C29.9627 99.0068 29.4127 99.256 28.9955 99.7352C28.5783 100.234 28.2938 100.905 28.1801 101.786H32.9969V101.595C32.94 100.732 32.7124 100.099 32.3142 99.6585C31.9159 99.2177 31.366 99.0068 30.6643 99.0068Z" fill="white"/>
<path d="M54.8431 104.738L57.1756 93.237H59.7926L56.3033 108.534H53.7811L50.8986 97.3775L47.9593 108.534H45.4371L41.9478 93.237H44.5647L46.9163 104.719L49.7987 93.237H51.9985L54.8621 104.738H54.8431Z" fill="white"/>
<path d="M60.665 102.745C60.665 101.633 60.8926 100.636 61.3288 99.7352C61.7649 98.8343 62.3718 98.1634 63.1683 97.6842C63.9647 97.2049 64.875 96.9557 65.899 96.9557C67.4161 96.9557 68.6488 97.4541 69.597 98.4317C70.5452 99.4093 71.0572 100.732 71.133 102.361V102.956C71.133 104.067 70.9244 105.083 70.5072 105.965C70.09 106.847 69.4642 107.537 68.6867 108.016C67.8902 108.495 66.98 108.745 65.937 108.745C64.344 108.745 63.0734 108.208 62.1252 107.134C61.1771 106.061 60.703 104.642 60.703 102.86V102.726L60.665 102.745ZM63.1872 102.956C63.1872 104.125 63.4337 105.045 63.9078 105.697C64.3819 106.368 65.0457 106.693 65.899 106.693C66.7524 106.693 67.4161 106.348 67.8902 105.678C68.3643 105.007 68.6109 104.029 68.6109 102.726C68.6109 101.575 68.3643 100.674 67.8713 100.004C67.3782 99.3327 66.7145 98.9876 65.8801 98.9876C65.0457 98.9876 64.4009 99.3135 63.9078 99.9844C63.4148 100.655 63.1872 101.633 63.1872 102.956Z" fill="white"/>
<path d="M79.1356 99.5052C78.7942 99.4477 78.4529 99.4285 78.1116 99.4285C76.9548 99.4285 76.1772 99.8694 75.779 100.77V108.534H73.2568V97.1666H75.6652L75.7221 98.4317C76.329 97.435 77.1823 96.9557 78.2633 96.9557C78.6236 96.9557 78.927 97.0133 79.1546 97.1091V99.5052H79.1356Z" fill="white"/>
<path d="M83.4216 108.534H80.8994V92.3936H83.4216V108.534Z" fill="white"/>
<path d="M85.6973 102.764C85.6973 101.02 86.0955 99.601 86.911 98.5467C87.7074 97.4925 88.7884 96.9557 90.1348 96.9557C91.3295 96.9557 92.2967 97.3774 93.0173 98.2209V92.3936H95.5395V108.534H93.2448L93.1121 107.364C92.3535 108.284 91.3485 108.745 90.0969 108.745C88.8452 108.745 87.7074 108.208 86.911 107.134C86.0955 106.061 85.6973 104.604 85.6973 102.764ZM88.2194 102.975C88.2194 104.125 88.447 105.026 88.8832 105.678C89.3193 106.329 89.9451 106.655 90.7606 106.655C91.7846 106.655 92.5432 106.195 93.0173 105.256V100.406C92.5432 99.5052 91.8036 99.0451 90.7796 99.0451C89.9641 99.0451 89.3383 99.371 88.8832 100.023C88.447 100.674 88.2194 101.671 88.2194 102.975Z" fill="white"/>
<path d="M99.6546 93.7162L99.3891 97.8183H97.7393V92.3936H99.6546V93.7162Z" fill="white"/>
<path d="M107.126 105.448C107.126 104.987 106.937 104.642 106.576 104.412C106.197 104.182 105.59 103.972 104.737 103.78C103.884 103.607 103.163 103.358 102.594 103.09C101.342 102.476 100.698 101.575 100.698 100.406C100.698 99.4285 101.115 98.6043 101.93 97.9525C102.746 97.3008 103.789 96.9749 105.04 96.9749C106.387 96.9749 107.468 97.32 108.302 97.9909C109.137 98.6618 109.535 99.5435 109.535 100.598H107.013C107.013 100.099 106.842 99.6969 106.482 99.371C106.121 99.0451 105.647 98.8918 105.04 98.8918C104.49 98.8918 104.035 99.026 103.694 99.2752C103.353 99.5244 103.163 99.8886 103.163 100.31C103.163 100.694 103.334 101 103.656 101.23C103.978 101.441 104.642 101.671 105.628 101.882C106.614 102.093 107.392 102.361 107.961 102.668C108.53 102.975 108.947 103.339 109.212 103.761C109.478 104.182 109.63 104.7 109.63 105.313C109.63 106.329 109.212 107.173 108.378 107.805C107.544 108.438 106.444 108.764 105.078 108.764C104.149 108.764 103.334 108.591 102.613 108.265C101.892 107.939 101.323 107.46 100.925 106.885C100.527 106.291 100.318 105.658 100.318 104.987H102.765C102.803 105.582 103.03 106.061 103.447 106.387C103.865 106.713 104.415 106.866 105.097 106.866C105.78 106.866 106.273 106.732 106.614 106.483C106.956 106.233 107.126 105.888 107.126 105.486V105.448Z" fill="white"/>
<path d="M126.052 102.055H119.965V108.534H117.329V93.237H126.943V95.3839H119.965V99.9269H126.052V102.055Z" fill="white"/>
<path d="M128.783 94.2146C128.783 93.8313 128.896 93.5054 129.143 93.237C129.39 92.9687 129.731 92.8536 130.205 92.8536C130.679 92.8536 131.02 92.9878 131.267 93.237C131.513 93.4862 131.646 93.8121 131.646 94.2146C131.646 94.6172 131.513 94.9239 131.267 95.1731C131.02 95.4223 130.66 95.5564 130.205 95.5564C129.75 95.5564 129.39 95.4223 129.143 95.1731C128.896 94.9239 128.783 94.598 128.783 94.2146ZM131.476 108.534H128.953V97.1666H131.476V108.534Z" fill="white"/>
<path d="M140.104 99.5052C139.763 99.4477 139.422 99.4285 139.08 99.4285C137.924 99.4285 137.146 99.8694 136.748 100.77V108.534H134.226V97.1666H136.634L136.691 98.4317C137.298 97.435 138.151 96.9557 139.232 96.9557C139.592 96.9557 139.896 97.0133 140.123 97.1091V99.5052H140.104Z" fill="white"/>
<path d="M147.993 105.448C147.993 104.987 147.803 104.642 147.443 104.412C147.064 104.182 146.457 103.972 145.604 103.78C144.75 103.607 144.03 103.358 143.461 103.09C142.209 102.476 141.564 101.575 141.564 100.406C141.564 99.4285 141.982 98.6043 142.797 97.9525C143.612 97.3008 144.655 96.9749 145.907 96.9749C147.253 96.9749 148.334 97.32 149.169 97.9909C150.003 98.6618 150.401 99.5435 150.401 100.598H147.879C147.879 100.099 147.709 99.6969 147.348 99.371C146.988 99.0451 146.514 98.8918 145.907 98.8918C145.357 98.8918 144.902 99.026 144.561 99.2752C144.219 99.5244 144.03 99.8886 144.03 100.31C144.03 100.694 144.2 101 144.523 101.23C144.845 101.441 145.509 101.671 146.495 101.882C147.481 102.093 148.259 102.361 148.827 102.668C149.396 102.975 149.814 103.339 150.079 103.761C150.345 104.182 150.496 104.7 150.496 105.313C150.496 106.329 150.079 107.173 149.245 107.805C148.41 108.438 147.31 108.764 145.945 108.764C145.016 108.764 144.2 108.591 143.48 108.265C142.759 107.939 142.19 107.46 141.792 106.885C141.394 106.291 141.185 105.658 141.185 104.987H143.631C143.669 105.582 143.897 106.061 144.314 106.387C144.731 106.713 145.281 106.866 145.964 106.866C146.647 106.866 147.14 106.732 147.481 106.483C147.822 106.233 147.993 105.888 147.993 105.486V105.448Z" fill="white"/>
<path d="M155.844 94.4063V97.1666H157.835V99.0643H155.844V105.409C155.844 105.85 155.92 106.157 156.091 106.348C156.261 106.54 156.565 106.636 157.001 106.636C157.285 106.636 157.589 106.598 157.892 106.54V108.515C157.323 108.668 156.754 108.764 156.223 108.764C154.289 108.764 153.322 107.69 153.322 105.524V99.0835H151.463V97.1858H153.322V94.4255H155.844V94.4063Z" fill="white"/>
<path d="M170.864 102.649H167.943V108.534H165.307V93.237H170.617C172.362 93.237 173.708 93.6395 174.656 94.4255C175.604 95.2114 176.079 96.3615 176.079 97.8567C176.079 98.8726 175.832 99.7352 175.339 100.425C174.846 101.115 174.163 101.652 173.291 102.016L176.685 108.38V108.515H173.879L170.845 102.63L170.864 102.649ZM167.924 100.502H170.617C171.508 100.502 172.191 100.272 172.703 99.8311C173.196 99.371 173.443 98.7576 173.443 97.9717C173.443 97.1858 173.215 96.5149 172.76 96.074C172.305 95.6331 171.603 95.4031 170.693 95.3839H167.924V100.502Z" fill="white"/>
<path d="M177.861 102.745C177.861 101.633 178.088 100.636 178.525 99.7352C178.961 98.8343 179.568 98.1634 180.364 97.6842C181.161 97.2049 182.071 96.9557 183.095 96.9557C184.612 96.9557 185.845 97.4541 186.793 98.4317C187.741 99.4093 188.253 100.732 188.329 102.361V102.956C188.329 104.067 188.12 105.083 187.703 105.965C187.286 106.847 186.66 107.537 185.882 108.016C185.086 108.495 184.176 108.745 183.133 108.745C181.54 108.745 180.269 108.208 179.321 107.134C178.373 106.061 177.899 104.642 177.899 102.86V102.726L177.861 102.745ZM180.383 102.956C180.383 104.125 180.63 105.045 181.104 105.697C181.578 106.368 182.241 106.693 183.095 106.693C183.948 106.693 184.612 106.348 185.086 105.678C185.56 105.007 185.807 104.029 185.807 102.726C185.807 101.575 185.56 100.674 185.067 100.004C184.574 99.3327 183.91 98.9876 183.076 98.9876C182.241 98.9876 181.597 99.3135 181.104 99.9844C180.611 100.655 180.383 101.633 180.383 102.956Z" fill="white"/>
<path d="M200.314 102.956C200.314 104.719 199.916 106.118 199.138 107.173C198.361 108.208 197.28 108.745 195.915 108.745C194.549 108.745 193.582 108.265 192.842 107.307L192.71 108.534H190.415V92.3936H192.937V98.2592C193.658 97.3966 194.644 96.9557 195.877 96.9557C197.242 96.9557 198.323 97.4733 199.1 98.5084C199.878 99.5435 200.276 100.981 200.276 102.821V102.975L200.314 102.956ZM197.792 102.745C197.792 101.518 197.583 100.598 197.147 99.9652C196.711 99.3327 196.085 99.0451 195.27 99.0451C194.17 99.0451 193.411 99.5243 192.956 100.502V105.179C193.411 106.157 194.189 106.655 195.289 106.655C196.085 106.655 196.692 106.348 197.109 105.754C197.545 105.16 197.754 104.259 197.773 103.051V102.726L197.792 102.745Z" fill="white"/>
<path d="M201.945 102.745C201.945 101.633 202.172 100.636 202.609 99.7352C203.045 98.8343 203.652 98.1634 204.448 97.6842C205.245 97.2049 206.155 96.9557 207.179 96.9557C208.696 96.9557 209.929 97.4541 210.877 98.4317C211.825 99.4093 212.337 100.732 212.413 102.361V102.956C212.413 104.067 212.204 105.083 211.787 105.965C211.37 106.847 210.744 107.537 209.966 108.016C209.17 108.495 208.26 108.745 207.217 108.745C205.624 108.745 204.353 108.208 203.405 107.134C202.457 106.061 201.983 104.642 201.983 102.86V102.726L201.945 102.745ZM204.486 102.956C204.486 104.125 204.732 105.045 205.207 105.697C205.681 106.368 206.344 106.693 207.198 106.693C208.051 106.693 208.715 106.348 209.189 105.678C209.663 105.007 209.91 104.029 209.91 102.726C209.91 101.575 209.663 100.674 209.17 100.004C208.677 99.3327 208.013 98.9876 207.179 98.9876C206.344 98.9876 205.7 99.3135 205.207 99.9844C204.714 100.655 204.486 101.633 204.486 102.956Z" fill="white"/>
<path d="M217.704 94.4063V97.1666H219.695V99.0643H217.704V105.409C217.704 105.85 217.78 106.157 217.95 106.348C218.121 106.54 218.425 106.636 218.861 106.636C219.145 106.636 219.449 106.598 219.752 106.54V108.515C219.183 108.668 218.614 108.764 218.083 108.764C216.149 108.764 215.182 107.69 215.182 105.524V99.0835H213.323V97.1858H215.182V94.4255H217.704V94.4063Z" fill="white"/>
<path d="M221.61 94.2146C221.61 93.8313 221.724 93.5054 221.971 93.237C222.217 92.9687 222.559 92.8536 223.033 92.8536C223.507 92.8536 223.848 92.9878 224.095 93.237C224.341 93.4862 224.474 93.8121 224.474 94.2146C224.474 94.6172 224.341 94.9239 224.095 95.1731C223.848 95.4223 223.488 95.5564 223.033 95.5564C222.578 95.5564 222.217 95.4223 221.971 95.1731C221.724 94.9239 221.61 94.598 221.61 94.2146ZM224.303 108.534H221.781V97.1666H224.303V108.534Z" fill="white"/>
<path d="M231.661 106.693C232.287 106.693 232.818 106.502 233.235 106.138C233.652 105.773 233.88 105.313 233.899 104.757H236.269C236.251 105.467 236.023 106.118 235.606 106.732C235.189 107.345 234.639 107.824 233.937 108.189C233.235 108.553 232.477 108.725 231.68 108.725C230.106 108.725 228.855 108.208 227.944 107.173C227.015 106.138 226.56 104.719 226.56 102.917V102.649C226.56 100.924 227.015 99.5435 227.925 98.4893C228.836 97.4541 230.087 96.9366 231.661 96.9366C232.989 96.9366 234.089 97.3391 234.923 98.125C235.757 98.911 236.213 99.9461 236.251 101.23H233.88C233.861 100.579 233.634 100.042 233.216 99.6202C232.799 99.1985 232.287 98.9876 231.642 98.9876C230.827 98.9876 230.201 99.2943 229.746 99.8886C229.31 100.483 229.082 101.403 229.063 102.611V103.013C229.063 104.24 229.291 105.16 229.727 105.773C230.163 106.387 230.808 106.674 231.642 106.674L231.661 106.693Z" fill="white"/>
<path d="M251.63 104.585C251.63 103.914 251.402 103.396 250.928 103.032C250.454 102.668 249.62 102.304 248.406 101.92C247.192 101.556 246.225 101.135 245.505 100.674C244.12 99.7927 243.438 98.6617 243.438 97.2433C243.438 96.0165 243.931 95.0005 244.936 94.1954C245.922 93.3903 247.211 93.007 248.804 93.007C249.866 93.007 250.796 93.1986 251.611 93.6012C252.426 94.0037 253.09 94.5596 253.545 95.2689C254.019 95.9973 254.247 96.8024 254.247 97.6841H251.63C251.63 96.8791 251.383 96.2657 250.89 95.8056C250.397 95.3455 249.696 95.1347 248.766 95.1347C247.913 95.1347 247.249 95.3264 246.775 95.6906C246.301 96.0548 246.055 96.5724 246.055 97.2433C246.055 97.7992 246.32 98.2784 246.832 98.6426C247.344 99.026 248.198 99.3902 249.373 99.7352C250.549 100.08 251.497 100.483 252.218 100.943C252.938 101.403 253.45 101.92 253.792 102.496C254.133 103.071 254.285 103.761 254.285 104.547C254.285 105.831 253.811 106.828 252.844 107.594C251.877 108.342 250.568 108.725 248.918 108.725C247.818 108.725 246.813 108.515 245.903 108.112C244.993 107.709 244.272 107.134 243.76 106.425C243.248 105.716 243.001 104.872 243.001 103.914H245.637C245.637 104.777 245.922 105.447 246.491 105.927C247.06 106.406 247.875 106.636 248.937 106.636C249.847 106.636 250.53 106.444 251.004 106.08C251.459 105.697 251.687 105.217 251.687 104.585H251.63Z" fill="white"/>
<path d="M260.941 106.693C261.567 106.693 262.098 106.502 262.515 106.138C262.932 105.773 263.16 105.313 263.179 104.757H265.549C265.53 105.467 265.303 106.118 264.886 106.732C264.468 107.345 263.918 107.824 263.217 108.189C262.515 108.553 261.757 108.725 260.96 108.725C259.386 108.725 258.134 108.208 257.224 107.173C256.295 106.138 255.84 104.719 255.84 102.917V102.649C255.84 100.924 256.295 99.5435 257.205 98.4893C258.115 97.4541 259.367 96.9366 260.941 96.9366C262.269 96.9366 263.368 97.3391 264.203 98.125C265.037 98.911 265.492 99.9461 265.53 101.23H263.16C263.141 100.579 262.913 100.042 262.496 99.6202C262.079 99.1985 261.567 98.9876 260.922 98.9876C260.107 98.9876 259.481 99.2943 259.026 99.8886C258.59 100.483 258.362 101.403 258.343 102.611V103.013C258.343 104.24 258.571 105.16 259.007 105.773C259.443 106.387 260.088 106.674 260.922 106.674L260.941 106.693Z" fill="white"/>
<path d="M274.178 108.534C274.064 108.323 273.969 107.959 273.893 107.479C273.097 108.323 272.111 108.745 270.935 108.745C269.759 108.745 268.887 108.419 268.166 107.767C267.446 107.115 267.104 106.31 267.104 105.352C267.104 104.144 267.541 103.205 268.432 102.572C269.323 101.92 270.594 101.595 272.244 101.595H273.799V100.847C273.799 100.253 273.628 99.7927 273.306 99.4285C272.983 99.0835 272.49 98.8918 271.826 98.8918C271.258 98.8918 270.783 99.0451 270.404 99.3327C270.044 99.6202 269.854 99.9844 269.854 100.444H267.332C267.332 99.8119 267.541 99.2368 267.939 98.7001C268.356 98.1634 268.906 97.7417 269.608 97.4158C270.309 97.1091 271.087 96.9557 271.959 96.9557C273.268 96.9557 274.33 97.2816 275.107 97.9525C275.885 98.6234 276.283 99.5627 276.321 100.77V105.888C276.321 106.904 276.454 107.729 276.738 108.342V108.515H274.159L274.178 108.534ZM271.409 106.693C271.902 106.693 272.376 106.578 272.813 106.329C273.249 106.08 273.59 105.754 273.799 105.333V103.186H272.433C271.504 103.186 270.802 103.358 270.328 103.684C269.854 104.01 269.627 104.47 269.627 105.083C269.627 105.582 269.778 105.965 270.101 106.253C270.423 106.54 270.859 106.693 271.39 106.693H271.409Z" fill="white"/>
<path d="M282.788 105.294L285.158 97.1666H287.775L283.887 108.534H281.688L277.762 97.1666H280.379L282.788 105.294Z" fill="white"/>
<path d="M294.165 108.745C292.573 108.745 291.264 108.227 290.278 107.211C289.292 106.195 288.78 104.834 288.78 103.147V102.841C288.78 101.71 288.988 100.694 289.425 99.7927C289.861 98.8918 290.468 98.2017 291.245 97.7033C292.023 97.2049 292.895 96.9557 293.862 96.9557C295.398 96.9557 296.574 97.4541 297.408 98.4317C298.243 99.4093 298.66 100.809 298.66 102.63V103.665H291.321C291.397 104.604 291.7 105.352 292.25 105.888C292.8 106.425 293.483 106.713 294.298 106.713C295.455 106.713 296.403 106.233 297.124 105.294L298.489 106.617C298.034 107.288 297.446 107.824 296.688 108.189C295.929 108.572 295.095 108.745 294.165 108.745ZM293.862 99.0068C293.16 99.0068 292.61 99.256 292.193 99.7352C291.776 100.234 291.492 100.905 291.378 101.786H296.195V101.595C296.138 100.732 295.91 100.099 295.512 99.6585C295.114 99.2177 294.564 99.0068 293.862 99.0068Z" fill="white"/>
<path d="M302.965 97.1666L303.041 98.4701C303.875 97.4541 304.956 96.9557 306.321 96.9557C308.654 96.9557 309.849 98.3167 309.886 101.02V108.534H307.364V101.173C307.364 100.444 307.213 99.9269 306.909 99.5627C306.606 99.2177 306.094 99.0451 305.392 99.0451C304.368 99.0451 303.609 99.5052 303.116 100.444V108.534H300.594V97.1666H302.965Z" fill="white"/>
<path d="M312.011 102.764C312.011 101 312.428 99.5819 313.243 98.5276C314.059 97.4733 315.159 96.9557 316.505 96.9557C317.795 96.9557 318.8 97.4158 319.52 98.3167L319.634 97.1666H321.91V108.189C321.91 109.684 321.455 110.853 320.525 111.716C319.596 112.578 318.364 113 316.809 113C315.993 113 315.178 112.828 314.4 112.482C313.623 112.137 313.016 111.677 312.618 111.121L313.812 109.588C314.59 110.527 315.538 110.987 316.676 110.987C317.51 110.987 318.174 110.757 318.667 110.297C319.16 109.837 319.388 109.166 319.388 108.285V107.518C318.667 108.342 317.681 108.745 316.486 108.745C315.178 108.745 314.097 108.208 313.262 107.154C312.428 106.099 312.011 104.642 312.011 102.764ZM314.533 102.975C314.533 104.125 314.76 105.007 315.216 105.678C315.671 106.329 316.316 106.655 317.131 106.655C318.155 106.655 318.895 106.214 319.388 105.333V100.329C318.914 99.4669 318.155 99.0451 317.15 99.0451C316.316 99.0451 315.671 99.371 315.216 100.042C314.76 100.713 314.533 101.69 314.533 102.975Z" fill="white"/>
<path d="M329.476 108.745C327.883 108.745 326.575 108.227 325.588 107.211C324.602 106.195 324.09 104.834 324.09 103.147V102.841C324.09 101.71 324.299 100.694 324.735 99.7927C325.171 98.8918 325.778 98.2017 326.556 97.7033C327.333 97.2049 328.205 96.9557 329.173 96.9557C330.709 96.9557 331.884 97.4541 332.719 98.4317C333.553 99.4093 333.97 100.809 333.97 102.63V103.665H326.631C326.707 104.604 327.011 105.352 327.561 105.888C328.111 106.425 328.793 106.713 329.609 106.713C330.766 106.713 331.714 106.233 332.434 105.294L333.8 106.617C333.345 107.288 332.757 107.824 331.998 108.189C331.24 108.572 330.405 108.745 329.476 108.745ZM329.173 99.0068C328.471 99.0068 327.921 99.256 327.504 99.7352C327.087 100.234 326.802 100.905 326.688 101.786H331.505V101.595C331.448 100.732 331.221 100.099 330.822 99.6585C330.424 99.2177 329.874 99.0068 329.173 99.0068Z" fill="white"/>
<path d="M341.822 99.5052C341.48 99.4477 341.139 99.4285 340.798 99.4285C339.641 99.4285 338.863 99.8694 338.465 100.77V108.534H335.943V97.1666H338.351L338.408 98.4317C339.015 97.435 339.868 96.9557 340.949 96.9557C341.31 96.9557 341.613 97.0133 341.841 97.1091V99.5052H341.822Z" fill="white"/>
</g>
<defs>
<clipPath id="clip0_6159_1491">
<rect width="351" height="113" fill="white"/>
</clipPath>
</defs>
</svg>
