<svg width="199" height="103" viewBox="0 0 199 103" fill="none" xmlns="http://www.w3.org/2000/svg">
<path d="M8.1875 88.2578H10.3359C10.2786 89.0182 10.0677 89.6927 9.70312 90.2812C9.33854 90.8646 8.83073 91.3229 8.17969 91.6562C7.52865 91.9896 6.73958 92.1562 5.8125 92.1562C5.09896 92.1562 4.45573 92.0312 3.88281 91.7812C3.3151 91.526 2.82812 91.1641 2.42188 90.6953C2.02083 90.2214 1.71354 89.6536 1.5 88.9922C1.28646 88.3255 1.17969 87.5781 1.17969 86.75V85.8828C1.17969 85.0547 1.28906 84.3073 1.50781 83.6406C1.72656 82.974 2.03906 82.4062 2.44531 81.9375C2.85677 81.4635 3.34896 81.099 3.92188 80.8438C4.5 80.5885 5.14583 80.4609 5.85938 80.4609C6.78646 80.4609 7.57031 80.6328 8.21094 80.9766C8.85156 81.3151 9.34896 81.7812 9.70312 82.375C10.0573 82.9688 10.2708 83.651 10.3438 84.4219H8.19531C8.15365 83.9427 8.04948 83.5365 7.88281 83.2031C7.72135 82.8698 7.47656 82.6172 7.14844 82.4453C6.82552 82.2682 6.39583 82.1797 5.85938 82.1797C5.44271 82.1797 5.07552 82.2578 4.75781 82.4141C4.44531 82.5703 4.1849 82.8047 3.97656 83.1172C3.76823 83.4245 3.61198 83.8099 3.50781 84.2734C3.40365 84.7318 3.35156 85.263 3.35156 85.8672V86.75C3.35156 87.3281 3.39844 87.8464 3.49219 88.3047C3.58594 88.763 3.73177 89.151 3.92969 89.4688C4.1276 89.7865 4.38281 90.0286 4.69531 90.1953C5.00781 90.362 5.38021 90.4453 5.8125 90.4453C6.33854 90.4453 6.76562 90.362 7.09375 90.1953C7.42708 90.0286 7.67969 89.7839 7.85156 89.4609C8.02865 89.138 8.14062 88.737 8.1875 88.2578ZM13.8672 80V92H11.7969V80H13.8672ZM13.5391 87.4688H12.9297C12.9297 86.8802 13.0078 86.3385 13.1641 85.8438C13.3203 85.349 13.5417 84.9193 13.8281 84.5547C14.1146 84.1849 14.4557 83.8984 14.8516 83.6953C15.2526 83.4922 15.6953 83.3906 16.1797 83.3906C16.5964 83.3906 16.974 83.4505 17.3125 83.5703C17.6562 83.6849 17.9505 83.8698 18.1953 84.125C18.4401 84.3802 18.6276 84.7135 18.7578 85.125C18.8932 85.5312 18.9609 86.026 18.9609 86.6094V92H16.8828V86.5938C16.8828 86.2031 16.8255 85.8958 16.7109 85.6719C16.5964 85.4427 16.4323 85.2786 16.2188 85.1797C16.0104 85.0807 15.7526 85.0312 15.4453 85.0312C15.112 85.0312 14.8255 85.0964 14.5859 85.2266C14.3464 85.3516 14.1484 85.526 13.9922 85.75C13.8411 85.974 13.7266 86.2318 13.6484 86.5234C13.5755 86.8151 13.5391 87.1302 13.5391 87.4688ZM24.5781 92.1562C23.9375 92.1562 23.362 92.0521 22.8516 91.8438C22.3411 91.6354 21.9062 91.3464 21.5469 90.9766C21.1927 90.6016 20.9193 90.1667 20.7266 89.6719C20.5391 89.1719 20.4453 88.6354 20.4453 88.0625V87.75C20.4453 87.099 20.5391 86.5078 20.7266 85.9766C20.9141 85.4401 21.1797 84.9792 21.5234 84.5938C21.8672 84.2083 22.2786 83.9115 22.7578 83.7031C23.237 83.4948 23.7656 83.3906 24.3438 83.3906C24.9427 83.3906 25.4714 83.4922 25.9297 83.6953C26.388 83.8932 26.7708 84.1745 27.0781 84.5391C27.3854 84.9036 27.6172 85.3411 27.7734 85.8516C27.9297 86.3568 28.0078 86.9167 28.0078 87.5312V88.3984H21.3828V86.9766H25.9766V86.8203C25.9661 86.4922 25.9036 86.1927 25.7891 85.9219C25.6745 85.6458 25.4974 85.4271 25.2578 85.2656C25.0182 85.099 24.7083 85.0156 24.3281 85.0156C24.0208 85.0156 23.7526 85.0833 23.5234 85.2188C23.2995 85.349 23.112 85.5365 22.9609 85.7812C22.8151 86.0208 22.7057 86.3073 22.6328 86.6406C22.5599 86.974 22.5234 87.3438 22.5234 87.75V88.0625C22.5234 88.4167 22.5703 88.7448 22.6641 89.0469C22.763 89.349 22.9062 89.612 23.0938 89.8359C23.2865 90.0547 23.5156 90.2266 23.7812 90.3516C24.0521 90.4714 24.3594 90.5312 24.7031 90.5312C25.1354 90.5312 25.526 90.4479 25.875 90.2812C26.2292 90.1094 26.5365 89.8568 26.7969 89.5234L27.8359 90.6016C27.6589 90.862 27.4193 91.112 27.1172 91.3516C26.8203 91.5911 26.4609 91.7865 26.0391 91.9375C25.6172 92.0833 25.1302 92.1562 24.5781 92.1562ZM31.4453 85.2812V92H29.3828V83.5469H31.3281L31.4453 85.2812ZM31.1406 87.4688H30.5078C30.5078 86.8802 30.5781 86.3385 30.7188 85.8438C30.8646 85.349 31.0781 84.9193 31.3594 84.5547C31.6406 84.1849 31.987 83.8984 32.3984 83.6953C32.8151 83.4922 33.2969 83.3906 33.8438 83.3906C34.224 83.3906 34.5729 83.4479 34.8906 83.5625C35.2083 83.6719 35.4818 83.8464 35.7109 84.0859C35.9453 84.3203 36.125 84.6276 36.25 85.0078C36.375 85.3828 36.4375 85.8333 36.4375 86.3594V92H34.375V86.5703C34.375 86.1745 34.3177 85.8646 34.2031 85.6406C34.0938 85.4167 33.9349 85.2604 33.7266 85.1719C33.5182 85.0781 33.2682 85.0312 32.9766 85.0312C32.6536 85.0312 32.375 85.0964 32.1406 85.2266C31.9115 85.3516 31.7214 85.526 31.5703 85.75C31.4245 85.974 31.3151 86.2318 31.2422 86.5234C31.1745 86.8151 31.1406 87.1302 31.1406 87.4688ZM36.2812 87.0859L35.4297 87.2422C35.4349 86.7109 35.5078 86.2135 35.6484 85.75C35.7891 85.2812 35.9948 84.8724 36.2656 84.5234C36.5417 84.1693 36.8828 83.8932 37.2891 83.6953C37.7005 83.4922 38.1745 83.3906 38.7109 83.3906C39.1276 83.3906 39.5026 83.4505 39.8359 83.5703C40.1745 83.6849 40.4635 83.8698 40.7031 84.125C40.9427 84.375 41.125 84.7005 41.25 85.1016C41.3802 85.5026 41.4453 85.9922 41.4453 86.5703V92H39.3672V86.5625C39.3672 86.151 39.3099 85.8359 39.1953 85.6172C39.0859 85.3984 38.9271 85.2474 38.7188 85.1641C38.5104 85.0755 38.2656 85.0312 37.9844 85.0312C37.6979 85.0312 37.4479 85.0859 37.2344 85.1953C37.026 85.2995 36.849 85.4453 36.7031 85.6328C36.5625 85.8203 36.4557 86.0391 36.3828 86.2891C36.3151 86.5339 36.2812 86.7995 36.2812 87.0859ZM45.4844 83.5469V92H43.4141V83.5469H45.4844ZM43.2734 81.3359C43.2734 81.0286 43.3776 80.7734 43.5859 80.5703C43.7995 80.3672 44.0859 80.2656 44.4453 80.2656C44.8047 80.2656 45.0885 80.3672 45.2969 80.5703C45.5104 80.7734 45.6172 81.0286 45.6172 81.3359C45.6172 81.638 45.5104 81.8906 45.2969 82.0938C45.0885 82.2969 44.8047 82.3984 44.4453 82.3984C44.0859 82.3984 43.7995 82.2969 43.5859 82.0938C43.3776 81.8906 43.2734 81.638 43.2734 81.3359ZM50.9219 90.5312C51.2135 90.5312 51.474 90.474 51.7031 90.3594C51.9323 90.2448 52.1146 90.0833 52.25 89.875C52.3906 89.6667 52.4661 89.4245 52.4766 89.1484H54.4219C54.4115 89.7214 54.25 90.2344 53.9375 90.6875C53.625 91.1406 53.2083 91.5 52.6875 91.7656C52.1719 92.026 51.5938 92.1562 50.9531 92.1562C50.3021 92.1562 49.7344 92.0469 49.25 91.8281C48.7656 91.6094 48.362 91.3047 48.0391 90.9141C47.7214 90.5234 47.4818 90.0703 47.3203 89.5547C47.1641 89.0391 47.0859 88.487 47.0859 87.8984V87.6484C47.0859 87.0599 47.1641 86.5078 47.3203 85.9922C47.4818 85.4766 47.7214 85.0234 48.0391 84.6328C48.362 84.2422 48.7656 83.9375 49.25 83.7188C49.7344 83.5 50.2995 83.3906 50.9453 83.3906C51.6276 83.3906 52.2266 83.5234 52.7422 83.7891C53.263 84.0547 53.6693 84.4297 53.9609 84.9141C54.2578 85.3984 54.4115 85.9688 54.4219 86.625H52.4766C52.4661 86.3229 52.3984 86.0521 52.2734 85.8125C52.1484 85.5729 51.9714 85.3802 51.7422 85.2344C51.513 85.0885 51.2344 85.0156 50.9062 85.0156C50.5573 85.0156 50.2656 85.0885 50.0312 85.2344C49.8021 85.3802 49.6224 85.5807 49.4922 85.8359C49.3672 86.0859 49.2786 86.3672 49.2266 86.6797C49.1797 86.987 49.1562 87.3099 49.1562 87.6484V87.8984C49.1562 88.2422 49.1797 88.5703 49.2266 88.8828C49.2786 89.1953 49.3672 89.4766 49.4922 89.7266C49.6224 89.9714 49.8021 90.1667 50.0312 90.3125C50.2656 90.4583 50.5625 90.5312 50.9219 90.5312ZM60.4531 90.2031V86.3047C60.4531 86.0182 60.4036 85.7708 60.3047 85.5625C60.2057 85.3542 60.0547 85.1927 59.8516 85.0781C59.6484 84.9635 59.3906 84.9062 59.0781 84.9062C58.8021 84.9062 58.5599 84.9531 58.3516 85.0469C58.1484 85.1406 57.9922 85.2734 57.8828 85.4453C57.7734 85.612 57.7188 85.8047 57.7188 86.0234H55.6484C55.6484 85.6745 55.7318 85.3438 55.8984 85.0312C56.0651 84.7135 56.3021 84.4323 56.6094 84.1875C56.9219 83.9375 57.2943 83.7422 57.7266 83.6016C58.1641 83.4609 58.6536 83.3906 59.1953 83.3906C59.8359 83.3906 60.4062 83.5 60.9062 83.7188C61.4115 83.9323 61.8073 84.2552 62.0938 84.6875C62.3854 85.1198 62.5312 85.6641 62.5312 86.3203V90.0078C62.5312 90.4297 62.5573 90.7917 62.6094 91.0938C62.6667 91.3906 62.75 91.6484 62.8594 91.8672V92H60.7578C60.6589 91.7865 60.5833 91.5156 60.5312 91.1875C60.4792 90.8542 60.4531 90.526 60.4531 90.2031ZM60.7422 86.8516L60.7578 88.0781H59.4531C59.1302 88.0781 58.8464 88.112 58.6016 88.1797C58.3568 88.2422 58.1562 88.3359 58 88.4609C57.8438 88.5807 57.7266 88.7266 57.6484 88.8984C57.5703 89.0651 57.5312 89.2552 57.5312 89.4688C57.5312 89.6771 57.5781 89.8646 57.6719 90.0312C57.7708 90.1979 57.9115 90.3307 58.0938 90.4297C58.2812 90.5234 58.5 90.5703 58.75 90.5703C59.1146 90.5703 59.4323 90.4974 59.7031 90.3516C59.974 90.2005 60.1849 90.0182 60.3359 89.8047C60.487 89.5911 60.5677 89.388 60.5781 89.1953L61.1719 90.0859C61.099 90.2995 60.9896 90.526 60.8438 90.7656C60.6979 91.0052 60.5104 91.2292 60.2812 91.4375C60.0521 91.6458 59.776 91.8177 59.4531 91.9531C59.1302 92.0885 58.7552 92.1562 58.3281 92.1562C57.7812 92.1562 57.2917 92.0469 56.8594 91.8281C56.4271 91.6094 56.0859 91.3099 55.8359 90.9297C55.5859 90.5495 55.4609 90.1172 55.4609 89.6328C55.4609 89.1849 55.5443 88.7891 55.7109 88.4453C55.8776 88.1016 56.125 87.8125 56.4531 87.5781C56.7812 87.3385 57.1875 87.1589 57.6719 87.0391C58.1615 86.9141 58.7214 86.8516 59.3516 86.8516H60.7422ZM66.5781 80V92H64.5078V80H66.5781ZM74.3906 85.8594L76.4609 84.5C76.7891 84.2812 77.0156 84.0703 77.1406 83.8672C77.2656 83.6641 77.3281 83.4193 77.3281 83.1328C77.3281 82.8776 77.2292 82.6406 77.0312 82.4219C76.8385 82.1979 76.5651 82.0859 76.2109 82.0859C75.9609 82.0859 75.75 82.1432 75.5781 82.2578C75.4062 82.3724 75.276 82.526 75.1875 82.7188C75.1042 82.9062 75.0625 83.1146 75.0625 83.3438C75.0625 83.5781 75.1224 83.8177 75.2422 84.0625C75.3672 84.3073 75.5339 84.5651 75.7422 84.8359C75.9557 85.1016 76.1927 85.3906 76.4531 85.7031L81.8203 92H79.4609L75.0703 86.8906C74.7005 86.4323 74.3724 86.0104 74.0859 85.625C73.7995 85.2396 73.5755 84.8672 73.4141 84.5078C73.2578 84.1432 73.1797 83.7682 73.1797 83.3828C73.1797 82.7891 73.3047 82.2734 73.5547 81.8359C73.8047 81.3984 74.1562 81.0599 74.6094 80.8203C75.0677 80.5807 75.6042 80.4609 76.2188 80.4609C76.8021 80.4609 77.3047 80.5807 77.7266 80.8203C78.1536 81.0547 78.4844 81.3672 78.7188 81.7578C78.9531 82.1484 79.0703 82.5755 79.0703 83.0391C79.0703 83.3932 79.0052 83.7214 78.875 84.0234C78.7448 84.3203 78.5651 84.5938 78.3359 84.8438C78.1068 85.0885 77.8411 85.3203 77.5391 85.5391L75.1016 87.2891C74.8672 87.487 74.6901 87.6823 74.5703 87.875C74.4557 88.0625 74.3776 88.237 74.3359 88.3984C74.2995 88.5599 74.2812 88.7109 74.2812 88.8516C74.2812 89.1693 74.349 89.4557 74.4844 89.7109C74.625 89.9609 74.8229 90.1615 75.0781 90.3125C75.3385 90.4583 75.6458 90.5312 76 90.5312C76.4323 90.5312 76.849 90.4349 77.25 90.2422C77.651 90.0495 78.0104 89.776 78.3281 89.4219C78.651 89.0677 78.9062 88.6458 79.0938 88.1562C79.2865 87.6615 79.3828 87.1172 79.3828 86.5234H81.1484C81.1484 87.0911 81.0938 87.6302 80.9844 88.1406C80.875 88.6458 80.6979 89.1146 80.4531 89.5469C80.2083 89.9792 79.888 90.3646 79.4922 90.7031C79.4557 90.7344 79.4115 90.776 79.3594 90.8281C79.3125 90.8802 79.2708 90.9219 79.2344 90.9531C78.7604 91.3594 78.2474 91.6641 77.6953 91.8672C77.1484 92.0651 76.5521 92.1641 75.9062 92.1641C75.1458 92.1641 74.4896 92.026 73.9375 91.75C73.3854 91.474 72.9583 91.0938 72.6562 90.6094C72.3594 90.125 72.2109 89.5703 72.2109 88.9453C72.2109 88.4818 72.3021 88.0781 72.4844 87.7344C72.6719 87.3854 72.9297 87.0625 73.2578 86.7656C73.5859 86.4635 73.9635 86.1615 74.3906 85.8594ZM91.4375 87.8516H88.5078V86.1641H91.4375C91.9167 86.1641 92.3047 86.0859 92.6016 85.9297C92.9036 85.7682 93.125 85.5495 93.2656 85.2734C93.4062 84.9922 93.4766 84.6719 93.4766 84.3125C93.4766 83.9635 93.4062 83.638 93.2656 83.3359C93.125 83.0339 92.9036 82.7891 92.6016 82.6016C92.3047 82.4141 91.9167 82.3203 91.4375 82.3203H89.2109V92H87.0625V80.625H91.4375C92.3229 80.625 93.0781 80.7839 93.7031 81.1016C94.3333 81.4141 94.8125 81.849 95.1406 82.4062C95.474 82.9583 95.6406 83.5885 95.6406 84.2969C95.6406 85.0312 95.474 85.6641 95.1406 86.1953C94.8125 86.7266 94.3333 87.1354 93.7031 87.4219C93.0781 87.7083 92.3229 87.8516 91.4375 87.8516ZM99.1953 80V92H97.125V80H99.1953ZM98.8672 87.4688H98.2578C98.2578 86.8802 98.3359 86.3385 98.4922 85.8438C98.6484 85.349 98.8698 84.9193 99.1562 84.5547C99.4427 84.1849 99.7839 83.8984 100.18 83.6953C100.581 83.4922 101.023 83.3906 101.508 83.3906C101.924 83.3906 102.302 83.4505 102.641 83.5703C102.984 83.6849 103.279 83.8698 103.523 84.125C103.768 84.3802 103.956 84.7135 104.086 85.125C104.221 85.5312 104.289 86.026 104.289 86.6094V92H102.211V86.5938C102.211 86.2031 102.154 85.8958 102.039 85.6719C101.924 85.4427 101.76 85.2786 101.547 85.1797C101.339 85.0807 101.081 85.0312 100.773 85.0312C100.44 85.0312 100.154 85.0964 99.9141 85.2266C99.6745 85.3516 99.4766 85.526 99.3203 85.75C99.1693 85.974 99.0547 86.2318 98.9766 86.5234C98.9036 86.8151 98.8672 87.1302 98.8672 87.4688ZM110.766 90.2031V86.3047C110.766 86.0182 110.716 85.7708 110.617 85.5625C110.518 85.3542 110.367 85.1927 110.164 85.0781C109.961 84.9635 109.703 84.9062 109.391 84.9062C109.115 84.9062 108.872 84.9531 108.664 85.0469C108.461 85.1406 108.305 85.2734 108.195 85.4453C108.086 85.612 108.031 85.8047 108.031 86.0234H105.961C105.961 85.6745 106.044 85.3438 106.211 85.0312C106.378 84.7135 106.615 84.4323 106.922 84.1875C107.234 83.9375 107.607 83.7422 108.039 83.6016C108.477 83.4609 108.966 83.3906 109.508 83.3906C110.148 83.3906 110.719 83.5 111.219 83.7188C111.724 83.9323 112.12 84.2552 112.406 84.6875C112.698 85.1198 112.844 85.6641 112.844 86.3203V90.0078C112.844 90.4297 112.87 90.7917 112.922 91.0938C112.979 91.3906 113.062 91.6484 113.172 91.8672V92H111.07C110.971 91.7865 110.896 91.5156 110.844 91.1875C110.792 90.8542 110.766 90.526 110.766 90.2031ZM111.055 86.8516L111.07 88.0781H109.766C109.443 88.0781 109.159 88.112 108.914 88.1797C108.669 88.2422 108.469 88.3359 108.312 88.4609C108.156 88.5807 108.039 88.7266 107.961 88.8984C107.883 89.0651 107.844 89.2552 107.844 89.4688C107.844 89.6771 107.891 89.8646 107.984 90.0312C108.083 90.1979 108.224 90.3307 108.406 90.4297C108.594 90.5234 108.812 90.5703 109.062 90.5703C109.427 90.5703 109.745 90.4974 110.016 90.3516C110.286 90.2005 110.497 90.0182 110.648 89.8047C110.799 89.5911 110.88 89.388 110.891 89.1953L111.484 90.0859C111.411 90.2995 111.302 90.526 111.156 90.7656C111.01 91.0052 110.823 91.2292 110.594 91.4375C110.365 91.6458 110.089 91.8177 109.766 91.9531C109.443 92.0885 109.068 92.1562 108.641 92.1562C108.094 92.1562 107.604 92.0469 107.172 91.8281C106.74 91.6094 106.398 91.3099 106.148 90.9297C105.898 90.5495 105.773 90.1172 105.773 89.6328C105.773 89.1849 105.857 88.7891 106.023 88.4453C106.19 88.1016 106.438 87.8125 106.766 87.5781C107.094 87.3385 107.5 87.1589 107.984 87.0391C108.474 86.9141 109.034 86.8516 109.664 86.8516H111.055ZM116.766 85.2734V92H114.703V83.5469H116.656L116.766 85.2734ZM119.336 83.4922L119.305 85.4141C119.19 85.3932 119.06 85.3776 118.914 85.3672C118.773 85.3568 118.641 85.3516 118.516 85.3516C118.198 85.3516 117.919 85.3958 117.68 85.4844C117.44 85.5677 117.24 85.6901 117.078 85.8516C116.922 86.013 116.802 86.2109 116.719 86.4453C116.635 86.6745 116.589 86.9349 116.578 87.2266L116.133 87.1719C116.133 86.6354 116.188 86.138 116.297 85.6797C116.406 85.2214 116.565 84.8203 116.773 84.4766C116.982 84.1328 117.242 83.8672 117.555 83.6797C117.872 83.487 118.237 83.3906 118.648 83.3906C118.763 83.3906 118.885 83.401 119.016 83.4219C119.151 83.4375 119.258 83.4609 119.336 83.4922ZM122.523 85.2812V92H120.461V83.5469H122.406L122.523 85.2812ZM122.219 87.4688H121.586C121.586 86.8802 121.656 86.3385 121.797 85.8438C121.943 85.349 122.156 84.9193 122.438 84.5547C122.719 84.1849 123.065 83.8984 123.477 83.6953C123.893 83.4922 124.375 83.3906 124.922 83.3906C125.302 83.3906 125.651 83.4479 125.969 83.5625C126.286 83.6719 126.56 83.8464 126.789 84.0859C127.023 84.3203 127.203 84.6276 127.328 85.0078C127.453 85.3828 127.516 85.8333 127.516 86.3594V92H125.453V86.5703C125.453 86.1745 125.396 85.8646 125.281 85.6406C125.172 85.4167 125.013 85.2604 124.805 85.1719C124.596 85.0781 124.346 85.0312 124.055 85.0312C123.732 85.0312 123.453 85.0964 123.219 85.2266C122.99 85.3516 122.799 85.526 122.648 85.75C122.503 85.974 122.393 86.2318 122.32 86.5234C122.253 86.8151 122.219 87.1302 122.219 87.4688ZM127.359 87.0859L126.508 87.2422C126.513 86.7109 126.586 86.2135 126.727 85.75C126.867 85.2812 127.073 84.8724 127.344 84.5234C127.62 84.1693 127.961 83.8932 128.367 83.6953C128.779 83.4922 129.253 83.3906 129.789 83.3906C130.206 83.3906 130.581 83.4505 130.914 83.5703C131.253 83.6849 131.542 83.8698 131.781 84.125C132.021 84.375 132.203 84.7005 132.328 85.1016C132.458 85.5026 132.523 85.9922 132.523 86.5703V92H130.445V86.5625C130.445 86.151 130.388 85.8359 130.273 85.6172C130.164 85.3984 130.005 85.2474 129.797 85.1641C129.589 85.0755 129.344 85.0312 129.062 85.0312C128.776 85.0312 128.526 85.0859 128.312 85.1953C128.104 85.2995 127.927 85.4453 127.781 85.6328C127.641 85.8203 127.534 86.0391 127.461 86.2891C127.393 86.5339 127.359 86.7995 127.359 87.0859ZM139.031 90.2031V86.3047C139.031 86.0182 138.982 85.7708 138.883 85.5625C138.784 85.3542 138.633 85.1927 138.43 85.0781C138.227 84.9635 137.969 84.9062 137.656 84.9062C137.38 84.9062 137.138 84.9531 136.93 85.0469C136.727 85.1406 136.57 85.2734 136.461 85.4453C136.352 85.612 136.297 85.8047 136.297 86.0234H134.227C134.227 85.6745 134.31 85.3438 134.477 85.0312C134.643 84.7135 134.88 84.4323 135.188 84.1875C135.5 83.9375 135.872 83.7422 136.305 83.6016C136.742 83.4609 137.232 83.3906 137.773 83.3906C138.414 83.3906 138.984 83.5 139.484 83.7188C139.99 83.9323 140.385 84.2552 140.672 84.6875C140.964 85.1198 141.109 85.6641 141.109 86.3203V90.0078C141.109 90.4297 141.135 90.7917 141.188 91.0938C141.245 91.3906 141.328 91.6484 141.438 91.8672V92H139.336C139.237 91.7865 139.161 91.5156 139.109 91.1875C139.057 90.8542 139.031 90.526 139.031 90.2031ZM139.32 86.8516L139.336 88.0781H138.031C137.708 88.0781 137.424 88.112 137.18 88.1797C136.935 88.2422 136.734 88.3359 136.578 88.4609C136.422 88.5807 136.305 88.7266 136.227 88.8984C136.148 89.0651 136.109 89.2552 136.109 89.4688C136.109 89.6771 136.156 89.8646 136.25 90.0312C136.349 90.1979 136.49 90.3307 136.672 90.4297C136.859 90.5234 137.078 90.5703 137.328 90.5703C137.693 90.5703 138.01 90.4974 138.281 90.3516C138.552 90.2005 138.763 90.0182 138.914 89.8047C139.065 89.5911 139.146 89.388 139.156 89.1953L139.75 90.0859C139.677 90.2995 139.568 90.526 139.422 90.7656C139.276 91.0052 139.089 91.2292 138.859 91.4375C138.63 91.6458 138.354 91.8177 138.031 91.9531C137.708 92.0885 137.333 92.1562 136.906 92.1562C136.359 92.1562 135.87 92.0469 135.438 91.8281C135.005 91.6094 134.664 91.3099 134.414 90.9297C134.164 90.5495 134.039 90.1172 134.039 89.6328C134.039 89.1849 134.122 88.7891 134.289 88.4453C134.456 88.1016 134.703 87.8125 135.031 87.5781C135.359 87.3385 135.766 87.1589 136.25 87.0391C136.74 86.9141 137.299 86.8516 137.93 86.8516H139.32ZM146.438 90.5312C146.729 90.5312 146.99 90.474 147.219 90.3594C147.448 90.2448 147.63 90.0833 147.766 89.875C147.906 89.6667 147.982 89.4245 147.992 89.1484H149.938C149.927 89.7214 149.766 90.2344 149.453 90.6875C149.141 91.1406 148.724 91.5 148.203 91.7656C147.688 92.026 147.109 92.1562 146.469 92.1562C145.818 92.1562 145.25 92.0469 144.766 91.8281C144.281 91.6094 143.878 91.3047 143.555 90.9141C143.237 90.5234 142.997 90.0703 142.836 89.5547C142.68 89.0391 142.602 88.487 142.602 87.8984V87.6484C142.602 87.0599 142.68 86.5078 142.836 85.9922C142.997 85.4766 143.237 85.0234 143.555 84.6328C143.878 84.2422 144.281 83.9375 144.766 83.7188C145.25 83.5 145.815 83.3906 146.461 83.3906C147.143 83.3906 147.742 83.5234 148.258 83.7891C148.779 84.0547 149.185 84.4297 149.477 84.9141C149.773 85.3984 149.927 85.9688 149.938 86.625H147.992C147.982 86.3229 147.914 86.0521 147.789 85.8125C147.664 85.5729 147.487 85.3802 147.258 85.2344C147.029 85.0885 146.75 85.0156 146.422 85.0156C146.073 85.0156 145.781 85.0885 145.547 85.2344C145.318 85.3802 145.138 85.5807 145.008 85.8359C144.883 86.0859 144.794 86.3672 144.742 86.6797C144.695 86.987 144.672 87.3099 144.672 87.6484V87.8984C144.672 88.2422 144.695 88.5703 144.742 88.8828C144.794 89.1953 144.883 89.4766 145.008 89.7266C145.138 89.9714 145.318 90.1667 145.547 90.3125C145.781 90.4583 146.078 90.5312 146.438 90.5312ZM155.109 92.1562C154.469 92.1562 153.893 92.0521 153.383 91.8438C152.872 91.6354 152.438 91.3464 152.078 90.9766C151.724 90.6016 151.451 90.1667 151.258 89.6719C151.07 89.1719 150.977 88.6354 150.977 88.0625V87.75C150.977 87.099 151.07 86.5078 151.258 85.9766C151.445 85.4401 151.711 84.9792 152.055 84.5938C152.398 84.2083 152.81 83.9115 153.289 83.7031C153.768 83.4948 154.297 83.3906 154.875 83.3906C155.474 83.3906 156.003 83.4922 156.461 83.6953C156.919 83.8932 157.302 84.1745 157.609 84.5391C157.917 84.9036 158.148 85.3411 158.305 85.8516C158.461 86.3568 158.539 86.9167 158.539 87.5312V88.3984H151.914V86.9766H156.508V86.8203C156.497 86.4922 156.435 86.1927 156.32 85.9219C156.206 85.6458 156.029 85.4271 155.789 85.2656C155.549 85.099 155.24 85.0156 154.859 85.0156C154.552 85.0156 154.284 85.0833 154.055 85.2188C153.831 85.349 153.643 85.5365 153.492 85.7812C153.346 86.0208 153.237 86.3073 153.164 86.6406C153.091 86.974 153.055 87.3438 153.055 87.75V88.0625C153.055 88.4167 153.102 88.7448 153.195 89.0469C153.294 89.349 153.438 89.612 153.625 89.8359C153.818 90.0547 154.047 90.2266 154.312 90.3516C154.583 90.4714 154.891 90.5312 155.234 90.5312C155.667 90.5312 156.057 90.4479 156.406 90.2812C156.76 90.1094 157.068 89.8568 157.328 89.5234L158.367 90.6016C158.19 90.862 157.951 91.112 157.648 91.3516C157.352 91.5911 156.992 91.7865 156.57 91.9375C156.148 92.0833 155.661 92.1562 155.109 92.1562ZM164.953 89.9922V83.5469H167.031V92H165.078L164.953 89.9922ZM165.219 88.2422L165.859 88.2266C165.859 88.7943 165.797 89.3177 165.672 89.7969C165.547 90.276 165.352 90.6927 165.086 91.0469C164.826 91.3958 164.495 91.6693 164.094 91.8672C163.693 92.0599 163.219 92.1562 162.672 92.1562C162.255 92.1562 161.875 92.099 161.531 91.9844C161.188 91.8646 160.891 91.6797 160.641 91.4297C160.396 91.1745 160.206 90.849 160.07 90.4531C159.935 90.0521 159.867 89.5703 159.867 89.0078V83.5469H161.93V89.0234C161.93 89.3047 161.961 89.5391 162.023 89.7266C162.091 89.9141 162.182 90.0677 162.297 90.1875C162.417 90.3021 162.555 90.3854 162.711 90.4375C162.872 90.4844 163.044 90.5078 163.227 90.5078C163.727 90.5078 164.12 90.4089 164.406 90.2109C164.698 90.0078 164.906 89.737 165.031 89.3984C165.156 89.0547 165.219 88.6693 165.219 88.2422ZM172.859 83.5469V85.0312H168.016V83.5469H172.859ZM169.312 81.4688H171.383V89.5625C171.383 89.8125 171.417 90.0052 171.484 90.1406C171.552 90.276 171.654 90.3672 171.789 90.4141C171.924 90.4609 172.086 90.4844 172.273 90.4844C172.409 90.4844 172.534 90.4766 172.648 90.4609C172.763 90.4453 172.859 90.4297 172.938 90.4141L172.945 91.9609C172.773 92.0182 172.578 92.0651 172.359 92.1016C172.146 92.138 171.904 92.1562 171.633 92.1562C171.169 92.1562 170.763 92.0781 170.414 91.9219C170.065 91.7604 169.794 91.5026 169.602 91.1484C169.409 90.7891 169.312 90.3151 169.312 89.7266V81.4688ZM176.422 83.5469V92H174.352V83.5469H176.422ZM174.211 81.3359C174.211 81.0286 174.315 80.7734 174.523 80.5703C174.737 80.3672 175.023 80.2656 175.383 80.2656C175.742 80.2656 176.026 80.3672 176.234 80.5703C176.448 80.7734 176.555 81.0286 176.555 81.3359C176.555 81.638 176.448 81.8906 176.234 82.0938C176.026 82.2969 175.742 82.3984 175.383 82.3984C175.023 82.3984 174.737 82.2969 174.523 82.0938C174.315 81.8906 174.211 81.638 174.211 81.3359ZM181.859 90.5312C182.151 90.5312 182.411 90.474 182.641 90.3594C182.87 90.2448 183.052 90.0833 183.188 89.875C183.328 89.6667 183.404 89.4245 183.414 89.1484H185.359C185.349 89.7214 185.188 90.2344 184.875 90.6875C184.562 91.1406 184.146 91.5 183.625 91.7656C183.109 92.026 182.531 92.1562 181.891 92.1562C181.24 92.1562 180.672 92.0469 180.188 91.8281C179.703 91.6094 179.299 91.3047 178.977 90.9141C178.659 90.5234 178.419 90.0703 178.258 89.5547C178.102 89.0391 178.023 88.487 178.023 87.8984V87.6484C178.023 87.0599 178.102 86.5078 178.258 85.9922C178.419 85.4766 178.659 85.0234 178.977 84.6328C179.299 84.2422 179.703 83.9375 180.188 83.7188C180.672 83.5 181.237 83.3906 181.883 83.3906C182.565 83.3906 183.164 83.5234 183.68 83.7891C184.201 84.0547 184.607 84.4297 184.898 84.9141C185.195 85.3984 185.349 85.9688 185.359 86.625H183.414C183.404 86.3229 183.336 86.0521 183.211 85.8125C183.086 85.5729 182.909 85.3802 182.68 85.2344C182.451 85.0885 182.172 85.0156 181.844 85.0156C181.495 85.0156 181.203 85.0885 180.969 85.2344C180.74 85.3802 180.56 85.5807 180.43 85.8359C180.305 86.0859 180.216 86.3672 180.164 86.6797C180.117 86.987 180.094 87.3099 180.094 87.6484V87.8984C180.094 88.2422 180.117 88.5703 180.164 88.8828C180.216 89.1953 180.305 89.4766 180.43 89.7266C180.56 89.9714 180.74 90.1667 180.969 90.3125C181.203 90.4583 181.5 90.5312 181.859 90.5312ZM191.391 90.2031V86.3047C191.391 86.0182 191.341 85.7708 191.242 85.5625C191.143 85.3542 190.992 85.1927 190.789 85.0781C190.586 84.9635 190.328 84.9062 190.016 84.9062C189.74 84.9062 189.497 84.9531 189.289 85.0469C189.086 85.1406 188.93 85.2734 188.82 85.4453C188.711 85.612 188.656 85.8047 188.656 86.0234H186.586C186.586 85.6745 186.669 85.3438 186.836 85.0312C187.003 84.7135 187.24 84.4323 187.547 84.1875C187.859 83.9375 188.232 83.7422 188.664 83.6016C189.102 83.4609 189.591 83.3906 190.133 83.3906C190.773 83.3906 191.344 83.5 191.844 83.7188C192.349 83.9323 192.745 84.2552 193.031 84.6875C193.323 85.1198 193.469 85.6641 193.469 86.3203V90.0078C193.469 90.4297 193.495 90.7917 193.547 91.0938C193.604 91.3906 193.688 91.6484 193.797 91.8672V92H191.695C191.596 91.7865 191.521 91.5156 191.469 91.1875C191.417 90.8542 191.391 90.526 191.391 90.2031ZM191.68 86.8516L191.695 88.0781H190.391C190.068 88.0781 189.784 88.112 189.539 88.1797C189.294 88.2422 189.094 88.3359 188.938 88.4609C188.781 88.5807 188.664 88.7266 188.586 88.8984C188.508 89.0651 188.469 89.2552 188.469 89.4688C188.469 89.6771 188.516 89.8646 188.609 90.0312C188.708 90.1979 188.849 90.3307 189.031 90.4297C189.219 90.5234 189.438 90.5703 189.688 90.5703C190.052 90.5703 190.37 90.4974 190.641 90.3516C190.911 90.2005 191.122 90.0182 191.273 89.8047C191.424 89.5911 191.505 89.388 191.516 89.1953L192.109 90.0859C192.036 90.2995 191.927 90.526 191.781 90.7656C191.635 91.0052 191.448 91.2292 191.219 91.4375C190.99 91.6458 190.714 91.8177 190.391 91.9531C190.068 92.0885 189.693 92.1562 189.266 92.1562C188.719 92.1562 188.229 92.0469 187.797 91.8281C187.365 91.6094 187.023 91.3099 186.773 90.9297C186.523 90.5495 186.398 90.1172 186.398 89.6328C186.398 89.1849 186.482 88.7891 186.648 88.4453C186.815 88.1016 187.062 87.8125 187.391 87.5781C187.719 87.3385 188.125 87.1589 188.609 87.0391C189.099 86.9141 189.659 86.8516 190.289 86.8516H191.68ZM197.516 80V92H195.445V80H197.516Z" fill="black"/>
<g clip-path="url(#clip0_301_3686)">
<path d="M95.423 8.40723L96.5318 28.343H99.439L100.074 14.6581H104.09L104.883 28.343H108.106V33.7854L107.152 36.1024C106.979 36.1551 107.061 35.8887 107.049 35.8887H102.926V38.853L103.084 39.0141H105.885L104.561 42.3563L102.765 42.3811L102.61 42.5174V46.2902C102.61 46.3739 102.923 46.4265 102.92 46.5009L100.177 53.458H69V28.3492H78.4051L79.2496 10.8915H84.3228L85.1673 28.3492H88.6547L89.6055 8.41342H95.4169L95.423 8.40723ZM92.4884 9.40464C92.2576 9.64005 92.3244 10.179 92.616 10.3556C92.8682 10.5074 94.1744 10.5074 94.5025 10.433C95.1283 10.2905 95.101 9.44181 94.6119 9.29003C94.3445 9.20639 92.6616 9.22808 92.4915 9.40154L92.4884 9.40464ZM94.867 11.8827C94.6969 11.7092 93.0261 11.6937 92.7284 11.7526C92.1695 11.8641 92.1998 12.7562 92.6646 12.8894C93.0049 12.9885 94.4752 12.9978 94.7425 12.8336C95.0341 12.6571 95.101 12.1181 94.8701 11.8827H94.867ZM81.1817 13.2301C81.5371 13.6111 84.0615 13.8001 83.6727 12.5796C83.4965 11.9725 81.3153 12.0468 81.1148 12.5301C81.0267 12.7407 81.0207 13.0597 81.1817 13.2301ZM92.6403 14.2492C92.4581 14.305 92.2576 14.6302 92.2576 14.8192C92.2029 15.6927 94.6058 15.4913 94.8883 15.2466C95.2164 14.9616 95.0888 14.3638 94.7152 14.2461C94.5177 14.1842 92.8408 14.1842 92.6434 14.2461L92.6403 14.2492ZM81.3123 16.0582H83.4266C83.8458 16.0582 84.0828 14.9864 83.1107 14.8718C82.2449 14.7665 80.3432 14.7417 81.3123 16.0582ZM92.6434 16.7272C92.1209 16.879 92.1209 17.7154 92.6434 17.8671C92.8712 17.9322 94.3688 17.9353 94.6271 17.8857C95.1496 17.7866 95.3531 16.9379 94.7941 16.752C94.5359 16.6653 92.9016 16.6498 92.6434 16.7272ZM81.4399 17.5915C80.9538 17.737 80.7867 18.5672 81.3336 18.7345C81.5371 18.7964 83.1836 18.7995 83.4236 18.753C83.9947 18.6415 84.0706 17.7494 83.4023 17.5915C83.138 17.5295 81.6768 17.5202 81.4399 17.5915ZM92.3821 19.3168C92.1512 19.5522 92.2181 20.0912 92.5097 20.2677C92.7406 20.4071 94.4023 20.4288 94.7334 20.3669C95.3683 20.2461 95.3774 19.3106 94.7334 19.1867C94.4174 19.1278 92.5553 19.1433 92.3821 19.3168ZM81.4399 20.2863C80.8354 20.4288 80.7776 21.262 81.3336 21.4262C81.61 21.5068 83.5785 21.4882 83.7517 21.3519C84.101 21.0762 84.0008 20.3978 83.5086 20.2863C83.1897 20.2151 81.7558 20.212 81.4399 20.2863ZM92.6434 21.6864C92.0419 21.8227 92.0419 22.6869 92.6434 22.8232C93.014 22.9068 94.8701 22.913 95.104 22.6838C95.3896 22.3214 95.2954 21.7917 94.8184 21.6833C94.4843 21.609 92.9775 21.609 92.6464 21.6833L92.6434 21.6864ZM83.8762 23.0896C83.7031 22.913 81.7437 22.8976 81.4216 22.9595C80.7776 23.0834 80.7867 24.0189 81.4216 24.1397C81.7467 24.2016 83.7061 24.183 83.8762 24.0096C84.0463 23.8361 84.0524 23.2693 83.8762 23.0896ZM92.537 24.1614C92.0601 24.3069 92.0601 25.1588 92.537 25.3043C92.8287 25.3942 94.8367 25.3601 95.0584 25.2238C95.4776 24.9667 95.3652 24.2915 94.9248 24.1614C94.706 24.0963 92.7466 24.0963 92.537 24.1614ZM83.9825 25.7845C83.8124 25.611 81.6464 25.5893 81.3153 25.6544C80.7321 25.769 80.7199 26.6735 81.3366 26.8129C81.692 26.8934 83.6089 26.8872 83.8549 26.7354C84.1466 26.5589 84.2134 26.0199 83.9825 25.7845ZM92.537 26.6425C91.9842 26.8036 92.0145 27.6864 92.6221 27.801C92.9471 27.8629 94.9764 27.8412 95.1648 27.7049C95.5779 27.4045 95.4351 26.7633 94.9217 26.6425C94.6362 26.5743 92.7922 26.5681 92.537 26.6425ZM75.6589 30.0684H71.1143V33.1938H75.6589V30.0684ZM80.8384 30.0684H76.7161V33.1938H80.8384V30.0684ZM86.1212 30.0684H81.9988V33.1938H86.1212V30.0684ZM91.407 33.1938V30.2294L91.249 30.0684H87.1814V33.1938H91.41H91.407ZM96.5834 30.0684H92.4611V33.1938H96.5834V30.0684ZM101.869 30.0684H97.8016L97.6436 30.2294V33.0327L97.8016 33.1938H101.869V30.0684ZM107.049 30.0684H102.926V33.1938H107.049V30.0684ZM75.6589 35.8887H71.1143V39.0141H75.5009L75.6589 38.853V35.8887ZM80.8384 35.8887H76.7161V39.0141H80.8384V35.8887ZM86.1212 35.8887H81.9988V39.0141H86.1212V35.8887ZM91.407 35.8887H87.1783V38.853L87.3363 39.0141H91.246L91.4039 38.853V35.8887H91.407ZM96.5834 35.8887H92.4611V39.0141H96.5834V35.8887ZM101.869 35.8887H97.8016L97.6436 36.0497V38.853L97.8016 39.0141H101.711L101.869 38.853V35.8887ZM74.0732 46.4482V42.5143C74.0732 42.2046 73.0889 42.4586 72.8641 42.4648C72.2778 42.4802 71.6915 42.4802 71.1143 42.3532V46.4482H74.0732ZM78.3018 42.4617C77.433 42.3966 76.3606 42.2448 75.4949 42.3471C75.3399 42.3656 75.2245 42.3594 75.1303 42.5143V46.2871L75.2883 46.4482H78.3018V42.4617ZM87.072 42.3532H80.9417V51.7295H87.072V42.3532ZM92.8864 42.4617C92.13 42.44 91.3675 42.4895 90.6111 42.4648C90.4227 42.4586 89.6116 42.2077 89.6116 42.5143V46.2871L89.7696 46.4482H92.8864V42.4617ZM96.9024 46.4482V42.5143C96.8295 42.3842 96.4771 42.3532 96.3222 42.3532H94.1015L93.9435 42.5143V46.4482H96.9024ZM101.553 46.4482V42.5143C101.459 42.3594 101.344 42.3656 101.189 42.3471C100.484 42.2634 99.6152 42.3811 98.9104 42.4617V46.2871L99.0684 46.4482H101.553Z" fill="black"/>
<path d="M109.977 17.3768L119.455 17.3613C121.472 17.8043 121.885 20.2916 120.312 21.5554L120.281 33.8682C122.803 40.6208 126.084 47.2434 128.55 53.996C129.805 57.4312 128.392 60.4482 124.753 61.0027L104.776 60.9965C101.994 60.7363 100.086 58.0135 100.627 55.2598L109.242 34.085L109.212 21.4501C107.735 20.1708 108.173 18.0056 109.977 17.3768ZM116.824 21.7691H110.43V34.1098C110.43 34.3297 109.57 35.8847 109.692 35.9962L119.838 35.8878L119.2 34.0045L119.3 20.8461C120.482 20.242 120.491 18.7552 119.151 18.4269C116.426 18.6809 113.136 18.0985 110.478 18.4269C109.345 18.5663 108.993 20.0624 110.062 20.5828L116.8 20.6076C117.514 20.7686 117.42 21.6421 116.821 21.7691H116.824ZM118.033 40.119C118.033 39.326 117.405 38.6848 116.627 38.6848C115.849 38.6848 115.22 39.326 115.22 40.119C115.22 40.912 115.849 41.5532 116.627 41.5532C117.405 41.5532 118.033 40.912 118.033 40.119ZM121.5 44.31C120.928 44.4649 121.141 45.0937 121.266 45.4778C122.314 48.6744 124.373 51.9578 125.485 55.1855C125.926 56.028 126.843 55.4859 126.551 54.6372L122.186 44.6507C122.068 44.3998 121.773 44.2387 121.5 44.3131V44.31ZM114.115 45.5738C114.115 44.9636 113.629 44.468 113.03 44.468C112.432 44.468 111.946 44.9636 111.946 45.5738C111.946 46.184 112.432 46.6796 113.03 46.6796C113.629 46.6796 114.115 46.184 114.115 45.5738ZM118.784 50.1427C118.784 49.2103 118.043 48.4514 117.125 48.4514C116.208 48.4514 115.466 49.2072 115.466 50.1427C115.466 51.0781 116.208 51.8339 117.125 51.8339C118.043 51.8339 118.784 51.0781 118.784 50.1427ZM114.248 55.4147C114.248 54.6217 113.619 53.9805 112.842 53.9805C112.064 53.9805 111.435 54.6217 111.435 55.4147C111.435 56.2077 112.064 56.8489 112.842 56.8489C113.619 56.8489 114.248 56.2077 114.248 55.4147Z" fill="black"/>
<path d="M114.841 0.0181505C115.172 -0.046898 115.412 0.176125 115.506 0.492075C115.552 0.969098 114.567 1.9758 114.355 2.44663L115.515 4.36711L114.355 6.21634L115.506 8.14921L114.376 10.079C114.564 10.525 115.476 11.4977 115.503 11.9189C115.536 12.4331 114.543 13.3221 114.376 13.8518C114.552 14.4341 115.94 15.5771 115.348 16.1719C115.053 16.4661 114.68 16.2462 114.449 16.0077C114.349 15.9055 113.276 14.3257 113.237 14.2266C112.9 13.3903 113.957 12.7429 114.215 12.0057C114.051 11.318 113.064 10.5963 113.179 9.87455C113.246 9.46257 114.233 8.44348 114.233 8.14302C114.075 7.59475 113.246 6.93807 113.179 6.40839C113.094 5.75171 114.021 4.99281 114.233 4.3702C114.021 3.7476 113.094 2.9887 113.179 2.33202C113.206 2.12139 114.276 0.488978 114.461 0.290735C114.579 0.166833 114.655 0.0584186 114.841 0.0212481V0.0181505Z" fill="black"/>
<path d="M101.793 13.5485C101.726 13.4927 100.924 12.2011 100.918 12.1174C100.882 11.724 101.42 11.2966 101.535 10.9218L100.924 9.754L101.535 8.66056L100.924 7.49279L101.529 6.32811L100.924 5.23158C101.198 4.72668 101.86 3.14383 102.562 3.66112C103.297 4.20319 102.182 4.91253 102.182 5.22848C102.182 5.4546 102.75 5.99048 102.799 6.3343C102.86 6.75557 102.228 7.19542 102.2 7.51137C102.182 7.7282 102.811 8.30434 102.811 8.67915C102.811 9.05395 102.182 9.52788 102.182 9.754L102.811 10.9435L102.206 12.1081C102.352 12.4055 102.808 12.8701 102.811 13.2047C102.811 13.7591 102.127 13.8335 101.793 13.5516V13.5485Z" fill="black"/>
<path d="M82.2905 10.1044C82.1203 10.2747 81.7133 10.284 81.5158 10.1384C81.4611 10.0982 80.7594 9.09457 80.7229 9.00784C80.328 8.08786 81.1634 7.86484 81.1513 7.38162C81.1422 7.10594 80.6348 6.76831 80.6166 6.30058C80.5984 5.78019 81.1604 5.46424 81.1513 5.11732C81.1452 4.85402 80.5771 4.3801 80.565 4.04247C80.5468 3.60881 81.1543 3.10391 81.1543 2.85611C81.1543 2.54635 80.5407 2.23969 80.6288 1.57062C80.6743 1.2237 81.4763 0.0156556 81.853 -0.00292969C82.9436 0.282045 82.2084 1.11219 81.8074 1.68833L82.4363 2.85301L81.8074 3.94954C81.7771 4.15088 82.3846 4.70844 82.4272 5.0151C82.5061 5.58505 81.7862 5.97534 81.8105 6.28199C81.8317 6.54219 82.3968 6.94797 82.4241 7.38472C82.4515 7.82767 81.8257 8.2892 81.8257 8.56179C81.8257 8.89323 82.8008 9.58708 82.2935 10.0982L82.2905 10.1044Z" fill="black"/>
<path d="M93.178 0.135879C93.6336 0.603609 92.9501 1.29126 92.7101 1.67226C93.3663 2.60153 93.5486 3.02899 92.701 3.93347C92.8711 4.37332 93.3602 4.71096 93.3086 5.21895C93.2691 5.59066 92.7071 6.09556 92.701 6.19778C92.6767 6.52302 93.7065 7.15492 93.1537 7.76824C92.5886 8.39394 91.577 6.82039 91.5102 6.40841C91.413 5.80439 92.1117 5.33666 92.1117 5.12293C92.1117 4.9092 91.413 4.44147 91.5102 3.83745C91.5558 3.54938 92.1147 2.98562 92.1117 2.85862C92.1117 2.67897 91.4707 2.17407 91.498 1.67536C91.5072 1.51429 92.2605 0.250488 92.3851 0.145172C92.5765 -0.0189982 92.9987 -0.0437786 93.1749 0.138977L93.178 0.135879Z" fill="black"/>
<path d="M113.516 34.8197C114.265 34.8197 114.871 34.2011 114.871 33.4381C114.871 32.6752 114.265 32.0566 113.516 32.0566C112.768 32.0566 112.161 32.6752 112.161 33.4381C112.161 34.2011 112.768 34.8197 113.516 34.8197Z" fill="black"/>
<path d="M116.11 30.1797C116.857 30.1797 117.462 29.5625 117.462 28.8013C117.462 28.04 116.857 27.4229 116.11 27.4229C115.364 27.4229 114.759 28.04 114.759 28.8013C114.759 29.5625 115.364 30.1797 116.11 30.1797Z" fill="black"/>
<path d="M113.723 26.0662C114.332 26.0662 114.826 25.5628 114.826 24.9418C114.826 24.3208 114.332 23.8174 113.723 23.8174C113.114 23.8174 112.62 24.3208 112.62 24.9418C112.62 25.5628 113.114 26.0662 113.723 26.0662Z" fill="black"/>
</g>
<defs>
<clipPath id="clip0_301_3686">
<rect width="60" height="61" fill="white" transform="translate(69)"/>
</clipPath>
</defs>
</svg>
