<svg width="200" height="99" viewBox="0 0 200 99" fill="none" xmlns="http://www.w3.org/2000/svg">
<path d="M25.4609 88H23.0078L23.0234 86.3125H25.4609C26.1224 86.3125 26.6771 86.1667 27.125 85.875C27.5729 85.5781 27.9115 85.1536 28.1406 84.6016C28.3698 84.0443 28.4844 83.3776 28.4844 82.6016V82.0156C28.4844 81.4167 28.4193 80.888 28.2891 80.4297C28.1589 79.9714 27.9661 79.5859 27.7109 79.2734C27.4609 78.9609 27.151 78.724 26.7812 78.5625C26.4115 78.401 25.987 78.3203 25.5078 78.3203H22.9609V76.625H25.5078C26.2682 76.625 26.9609 76.7526 27.5859 77.0078C28.2161 77.263 28.7604 77.6302 29.2188 78.1094C29.6823 78.5833 30.0365 79.151 30.2812 79.8125C30.5312 80.474 30.6562 81.2135 30.6562 82.0312V82.6016C30.6562 83.4141 30.5312 84.1536 30.2812 84.8203C30.0365 85.4818 29.6823 86.0495 29.2188 86.5234C28.7604 86.9974 28.2135 87.362 27.5781 87.6172C26.9427 87.8724 26.237 88 25.4609 88ZM24.2109 76.625V88H22.0625V76.625H24.2109ZM34.5156 79.5469V88H32.4453V79.5469H34.5156ZM32.3047 77.3359C32.3047 77.0286 32.4089 76.7734 32.6172 76.5703C32.8307 76.3672 33.1172 76.2656 33.4766 76.2656C33.8359 76.2656 34.1198 76.3672 34.3281 76.5703C34.5417 76.7734 34.6484 77.0286 34.6484 77.3359C34.6484 77.638 34.5417 77.8906 34.3281 78.0938C34.1198 78.2969 33.8359 78.3984 33.4766 78.3984C33.1172 78.3984 32.8307 78.2969 32.6172 78.0938C32.4089 77.8906 32.3047 77.638 32.3047 77.3359ZM41.1328 85.6875C41.1328 85.5104 41.0859 85.3516 40.9922 85.2109C40.8984 85.0703 40.7214 84.9427 40.4609 84.8281C40.2057 84.7083 39.8307 84.5964 39.3359 84.4922C38.8984 84.3984 38.4948 84.2812 38.125 84.1406C37.7552 84 37.4375 83.8307 37.1719 83.6328C36.9062 83.4297 36.6979 83.1927 36.5469 82.9219C36.401 82.6458 36.3281 82.3281 36.3281 81.9688C36.3281 81.6198 36.4036 81.2917 36.5547 80.9844C36.7057 80.6719 36.9245 80.3984 37.2109 80.1641C37.4974 79.9245 37.8464 79.737 38.2578 79.6016C38.6693 79.4609 39.1328 79.3906 39.6484 79.3906C40.3672 79.3906 40.9844 79.5078 41.5 79.7422C42.0208 79.9766 42.4193 80.2995 42.6953 80.7109C42.9714 81.1172 43.1094 81.5755 43.1094 82.0859H41.0469C41.0469 81.862 40.9948 81.6589 40.8906 81.4766C40.7917 81.2943 40.638 81.1484 40.4297 81.0391C40.2214 80.9245 39.9583 80.8672 39.6406 80.8672C39.3542 80.8672 39.112 80.9141 38.9141 81.0078C38.7214 81.1016 38.5755 81.224 38.4766 81.375C38.3776 81.526 38.3281 81.6927 38.3281 81.875C38.3281 82.0104 38.3542 82.1328 38.4062 82.2422C38.4635 82.3464 38.5547 82.4427 38.6797 82.5312C38.8047 82.6198 38.974 82.7005 39.1875 82.7734C39.4062 82.8464 39.6745 82.9167 39.9922 82.9844C40.6224 83.1094 41.1719 83.276 41.6406 83.4844C42.1146 83.6875 42.4844 83.9583 42.75 84.2969C43.0156 84.6354 43.1484 85.0677 43.1484 85.5938C43.1484 85.9688 43.0677 86.3125 42.9062 86.625C42.7448 86.9323 42.5104 87.2005 42.2031 87.4297C41.8958 87.6589 41.5286 87.8385 41.1016 87.9688C40.6745 88.0938 40.1927 88.1562 39.6562 88.1562C38.8802 88.1562 38.224 88.0182 37.6875 87.7422C37.151 87.4609 36.7448 87.1068 36.4688 86.6797C36.1927 86.2474 36.0547 85.7995 36.0547 85.3359H38.0312C38.0469 85.6641 38.1354 85.9271 38.2969 86.125C38.4583 86.3229 38.6615 86.4661 38.9062 86.5547C39.1562 86.638 39.4193 86.6797 39.6953 86.6797C40.0078 86.6797 40.2708 86.638 40.4844 86.5547C40.6979 86.4661 40.8594 86.349 40.9688 86.2031C41.0781 86.0521 41.1328 85.8802 41.1328 85.6875ZM49.375 86.2031V82.3047C49.375 82.0182 49.3255 81.7708 49.2266 81.5625C49.1276 81.3542 48.9766 81.1927 48.7734 81.0781C48.5703 80.9635 48.3125 80.9062 48 80.9062C47.724 80.9062 47.4818 80.9531 47.2734 81.0469C47.0703 81.1406 46.9141 81.2734 46.8047 81.4453C46.6953 81.612 46.6406 81.8047 46.6406 82.0234H44.5703C44.5703 81.6745 44.6536 81.3438 44.8203 81.0312C44.987 80.7135 45.224 80.4323 45.5312 80.1875C45.8438 79.9375 46.2161 79.7422 46.6484 79.6016C47.0859 79.4609 47.5755 79.3906 48.1172 79.3906C48.7578 79.3906 49.3281 79.5 49.8281 79.7188C50.3333 79.9323 50.7292 80.2552 51.0156 80.6875C51.3073 81.1198 51.4531 81.6641 51.4531 82.3203V86.0078C51.4531 86.4297 51.4792 86.7917 51.5312 87.0938C51.5885 87.3906 51.6719 87.6484 51.7812 87.8672V88H49.6797C49.5807 87.7865 49.5052 87.5156 49.4531 87.1875C49.401 86.8542 49.375 86.526 49.375 86.2031ZM49.6641 82.8516L49.6797 84.0781H48.375C48.0521 84.0781 47.7682 84.112 47.5234 84.1797C47.2786 84.2422 47.0781 84.3359 46.9219 84.4609C46.7656 84.5807 46.6484 84.7266 46.5703 84.8984C46.4922 85.0651 46.4531 85.2552 46.4531 85.4688C46.4531 85.6771 46.5 85.8646 46.5938 86.0312C46.6927 86.1979 46.8333 86.3307 47.0156 86.4297C47.2031 86.5234 47.4219 86.5703 47.6719 86.5703C48.0365 86.5703 48.3542 86.4974 48.625 86.3516C48.8958 86.2005 49.1068 86.0182 49.2578 85.8047C49.4089 85.5911 49.4896 85.388 49.5 85.1953L50.0938 86.0859C50.0208 86.2995 49.9115 86.526 49.7656 86.7656C49.6198 87.0052 49.4323 87.2292 49.2031 87.4375C48.974 87.6458 48.6979 87.8177 48.375 87.9531C48.0521 88.0885 47.6771 88.1562 47.25 88.1562C46.7031 88.1562 46.2135 88.0469 45.7812 87.8281C45.349 87.6094 45.0078 87.3099 44.7578 86.9297C44.5078 86.5495 44.3828 86.1172 44.3828 85.6328C44.3828 85.1849 44.4661 84.7891 44.6328 84.4453C44.7995 84.1016 45.0469 83.8125 45.375 83.5781C45.7031 83.3385 46.1094 83.1589 46.5938 83.0391C47.0833 82.9141 47.6432 82.8516 48.2734 82.8516H49.6641ZM57.9609 85.6875C57.9609 85.5104 57.9141 85.3516 57.8203 85.2109C57.7266 85.0703 57.5495 84.9427 57.2891 84.8281C57.0339 84.7083 56.6589 84.5964 56.1641 84.4922C55.7266 84.3984 55.3229 84.2812 54.9531 84.1406C54.5833 84 54.2656 83.8307 54 83.6328C53.7344 83.4297 53.526 83.1927 53.375 82.9219C53.2292 82.6458 53.1562 82.3281 53.1562 81.9688C53.1562 81.6198 53.2318 81.2917 53.3828 80.9844C53.5339 80.6719 53.7526 80.3984 54.0391 80.1641C54.3255 79.9245 54.6745 79.737 55.0859 79.6016C55.4974 79.4609 55.9609 79.3906 56.4766 79.3906C57.1953 79.3906 57.8125 79.5078 58.3281 79.7422C58.849 79.9766 59.2474 80.2995 59.5234 80.7109C59.7995 81.1172 59.9375 81.5755 59.9375 82.0859H57.875C57.875 81.862 57.8229 81.6589 57.7188 81.4766C57.6198 81.2943 57.4661 81.1484 57.2578 81.0391C57.0495 80.9245 56.7865 80.8672 56.4688 80.8672C56.1823 80.8672 55.9401 80.9141 55.7422 81.0078C55.5495 81.1016 55.4036 81.224 55.3047 81.375C55.2057 81.526 55.1562 81.6927 55.1562 81.875C55.1562 82.0104 55.1823 82.1328 55.2344 82.2422C55.2917 82.3464 55.3828 82.4427 55.5078 82.5312C55.6328 82.6198 55.8021 82.7005 56.0156 82.7734C56.2344 82.8464 56.5026 82.9167 56.8203 82.9844C57.4505 83.1094 58 83.276 58.4688 83.4844C58.9427 83.6875 59.3125 83.9583 59.5781 84.2969C59.8438 84.6354 59.9766 85.0677 59.9766 85.5938C59.9766 85.9688 59.8958 86.3125 59.7344 86.625C59.5729 86.9323 59.3385 87.2005 59.0312 87.4297C58.724 87.6589 58.3568 87.8385 57.9297 87.9688C57.5026 88.0938 57.0208 88.1562 56.4844 88.1562C55.7083 88.1562 55.0521 88.0182 54.5156 87.7422C53.9792 87.4609 53.5729 87.1068 53.2969 86.6797C53.0208 86.2474 52.8828 85.7995 52.8828 85.3359H54.8594C54.875 85.6641 54.9635 85.9271 55.125 86.125C55.2865 86.3229 55.4896 86.4661 55.7344 86.5547C55.9844 86.638 56.2474 86.6797 56.5234 86.6797C56.8359 86.6797 57.099 86.638 57.3125 86.5547C57.526 86.4661 57.6875 86.349 57.7969 86.2031C57.9062 86.0521 57.9609 85.8802 57.9609 85.6875ZM65.5469 79.5469V81.0312H60.7031V79.5469H65.5469ZM62 77.4688H64.0703V85.5625C64.0703 85.8125 64.1042 86.0052 64.1719 86.1406C64.2396 86.276 64.3411 86.3672 64.4766 86.4141C64.612 86.4609 64.7734 86.4844 64.9609 86.4844C65.0964 86.4844 65.2214 86.4766 65.3359 86.4609C65.4505 86.4453 65.5469 86.4297 65.625 86.4141L65.6328 87.9609C65.4609 88.0182 65.2656 88.0651 65.0469 88.1016C64.8333 88.138 64.5911 88.1562 64.3203 88.1562C63.8568 88.1562 63.4505 88.0781 63.1016 87.9219C62.7526 87.7604 62.4818 87.5026 62.2891 87.1484C62.0964 86.7891 62 86.3151 62 85.7266V77.4688ZM70.7188 88.1562C70.0781 88.1562 69.5026 88.0521 68.9922 87.8438C68.4818 87.6354 68.0469 87.3464 67.6875 86.9766C67.3333 86.6016 67.0599 86.1667 66.8672 85.6719C66.6797 85.1719 66.5859 84.6354 66.5859 84.0625V83.75C66.5859 83.099 66.6797 82.5078 66.8672 81.9766C67.0547 81.4401 67.3203 80.9792 67.6641 80.5938C68.0078 80.2083 68.4193 79.9115 68.8984 79.7031C69.3776 79.4948 69.9062 79.3906 70.4844 79.3906C71.0833 79.3906 71.612 79.4922 72.0703 79.6953C72.5286 79.8932 72.9115 80.1745 73.2188 80.5391C73.526 80.9036 73.7578 81.3411 73.9141 81.8516C74.0703 82.3568 74.1484 82.9167 74.1484 83.5312V84.3984H67.5234V82.9766H72.1172V82.8203C72.1068 82.4922 72.0443 82.1927 71.9297 81.9219C71.8151 81.6458 71.638 81.4271 71.3984 81.2656C71.1589 81.099 70.849 81.0156 70.4688 81.0156C70.1615 81.0156 69.8932 81.0833 69.6641 81.2188C69.4401 81.349 69.2526 81.5365 69.1016 81.7812C68.9557 82.0208 68.8464 82.3073 68.7734 82.6406C68.7005 82.974 68.6641 83.3438 68.6641 83.75V84.0625C68.6641 84.4167 68.7109 84.7448 68.8047 85.0469C68.9036 85.349 69.0469 85.612 69.2344 85.8359C69.4271 86.0547 69.6562 86.2266 69.9219 86.3516C70.1927 86.4714 70.5 86.5312 70.8438 86.5312C71.276 86.5312 71.6667 86.4479 72.0156 86.2812C72.3698 86.1094 72.6771 85.8568 72.9375 85.5234L73.9766 86.6016C73.7995 86.862 73.5599 87.112 73.2578 87.3516C72.9609 87.5911 72.6016 87.7865 72.1797 87.9375C71.7578 88.0833 71.2708 88.1562 70.7188 88.1562ZM77.5938 81.2734V88H75.5312V79.5469H77.4844L77.5938 81.2734ZM80.1641 79.4922L80.1328 81.4141C80.0182 81.3932 79.888 81.3776 79.7422 81.3672C79.6016 81.3568 79.4688 81.3516 79.3438 81.3516C79.026 81.3516 78.7474 81.3958 78.5078 81.4844C78.2682 81.5677 78.0677 81.6901 77.9062 81.8516C77.75 82.013 77.6302 82.2109 77.5469 82.4453C77.4635 82.6745 77.4167 82.9349 77.4062 83.2266L76.9609 83.1719C76.9609 82.6354 77.0156 82.138 77.125 81.6797C77.2344 81.2214 77.3932 80.8203 77.6016 80.4766C77.8099 80.1328 78.0703 79.8672 78.3828 79.6797C78.7005 79.487 79.0651 79.3906 79.4766 79.3906C79.5911 79.3906 79.7135 79.401 79.8438 79.4219C79.9792 79.4375 80.0859 79.4609 80.1641 79.4922ZM86.375 76.625H88.2344L91.3438 85.1875L94.4453 76.625H96.3125L92.0859 88H90.5938L86.375 76.625ZM85.4375 76.625H87.2578L87.5859 84.4922V88H85.4375V76.625ZM95.4219 76.625H97.25V88H95.1016V84.4922L95.4219 76.625ZM103.938 86.2031V82.3047C103.938 82.0182 103.888 81.7708 103.789 81.5625C103.69 81.3542 103.539 81.1927 103.336 81.0781C103.133 80.9635 102.875 80.9062 102.562 80.9062C102.286 80.9062 102.044 80.9531 101.836 81.0469C101.633 81.1406 101.477 81.2734 101.367 81.4453C101.258 81.612 101.203 81.8047 101.203 82.0234H99.1328C99.1328 81.6745 99.2161 81.3438 99.3828 81.0312C99.5495 80.7135 99.7865 80.4323 100.094 80.1875C100.406 79.9375 100.779 79.7422 101.211 79.6016C101.648 79.4609 102.138 79.3906 102.68 79.3906C103.32 79.3906 103.891 79.5 104.391 79.7188C104.896 79.9323 105.292 80.2552 105.578 80.6875C105.87 81.1198 106.016 81.6641 106.016 82.3203V86.0078C106.016 86.4297 106.042 86.7917 106.094 87.0938C106.151 87.3906 106.234 87.6484 106.344 87.8672V88H104.242C104.143 87.7865 104.068 87.5156 104.016 87.1875C103.964 86.8542 103.938 86.526 103.938 86.2031ZM104.227 82.8516L104.242 84.0781H102.938C102.615 84.0781 102.331 84.112 102.086 84.1797C101.841 84.2422 101.641 84.3359 101.484 84.4609C101.328 84.5807 101.211 84.7266 101.133 84.8984C101.055 85.0651 101.016 85.2552 101.016 85.4688C101.016 85.6771 101.062 85.8646 101.156 86.0312C101.255 86.1979 101.396 86.3307 101.578 86.4297C101.766 86.5234 101.984 86.5703 102.234 86.5703C102.599 86.5703 102.917 86.4974 103.188 86.3516C103.458 86.2005 103.669 86.0182 103.82 85.8047C103.971 85.5911 104.052 85.388 104.062 85.1953L104.656 86.0859C104.583 86.2995 104.474 86.526 104.328 86.7656C104.182 87.0052 103.995 87.2292 103.766 87.4375C103.536 87.6458 103.26 87.8177 102.938 87.9531C102.615 88.0885 102.24 88.1562 101.812 88.1562C101.266 88.1562 100.776 88.0469 100.344 87.8281C99.9115 87.6094 99.5703 87.3099 99.3203 86.9297C99.0703 86.5495 98.9453 86.1172 98.9453 85.6328C98.9453 85.1849 99.0286 84.7891 99.1953 84.4453C99.362 84.1016 99.6094 83.8125 99.9375 83.5781C100.266 83.3385 100.672 83.1589 101.156 83.0391C101.646 82.9141 102.206 82.8516 102.836 82.8516H104.227ZM109.898 81.3516V88H107.836V79.5469H109.773L109.898 81.3516ZM109.57 83.4688H108.961C108.966 82.8542 109.049 82.2969 109.211 81.7969C109.372 81.2969 109.599 80.8672 109.891 80.5078C110.188 80.1484 110.539 79.8724 110.945 79.6797C111.352 79.487 111.805 79.3906 112.305 79.3906C112.711 79.3906 113.078 79.4479 113.406 79.5625C113.734 79.6771 114.016 79.8594 114.25 80.1094C114.49 80.3594 114.672 80.6875 114.797 81.0938C114.927 81.4948 114.992 81.9896 114.992 82.5781V88H112.914V82.5625C112.914 82.1771 112.857 81.8724 112.742 81.6484C112.633 81.4245 112.471 81.2656 112.258 81.1719C112.049 81.0781 111.792 81.0312 111.484 81.0312C111.167 81.0312 110.888 81.0964 110.648 81.2266C110.414 81.3516 110.216 81.526 110.055 81.75C109.898 81.974 109.779 82.2318 109.695 82.5234C109.612 82.8151 109.57 83.1302 109.57 83.4688ZM121.469 86.2031V82.3047C121.469 82.0182 121.419 81.7708 121.32 81.5625C121.221 81.3542 121.07 81.1927 120.867 81.0781C120.664 80.9635 120.406 80.9062 120.094 80.9062C119.818 80.9062 119.576 80.9531 119.367 81.0469C119.164 81.1406 119.008 81.2734 118.898 81.4453C118.789 81.612 118.734 81.8047 118.734 82.0234H116.664C116.664 81.6745 116.747 81.3438 116.914 81.0312C117.081 80.7135 117.318 80.4323 117.625 80.1875C117.938 79.9375 118.31 79.7422 118.742 79.6016C119.18 79.4609 119.669 79.3906 120.211 79.3906C120.852 79.3906 121.422 79.5 121.922 79.7188C122.427 79.9323 122.823 80.2552 123.109 80.6875C123.401 81.1198 123.547 81.6641 123.547 82.3203V86.0078C123.547 86.4297 123.573 86.7917 123.625 87.0938C123.682 87.3906 123.766 87.6484 123.875 87.8672V88H121.773C121.674 87.7865 121.599 87.5156 121.547 87.1875C121.495 86.8542 121.469 86.526 121.469 86.2031ZM121.758 82.8516L121.773 84.0781H120.469C120.146 84.0781 119.862 84.112 119.617 84.1797C119.372 84.2422 119.172 84.3359 119.016 84.4609C118.859 84.5807 118.742 84.7266 118.664 84.8984C118.586 85.0651 118.547 85.2552 118.547 85.4688C118.547 85.6771 118.594 85.8646 118.688 86.0312C118.786 86.1979 118.927 86.3307 119.109 86.4297C119.297 86.5234 119.516 86.5703 119.766 86.5703C120.13 86.5703 120.448 86.4974 120.719 86.3516C120.99 86.2005 121.201 86.0182 121.352 85.8047C121.503 85.5911 121.583 85.388 121.594 85.1953L122.188 86.0859C122.115 86.2995 122.005 86.526 121.859 86.7656C121.714 87.0052 121.526 87.2292 121.297 87.4375C121.068 87.6458 120.792 87.8177 120.469 87.9531C120.146 88.0885 119.771 88.1562 119.344 88.1562C118.797 88.1562 118.307 88.0469 117.875 87.8281C117.443 87.6094 117.102 87.3099 116.852 86.9297C116.602 86.5495 116.477 86.1172 116.477 85.6328C116.477 85.1849 116.56 84.7891 116.727 84.4453C116.893 84.1016 117.141 83.8125 117.469 83.5781C117.797 83.3385 118.203 83.1589 118.688 83.0391C119.177 82.9141 119.737 82.8516 120.367 82.8516H121.758ZM130.781 79.5469H132.656V87.7422C132.656 88.5078 132.49 89.1562 132.156 89.6875C131.828 90.224 131.367 90.6302 130.773 90.9062C130.18 91.1875 129.49 91.3281 128.703 91.3281C128.365 91.3281 127.997 91.2812 127.602 91.1875C127.211 91.0938 126.833 90.9453 126.469 90.7422C126.109 90.5443 125.81 90.2865 125.57 89.9688L126.5 88.75C126.781 89.0781 127.099 89.3255 127.453 89.4922C127.807 89.6641 128.19 89.75 128.602 89.75C129.018 89.75 129.372 89.6719 129.664 89.5156C129.961 89.3646 130.188 89.1406 130.344 88.8438C130.505 88.5521 130.586 88.1927 130.586 87.7656V81.4766L130.781 79.5469ZM125.07 83.875V83.7109C125.07 83.0651 125.148 82.4792 125.305 81.9531C125.461 81.4219 125.685 80.9661 125.977 80.5859C126.273 80.2057 126.63 79.9115 127.047 79.7031C127.469 79.4948 127.943 79.3906 128.469 79.3906C129.026 79.3906 129.495 79.4922 129.875 79.6953C130.26 79.8984 130.578 80.1875 130.828 80.5625C131.083 80.9375 131.281 81.3828 131.422 81.8984C131.568 82.4089 131.68 82.9714 131.758 83.5859V84.0312C131.685 84.6302 131.568 85.1797 131.406 85.6797C131.25 86.1797 131.042 86.6172 130.781 86.9922C130.521 87.362 130.198 87.6484 129.812 87.8516C129.427 88.0547 128.974 88.1562 128.453 88.1562C127.932 88.1562 127.464 88.0495 127.047 87.8359C126.63 87.6224 126.273 87.3229 125.977 86.9375C125.685 86.5521 125.461 86.099 125.305 85.5781C125.148 85.0573 125.07 84.4896 125.07 83.875ZM127.133 83.7109V83.875C127.133 84.2396 127.169 84.5807 127.242 84.8984C127.315 85.2161 127.427 85.4974 127.578 85.7422C127.729 85.9818 127.919 86.1693 128.148 86.3047C128.378 86.4401 128.651 86.5078 128.969 86.5078C129.396 86.5078 129.745 86.4193 130.016 86.2422C130.292 86.0599 130.5 85.8125 130.641 85.5C130.786 85.1823 130.88 84.8255 130.922 84.4297V83.2031C130.896 82.8906 130.839 82.6016 130.75 82.3359C130.667 82.0703 130.549 81.8411 130.398 81.6484C130.247 81.4557 130.055 81.3047 129.82 81.1953C129.586 81.0859 129.307 81.0312 128.984 81.0312C128.672 81.0312 128.398 81.1016 128.164 81.2422C127.93 81.3776 127.737 81.5677 127.586 81.8125C127.435 82.0573 127.32 82.3411 127.242 82.6641C127.169 82.987 127.133 83.3359 127.133 83.7109ZM138.312 88.1562C137.672 88.1562 137.096 88.0521 136.586 87.8438C136.076 87.6354 135.641 87.3464 135.281 86.9766C134.927 86.6016 134.654 86.1667 134.461 85.6719C134.273 85.1719 134.18 84.6354 134.18 84.0625V83.75C134.18 83.099 134.273 82.5078 134.461 81.9766C134.648 81.4401 134.914 80.9792 135.258 80.5938C135.602 80.2083 136.013 79.9115 136.492 79.7031C136.971 79.4948 137.5 79.3906 138.078 79.3906C138.677 79.3906 139.206 79.4922 139.664 79.6953C140.122 79.8932 140.505 80.1745 140.812 80.5391C141.12 80.9036 141.352 81.3411 141.508 81.8516C141.664 82.3568 141.742 82.9167 141.742 83.5312V84.3984H135.117V82.9766H139.711V82.8203C139.701 82.4922 139.638 82.1927 139.523 81.9219C139.409 81.6458 139.232 81.4271 138.992 81.2656C138.753 81.099 138.443 81.0156 138.062 81.0156C137.755 81.0156 137.487 81.0833 137.258 81.2188C137.034 81.349 136.846 81.5365 136.695 81.7812C136.549 82.0208 136.44 82.3073 136.367 82.6406C136.294 82.974 136.258 83.3438 136.258 83.75V84.0625C136.258 84.4167 136.305 84.7448 136.398 85.0469C136.497 85.349 136.641 85.612 136.828 85.8359C137.021 86.0547 137.25 86.2266 137.516 86.3516C137.786 86.4714 138.094 86.5312 138.438 86.5312C138.87 86.5312 139.26 86.4479 139.609 86.2812C139.964 86.1094 140.271 85.8568 140.531 85.5234L141.57 86.6016C141.393 86.862 141.154 87.112 140.852 87.3516C140.555 87.5911 140.195 87.7865 139.773 87.9375C139.352 88.0833 138.865 88.1562 138.312 88.1562ZM145.18 81.2812V88H143.117V79.5469H145.062L145.18 81.2812ZM144.875 83.4688H144.242C144.242 82.8802 144.312 82.3385 144.453 81.8438C144.599 81.349 144.812 80.9193 145.094 80.5547C145.375 80.1849 145.721 79.8984 146.133 79.6953C146.549 79.4922 147.031 79.3906 147.578 79.3906C147.958 79.3906 148.307 79.4479 148.625 79.5625C148.943 79.6719 149.216 79.8464 149.445 80.0859C149.68 80.3203 149.859 80.6276 149.984 81.0078C150.109 81.3828 150.172 81.8333 150.172 82.3594V88H148.109V82.5703C148.109 82.1745 148.052 81.8646 147.938 81.6406C147.828 81.4167 147.669 81.2604 147.461 81.1719C147.253 81.0781 147.003 81.0312 146.711 81.0312C146.388 81.0312 146.109 81.0964 145.875 81.2266C145.646 81.3516 145.456 81.526 145.305 81.75C145.159 81.974 145.049 82.2318 144.977 82.5234C144.909 82.8151 144.875 83.1302 144.875 83.4688ZM150.016 83.0859L149.164 83.2422C149.169 82.7109 149.242 82.2135 149.383 81.75C149.523 81.2812 149.729 80.8724 150 80.5234C150.276 80.1693 150.617 79.8932 151.023 79.6953C151.435 79.4922 151.909 79.3906 152.445 79.3906C152.862 79.3906 153.237 79.4505 153.57 79.5703C153.909 79.6849 154.198 79.8698 154.438 80.125C154.677 80.375 154.859 80.7005 154.984 81.1016C155.115 81.5026 155.18 81.9922 155.18 82.5703V88H153.102V82.5625C153.102 82.151 153.044 81.8359 152.93 81.6172C152.82 81.3984 152.661 81.2474 152.453 81.1641C152.245 81.0755 152 81.0312 151.719 81.0312C151.432 81.0312 151.182 81.0859 150.969 81.1953C150.76 81.2995 150.583 81.4453 150.438 81.6328C150.297 81.8203 150.19 82.0391 150.117 82.2891C150.049 82.5339 150.016 82.7995 150.016 83.0859ZM160.828 88.1562C160.188 88.1562 159.612 88.0521 159.102 87.8438C158.591 87.6354 158.156 87.3464 157.797 86.9766C157.443 86.6016 157.169 86.1667 156.977 85.6719C156.789 85.1719 156.695 84.6354 156.695 84.0625V83.75C156.695 83.099 156.789 82.5078 156.977 81.9766C157.164 81.4401 157.43 80.9792 157.773 80.5938C158.117 80.2083 158.529 79.9115 159.008 79.7031C159.487 79.4948 160.016 79.3906 160.594 79.3906C161.193 79.3906 161.721 79.4922 162.18 79.6953C162.638 79.8932 163.021 80.1745 163.328 80.5391C163.635 80.9036 163.867 81.3411 164.023 81.8516C164.18 82.3568 164.258 82.9167 164.258 83.5312V84.3984H157.633V82.9766H162.227V82.8203C162.216 82.4922 162.154 82.1927 162.039 81.9219C161.924 81.6458 161.747 81.4271 161.508 81.2656C161.268 81.099 160.958 81.0156 160.578 81.0156C160.271 81.0156 160.003 81.0833 159.773 81.2188C159.549 81.349 159.362 81.5365 159.211 81.7812C159.065 82.0208 158.956 82.3073 158.883 82.6406C158.81 82.974 158.773 83.3438 158.773 83.75V84.0625C158.773 84.4167 158.82 84.7448 158.914 85.0469C159.013 85.349 159.156 85.612 159.344 85.8359C159.536 86.0547 159.766 86.2266 160.031 86.3516C160.302 86.4714 160.609 86.5312 160.953 86.5312C161.385 86.5312 161.776 86.4479 162.125 86.2812C162.479 86.1094 162.786 85.8568 163.047 85.5234L164.086 86.6016C163.909 86.862 163.669 87.112 163.367 87.3516C163.07 87.5911 162.711 87.7865 162.289 87.9375C161.867 88.0833 161.38 88.1562 160.828 88.1562ZM167.664 81.3516V88H165.602V79.5469H167.539L167.664 81.3516ZM167.336 83.4688H166.727C166.732 82.8542 166.815 82.2969 166.977 81.7969C167.138 81.2969 167.365 80.8672 167.656 80.5078C167.953 80.1484 168.305 79.8724 168.711 79.6797C169.117 79.487 169.57 79.3906 170.07 79.3906C170.477 79.3906 170.844 79.4479 171.172 79.5625C171.5 79.6771 171.781 79.8594 172.016 80.1094C172.255 80.3594 172.438 80.6875 172.562 81.0938C172.693 81.4948 172.758 81.9896 172.758 82.5781V88H170.68V82.5625C170.68 82.1771 170.622 81.8724 170.508 81.6484C170.398 81.4245 170.237 81.2656 170.023 81.1719C169.815 81.0781 169.557 81.0312 169.25 81.0312C168.932 81.0312 168.654 81.0964 168.414 81.2266C168.18 81.3516 167.982 81.526 167.82 81.75C167.664 81.974 167.544 82.2318 167.461 82.5234C167.378 82.8151 167.336 83.1302 167.336 83.4688ZM178.578 79.5469V81.0312H173.734V79.5469H178.578ZM175.031 77.4688H177.102V85.5625C177.102 85.8125 177.135 86.0052 177.203 86.1406C177.271 86.276 177.372 86.3672 177.508 86.4141C177.643 86.4609 177.805 86.4844 177.992 86.4844C178.128 86.4844 178.253 86.4766 178.367 86.4609C178.482 86.4453 178.578 86.4297 178.656 86.4141L178.664 87.9609C178.492 88.0182 178.297 88.0651 178.078 88.1016C177.865 88.138 177.622 88.1562 177.352 88.1562C176.888 88.1562 176.482 88.0781 176.133 87.9219C175.784 87.7604 175.513 87.5026 175.32 87.1484C175.128 86.7891 175.031 86.3151 175.031 85.7266V77.4688Z" fill="black"/>
<g clip-path="url(#clip0_301_3637)">
<path d="M86.6142 35.0683C88.2072 28.7709 90.4347 22.6058 92.3852 16.3965C92.975 15.1247 93.757 14.944 95.0574 14.6354C101.041 13.2093 107.538 12.6604 113.568 11.2872C114.305 11.1792 115.094 11.3291 115.666 11.8074C119.578 16.52 125.955 20.8843 129.625 25.5881C130.466 26.6659 130.557 27.347 130.3 28.6894L127.007 39.1064L126.685 39.4503C122.244 40.041 119.893 35.8971 115.711 35.1256C109.138 33.9133 108.331 37.1028 103.644 38.9808C98.4958 41.0417 96.6548 38.1344 92.9393 36.2123C91.1117 35.2667 88.616 34.7333 86.6119 35.0705L86.6142 35.0683ZM105.882 25.3169C106.235 25.6608 108.738 26.3882 109.269 26.0135C109.765 25.663 110.55 23.0863 110.188 22.5C109.935 22.09 107.158 21.2634 106.635 21.6359C106.112 22.0084 105.299 24.7505 105.882 25.3169ZM112.243 23.1987C111.597 23.3861 110.762 26.0531 111.077 26.6902C111.361 27.2655 113.885 27.9995 114.544 27.6821C115.203 27.3646 115.878 24.9378 115.55 24.2655C115.291 23.7343 112.79 23.04 112.245 23.1987H112.243ZM105.317 26.5028C104.586 26.7012 103.865 29.4476 104.075 30.0714C104.222 30.51 106.955 31.3124 107.33 31.1603C108.123 30.8407 108.927 28.3874 108.706 27.7217C108.559 27.2765 105.795 26.3728 105.319 26.5006L105.317 26.5028ZM110.677 28.275C109.955 28.4888 109.167 31.0875 109.511 31.7664C109.761 32.258 112.395 33.0515 112.978 32.7605C113.481 32.5093 114.276 29.9259 113.986 29.3374C113.695 28.7489 111.343 28.0766 110.677 28.275Z" fill="black"/>
<path d="M105.607 7.51663L115.782 5.52845L116.788 5.63204C123.861 12.2028 130.486 19.3091 137.383 26.087C137.64 26.5896 137.579 27.0988 137.499 27.63C137.396 28.3177 135.146 35.3006 134.878 35.6268L130.626 38.3732L133.873 27.3588C128.73 21.8506 123.184 16.7324 117.885 11.3784C116.98 10.4637 116.43 8.96259 114.909 9.07721C111.414 9.3373 107.192 10.9927 103.673 11.2417C99.6801 11.5239 102.41 6.96118 102.893 4.97519C102.853 4.58505 99.8119 3.94803 99.26 3.75407C98.8154 3.8268 97.1576 11.3343 96.3421 12.1543C95.1915 13.393 91.438 13.1704 89.8494 13.9044L83.6606 33.3675C82.7781 34.7517 80.6555 34.4079 80.4768 32.6754L86.9784 11.7245C87.7492 10.0581 92.0256 10.3138 93.7169 9.67675L96.7867 0.47201C97.3028 -0.107695 98.268 -0.0305476 98.9606 0.0774583C99.613 0.178851 105.867 2.2001 106.171 2.44036C107.585 3.55348 105.791 6.12578 105.605 7.51663H105.607Z" fill="black"/>
<path d="M140.395 40.072C139.854 40.493 137.653 40.5371 136.762 40.7884C134.628 41.3923 133.14 43.1997 131.156 44.0748C129.172 44.9499 127.047 45.1637 124.936 44.9851C118.597 44.4451 116.368 37.5063 108.885 41.7207C104.904 43.9624 103.916 45.5781 98.592 44.9653C94.2062 44.4605 91.887 40.3387 87.3962 40.3629C82.2418 40.3894 80.5572 45.5582 73.3116 44.9984C69.0733 44.6699 67.735 41.994 64.4886 40.9184C62.909 40.3938 59.8615 40.839 60.0045 38.7054C60.1207 36.9729 62.384 37.1845 63.6508 37.3366C68.8454 37.9604 69.7346 42.4084 76.225 41.6833C78.7922 41.3967 81.0756 38.5886 83.6606 37.7774C86.431 36.909 89.9812 37.0412 92.6199 38.291C94.6664 39.2586 96.3868 41.3504 98.8087 41.6634C105.612 42.5407 107.02 36.6004 114.884 37.266C120.242 37.7179 121.321 42.263 127.621 41.6921C131.795 41.3129 133.752 36.7635 139.242 37.266C140.982 37.4247 141.552 39.1749 140.397 40.0742L140.395 40.072Z" fill="black"/>
<path d="M60.3172 45.7131C60.6055 45.3604 61.2489 45.237 61.6868 45.1951C68.4275 44.5471 71.2494 52.8569 78.9485 48.5587C83.0908 46.2465 83.6047 44.708 89.1791 45.215C93.3906 45.5985 95.5824 49.2949 99.2265 49.63C105.909 50.2428 107.214 44.3068 115.297 45.237C119.125 45.6779 121.692 49.3016 124.703 49.6234C130.772 50.2692 131.022 47.0819 135.647 45.647C136.992 45.2304 140.077 44.5603 140.734 46.1518C141.748 48.605 138.2 48.3229 136.762 48.7307C133.482 49.6586 132.072 52.5373 127.831 52.9253C121.388 53.5138 121.059 50.7629 116.484 48.918C110.063 46.3303 107.533 52.447 101.914 52.9253C95.3277 53.4851 95.2004 50.6571 90.5643 48.9202C83.9331 46.4339 81.8128 52.4293 75.9971 52.9253C68.8677 53.5336 68.5392 49.7226 63.6463 48.5852C62.8419 48.3978 61.488 48.4111 60.925 48.184C60.0581 47.8336 59.7073 46.467 60.3172 45.7175V45.7131Z" fill="black"/>
<path d="M75.2129 25.3615C75.0007 25.6657 71.0863 25.6502 70.4071 25.5995C67.9963 25.4188 61.4567 23.6224 64.3769 20.294C66.868 17.455 71.2695 20.8561 73.3138 22.7319C73.7473 23.1286 75.6307 24.7641 75.2129 25.3615Z" fill="black"/>
<path d="M76.082 31.5679C76.7501 32.6325 74.3013 33.0756 73.6668 33.2056C71.5532 33.6399 66.2804 33.9683 64.6606 32.432C63.9658 31.7729 63.8786 30.5716 64.397 29.7891C65.7353 27.7701 70.9924 29.5224 72.8781 30.2145C73.316 30.3754 75.9904 31.4202 76.0843 31.5679H76.082Z" fill="black"/>
<path d="M79.6256 17.0576C80.7047 17.9348 81.0555 23.6878 80.8053 25.0368C80.4701 26.8376 78.5219 24.0493 78.0058 23.6107C76.1469 22.0303 73.8635 22.1934 75.3984 19.0414C75.9816 17.8445 78.323 15.9974 79.6256 17.0554V17.0576Z" fill="black"/>
</g>
<defs>
<clipPath id="clip0_301_3637">
<rect width="81" height="53" fill="white" transform="translate(60)"/>
</clipPath>
</defs>
</svg>
