<svg width="198" height="100" viewBox="0 0 198 100" fill="none" xmlns="http://www.w3.org/2000/svg">
<path d="M2.48438 77.625H4.34375L7.45312 86.1875L10.5547 77.625H12.4219L8.19531 89H6.70312L2.48438 77.625ZM1.54688 77.625H3.36719L3.69531 85.4922V89H1.54688V77.625ZM11.5312 77.625H13.3594V89H11.2109V85.4922L11.5312 77.625ZM20.4219 86.9922V80.5469H22.5V89H20.5469L20.4219 86.9922ZM20.6875 85.2422L21.3281 85.2266C21.3281 85.7943 21.2656 86.3177 21.1406 86.7969C21.0156 87.276 20.8203 87.6927 20.5547 88.0469C20.2943 88.3958 19.9635 88.6693 19.5625 88.8672C19.1615 89.0599 18.6875 89.1562 18.1406 89.1562C17.724 89.1562 17.3438 89.099 17 88.9844C16.6562 88.8646 16.3594 88.6797 16.1094 88.4297C15.8646 88.1745 15.6745 87.849 15.5391 87.4531C15.4036 87.0521 15.3359 86.5703 15.3359 86.0078V80.5469H17.3984V86.0234C17.3984 86.3047 17.4297 86.5391 17.4922 86.7266C17.5599 86.9141 17.651 87.0677 17.7656 87.1875C17.8854 87.3021 18.0234 87.3854 18.1797 87.4375C18.3411 87.4844 18.513 87.5078 18.6953 87.5078C19.1953 87.5078 19.5885 87.4089 19.875 87.2109C20.1667 87.0078 20.375 86.737 20.5 86.3984C20.625 86.0547 20.6875 85.6693 20.6875 85.2422ZM26.3516 82.3516V89H24.2891V80.5469H26.2266L26.3516 82.3516ZM26.0234 84.4688H25.4141C25.4193 83.8542 25.5026 83.2969 25.6641 82.7969C25.8255 82.2969 26.0521 81.8672 26.3438 81.5078C26.6406 81.1484 26.9922 80.8724 27.3984 80.6797C27.8047 80.487 28.2578 80.3906 28.7578 80.3906C29.1641 80.3906 29.5312 80.4479 29.8594 80.5625C30.1875 80.6771 30.4688 80.8594 30.7031 81.1094C30.9427 81.3594 31.125 81.6875 31.25 82.0938C31.3802 82.4948 31.4453 82.9896 31.4453 83.5781V89H29.3672V83.5625C29.3672 83.1771 29.3099 82.8724 29.1953 82.6484C29.0859 82.4245 28.9245 82.2656 28.7109 82.1719C28.5026 82.0781 28.2448 82.0312 27.9375 82.0312C27.6198 82.0312 27.3411 82.0964 27.1016 82.2266C26.8672 82.3516 26.6693 82.526 26.5078 82.75C26.3516 82.974 26.2318 83.2318 26.1484 83.5234C26.0651 83.8151 26.0234 84.1302 26.0234 84.4688ZM35.4531 80.5469V89H33.3828V80.5469H35.4531ZM33.2422 78.3359C33.2422 78.0286 33.3464 77.7734 33.5547 77.5703C33.7682 77.3672 34.0547 77.2656 34.4141 77.2656C34.7734 77.2656 35.0573 77.3672 35.2656 77.5703C35.4792 77.7734 35.5859 78.0286 35.5859 78.3359C35.5859 78.638 35.4792 78.8906 35.2656 79.0938C35.0573 79.2969 34.7734 79.3984 34.4141 79.3984C34.0547 79.3984 33.7682 79.2969 33.5547 79.0938C33.3464 78.8906 33.2422 78.638 33.2422 78.3359ZM40.8906 87.5312C41.1823 87.5312 41.4427 87.474 41.6719 87.3594C41.901 87.2448 42.0833 87.0833 42.2188 86.875C42.3594 86.6667 42.4349 86.4245 42.4453 86.1484H44.3906C44.3802 86.7214 44.2188 87.2344 43.9062 87.6875C43.5938 88.1406 43.1771 88.5 42.6562 88.7656C42.1406 89.026 41.5625 89.1562 40.9219 89.1562C40.2708 89.1562 39.7031 89.0469 39.2188 88.8281C38.7344 88.6094 38.3307 88.3047 38.0078 87.9141C37.6901 87.5234 37.4505 87.0703 37.2891 86.5547C37.1328 86.0391 37.0547 85.487 37.0547 84.8984V84.6484C37.0547 84.0599 37.1328 83.5078 37.2891 82.9922C37.4505 82.4766 37.6901 82.0234 38.0078 81.6328C38.3307 81.2422 38.7344 80.9375 39.2188 80.7188C39.7031 80.5 40.2682 80.3906 40.9141 80.3906C41.5964 80.3906 42.1953 80.5234 42.7109 80.7891C43.2318 81.0547 43.638 81.4297 43.9297 81.9141C44.2266 82.3984 44.3802 82.9688 44.3906 83.625H42.4453C42.4349 83.3229 42.3672 83.0521 42.2422 82.8125C42.1172 82.5729 41.9401 82.3802 41.7109 82.2344C41.4818 82.0885 41.2031 82.0156 40.875 82.0156C40.526 82.0156 40.2344 82.0885 40 82.2344C39.7708 82.3802 39.5911 82.5807 39.4609 82.8359C39.3359 83.0859 39.2474 83.3672 39.1953 83.6797C39.1484 83.987 39.125 84.3099 39.125 84.6484V84.8984C39.125 85.2422 39.1484 85.5703 39.1953 85.8828C39.2474 86.1953 39.3359 86.4766 39.4609 86.7266C39.5911 86.9714 39.7708 87.1667 40 87.3125C40.2344 87.4583 40.5312 87.5312 40.8906 87.5312ZM47.9531 80.5469V89H45.8828V80.5469H47.9531ZM45.7422 78.3359C45.7422 78.0286 45.8464 77.7734 46.0547 77.5703C46.2682 77.3672 46.5547 77.2656 46.9141 77.2656C47.2734 77.2656 47.5573 77.3672 47.7656 77.5703C47.9792 77.7734 48.0859 78.0286 48.0859 78.3359C48.0859 78.638 47.9792 78.8906 47.7656 79.0938C47.5573 79.2969 47.2734 79.3984 46.9141 79.3984C46.5547 79.3984 46.2682 79.2969 46.0547 79.0938C45.8464 78.8906 45.7422 78.638 45.7422 78.3359ZM51.9844 82.1719V92.25H49.9141V80.5469H51.8281L51.9844 82.1719ZM57.4141 84.6875V84.8516C57.4141 85.4661 57.3411 86.0365 57.1953 86.5625C57.0547 87.0833 56.8464 87.5391 56.5703 87.9297C56.2943 88.3151 55.9505 88.6172 55.5391 88.8359C55.1328 89.0495 54.6641 89.1562 54.1328 89.1562C53.612 89.1562 53.1589 89.0573 52.7734 88.8594C52.388 88.6562 52.0625 88.3698 51.7969 88C51.5312 87.6302 51.3177 87.2005 51.1562 86.7109C51 86.2161 50.8828 85.6771 50.8047 85.0938V84.5703C50.8828 83.9505 51 83.388 51.1562 82.8828C51.3177 82.3724 51.5312 81.9323 51.7969 81.5625C52.0625 81.1875 52.3854 80.8984 52.7656 80.6953C53.151 80.4922 53.6016 80.3906 54.1172 80.3906C54.6536 80.3906 55.125 80.4922 55.5312 80.6953C55.9427 80.8984 56.2891 81.1901 56.5703 81.5703C56.8516 81.9505 57.0625 82.4036 57.2031 82.9297C57.3438 83.4557 57.4141 84.0417 57.4141 84.6875ZM55.3438 84.8516V84.6875C55.3438 84.3125 55.3099 83.9661 55.2422 83.6484C55.1745 83.3255 55.0703 83.0443 54.9297 82.8047C54.7891 82.5599 54.6068 82.3698 54.3828 82.2344C54.1589 82.099 53.888 82.0312 53.5703 82.0312C53.2526 82.0312 52.9792 82.0833 52.75 82.1875C52.5208 82.2917 52.3333 82.4401 52.1875 82.6328C52.0417 82.8255 51.9271 83.0547 51.8438 83.3203C51.7656 83.5807 51.7135 83.8698 51.6875 84.1875V85.4844C51.7344 85.8698 51.8255 86.2161 51.9609 86.5234C52.0964 86.8307 52.2943 87.0755 52.5547 87.2578C52.8203 87.4401 53.1641 87.5312 53.5859 87.5312C53.9036 87.5312 54.1745 87.4609 54.3984 87.3203C54.6224 87.1797 54.8047 86.987 54.9453 86.7422C55.0859 86.4922 55.1875 86.2057 55.25 85.8828C55.3125 85.5599 55.3438 85.2161 55.3438 84.8516ZM63.5781 87.2031V83.3047C63.5781 83.0182 63.5286 82.7708 63.4297 82.5625C63.3307 82.3542 63.1797 82.1927 62.9766 82.0781C62.7734 81.9635 62.5156 81.9062 62.2031 81.9062C61.9271 81.9062 61.6849 81.9531 61.4766 82.0469C61.2734 82.1406 61.1172 82.2734 61.0078 82.4453C60.8984 82.612 60.8438 82.8047 60.8438 83.0234H58.7734C58.7734 82.6745 58.8568 82.3438 59.0234 82.0312C59.1901 81.7135 59.4271 81.4323 59.7344 81.1875C60.0469 80.9375 60.4193 80.7422 60.8516 80.6016C61.2891 80.4609 61.7786 80.3906 62.3203 80.3906C62.9609 80.3906 63.5312 80.5 64.0312 80.7188C64.5365 80.9323 64.9323 81.2552 65.2188 81.6875C65.5104 82.1198 65.6562 82.6641 65.6562 83.3203V87.0078C65.6562 87.4297 65.6823 87.7917 65.7344 88.0938C65.7917 88.3906 65.875 88.6484 65.9844 88.8672V89H63.8828C63.7839 88.7865 63.7083 88.5156 63.6562 88.1875C63.6042 87.8542 63.5781 87.526 63.5781 87.2031ZM63.8672 83.8516L63.8828 85.0781H62.5781C62.2552 85.0781 61.9714 85.112 61.7266 85.1797C61.4818 85.2422 61.2812 85.3359 61.125 85.4609C60.9688 85.5807 60.8516 85.7266 60.7734 85.8984C60.6953 86.0651 60.6562 86.2552 60.6562 86.4688C60.6562 86.6771 60.7031 86.8646 60.7969 87.0312C60.8958 87.1979 61.0365 87.3307 61.2188 87.4297C61.4062 87.5234 61.625 87.5703 61.875 87.5703C62.2396 87.5703 62.5573 87.4974 62.8281 87.3516C63.099 87.2005 63.3099 87.0182 63.4609 86.8047C63.612 86.5911 63.6927 86.388 63.7031 86.1953L64.2969 87.0859C64.224 87.2995 64.1146 87.526 63.9688 87.7656C63.8229 88.0052 63.6354 88.2292 63.4062 88.4375C63.1771 88.6458 62.901 88.8177 62.5781 88.9531C62.2552 89.0885 61.8802 89.1562 61.4531 89.1562C60.9062 89.1562 60.4167 89.0469 59.9844 88.8281C59.5521 88.6094 59.2109 88.3099 58.9609 87.9297C58.7109 87.5495 58.5859 87.1172 58.5859 86.6328C58.5859 86.1849 58.6693 85.7891 58.8359 85.4453C59.0026 85.1016 59.25 84.8125 59.5781 84.5781C59.9062 84.3385 60.3125 84.1589 60.7969 84.0391C61.2865 83.9141 61.8464 83.8516 62.4766 83.8516H63.8672ZM69.7031 77V89H67.6328V77H69.7031ZM77.5156 82.8594L79.5859 81.5C79.9141 81.2812 80.1406 81.0703 80.2656 80.8672C80.3906 80.6641 80.4531 80.4193 80.4531 80.1328C80.4531 79.8776 80.3542 79.6406 80.1562 79.4219C79.9635 79.1979 79.6901 79.0859 79.3359 79.0859C79.0859 79.0859 78.875 79.1432 78.7031 79.2578C78.5312 79.3724 78.401 79.526 78.3125 79.7188C78.2292 79.9062 78.1875 80.1146 78.1875 80.3438C78.1875 80.5781 78.2474 80.8177 78.3672 81.0625C78.4922 81.3073 78.6589 81.5651 78.8672 81.8359C79.0807 82.1016 79.3177 82.3906 79.5781 82.7031L84.9453 89H82.5859L78.1953 83.8906C77.8255 83.4323 77.4974 83.0104 77.2109 82.625C76.9245 82.2396 76.7005 81.8672 76.5391 81.5078C76.3828 81.1432 76.3047 80.7682 76.3047 80.3828C76.3047 79.7891 76.4297 79.2734 76.6797 78.8359C76.9297 78.3984 77.2812 78.0599 77.7344 77.8203C78.1927 77.5807 78.7292 77.4609 79.3438 77.4609C79.9271 77.4609 80.4297 77.5807 80.8516 77.8203C81.2786 78.0547 81.6094 78.3672 81.8438 78.7578C82.0781 79.1484 82.1953 79.5755 82.1953 80.0391C82.1953 80.3932 82.1302 80.7214 82 81.0234C81.8698 81.3203 81.6901 81.5938 81.4609 81.8438C81.2318 82.0885 80.9661 82.3203 80.6641 82.5391L78.2266 84.2891C77.9922 84.487 77.8151 84.6823 77.6953 84.875C77.5807 85.0625 77.5026 85.237 77.4609 85.3984C77.4245 85.5599 77.4062 85.7109 77.4062 85.8516C77.4062 86.1693 77.474 86.4557 77.6094 86.7109C77.75 86.9609 77.9479 87.1615 78.2031 87.3125C78.4635 87.4583 78.7708 87.5312 79.125 87.5312C79.5573 87.5312 79.974 87.4349 80.375 87.2422C80.776 87.0495 81.1354 86.776 81.4531 86.4219C81.776 86.0677 82.0312 85.6458 82.2188 85.1562C82.4115 84.6615 82.5078 84.1172 82.5078 83.5234H84.2734C84.2734 84.0911 84.2188 84.6302 84.1094 85.1406C84 85.6458 83.8229 86.1146 83.5781 86.5469C83.3333 86.9792 83.013 87.3646 82.6172 87.7031C82.5807 87.7344 82.5365 87.776 82.4844 87.8281C82.4375 87.8802 82.3958 87.9219 82.3594 87.9531C81.8854 88.3594 81.3724 88.6641 80.8203 88.8672C80.2734 89.0651 79.6771 89.1641 79.0312 89.1641C78.2708 89.1641 77.6146 89.026 77.0625 88.75C76.5104 88.474 76.0833 88.0938 75.7812 87.6094C75.4844 87.125 75.3359 86.5703 75.3359 85.9453C75.3359 85.4818 75.4271 85.0781 75.6094 84.7344C75.7969 84.3854 76.0547 84.0625 76.3828 83.7656C76.7109 83.4635 77.0885 83.1615 77.5156 82.8594ZM96.5156 77.625H98.6641V85.1797C98.6641 86.0495 98.4766 86.7812 98.1016 87.375C97.7266 87.9635 97.2161 88.4089 96.5703 88.7109C95.9245 89.0078 95.1901 89.1562 94.3672 89.1562C93.5339 89.1562 92.7917 89.0078 92.1406 88.7109C91.4896 88.4089 90.9792 87.9635 90.6094 87.375C90.2396 86.7812 90.0547 86.0495 90.0547 85.1797V77.625H92.2031V85.1797C92.2031 85.7109 92.2917 86.1458 92.4688 86.4844C92.6458 86.8177 92.8958 87.0651 93.2188 87.2266C93.5417 87.388 93.9245 87.4688 94.3672 87.4688C94.8151 87.4688 95.1979 87.388 95.5156 87.2266C95.8385 87.0651 96.0859 86.8177 96.2578 86.4844C96.4297 86.1458 96.5156 85.7109 96.5156 85.1797V77.625ZM102.609 82.2734V89H100.547V80.5469H102.5L102.609 82.2734ZM105.18 80.4922L105.148 82.4141C105.034 82.3932 104.904 82.3776 104.758 82.3672C104.617 82.3568 104.484 82.3516 104.359 82.3516C104.042 82.3516 103.763 82.3958 103.523 82.4844C103.284 82.5677 103.083 82.6901 102.922 82.8516C102.766 83.013 102.646 83.2109 102.562 83.4453C102.479 83.6745 102.432 83.9349 102.422 84.2266L101.977 84.1719C101.977 83.6354 102.031 83.138 102.141 82.6797C102.25 82.2214 102.409 81.8203 102.617 81.4766C102.826 81.1328 103.086 80.8672 103.398 80.6797C103.716 80.487 104.081 80.3906 104.492 80.3906C104.607 80.3906 104.729 80.401 104.859 80.4219C104.995 80.4375 105.102 80.4609 105.18 80.4922ZM106.305 77H108.375V87.1328L108.172 89H106.305V77ZM113.812 84.6875V84.8516C113.812 85.4818 113.742 86.0599 113.602 86.5859C113.466 87.112 113.26 87.5677 112.984 87.9531C112.708 88.3333 112.365 88.6302 111.953 88.8438C111.547 89.0521 111.07 89.1562 110.523 89.1562C110.003 89.1562 109.549 89.0547 109.164 88.8516C108.784 88.6484 108.464 88.362 108.203 87.9922C107.943 87.6172 107.734 87.1771 107.578 86.6719C107.422 86.1615 107.305 85.6042 107.227 85V84.5547C107.305 83.9453 107.422 83.388 107.578 82.8828C107.734 82.3776 107.943 81.9375 108.203 81.5625C108.464 81.1875 108.784 80.8984 109.164 80.6953C109.544 80.4922 109.992 80.3906 110.508 80.3906C111.06 80.3906 111.542 80.4974 111.953 80.7109C112.37 80.9193 112.714 81.2161 112.984 81.6016C113.26 81.9818 113.466 82.4349 113.602 82.9609C113.742 83.4818 113.812 84.0573 113.812 84.6875ZM111.742 84.8516V84.6875C111.742 84.3281 111.714 83.9896 111.656 83.6719C111.599 83.349 111.505 83.0651 111.375 82.8203C111.245 82.5755 111.068 82.3828 110.844 82.2422C110.62 82.1016 110.339 82.0312 110 82.0312C109.677 82.0312 109.401 82.0859 109.172 82.1953C108.948 82.3047 108.76 82.4557 108.609 82.6484C108.464 82.8411 108.349 83.0677 108.266 83.3281C108.188 83.5885 108.135 83.8698 108.109 84.1719V85.3906C108.146 85.7917 108.232 86.1536 108.367 86.4766C108.503 86.7943 108.703 87.0469 108.969 87.2344C109.24 87.4219 109.589 87.5156 110.016 87.5156C110.349 87.5156 110.628 87.4505 110.852 87.3203C111.076 87.1849 111.253 86.9974 111.383 86.7578C111.513 86.513 111.604 86.2292 111.656 85.9062C111.714 85.5833 111.742 85.2318 111.742 84.8516ZM119.969 87.2031V83.3047C119.969 83.0182 119.919 82.7708 119.82 82.5625C119.721 82.3542 119.57 82.1927 119.367 82.0781C119.164 81.9635 118.906 81.9062 118.594 81.9062C118.318 81.9062 118.076 81.9531 117.867 82.0469C117.664 82.1406 117.508 82.2734 117.398 82.4453C117.289 82.612 117.234 82.8047 117.234 83.0234H115.164C115.164 82.6745 115.247 82.3438 115.414 82.0312C115.581 81.7135 115.818 81.4323 116.125 81.1875C116.438 80.9375 116.81 80.7422 117.242 80.6016C117.68 80.4609 118.169 80.3906 118.711 80.3906C119.352 80.3906 119.922 80.5 120.422 80.7188C120.927 80.9323 121.323 81.2552 121.609 81.6875C121.901 82.1198 122.047 82.6641 122.047 83.3203V87.0078C122.047 87.4297 122.073 87.7917 122.125 88.0938C122.182 88.3906 122.266 88.6484 122.375 88.8672V89H120.273C120.174 88.7865 120.099 88.5156 120.047 88.1875C119.995 87.8542 119.969 87.526 119.969 87.2031ZM120.258 83.8516L120.273 85.0781H118.969C118.646 85.0781 118.362 85.112 118.117 85.1797C117.872 85.2422 117.672 85.3359 117.516 85.4609C117.359 85.5807 117.242 85.7266 117.164 85.8984C117.086 86.0651 117.047 86.2552 117.047 86.4688C117.047 86.6771 117.094 86.8646 117.188 87.0312C117.286 87.1979 117.427 87.3307 117.609 87.4297C117.797 87.5234 118.016 87.5703 118.266 87.5703C118.63 87.5703 118.948 87.4974 119.219 87.3516C119.49 87.2005 119.701 87.0182 119.852 86.8047C120.003 86.5911 120.083 86.388 120.094 86.1953L120.688 87.0859C120.615 87.2995 120.505 87.526 120.359 87.7656C120.214 88.0052 120.026 88.2292 119.797 88.4375C119.568 88.6458 119.292 88.8177 118.969 88.9531C118.646 89.0885 118.271 89.1562 117.844 89.1562C117.297 89.1562 116.807 89.0469 116.375 88.8281C115.943 88.6094 115.602 88.3099 115.352 87.9297C115.102 87.5495 114.977 87.1172 114.977 86.6328C114.977 86.1849 115.06 85.7891 115.227 85.4453C115.393 85.1016 115.641 84.8125 115.969 84.5781C116.297 84.3385 116.703 84.1589 117.188 84.0391C117.677 83.9141 118.237 83.8516 118.867 83.8516H120.258ZM125.93 82.3516V89H123.867V80.5469H125.805L125.93 82.3516ZM125.602 84.4688H124.992C124.997 83.8542 125.081 83.2969 125.242 82.7969C125.404 82.2969 125.63 81.8672 125.922 81.5078C126.219 81.1484 126.57 80.8724 126.977 80.6797C127.383 80.487 127.836 80.3906 128.336 80.3906C128.742 80.3906 129.109 80.4479 129.438 80.5625C129.766 80.6771 130.047 80.8594 130.281 81.1094C130.521 81.3594 130.703 81.6875 130.828 82.0938C130.958 82.4948 131.023 82.9896 131.023 83.5781V89H128.945V83.5625C128.945 83.1771 128.888 82.8724 128.773 82.6484C128.664 82.4245 128.503 82.2656 128.289 82.1719C128.081 82.0781 127.823 82.0312 127.516 82.0312C127.198 82.0312 126.919 82.0964 126.68 82.2266C126.445 82.3516 126.247 82.526 126.086 82.75C125.93 82.974 125.81 83.2318 125.727 83.5234C125.643 83.8151 125.602 84.1302 125.602 84.4688ZM142.938 86.0469C142.938 85.8281 142.904 85.6328 142.836 85.4609C142.773 85.2839 142.656 85.125 142.484 84.9844C142.318 84.8385 142.081 84.6979 141.773 84.5625C141.471 84.4219 141.081 84.276 140.602 84.125C140.07 83.9583 139.576 83.7708 139.117 83.5625C138.659 83.3542 138.255 83.112 137.906 82.8359C137.562 82.5599 137.294 82.2422 137.102 81.8828C136.909 81.5182 136.812 81.0964 136.812 80.6172C136.812 80.1484 136.911 79.7214 137.109 79.3359C137.312 78.9505 137.599 78.6198 137.969 78.3438C138.339 78.0625 138.773 77.8464 139.273 77.6953C139.779 77.5443 140.336 77.4688 140.945 77.4688C141.789 77.4688 142.518 77.6224 143.133 77.9297C143.753 78.237 144.232 78.6536 144.57 79.1797C144.909 79.7057 145.078 80.2969 145.078 80.9531H142.938C142.938 80.599 142.862 80.2865 142.711 80.0156C142.565 79.7448 142.341 79.5312 142.039 79.375C141.742 79.2188 141.367 79.1406 140.914 79.1406C140.477 79.1406 140.112 79.2057 139.82 79.3359C139.534 79.4661 139.318 79.6432 139.172 79.8672C139.031 80.0911 138.961 80.3411 138.961 80.6172C138.961 80.8255 139.01 81.013 139.109 81.1797C139.208 81.3411 139.357 81.4948 139.555 81.6406C139.753 81.7812 139.997 81.9141 140.289 82.0391C140.586 82.1589 140.93 82.2786 141.32 82.3984C141.945 82.5859 142.492 82.7943 142.961 83.0234C143.435 83.2526 143.828 83.513 144.141 83.8047C144.458 84.0964 144.695 84.4245 144.852 84.7891C145.013 85.1536 145.094 85.5677 145.094 86.0312C145.094 86.5208 144.997 86.9583 144.805 87.3438C144.612 87.7292 144.336 88.0573 143.977 88.3281C143.617 88.599 143.185 88.8047 142.68 88.9453C142.18 89.0859 141.62 89.1562 141 89.1562C140.448 89.1562 139.901 89.0833 139.359 88.9375C138.823 88.7865 138.336 88.5625 137.898 88.2656C137.461 87.9635 137.112 87.5833 136.852 87.125C136.591 86.6615 136.461 86.1198 136.461 85.5H138.617C138.617 85.8594 138.674 86.1667 138.789 86.4219C138.909 86.6719 139.076 86.8776 139.289 87.0391C139.508 87.1953 139.763 87.3099 140.055 87.3828C140.346 87.4557 140.661 87.4922 141 87.4922C141.438 87.4922 141.797 87.4323 142.078 87.3125C142.365 87.1875 142.578 87.0156 142.719 86.7969C142.865 86.5781 142.938 86.3281 142.938 86.0469ZM150.391 89.1562C149.75 89.1562 149.174 89.0521 148.664 88.8438C148.154 88.6354 147.719 88.3464 147.359 87.9766C147.005 87.6016 146.732 87.1667 146.539 86.6719C146.352 86.1719 146.258 85.6354 146.258 85.0625V84.75C146.258 84.099 146.352 83.5078 146.539 82.9766C146.727 82.4401 146.992 81.9792 147.336 81.5938C147.68 81.2083 148.091 80.9115 148.57 80.7031C149.049 80.4948 149.578 80.3906 150.156 80.3906C150.755 80.3906 151.284 80.4922 151.742 80.6953C152.201 80.8932 152.583 81.1745 152.891 81.5391C153.198 81.9036 153.43 82.3411 153.586 82.8516C153.742 83.3568 153.82 83.9167 153.82 84.5312V85.3984H147.195V83.9766H151.789V83.8203C151.779 83.4922 151.716 83.1927 151.602 82.9219C151.487 82.6458 151.31 82.4271 151.07 82.2656C150.831 82.099 150.521 82.0156 150.141 82.0156C149.833 82.0156 149.565 82.0833 149.336 82.2188C149.112 82.349 148.924 82.5365 148.773 82.7812C148.628 83.0208 148.518 83.3073 148.445 83.6406C148.372 83.974 148.336 84.3438 148.336 84.75V85.0625C148.336 85.4167 148.383 85.7448 148.477 86.0469C148.576 86.349 148.719 86.612 148.906 86.8359C149.099 87.0547 149.328 87.2266 149.594 87.3516C149.865 87.4714 150.172 87.5312 150.516 87.5312C150.948 87.5312 151.339 87.4479 151.688 87.2812C152.042 87.1094 152.349 86.8568 152.609 86.5234L153.648 87.6016C153.471 87.862 153.232 88.112 152.93 88.3516C152.633 88.5911 152.273 88.7865 151.852 88.9375C151.43 89.0833 150.943 89.1562 150.391 89.1562ZM157.266 82.2734V89H155.203V80.5469H157.156L157.266 82.2734ZM159.836 80.4922L159.805 82.4141C159.69 82.3932 159.56 82.3776 159.414 82.3672C159.273 82.3568 159.141 82.3516 159.016 82.3516C158.698 82.3516 158.419 82.3958 158.18 82.4844C157.94 82.5677 157.74 82.6901 157.578 82.8516C157.422 83.013 157.302 83.2109 157.219 83.4453C157.135 83.6745 157.089 83.9349 157.078 84.2266L156.633 84.1719C156.633 83.6354 156.688 83.138 156.797 82.6797C156.906 82.2214 157.065 81.8203 157.273 81.4766C157.482 81.1328 157.742 80.8672 158.055 80.6797C158.372 80.487 158.737 80.3906 159.148 80.3906C159.263 80.3906 159.385 80.401 159.516 80.4219C159.651 80.4375 159.758 80.4609 159.836 80.4922ZM163.914 87.4375L165.883 80.5469H168.039L165.141 89H163.828L163.914 87.4375ZM162.477 80.5469L164.469 87.4531L164.539 89H163.219L160.312 80.5469H162.477ZM171.312 80.5469V89H169.242V80.5469H171.312ZM169.102 78.3359C169.102 78.0286 169.206 77.7734 169.414 77.5703C169.628 77.3672 169.914 77.2656 170.273 77.2656C170.633 77.2656 170.917 77.3672 171.125 77.5703C171.339 77.7734 171.445 78.0286 171.445 78.3359C171.445 78.638 171.339 78.8906 171.125 79.0938C170.917 79.2969 170.633 79.3984 170.273 79.3984C169.914 79.3984 169.628 79.2969 169.414 79.0938C169.206 78.8906 169.102 78.638 169.102 78.3359ZM176.75 87.5312C177.042 87.5312 177.302 87.474 177.531 87.3594C177.76 87.2448 177.943 87.0833 178.078 86.875C178.219 86.6667 178.294 86.4245 178.305 86.1484H180.25C180.24 86.7214 180.078 87.2344 179.766 87.6875C179.453 88.1406 179.036 88.5 178.516 88.7656C178 89.026 177.422 89.1562 176.781 89.1562C176.13 89.1562 175.562 89.0469 175.078 88.8281C174.594 88.6094 174.19 88.3047 173.867 87.9141C173.549 87.5234 173.31 87.0703 173.148 86.5547C172.992 86.0391 172.914 85.487 172.914 84.8984V84.6484C172.914 84.0599 172.992 83.5078 173.148 82.9922C173.31 82.4766 173.549 82.0234 173.867 81.6328C174.19 81.2422 174.594 80.9375 175.078 80.7188C175.562 80.5 176.128 80.3906 176.773 80.3906C177.456 80.3906 178.055 80.5234 178.57 80.7891C179.091 81.0547 179.497 81.4297 179.789 81.9141C180.086 82.3984 180.24 82.9688 180.25 83.625H178.305C178.294 83.3229 178.227 83.0521 178.102 82.8125C177.977 82.5729 177.799 82.3802 177.57 82.2344C177.341 82.0885 177.062 82.0156 176.734 82.0156C176.385 82.0156 176.094 82.0885 175.859 82.2344C175.63 82.3802 175.451 82.5807 175.32 82.8359C175.195 83.0859 175.107 83.3672 175.055 83.6797C175.008 83.987 174.984 84.3099 174.984 84.6484V84.8984C174.984 85.2422 175.008 85.5703 175.055 85.8828C175.107 86.1953 175.195 86.4766 175.32 86.7266C175.451 86.9714 175.63 87.1667 175.859 87.3125C176.094 87.4583 176.391 87.5312 176.75 87.5312ZM185.422 89.1562C184.781 89.1562 184.206 89.0521 183.695 88.8438C183.185 88.6354 182.75 88.3464 182.391 87.9766C182.036 87.6016 181.763 87.1667 181.57 86.6719C181.383 86.1719 181.289 85.6354 181.289 85.0625V84.75C181.289 84.099 181.383 83.5078 181.57 82.9766C181.758 82.4401 182.023 81.9792 182.367 81.5938C182.711 81.2083 183.122 80.9115 183.602 80.7031C184.081 80.4948 184.609 80.3906 185.188 80.3906C185.786 80.3906 186.315 80.4922 186.773 80.6953C187.232 80.8932 187.615 81.1745 187.922 81.5391C188.229 81.9036 188.461 82.3411 188.617 82.8516C188.773 83.3568 188.852 83.9167 188.852 84.5312V85.3984H182.227V83.9766H186.82V83.8203C186.81 83.4922 186.747 83.1927 186.633 82.9219C186.518 82.6458 186.341 82.4271 186.102 82.2656C185.862 82.099 185.552 82.0156 185.172 82.0156C184.865 82.0156 184.596 82.0833 184.367 82.2188C184.143 82.349 183.956 82.5365 183.805 82.7812C183.659 83.0208 183.549 83.3073 183.477 83.6406C183.404 83.974 183.367 84.3438 183.367 84.75V85.0625C183.367 85.4167 183.414 85.7448 183.508 86.0469C183.607 86.349 183.75 86.612 183.938 86.8359C184.13 87.0547 184.359 87.2266 184.625 87.3516C184.896 87.4714 185.203 87.5312 185.547 87.5312C185.979 87.5312 186.37 87.4479 186.719 87.2812C187.073 87.1094 187.38 86.8568 187.641 86.5234L188.68 87.6016C188.503 87.862 188.263 88.112 187.961 88.3516C187.664 88.5911 187.305 88.7865 186.883 88.9375C186.461 89.0833 185.974 89.1562 185.422 89.1562ZM194.883 86.6875C194.883 86.5104 194.836 86.3516 194.742 86.2109C194.648 86.0703 194.471 85.9427 194.211 85.8281C193.956 85.7083 193.581 85.5964 193.086 85.4922C192.648 85.3984 192.245 85.2812 191.875 85.1406C191.505 85 191.188 84.8307 190.922 84.6328C190.656 84.4297 190.448 84.1927 190.297 83.9219C190.151 83.6458 190.078 83.3281 190.078 82.9688C190.078 82.6198 190.154 82.2917 190.305 81.9844C190.456 81.6719 190.674 81.3984 190.961 81.1641C191.247 80.9245 191.596 80.737 192.008 80.6016C192.419 80.4609 192.883 80.3906 193.398 80.3906C194.117 80.3906 194.734 80.5078 195.25 80.7422C195.771 80.9766 196.169 81.2995 196.445 81.7109C196.721 82.1172 196.859 82.5755 196.859 83.0859H194.797C194.797 82.862 194.745 82.6589 194.641 82.4766C194.542 82.2943 194.388 82.1484 194.18 82.0391C193.971 81.9245 193.708 81.8672 193.391 81.8672C193.104 81.8672 192.862 81.9141 192.664 82.0078C192.471 82.1016 192.326 82.224 192.227 82.375C192.128 82.526 192.078 82.6927 192.078 82.875C192.078 83.0104 192.104 83.1328 192.156 83.2422C192.214 83.3464 192.305 83.4427 192.43 83.5312C192.555 83.6198 192.724 83.7005 192.938 83.7734C193.156 83.8464 193.424 83.9167 193.742 83.9844C194.372 84.1094 194.922 84.276 195.391 84.4844C195.865 84.6875 196.234 84.9583 196.5 85.2969C196.766 85.6354 196.898 86.0677 196.898 86.5938C196.898 86.9688 196.818 87.3125 196.656 87.625C196.495 87.9323 196.26 88.2005 195.953 88.4297C195.646 88.6589 195.279 88.8385 194.852 88.9688C194.424 89.0938 193.943 89.1562 193.406 89.1562C192.63 89.1562 191.974 89.0182 191.438 88.7422C190.901 88.4609 190.495 88.1068 190.219 87.6797C189.943 87.2474 189.805 86.7995 189.805 86.3359H191.781C191.797 86.6641 191.885 86.9271 192.047 87.125C192.208 87.3229 192.411 87.4661 192.656 87.5547C192.906 87.638 193.169 87.6797 193.445 87.6797C193.758 87.6797 194.021 87.638 194.234 87.5547C194.448 87.4661 194.609 87.349 194.719 87.2031C194.828 87.0521 194.883 86.8802 194.883 86.6875Z" fill="black"/>
<g clip-path="url(#clip0_301_3664)">
<path d="M130 54.2979C129.7 54.6631 129.437 55.036 128.891 54.9974H71.1113C70.5374 55.0206 70.0417 54.5705 70 54.0124L70.0313 39.2497L70.4148 38.5862L76.3339 34.6923L76.3287 23.8543C76.2687 23.5791 76.7539 22.8744 76.9757 22.8744H81.4287L81.6035 22.7021V18.3119C81.6035 18.1704 82.2296 17.5995 82.4774 17.6715L91.0835 17.6638C91.5557 13.7005 94.433 10.2439 98.4791 9.47229V0H107.093C107.357 0 107.8 0.470657 107.847 0.756137C108.121 2.40215 107.651 4.69628 107.86 6.41688C107.915 6.74866 107.221 7.27847 106.976 7.27847H100.59V9.35913C105.09 9.70891 108.418 13.343 108.922 17.6638L117.528 17.6715C117.776 17.5995 118.402 18.1704 118.402 18.3119V22.7021L118.577 22.8744H123.03C123.251 22.8744 123.737 23.5791 123.677 23.8543L123.671 34.6923L129.59 38.5862L130 39.1648V54.3004V54.2979ZM105.744 2.08066H100.59V5.20037H105.744V2.08066ZM106.681 17.6766C106.41 14.1326 103.24 11.2289 99.5852 11.4321C96.3374 11.6147 93.507 14.5106 93.3217 17.6766H106.681ZM116.289 19.7547H83.7139V22.8744H116.291V19.7547H116.289ZM121.563 24.9551H78.4391V52.9142H82.6574V38.0692C82.6574 37.7066 83.4504 37.3722 83.7817 37.3285C84.64 37.2128 86.7557 37.2333 87.6426 37.3131C88.1539 37.3594 88.9861 37.7143 88.9861 38.3007V52.9142H92.1504V38.0692C92.1504 37.6628 92.92 37.3748 93.2774 37.3311C94.1826 37.223 96.2122 37.2282 97.1304 37.3182C97.7304 37.3774 98.4791 37.7143 98.4791 38.4138V52.9116H101.526V38.4138C101.526 37.7143 102.275 37.3774 102.875 37.3182C103.793 37.2256 105.82 37.2205 106.728 37.3311C107.085 37.3748 107.855 37.6628 107.855 38.0692V52.9142H111.019V38.3007C111.019 37.7143 111.851 37.3619 112.363 37.3131C113.252 37.2308 115.365 37.2128 116.223 37.3285C116.555 37.3722 117.348 37.7066 117.348 38.0692V52.9142H121.566V24.9551H121.563ZM76.3313 37.3156C76.133 37.2771 76.0235 37.4185 75.8748 37.5008C74.607 38.1952 73.3287 39.2317 72.113 40.0316V52.9142H76.3313V37.3182V37.3156ZM127.89 52.9116V40.029C126.674 39.2291 125.396 38.1927 124.128 37.4982C123.977 37.4159 123.87 37.2745 123.671 37.3131V52.909H127.89V52.9116ZM86.8757 52.9116V39.5686L86.7009 39.3963H84.7678V52.9142H86.8783L86.8757 52.9116ZM96.3687 52.9116V39.5686L96.1939 39.3963H94.2609V52.9142H96.3713L96.3687 52.9116ZM105.744 39.3963H103.811L103.637 39.5686V52.9116H105.747V39.3937L105.744 39.3963ZM115.235 39.3963H113.302L113.127 39.5686V52.9116H115.237V39.3937L115.235 39.3963Z" fill="black"/>
<path d="M82.9339 33.9263C82.7774 33.772 82.6809 33.5534 82.6522 33.3373C82.5348 32.3832 82.5609 30.0376 82.6522 29.0526C82.7409 28.0932 83.3696 28.0187 84.2357 27.9544C84.9843 27.9003 87.7522 27.8618 88.3104 28.1061C88.5191 28.1961 88.7461 28.4199 88.8374 28.6256C89.0774 29.1606 89.0565 32.2597 88.9835 32.9824C88.9365 33.4428 88.7957 33.9932 88.287 34.1449C87.8096 34.2864 84.1652 34.2786 83.5313 34.2015C83.3096 34.1758 83.0878 34.078 82.9339 33.9237V33.9263ZM86.8757 32.1183V30.2125L86.7009 30.0402H84.7678V32.1208H86.8783L86.8757 32.1183Z" fill="black"/>
<path d="M117.069 33.9263C116.912 34.0806 116.69 34.1757 116.471 34.204C115.837 34.2812 112.193 34.2889 111.716 34.1474C111.207 33.9957 111.066 33.4453 111.019 32.9849C110.946 32.2622 110.925 29.1631 111.165 28.6281C111.257 28.4224 111.483 28.1986 111.692 28.1086C112.232 27.872 115.271 27.8926 115.994 27.9646C116.458 28.0109 117.137 28.1575 117.29 28.6513C117.434 29.1142 117.426 32.72 117.348 33.3399C117.322 33.5585 117.223 33.7771 117.066 33.9288L117.069 33.9263ZM115.235 30.0375H113.302L113.127 30.2099V32.1156H115.237V30.035L115.235 30.0375Z" fill="black"/>
<path d="M93.293 27.9878C94.0365 27.8824 97.3104 27.867 97.8843 28.137C98.2939 28.3299 98.4322 28.8726 98.4765 29.2866C98.5574 30.0762 98.5756 32.9927 98.3017 33.6177C98.1322 34.0061 97.9078 34.1501 97.4852 34.199C96.5356 34.307 93.9765 34.3096 93.027 34.199C92.4896 34.1372 92.2104 33.8698 92.1478 33.3322C92.0461 32.4758 92.0278 29.6493 92.1583 28.8314C92.2522 28.245 92.7687 28.0624 93.2956 27.9878H93.293ZM96.3687 32.1183V30.2125L96.1939 30.0402H94.2609V32.1209H96.3713L96.3687 32.1183Z" fill="black"/>
<path d="M102.789 27.9904C103.592 27.885 106.728 27.849 107.351 28.1627C107.69 28.3325 107.813 28.5691 107.855 28.9369C107.964 29.8705 107.967 32.3986 107.855 33.3322C107.792 33.862 107.521 34.1372 106.976 34.199C106.029 34.307 103.464 34.3096 102.517 34.199C101.763 34.1115 101.594 33.5406 101.526 32.8667C101.453 32.1389 101.435 29.068 101.711 28.5459C101.933 28.1293 102.358 28.0496 102.791 27.993L102.789 27.9904ZM105.744 30.0376H103.811L103.637 30.21V32.1157H105.747V30.0351L105.744 30.0376Z" fill="black"/>
</g>
<defs>
<clipPath id="clip0_301_3664">
<rect width="60" height="55" fill="white" transform="translate(70)"/>
</clipPath>
</defs>
</svg>
