<svg width="178" height="101" viewBox="0 0 178 101" fill="none" xmlns="http://www.w3.org/2000/svg">
<path d="M28.6484 84.0234V84.6094C28.6484 85.4688 28.5339 86.2422 28.3047 86.9297C28.0755 87.612 27.75 88.1927 27.3281 88.6719C26.9062 89.151 26.4036 89.5182 25.8203 89.7734C25.237 90.0286 24.5885 90.1562 23.875 90.1562C23.1719 90.1562 22.526 90.0286 21.9375 89.7734C21.3542 89.5182 20.849 89.151 20.4219 88.6719C19.9948 88.1927 19.6641 87.612 19.4297 86.9297C19.1953 86.2422 19.0781 85.4688 19.0781 84.6094V84.0234C19.0781 83.1589 19.1953 82.3854 19.4297 81.7031C19.6641 81.0208 19.9922 80.4401 20.4141 79.9609C20.8359 79.4766 21.3385 79.1068 21.9219 78.8516C22.5104 78.5964 23.1562 78.4688 23.8594 78.4688C24.5729 78.4688 25.2214 78.5964 25.8047 78.8516C26.388 79.1068 26.8906 79.4766 27.3125 79.9609C27.7396 80.4401 28.0677 81.0208 28.2969 81.7031C28.5312 82.3854 28.6484 83.1589 28.6484 84.0234ZM26.4766 84.6094V84.0078C26.4766 83.388 26.4193 82.8438 26.3047 82.375C26.1901 81.901 26.0208 81.5026 25.7969 81.1797C25.5729 80.8568 25.2969 80.6146 24.9688 80.4531C24.6406 80.2865 24.2708 80.2031 23.8594 80.2031C23.4427 80.2031 23.0729 80.2865 22.75 80.4531C22.4323 80.6146 22.1615 80.8568 21.9375 81.1797C21.7135 81.5026 21.5417 81.901 21.4219 82.375C21.3073 82.8438 21.25 83.388 21.25 84.0078V84.6094C21.25 85.224 21.3073 85.7682 21.4219 86.2422C21.5417 86.7161 21.7135 87.1172 21.9375 87.4453C22.1667 87.7682 22.4427 88.013 22.7656 88.1797C23.0885 88.3464 23.4583 88.4297 23.875 88.4297C24.2917 88.4297 24.6615 88.3464 24.9844 88.1797C25.3073 88.013 25.5781 87.7682 25.7969 87.4453C26.0208 87.1172 26.1901 86.7161 26.3047 86.2422C26.4193 85.7682 26.4766 85.224 26.4766 84.6094ZM32.5 81.5469V90H30.4297V81.5469H32.5ZM30.2891 79.3359C30.2891 79.0286 30.3932 78.7734 30.6016 78.5703C30.8151 78.3672 31.1016 78.2656 31.4609 78.2656C31.8203 78.2656 32.1042 78.3672 32.3125 78.5703C32.526 78.7734 32.6328 79.0286 32.6328 79.3359C32.6328 79.638 32.526 79.8906 32.3125 80.0938C32.1042 80.2969 31.8203 80.3984 31.4609 80.3984C31.1016 80.3984 30.8151 80.2969 30.6016 80.0938C30.3932 79.8906 30.2891 79.638 30.2891 79.3359ZM36.6562 78V90H34.5859V78H36.6562ZM44.4688 83.8594L46.5391 82.5C46.8672 82.2812 47.0938 82.0703 47.2188 81.8672C47.3438 81.6641 47.4062 81.4193 47.4062 81.1328C47.4062 80.8776 47.3073 80.6406 47.1094 80.4219C46.9167 80.1979 46.6432 80.0859 46.2891 80.0859C46.0391 80.0859 45.8281 80.1432 45.6562 80.2578C45.4844 80.3724 45.3542 80.526 45.2656 80.7188C45.1823 80.9062 45.1406 81.1146 45.1406 81.3438C45.1406 81.5781 45.2005 81.8177 45.3203 82.0625C45.4453 82.3073 45.612 82.5651 45.8203 82.8359C46.0339 83.1016 46.2708 83.3906 46.5312 83.7031L51.8984 90H49.5391L45.1484 84.8906C44.7786 84.4323 44.4505 84.0104 44.1641 83.625C43.8776 83.2396 43.6536 82.8672 43.4922 82.5078C43.3359 82.1432 43.2578 81.7682 43.2578 81.3828C43.2578 80.7891 43.3828 80.2734 43.6328 79.8359C43.8828 79.3984 44.2344 79.0599 44.6875 78.8203C45.1458 78.5807 45.6823 78.4609 46.2969 78.4609C46.8802 78.4609 47.3828 78.5807 47.8047 78.8203C48.2318 79.0547 48.5625 79.3672 48.7969 79.7578C49.0312 80.1484 49.1484 80.5755 49.1484 81.0391C49.1484 81.3932 49.0833 81.7214 48.9531 82.0234C48.8229 82.3203 48.6432 82.5938 48.4141 82.8438C48.1849 83.0885 47.9193 83.3203 47.6172 83.5391L45.1797 85.2891C44.9453 85.487 44.7682 85.6823 44.6484 85.875C44.5339 86.0625 44.4557 86.237 44.4141 86.3984C44.3776 86.5599 44.3594 86.7109 44.3594 86.8516C44.3594 87.1693 44.4271 87.4557 44.5625 87.7109C44.7031 87.9609 44.901 88.1615 45.1562 88.3125C45.4167 88.4583 45.724 88.5312 46.0781 88.5312C46.5104 88.5312 46.9271 88.4349 47.3281 88.2422C47.7292 88.0495 48.0885 87.776 48.4062 87.4219C48.7292 87.0677 48.9844 86.6458 49.1719 86.1562C49.3646 85.6615 49.4609 85.1172 49.4609 84.5234H51.2266C51.2266 85.0911 51.1719 85.6302 51.0625 86.1406C50.9531 86.6458 50.776 87.1146 50.5312 87.5469C50.2865 87.9792 49.9661 88.3646 49.5703 88.7031C49.5339 88.7344 49.4896 88.776 49.4375 88.8281C49.3906 88.8802 49.349 88.9219 49.3125 88.9531C48.8385 89.3594 48.3255 89.6641 47.7734 89.8672C47.2266 90.0651 46.6302 90.1641 45.9844 90.1641C45.224 90.1641 44.5677 90.026 44.0156 89.75C43.4635 89.474 43.0365 89.0938 42.7344 88.6094C42.4375 88.125 42.2891 87.5703 42.2891 86.9453C42.2891 86.4818 42.3802 86.0781 42.5625 85.7344C42.75 85.3854 43.0078 85.0625 43.3359 84.7656C43.6641 84.4635 44.0417 84.1615 44.4688 83.8594ZM66.0156 84.1172V88.5469C65.849 88.7604 65.5859 88.9922 65.2266 89.2422C64.8724 89.4922 64.4089 89.7083 63.8359 89.8906C63.263 90.0677 62.5599 90.1562 61.7266 90.1562C61.0026 90.1562 60.3411 90.0365 59.7422 89.7969C59.1432 89.5521 58.6276 89.1953 58.1953 88.7266C57.763 88.2578 57.4297 87.6849 57.1953 87.0078C56.9609 86.3307 56.8438 85.5573 56.8438 84.6875V83.9375C56.8438 83.0677 56.9531 82.2943 57.1719 81.6172C57.3958 80.9401 57.7135 80.3672 58.125 79.8984C58.5417 79.4297 59.0391 79.0729 59.6172 78.8281C60.2005 78.5833 60.8516 78.4609 61.5703 78.4609C62.5339 78.4609 63.3255 78.6198 63.9453 78.9375C64.5703 79.2552 65.0495 79.6927 65.3828 80.25C65.7161 80.8021 65.9245 81.4375 66.0078 82.1562H63.9141C63.8568 81.7604 63.7422 81.4141 63.5703 81.1172C63.3984 80.8151 63.1536 80.5807 62.8359 80.4141C62.5234 80.2422 62.1172 80.1562 61.6172 80.1562C61.1953 80.1562 60.8229 80.2396 60.5 80.4062C60.1771 80.5729 59.9062 80.8151 59.6875 81.1328C59.4688 81.4505 59.3021 81.8438 59.1875 82.3125C59.0781 82.7812 59.0234 83.3177 59.0234 83.9219V84.6875C59.0234 85.2969 59.0859 85.8385 59.2109 86.3125C59.3359 86.7812 59.5156 87.1771 59.75 87.5C59.9896 87.8177 60.2839 88.0599 60.6328 88.2266C60.987 88.388 61.388 88.4688 61.8359 88.4688C62.2422 88.4688 62.5781 88.4349 62.8438 88.3672C63.1146 88.2943 63.3307 88.2083 63.4922 88.1094C63.6536 88.0104 63.7786 87.9141 63.8672 87.8203V85.6875H61.6094V84.1172H66.0156ZM72.5469 88.2031V84.3047C72.5469 84.0182 72.4974 83.7708 72.3984 83.5625C72.2995 83.3542 72.1484 83.1927 71.9453 83.0781C71.7422 82.9635 71.4844 82.9062 71.1719 82.9062C70.8958 82.9062 70.6536 82.9531 70.4453 83.0469C70.2422 83.1406 70.0859 83.2734 69.9766 83.4453C69.8672 83.612 69.8125 83.8047 69.8125 84.0234H67.7422C67.7422 83.6745 67.8255 83.3438 67.9922 83.0312C68.1589 82.7135 68.3958 82.4323 68.7031 82.1875C69.0156 81.9375 69.388 81.7422 69.8203 81.6016C70.2578 81.4609 70.7474 81.3906 71.2891 81.3906C71.9297 81.3906 72.5 81.5 73 81.7188C73.5052 81.9323 73.901 82.2552 74.1875 82.6875C74.4792 83.1198 74.625 83.6641 74.625 84.3203V88.0078C74.625 88.4297 74.651 88.7917 74.7031 89.0938C74.7604 89.3906 74.8438 89.6484 74.9531 89.8672V90H72.8516C72.7526 89.7865 72.6771 89.5156 72.625 89.1875C72.5729 88.8542 72.5469 88.526 72.5469 88.2031ZM72.8359 84.8516L72.8516 86.0781H71.5469C71.224 86.0781 70.9401 86.112 70.6953 86.1797C70.4505 86.2422 70.25 86.3359 70.0938 86.4609C69.9375 86.5807 69.8203 86.7266 69.7422 86.8984C69.6641 87.0651 69.625 87.2552 69.625 87.4688C69.625 87.6771 69.6719 87.8646 69.7656 88.0312C69.8646 88.1979 70.0052 88.3307 70.1875 88.4297C70.375 88.5234 70.5938 88.5703 70.8438 88.5703C71.2083 88.5703 71.526 88.4974 71.7969 88.3516C72.0677 88.2005 72.2786 88.0182 72.4297 87.8047C72.5807 87.5911 72.6615 87.388 72.6719 87.1953L73.2656 88.0859C73.1927 88.2995 73.0833 88.526 72.9375 88.7656C72.7917 89.0052 72.6042 89.2292 72.375 89.4375C72.1458 89.6458 71.8698 89.8177 71.5469 89.9531C71.224 90.0885 70.849 90.1562 70.4219 90.1562C69.875 90.1562 69.3854 90.0469 68.9531 89.8281C68.5208 89.6094 68.1797 89.3099 67.9297 88.9297C67.6797 88.5495 67.5547 88.1172 67.5547 87.6328C67.5547 87.1849 67.638 86.7891 67.8047 86.4453C67.9714 86.1016 68.2188 85.8125 68.5469 85.5781C68.875 85.3385 69.2812 85.1589 69.7656 85.0391C70.2552 84.9141 70.8151 84.8516 71.4453 84.8516H72.8359ZM81.1328 87.6875C81.1328 87.5104 81.0859 87.3516 80.9922 87.2109C80.8984 87.0703 80.7214 86.9427 80.4609 86.8281C80.2057 86.7083 79.8307 86.5964 79.3359 86.4922C78.8984 86.3984 78.4948 86.2812 78.125 86.1406C77.7552 86 77.4375 85.8307 77.1719 85.6328C76.9062 85.4297 76.6979 85.1927 76.5469 84.9219C76.401 84.6458 76.3281 84.3281 76.3281 83.9688C76.3281 83.6198 76.4036 83.2917 76.5547 82.9844C76.7057 82.6719 76.9245 82.3984 77.2109 82.1641C77.4974 81.9245 77.8464 81.737 78.2578 81.6016C78.6693 81.4609 79.1328 81.3906 79.6484 81.3906C80.3672 81.3906 80.9844 81.5078 81.5 81.7422C82.0208 81.9766 82.4193 82.2995 82.6953 82.7109C82.9714 83.1172 83.1094 83.5755 83.1094 84.0859H81.0469C81.0469 83.862 80.9948 83.6589 80.8906 83.4766C80.7917 83.2943 80.638 83.1484 80.4297 83.0391C80.2214 82.9245 79.9583 82.8672 79.6406 82.8672C79.3542 82.8672 79.112 82.9141 78.9141 83.0078C78.7214 83.1016 78.5755 83.224 78.4766 83.375C78.3776 83.526 78.3281 83.6927 78.3281 83.875C78.3281 84.0104 78.3542 84.1328 78.4062 84.2422C78.4635 84.3464 78.5547 84.4427 78.6797 84.5312C78.8047 84.6198 78.974 84.7005 79.1875 84.7734C79.4062 84.8464 79.6745 84.9167 79.9922 84.9844C80.6224 85.1094 81.1719 85.276 81.6406 85.4844C82.1146 85.6875 82.4844 85.9583 82.75 86.2969C83.0156 86.6354 83.1484 87.0677 83.1484 87.5938C83.1484 87.9688 83.0677 88.3125 82.9062 88.625C82.7448 88.9323 82.5104 89.2005 82.2031 89.4297C81.8958 89.6589 81.5286 89.8385 81.1016 89.9688C80.6745 90.0938 80.1927 90.1562 79.6562 90.1562C78.8802 90.1562 78.224 90.0182 77.6875 89.7422C77.151 89.4609 76.7448 89.1068 76.4688 88.6797C76.1927 88.2474 76.0547 87.7995 76.0547 87.3359H78.0312C78.0469 87.6641 78.1354 87.9271 78.2969 88.125C78.4583 88.3229 78.6615 88.4661 78.9062 88.5547C79.1562 88.638 79.4193 88.6797 79.6953 88.6797C80.0078 88.6797 80.2708 88.638 80.4844 88.5547C80.6979 88.4661 80.8594 88.349 80.9688 88.2031C81.0781 88.0521 81.1328 87.8802 81.1328 87.6875ZM91.1484 78.625V90H89V78.625H91.1484ZM95.3359 83.3516V90H93.2734V81.5469H95.2109L95.3359 83.3516ZM95.0078 85.4688H94.3984C94.4036 84.8542 94.487 84.2969 94.6484 83.7969C94.8099 83.2969 95.0365 82.8672 95.3281 82.5078C95.625 82.1484 95.9766 81.8724 96.3828 81.6797C96.7891 81.487 97.2422 81.3906 97.7422 81.3906C98.1484 81.3906 98.5156 81.4479 98.8438 81.5625C99.1719 81.6771 99.4531 81.8594 99.6875 82.1094C99.9271 82.3594 100.109 82.6875 100.234 83.0938C100.365 83.4948 100.43 83.9896 100.43 84.5781V90H98.3516V84.5625C98.3516 84.1771 98.2943 83.8724 98.1797 83.6484C98.0703 83.4245 97.9089 83.2656 97.6953 83.1719C97.487 83.0781 97.2292 83.0312 96.9219 83.0312C96.6042 83.0312 96.3255 83.0964 96.0859 83.2266C95.8516 83.3516 95.6536 83.526 95.4922 83.75C95.3359 83.974 95.2161 84.2318 95.1328 84.5234C95.0495 84.8151 95.0078 85.1302 95.0078 85.4688ZM107.32 88.2031V78H109.398V90H107.523L107.32 88.2031ZM101.891 85.875V85.7109C101.891 85.0651 101.964 84.4792 102.109 83.9531C102.26 83.4219 102.479 82.9661 102.766 82.5859C103.052 82.2057 103.398 81.9115 103.805 81.7031C104.216 81.4948 104.682 81.3906 105.203 81.3906C105.708 81.3906 106.148 81.4922 106.523 81.6953C106.904 81.8984 107.227 82.1875 107.492 82.5625C107.763 82.9375 107.979 83.3828 108.141 83.8984C108.302 84.4089 108.419 84.9714 108.492 85.5859V86.0312C108.419 86.6302 108.302 87.1797 108.141 87.6797C107.979 88.1797 107.763 88.6172 107.492 88.9922C107.227 89.362 106.904 89.6484 106.523 89.8516C106.143 90.0547 105.698 90.1562 105.188 90.1562C104.672 90.1562 104.208 90.0495 103.797 89.8359C103.391 89.6224 103.044 89.3229 102.758 88.9375C102.477 88.5521 102.26 88.099 102.109 87.5781C101.964 87.0573 101.891 86.4896 101.891 85.875ZM103.961 85.7109V85.875C103.961 86.2396 103.992 86.5807 104.055 86.8984C104.117 87.2161 104.219 87.4974 104.359 87.7422C104.5 87.9818 104.68 88.1693 104.898 88.3047C105.122 88.4401 105.393 88.5078 105.711 88.5078C106.117 88.5078 106.451 88.4193 106.711 88.2422C106.977 88.0599 107.182 87.8125 107.328 87.5C107.474 87.1823 107.568 86.8255 107.609 86.4297V85.2031C107.589 84.8906 107.534 84.6016 107.445 84.3359C107.362 84.0703 107.242 83.8411 107.086 83.6484C106.935 83.4557 106.747 83.3047 106.523 83.1953C106.299 83.0859 106.034 83.0312 105.727 83.0312C105.409 83.0312 105.138 83.1016 104.914 83.2422C104.69 83.3776 104.508 83.5677 104.367 83.8125C104.227 84.0573 104.122 84.3411 104.055 84.6641C103.992 84.987 103.961 85.3359 103.961 85.7109ZM116.297 87.9922V81.5469H118.375V90H116.422L116.297 87.9922ZM116.562 86.2422L117.203 86.2266C117.203 86.7943 117.141 87.3177 117.016 87.7969C116.891 88.276 116.695 88.6927 116.43 89.0469C116.169 89.3958 115.839 89.6693 115.438 89.8672C115.036 90.0599 114.562 90.1562 114.016 90.1562C113.599 90.1562 113.219 90.099 112.875 89.9844C112.531 89.8646 112.234 89.6797 111.984 89.4297C111.74 89.1745 111.549 88.849 111.414 88.4531C111.279 88.0521 111.211 87.5703 111.211 87.0078V81.5469H113.273V87.0234C113.273 87.3047 113.305 87.5391 113.367 87.7266C113.435 87.9141 113.526 88.0677 113.641 88.1875C113.76 88.3021 113.898 88.3854 114.055 88.4375C114.216 88.4844 114.388 88.5078 114.57 88.5078C115.07 88.5078 115.464 88.4089 115.75 88.2109C116.042 88.0078 116.25 87.737 116.375 87.3984C116.5 87.0547 116.562 86.6693 116.562 86.2422ZM124.852 87.6875C124.852 87.5104 124.805 87.3516 124.711 87.2109C124.617 87.0703 124.44 86.9427 124.18 86.8281C123.924 86.7083 123.549 86.5964 123.055 86.4922C122.617 86.3984 122.214 86.2812 121.844 86.1406C121.474 86 121.156 85.8307 120.891 85.6328C120.625 85.4297 120.417 85.1927 120.266 84.9219C120.12 84.6458 120.047 84.3281 120.047 83.9688C120.047 83.6198 120.122 83.2917 120.273 82.9844C120.424 82.6719 120.643 82.3984 120.93 82.1641C121.216 81.9245 121.565 81.737 121.977 81.6016C122.388 81.4609 122.852 81.3906 123.367 81.3906C124.086 81.3906 124.703 81.5078 125.219 81.7422C125.74 81.9766 126.138 82.2995 126.414 82.7109C126.69 83.1172 126.828 83.5755 126.828 84.0859H124.766C124.766 83.862 124.714 83.6589 124.609 83.4766C124.51 83.2943 124.357 83.1484 124.148 83.0391C123.94 82.9245 123.677 82.8672 123.359 82.8672C123.073 82.8672 122.831 82.9141 122.633 83.0078C122.44 83.1016 122.294 83.224 122.195 83.375C122.096 83.526 122.047 83.6927 122.047 83.875C122.047 84.0104 122.073 84.1328 122.125 84.2422C122.182 84.3464 122.273 84.4427 122.398 84.5312C122.523 84.6198 122.693 84.7005 122.906 84.7734C123.125 84.8464 123.393 84.9167 123.711 84.9844C124.341 85.1094 124.891 85.276 125.359 85.4844C125.833 85.6875 126.203 85.9583 126.469 86.2969C126.734 86.6354 126.867 87.0677 126.867 87.5938C126.867 87.9688 126.786 88.3125 126.625 88.625C126.464 88.9323 126.229 89.2005 125.922 89.4297C125.615 89.6589 125.247 89.8385 124.82 89.9688C124.393 90.0938 123.911 90.1562 123.375 90.1562C122.599 90.1562 121.943 90.0182 121.406 89.7422C120.87 89.4609 120.464 89.1068 120.188 88.6797C119.911 88.2474 119.773 87.7995 119.773 87.3359H121.75C121.766 87.6641 121.854 87.9271 122.016 88.125C122.177 88.3229 122.38 88.4661 122.625 88.5547C122.875 88.638 123.138 88.6797 123.414 88.6797C123.727 88.6797 123.99 88.638 124.203 88.5547C124.417 88.4661 124.578 88.349 124.688 88.2031C124.797 88.0521 124.852 87.8802 124.852 87.6875ZM132.438 81.5469V83.0312H127.594V81.5469H132.438ZM128.891 79.4688H130.961V87.5625C130.961 87.8125 130.995 88.0052 131.062 88.1406C131.13 88.276 131.232 88.3672 131.367 88.4141C131.503 88.4609 131.664 88.4844 131.852 88.4844C131.987 88.4844 132.112 88.4766 132.227 88.4609C132.341 88.4453 132.438 88.4297 132.516 88.4141L132.523 89.9609C132.352 90.0182 132.156 90.0651 131.938 90.1016C131.724 90.138 131.482 90.1562 131.211 90.1562C130.747 90.1562 130.341 90.0781 129.992 89.9219C129.643 89.7604 129.372 89.5026 129.18 89.1484C128.987 88.7891 128.891 88.3151 128.891 87.7266V79.4688ZM135.875 83.2734V90H133.812V81.5469H135.766L135.875 83.2734ZM138.445 81.4922L138.414 83.4141C138.299 83.3932 138.169 83.3776 138.023 83.3672C137.883 83.3568 137.75 83.3516 137.625 83.3516C137.307 83.3516 137.029 83.3958 136.789 83.4844C136.549 83.5677 136.349 83.6901 136.188 83.8516C136.031 84.013 135.911 84.2109 135.828 84.4453C135.745 84.6745 135.698 84.9349 135.688 85.2266L135.242 85.1719C135.242 84.6354 135.297 84.138 135.406 83.6797C135.516 83.2214 135.674 82.8203 135.883 82.4766C136.091 82.1328 136.352 81.8672 136.664 81.6797C136.982 81.487 137.346 81.3906 137.758 81.3906C137.872 81.3906 137.995 81.401 138.125 81.4219C138.26 81.4375 138.367 81.4609 138.445 81.4922ZM141.766 81.5469V90H139.695V81.5469H141.766ZM139.555 79.3359C139.555 79.0286 139.659 78.7734 139.867 78.5703C140.081 78.3672 140.367 78.2656 140.727 78.2656C141.086 78.2656 141.37 78.3672 141.578 78.5703C141.792 78.7734 141.898 79.0286 141.898 79.3359C141.898 79.638 141.792 79.8906 141.578 80.0938C141.37 80.2969 141.086 80.3984 140.727 80.3984C140.367 80.3984 140.081 80.2969 139.867 80.0938C139.659 79.8906 139.555 79.638 139.555 79.3359ZM147.531 90.1562C146.891 90.1562 146.315 90.0521 145.805 89.8438C145.294 89.6354 144.859 89.3464 144.5 88.9766C144.146 88.6016 143.872 88.1667 143.68 87.6719C143.492 87.1719 143.398 86.6354 143.398 86.0625V85.75C143.398 85.099 143.492 84.5078 143.68 83.9766C143.867 83.4401 144.133 82.9792 144.477 82.5938C144.82 82.2083 145.232 81.9115 145.711 81.7031C146.19 81.4948 146.719 81.3906 147.297 81.3906C147.896 81.3906 148.424 81.4922 148.883 81.6953C149.341 81.8932 149.724 82.1745 150.031 82.5391C150.339 82.9036 150.57 83.3411 150.727 83.8516C150.883 84.3568 150.961 84.9167 150.961 85.5312V86.3984H144.336V84.9766H148.93V84.8203C148.919 84.4922 148.857 84.1927 148.742 83.9219C148.628 83.6458 148.451 83.4271 148.211 83.2656C147.971 83.099 147.661 83.0156 147.281 83.0156C146.974 83.0156 146.706 83.0833 146.477 83.2188C146.253 83.349 146.065 83.5365 145.914 83.7812C145.768 84.0208 145.659 84.3073 145.586 84.6406C145.513 84.974 145.477 85.3438 145.477 85.75V86.0625C145.477 86.4167 145.523 86.7448 145.617 87.0469C145.716 87.349 145.859 87.612 146.047 87.8359C146.24 88.0547 146.469 88.2266 146.734 88.3516C147.005 88.4714 147.312 88.5312 147.656 88.5312C148.089 88.5312 148.479 88.4479 148.828 88.2812C149.182 88.1094 149.49 87.8568 149.75 87.5234L150.789 88.6016C150.612 88.862 150.372 89.112 150.07 89.3516C149.773 89.5911 149.414 89.7865 148.992 89.9375C148.57 90.0833 148.083 90.1562 147.531 90.1562ZM156.992 87.6875C156.992 87.5104 156.945 87.3516 156.852 87.2109C156.758 87.0703 156.581 86.9427 156.32 86.8281C156.065 86.7083 155.69 86.5964 155.195 86.4922C154.758 86.3984 154.354 86.2812 153.984 86.1406C153.615 86 153.297 85.8307 153.031 85.6328C152.766 85.4297 152.557 85.1927 152.406 84.9219C152.26 84.6458 152.188 84.3281 152.188 83.9688C152.188 83.6198 152.263 83.2917 152.414 82.9844C152.565 82.6719 152.784 82.3984 153.07 82.1641C153.357 81.9245 153.706 81.737 154.117 81.6016C154.529 81.4609 154.992 81.3906 155.508 81.3906C156.227 81.3906 156.844 81.5078 157.359 81.7422C157.88 81.9766 158.279 82.2995 158.555 82.7109C158.831 83.1172 158.969 83.5755 158.969 84.0859H156.906C156.906 83.862 156.854 83.6589 156.75 83.4766C156.651 83.2943 156.497 83.1484 156.289 83.0391C156.081 82.9245 155.818 82.8672 155.5 82.8672C155.214 82.8672 154.971 82.9141 154.773 83.0078C154.581 83.1016 154.435 83.224 154.336 83.375C154.237 83.526 154.188 83.6927 154.188 83.875C154.188 84.0104 154.214 84.1328 154.266 84.2422C154.323 84.3464 154.414 84.4427 154.539 84.5312C154.664 84.6198 154.833 84.7005 155.047 84.7734C155.266 84.8464 155.534 84.9167 155.852 84.9844C156.482 85.1094 157.031 85.276 157.5 85.4844C157.974 85.6875 158.344 85.9583 158.609 86.2969C158.875 86.6354 159.008 87.0677 159.008 87.5938C159.008 87.9688 158.927 88.3125 158.766 88.625C158.604 88.9323 158.37 89.2005 158.062 89.4297C157.755 89.6589 157.388 89.8385 156.961 89.9688C156.534 90.0938 156.052 90.1562 155.516 90.1562C154.74 90.1562 154.083 90.0182 153.547 89.7422C153.01 89.4609 152.604 89.1068 152.328 88.6797C152.052 88.2474 151.914 87.7995 151.914 87.3359H153.891C153.906 87.6641 153.995 87.9271 154.156 88.125C154.318 88.3229 154.521 88.4661 154.766 88.5547C155.016 88.638 155.279 88.6797 155.555 88.6797C155.867 88.6797 156.13 88.638 156.344 88.5547C156.557 88.4661 156.719 88.349 156.828 88.2031C156.938 88.0521 156.992 87.8802 156.992 87.6875Z" fill="black"/>
<g clip-path="url(#clip0_301_3672)">
<path d="M72.7261 19.9707V41.6387H78.9109V24.67L83.3681 24.7206C83.6571 24.724 84.1176 24.535 84.3765 24.7678V41.6387C85.4891 41.696 86.6118 41.7264 87.7311 41.7061C88.4067 41.696 89.1328 41.5543 89.8151 41.6353C89.9092 41.6454 89.9832 41.642 90.0403 41.7365V52.1471H90.7798L93.2874 34.0314L103.308 34.0112L105.758 52.0155L108.205 34.0078L118.249 33.9977L120.726 52.1437L120.8 52.2044C121.166 52.1774 121.674 52.0256 121.997 52.2415V55.9625L55.9966 55.9962V52.1471H57.5597V48.3958L63.2235 46.1456V41.7399L63.321 41.642H67.3244V19.9707H72.7261ZM68.3025 47.1881H64.9815V50.5177H68.3025V47.1881ZM71.5563 47.1881V50.5177H74.8773V47.1881H71.5563ZM78.1311 47.1881V50.5177H81.4521V47.1881H78.1311ZM88.0235 47.1881H84.7025V50.5177H88.0235V47.1881Z" fill="black"/>
<path d="M99.8689 0C99.3008 3.15084 97.6168 7.41494 94.0806 8.06265C90.1311 8.78795 84.958 7.79952 80.9008 7.56675C76.9546 7.34072 74.6353 7.74554 71.1899 9.64819L68.6285 11.2236C70.1277 9.25012 71.8722 7.24627 73.9966 5.93735C75.7008 4.88819 77.2437 4.74651 79.2067 4.56771C82.5378 4.2641 85.9058 4.34843 89.2302 3.98072C93.0554 3.55566 96.4874 1.68675 99.8722 0L99.8689 0Z" fill="black"/>
<path d="M106.313 8.81152C105.96 10.9672 104.743 14.0269 102.437 14.6814C101.173 15.0424 99.0924 14.9918 97.7513 14.9479C94.1983 14.8366 90.6319 14.0877 87.0891 14.6308C85.6168 14.8568 84.1613 15.265 82.7496 15.7306C83.5361 14.9985 84.558 14.3575 85.5059 13.8279C89.2773 11.7195 93.1294 12.1074 97.2975 11.8139C100.218 11.6082 101.973 11.0684 104.558 9.75948C105.15 9.46261 105.714 9.09152 106.313 8.81152Z" fill="black"/>
<path d="M118.289 27.9355H108.202V33.2218H118.289V27.9355Z" fill="black"/>
<path d="M103.318 27.9355H93.2302V33.2218H103.318V27.9355Z" fill="black"/>
<path d="M84.3799 18.666H78.9109V23.9523H84.3799V18.666Z" fill="black"/>
<path d="M72.726 13.9658H67.3243V19.188H72.726V13.9658Z" fill="black"/>
<path d="M103.906 25.8447H92.6454V27.1536H103.906V25.8447Z" fill="black"/>
<path d="M118.874 25.8447H107.613V27.1536H118.874V25.8447Z" fill="black"/>
<path d="M73.1193 12.0098H66.9344V13.1837H73.1193V12.0098Z" fill="black"/>
<path d="M84.7697 16.7734H78.5143V17.9508H84.7697V16.7734Z" fill="black"/>
</g>
<defs>
<clipPath id="clip0_301_3672">
<rect width="66" height="56" fill="white" transform="translate(56)"/>
</clipPath>
</defs>
</svg>
