<svg width="215" height="103" viewBox="0 0 215 103" fill="none" xmlns="http://www.w3.org/2000/svg">
<path d="M29.1094 80.625H31.2578V88.1797C31.2578 89.0495 31.0703 89.7812 30.6953 90.375C30.3203 90.9635 29.8099 91.4089 29.1641 91.7109C28.5182 92.0078 27.7839 92.1562 26.9609 92.1562C26.1276 92.1562 25.3854 92.0078 24.7344 91.7109C24.0833 91.4089 23.5729 90.9635 23.2031 90.375C22.8333 89.7812 22.6484 89.0495 22.6484 88.1797V80.625H24.7969V88.1797C24.7969 88.7109 24.8854 89.1458 25.0625 89.4844C25.2396 89.8177 25.4896 90.0651 25.8125 90.2266C26.1354 90.388 26.5182 90.4688 26.9609 90.4688C27.4089 90.4688 27.7917 90.388 28.1094 90.2266C28.4323 90.0651 28.6797 89.8177 28.8516 89.4844C29.0234 89.1458 29.1094 88.7109 29.1094 88.1797V80.625ZM37.1406 83.5469V85.0312H32.2969V83.5469H37.1406ZM33.5938 81.4688H35.6641V89.5625C35.6641 89.8125 35.6979 90.0052 35.7656 90.1406C35.8333 90.276 35.9349 90.3672 36.0703 90.4141C36.2057 90.4609 36.3672 90.4844 36.5547 90.4844C36.6901 90.4844 36.8151 90.4766 36.9297 90.4609C37.0443 90.4453 37.1406 90.4297 37.2188 90.4141L37.2266 91.9609C37.0547 92.0182 36.8594 92.0651 36.6406 92.1016C36.4271 92.138 36.1849 92.1562 35.9141 92.1562C35.4505 92.1562 35.0443 92.0781 34.6953 91.9219C34.3464 91.7604 34.0755 91.5026 33.8828 91.1484C33.6901 90.7891 33.5938 90.3151 33.5938 89.7266V81.4688ZM40.7031 83.5469V92H38.6328V83.5469H40.7031ZM38.4922 81.3359C38.4922 81.0286 38.5964 80.7734 38.8047 80.5703C39.0182 80.3672 39.3047 80.2656 39.6641 80.2656C40.0234 80.2656 40.3073 80.3672 40.5156 80.5703C40.7292 80.7734 40.8359 81.0286 40.8359 81.3359C40.8359 81.638 40.7292 81.8906 40.5156 82.0938C40.3073 82.2969 40.0234 82.3984 39.6641 82.3984C39.3047 82.3984 39.0182 82.2969 38.8047 82.0938C38.5964 81.8906 38.4922 81.638 38.4922 81.3359ZM44.8594 80V92H42.7891V80H44.8594ZM49.0156 83.5469V92H46.9453V83.5469H49.0156ZM46.8047 81.3359C46.8047 81.0286 46.9089 80.7734 47.1172 80.5703C47.3307 80.3672 47.6172 80.2656 47.9766 80.2656C48.3359 80.2656 48.6198 80.3672 48.8281 80.5703C49.0417 80.7734 49.1484 81.0286 49.1484 81.3359C49.1484 81.638 49.0417 81.8906 48.8281 82.0938C48.6198 82.2969 48.3359 82.3984 47.9766 82.3984C47.6172 82.3984 47.3307 82.2969 47.1172 82.0938C46.9089 81.8906 46.8047 81.638 46.8047 81.3359ZM54.9844 83.5469V85.0312H50.1406V83.5469H54.9844ZM51.4375 81.4688H53.5078V89.5625C53.5078 89.8125 53.5417 90.0052 53.6094 90.1406C53.6771 90.276 53.7786 90.3672 53.9141 90.4141C54.0495 90.4609 54.2109 90.4844 54.3984 90.4844C54.5339 90.4844 54.6589 90.4766 54.7734 90.4609C54.888 90.4453 54.9844 90.4297 55.0625 90.4141L55.0703 91.9609C54.8984 92.0182 54.7031 92.0651 54.4844 92.1016C54.2708 92.138 54.0286 92.1562 53.7578 92.1562C53.2943 92.1562 52.888 92.0781 52.5391 91.9219C52.1901 91.7604 51.9193 91.5026 51.7266 91.1484C51.5339 90.7891 51.4375 90.3151 51.4375 89.7266V81.4688ZM58.5469 83.5469V92H56.4766V83.5469H58.5469ZM56.3359 81.3359C56.3359 81.0286 56.4401 80.7734 56.6484 80.5703C56.862 80.3672 57.1484 80.2656 57.5078 80.2656C57.8672 80.2656 58.151 80.3672 58.3594 80.5703C58.5729 80.7734 58.6797 81.0286 58.6797 81.3359C58.6797 81.638 58.5729 81.8906 58.3594 82.0938C58.151 82.2969 57.8672 82.3984 57.5078 82.3984C57.1484 82.3984 56.862 82.2969 56.6484 82.0938C56.4401 81.8906 56.3359 81.638 56.3359 81.3359ZM64.3125 92.1562C63.6719 92.1562 63.0964 92.0521 62.5859 91.8438C62.0755 91.6354 61.6406 91.3464 61.2812 90.9766C60.9271 90.6016 60.6536 90.1667 60.4609 89.6719C60.2734 89.1719 60.1797 88.6354 60.1797 88.0625V87.75C60.1797 87.099 60.2734 86.5078 60.4609 85.9766C60.6484 85.4401 60.9141 84.9792 61.2578 84.5938C61.6016 84.2083 62.013 83.9115 62.4922 83.7031C62.9714 83.4948 63.5 83.3906 64.0781 83.3906C64.6771 83.3906 65.2057 83.4922 65.6641 83.6953C66.1224 83.8932 66.5052 84.1745 66.8125 84.5391C67.1198 84.9036 67.3516 85.3411 67.5078 85.8516C67.6641 86.3568 67.7422 86.9167 67.7422 87.5312V88.3984H61.1172V86.9766H65.7109V86.8203C65.7005 86.4922 65.638 86.1927 65.5234 85.9219C65.4089 85.6458 65.2318 85.4271 64.9922 85.2656C64.7526 85.099 64.4427 85.0156 64.0625 85.0156C63.7552 85.0156 63.487 85.0833 63.2578 85.2188C63.0339 85.349 62.8464 85.5365 62.6953 85.7812C62.5495 86.0208 62.4401 86.3073 62.3672 86.6406C62.2943 86.974 62.2578 87.3438 62.2578 87.75V88.0625C62.2578 88.4167 62.3047 88.7448 62.3984 89.0469C62.4974 89.349 62.6406 89.612 62.8281 89.8359C63.0208 90.0547 63.25 90.2266 63.5156 90.3516C63.7865 90.4714 64.0938 90.5312 64.4375 90.5312C64.8698 90.5312 65.2604 90.4479 65.6094 90.2812C65.9635 90.1094 66.2708 89.8568 66.5312 89.5234L67.5703 90.6016C67.3932 90.862 67.1536 91.112 66.8516 91.3516C66.5547 91.5911 66.1953 91.7865 65.7734 91.9375C65.3516 92.0833 64.8646 92.1562 64.3125 92.1562ZM73.7734 89.6875C73.7734 89.5104 73.7266 89.3516 73.6328 89.2109C73.5391 89.0703 73.362 88.9427 73.1016 88.8281C72.8464 88.7083 72.4714 88.5964 71.9766 88.4922C71.5391 88.3984 71.1354 88.2812 70.7656 88.1406C70.3958 88 70.0781 87.8307 69.8125 87.6328C69.5469 87.4297 69.3385 87.1927 69.1875 86.9219C69.0417 86.6458 68.9688 86.3281 68.9688 85.9688C68.9688 85.6198 69.0443 85.2917 69.1953 84.9844C69.3464 84.6719 69.5651 84.3984 69.8516 84.1641C70.138 83.9245 70.487 83.737 70.8984 83.6016C71.3099 83.4609 71.7734 83.3906 72.2891 83.3906C73.0078 83.3906 73.625 83.5078 74.1406 83.7422C74.6615 83.9766 75.0599 84.2995 75.3359 84.7109C75.612 85.1172 75.75 85.5755 75.75 86.0859H73.6875C73.6875 85.862 73.6354 85.6589 73.5312 85.4766C73.4323 85.2943 73.2786 85.1484 73.0703 85.0391C72.862 84.9245 72.599 84.8672 72.2812 84.8672C71.9948 84.8672 71.7526 84.9141 71.5547 85.0078C71.362 85.1016 71.2161 85.224 71.1172 85.375C71.0182 85.526 70.9688 85.6927 70.9688 85.875C70.9688 86.0104 70.9948 86.1328 71.0469 86.2422C71.1042 86.3464 71.1953 86.4427 71.3203 86.5312C71.4453 86.6198 71.6146 86.7005 71.8281 86.7734C72.0469 86.8464 72.3151 86.9167 72.6328 86.9844C73.263 87.1094 73.8125 87.276 74.2812 87.4844C74.7552 87.6875 75.125 87.9583 75.3906 88.2969C75.6562 88.6354 75.7891 89.0677 75.7891 89.5938C75.7891 89.9688 75.7083 90.3125 75.5469 90.625C75.3854 90.9323 75.151 91.2005 74.8438 91.4297C74.5365 91.6589 74.1693 91.8385 73.7422 91.9688C73.3151 92.0938 72.8333 92.1562 72.2969 92.1562C71.5208 92.1562 70.8646 92.0182 70.3281 91.7422C69.7917 91.4609 69.3854 91.1068 69.1094 90.6797C68.8333 90.2474 68.6953 89.7995 68.6953 89.3359H70.6719C70.6875 89.6641 70.776 89.9271 70.9375 90.125C71.099 90.3229 71.3021 90.4661 71.5469 90.5547C71.7969 90.638 72.0599 90.6797 72.3359 90.6797C72.6484 90.6797 72.9115 90.638 73.125 90.5547C73.3385 90.4661 73.5 90.349 73.6094 90.2031C73.7188 90.0521 73.7734 89.8802 73.7734 89.6875ZM83.2031 85.8594L85.2734 84.5C85.6016 84.2812 85.8281 84.0703 85.9531 83.8672C86.0781 83.6641 86.1406 83.4193 86.1406 83.1328C86.1406 82.8776 86.0417 82.6406 85.8438 82.4219C85.651 82.1979 85.3776 82.0859 85.0234 82.0859C84.7734 82.0859 84.5625 82.1432 84.3906 82.2578C84.2188 82.3724 84.0885 82.526 84 82.7188C83.9167 82.9062 83.875 83.1146 83.875 83.3438C83.875 83.5781 83.9349 83.8177 84.0547 84.0625C84.1797 84.3073 84.3464 84.5651 84.5547 84.8359C84.7682 85.1016 85.0052 85.3906 85.2656 85.7031L90.6328 92H88.2734L83.8828 86.8906C83.513 86.4323 83.1849 86.0104 82.8984 85.625C82.612 85.2396 82.388 84.8672 82.2266 84.5078C82.0703 84.1432 81.9922 83.7682 81.9922 83.3828C81.9922 82.7891 82.1172 82.2734 82.3672 81.8359C82.6172 81.3984 82.9688 81.0599 83.4219 80.8203C83.8802 80.5807 84.4167 80.4609 85.0312 80.4609C85.6146 80.4609 86.1172 80.5807 86.5391 80.8203C86.9661 81.0547 87.2969 81.3672 87.5312 81.7578C87.7656 82.1484 87.8828 82.5755 87.8828 83.0391C87.8828 83.3932 87.8177 83.7214 87.6875 84.0234C87.5573 84.3203 87.3776 84.5938 87.1484 84.8438C86.9193 85.0885 86.6536 85.3203 86.3516 85.5391L83.9141 87.2891C83.6797 87.487 83.5026 87.6823 83.3828 87.875C83.2682 88.0625 83.1901 88.237 83.1484 88.3984C83.112 88.5599 83.0938 88.7109 83.0938 88.8516C83.0938 89.1693 83.1615 89.4557 83.2969 89.7109C83.4375 89.9609 83.6354 90.1615 83.8906 90.3125C84.151 90.4583 84.4583 90.5312 84.8125 90.5312C85.2448 90.5312 85.6615 90.4349 86.0625 90.2422C86.4635 90.0495 86.8229 89.776 87.1406 89.4219C87.4635 89.0677 87.7188 88.6458 87.9062 88.1562C88.099 87.6615 88.1953 87.1172 88.1953 86.5234H89.9609C89.9609 87.0911 89.9062 87.6302 89.7969 88.1406C89.6875 88.6458 89.5104 89.1146 89.2656 89.5469C89.0208 89.9792 88.7005 90.3646 88.3047 90.7031C88.2682 90.7344 88.224 90.776 88.1719 90.8281C88.125 90.8802 88.0833 90.9219 88.0469 90.9531C87.5729 91.3594 87.0599 91.6641 86.5078 91.8672C85.9609 92.0651 85.3646 92.1641 84.7188 92.1641C83.9583 92.1641 83.3021 92.026 82.75 91.75C82.1979 91.474 81.7708 91.0938 81.4688 90.6094C81.1719 90.125 81.0234 89.5703 81.0234 88.9453C81.0234 88.4818 81.1146 88.0781 81.2969 87.7344C81.4844 87.3854 81.7422 87.0625 82.0703 86.7656C82.3984 86.4635 82.776 86.1615 83.2031 85.8594ZM98.1641 80.625V92H96.0156V80.625H98.1641ZM102.352 85.3516V92H100.289V83.5469H102.227L102.352 85.3516ZM102.023 87.4688H101.414C101.419 86.8542 101.503 86.2969 101.664 85.7969C101.826 85.2969 102.052 84.8672 102.344 84.5078C102.641 84.1484 102.992 83.8724 103.398 83.6797C103.805 83.487 104.258 83.3906 104.758 83.3906C105.164 83.3906 105.531 83.4479 105.859 83.5625C106.188 83.6771 106.469 83.8594 106.703 84.1094C106.943 84.3594 107.125 84.6875 107.25 85.0938C107.38 85.4948 107.445 85.9896 107.445 86.5781V92H105.367V86.5625C105.367 86.1771 105.31 85.8724 105.195 85.6484C105.086 85.4245 104.924 85.2656 104.711 85.1719C104.503 85.0781 104.245 85.0312 103.938 85.0312C103.62 85.0312 103.341 85.0964 103.102 85.2266C102.867 85.3516 102.669 85.526 102.508 85.75C102.352 85.974 102.232 86.2318 102.148 86.5234C102.065 86.8151 102.023 87.1302 102.023 87.4688ZM111.969 92H109.891V82.7656C109.891 82.1302 110.013 81.5964 110.258 81.1641C110.503 80.7266 110.852 80.3958 111.305 80.1719C111.758 79.9479 112.292 79.8359 112.906 79.8359C113.109 79.8359 113.302 79.849 113.484 79.875C113.672 79.901 113.857 79.9375 114.039 79.9844L114 81.5547C113.901 81.5286 113.792 81.5104 113.672 81.5C113.557 81.4896 113.43 81.4844 113.289 81.4844C113.008 81.4844 112.768 81.5339 112.57 81.6328C112.372 81.7318 112.221 81.8776 112.117 82.0703C112.018 82.2578 111.969 82.4896 111.969 82.7656V92ZM113.68 83.5469V85.0312H108.617V83.5469H113.68ZM117.016 85.2734V92H114.953V83.5469H116.906L117.016 85.2734ZM119.586 83.4922L119.555 85.4141C119.44 85.3932 119.31 85.3776 119.164 85.3672C119.023 85.3568 118.891 85.3516 118.766 85.3516C118.448 85.3516 118.169 85.3958 117.93 85.4844C117.69 85.5677 117.49 85.6901 117.328 85.8516C117.172 86.013 117.052 86.2109 116.969 86.4453C116.885 86.6745 116.839 86.9349 116.828 87.2266L116.383 87.1719C116.383 86.6354 116.438 86.138 116.547 85.6797C116.656 85.2214 116.815 84.8203 117.023 84.4766C117.232 84.1328 117.492 83.8672 117.805 83.6797C118.122 83.487 118.487 83.3906 118.898 83.3906C119.013 83.3906 119.135 83.401 119.266 83.4219C119.401 83.4375 119.508 83.4609 119.586 83.4922ZM125.109 90.2031V86.3047C125.109 86.0182 125.06 85.7708 124.961 85.5625C124.862 85.3542 124.711 85.1927 124.508 85.0781C124.305 84.9635 124.047 84.9062 123.734 84.9062C123.458 84.9062 123.216 84.9531 123.008 85.0469C122.805 85.1406 122.648 85.2734 122.539 85.4453C122.43 85.612 122.375 85.8047 122.375 86.0234H120.305C120.305 85.6745 120.388 85.3438 120.555 85.0312C120.721 84.7135 120.958 84.4323 121.266 84.1875C121.578 83.9375 121.951 83.7422 122.383 83.6016C122.82 83.4609 123.31 83.3906 123.852 83.3906C124.492 83.3906 125.062 83.5 125.562 83.7188C126.068 83.9323 126.464 84.2552 126.75 84.6875C127.042 85.1198 127.188 85.6641 127.188 86.3203V90.0078C127.188 90.4297 127.214 90.7917 127.266 91.0938C127.323 91.3906 127.406 91.6484 127.516 91.8672V92H125.414C125.315 91.7865 125.24 91.5156 125.188 91.1875C125.135 90.8542 125.109 90.526 125.109 90.2031ZM125.398 86.8516L125.414 88.0781H124.109C123.786 88.0781 123.503 88.112 123.258 88.1797C123.013 88.2422 122.812 88.3359 122.656 88.4609C122.5 88.5807 122.383 88.7266 122.305 88.8984C122.227 89.0651 122.188 89.2552 122.188 89.4688C122.188 89.6771 122.234 89.8646 122.328 90.0312C122.427 90.1979 122.568 90.3307 122.75 90.4297C122.938 90.5234 123.156 90.5703 123.406 90.5703C123.771 90.5703 124.089 90.4974 124.359 90.3516C124.63 90.2005 124.841 90.0182 124.992 89.8047C125.143 89.5911 125.224 89.388 125.234 89.1953L125.828 90.0859C125.755 90.2995 125.646 90.526 125.5 90.7656C125.354 91.0052 125.167 91.2292 124.938 91.4375C124.708 91.6458 124.432 91.8177 124.109 91.9531C123.786 92.0885 123.411 92.1562 122.984 92.1562C122.438 92.1562 121.948 92.0469 121.516 91.8281C121.083 91.6094 120.742 91.3099 120.492 90.9297C120.242 90.5495 120.117 90.1172 120.117 89.6328C120.117 89.1849 120.201 88.7891 120.367 88.4453C120.534 88.1016 120.781 87.8125 121.109 87.5781C121.438 87.3385 121.844 87.1589 122.328 87.0391C122.818 86.9141 123.378 86.8516 124.008 86.8516H125.398ZM133.695 89.6875C133.695 89.5104 133.648 89.3516 133.555 89.2109C133.461 89.0703 133.284 88.9427 133.023 88.8281C132.768 88.7083 132.393 88.5964 131.898 88.4922C131.461 88.3984 131.057 88.2812 130.688 88.1406C130.318 88 130 87.8307 129.734 87.6328C129.469 87.4297 129.26 87.1927 129.109 86.9219C128.964 86.6458 128.891 86.3281 128.891 85.9688C128.891 85.6198 128.966 85.2917 129.117 84.9844C129.268 84.6719 129.487 84.3984 129.773 84.1641C130.06 83.9245 130.409 83.737 130.82 83.6016C131.232 83.4609 131.695 83.3906 132.211 83.3906C132.93 83.3906 133.547 83.5078 134.062 83.7422C134.583 83.9766 134.982 84.2995 135.258 84.7109C135.534 85.1172 135.672 85.5755 135.672 86.0859H133.609C133.609 85.862 133.557 85.6589 133.453 85.4766C133.354 85.2943 133.201 85.1484 132.992 85.0391C132.784 84.9245 132.521 84.8672 132.203 84.8672C131.917 84.8672 131.674 84.9141 131.477 85.0078C131.284 85.1016 131.138 85.224 131.039 85.375C130.94 85.526 130.891 85.6927 130.891 85.875C130.891 86.0104 130.917 86.1328 130.969 86.2422C131.026 86.3464 131.117 86.4427 131.242 86.5312C131.367 86.6198 131.536 86.7005 131.75 86.7734C131.969 86.8464 132.237 86.9167 132.555 86.9844C133.185 87.1094 133.734 87.276 134.203 87.4844C134.677 87.6875 135.047 87.9583 135.312 88.2969C135.578 88.6354 135.711 89.0677 135.711 89.5938C135.711 89.9688 135.63 90.3125 135.469 90.625C135.307 90.9323 135.073 91.2005 134.766 91.4297C134.458 91.6589 134.091 91.8385 133.664 91.9688C133.237 92.0938 132.755 92.1562 132.219 92.1562C131.443 92.1562 130.786 92.0182 130.25 91.7422C129.714 91.4609 129.307 91.1068 129.031 90.6797C128.755 90.2474 128.617 89.7995 128.617 89.3359H130.594C130.609 89.6641 130.698 89.9271 130.859 90.125C131.021 90.3229 131.224 90.4661 131.469 90.5547C131.719 90.638 131.982 90.6797 132.258 90.6797C132.57 90.6797 132.833 90.638 133.047 90.5547C133.26 90.4661 133.422 90.349 133.531 90.2031C133.641 90.0521 133.695 89.8802 133.695 89.6875ZM141.281 83.5469V85.0312H136.438V83.5469H141.281ZM137.734 81.4688H139.805V89.5625C139.805 89.8125 139.839 90.0052 139.906 90.1406C139.974 90.276 140.076 90.3672 140.211 90.4141C140.346 90.4609 140.508 90.4844 140.695 90.4844C140.831 90.4844 140.956 90.4766 141.07 90.4609C141.185 90.4453 141.281 90.4297 141.359 90.4141L141.367 91.9609C141.195 92.0182 141 92.0651 140.781 92.1016C140.568 92.138 140.326 92.1562 140.055 92.1562C139.591 92.1562 139.185 92.0781 138.836 91.9219C138.487 91.7604 138.216 91.5026 138.023 91.1484C137.831 90.7891 137.734 90.3151 137.734 89.7266V81.4688ZM144.719 85.2734V92H142.656V83.5469H144.609L144.719 85.2734ZM147.289 83.4922L147.258 85.4141C147.143 85.3932 147.013 85.3776 146.867 85.3672C146.727 85.3568 146.594 85.3516 146.469 85.3516C146.151 85.3516 145.872 85.3958 145.633 85.4844C145.393 85.5677 145.193 85.6901 145.031 85.8516C144.875 86.013 144.755 86.2109 144.672 86.4453C144.589 86.6745 144.542 86.9349 144.531 87.2266L144.086 87.1719C144.086 86.6354 144.141 86.138 144.25 85.6797C144.359 85.2214 144.518 84.8203 144.727 84.4766C144.935 84.1328 145.195 83.8672 145.508 83.6797C145.826 83.487 146.19 83.3906 146.602 83.3906C146.716 83.3906 146.839 83.401 146.969 83.4219C147.104 83.4375 147.211 83.4609 147.289 83.4922ZM153.453 89.9922V83.5469H155.531V92H153.578L153.453 89.9922ZM153.719 88.2422L154.359 88.2266C154.359 88.7943 154.297 89.3177 154.172 89.7969C154.047 90.276 153.852 90.6927 153.586 91.0469C153.326 91.3958 152.995 91.6693 152.594 91.8672C152.193 92.0599 151.719 92.1562 151.172 92.1562C150.755 92.1562 150.375 92.099 150.031 91.9844C149.688 91.8646 149.391 91.6797 149.141 91.4297C148.896 91.1745 148.706 90.849 148.57 90.4531C148.435 90.0521 148.367 89.5703 148.367 89.0078V83.5469H150.43V89.0234C150.43 89.3047 150.461 89.5391 150.523 89.7266C150.591 89.9141 150.682 90.0677 150.797 90.1875C150.917 90.3021 151.055 90.3854 151.211 90.4375C151.372 90.4844 151.544 90.5078 151.727 90.5078C152.227 90.5078 152.62 90.4089 152.906 90.2109C153.198 90.0078 153.406 89.737 153.531 89.3984C153.656 89.0547 153.719 88.6693 153.719 88.2422ZM160.828 90.5312C161.12 90.5312 161.38 90.474 161.609 90.3594C161.839 90.2448 162.021 90.0833 162.156 89.875C162.297 89.6667 162.372 89.4245 162.383 89.1484H164.328C164.318 89.7214 164.156 90.2344 163.844 90.6875C163.531 91.1406 163.115 91.5 162.594 91.7656C162.078 92.026 161.5 92.1562 160.859 92.1562C160.208 92.1562 159.641 92.0469 159.156 91.8281C158.672 91.6094 158.268 91.3047 157.945 90.9141C157.628 90.5234 157.388 90.0703 157.227 89.5547C157.07 89.0391 156.992 88.487 156.992 87.8984V87.6484C156.992 87.0599 157.07 86.5078 157.227 85.9922C157.388 85.4766 157.628 85.0234 157.945 84.6328C158.268 84.2422 158.672 83.9375 159.156 83.7188C159.641 83.5 160.206 83.3906 160.852 83.3906C161.534 83.3906 162.133 83.5234 162.648 83.7891C163.169 84.0547 163.576 84.4297 163.867 84.9141C164.164 85.3984 164.318 85.9688 164.328 86.625H162.383C162.372 86.3229 162.305 86.0521 162.18 85.8125C162.055 85.5729 161.878 85.3802 161.648 85.2344C161.419 85.0885 161.141 85.0156 160.812 85.0156C160.464 85.0156 160.172 85.0885 159.938 85.2344C159.708 85.3802 159.529 85.5807 159.398 85.8359C159.273 86.0859 159.185 86.3672 159.133 86.6797C159.086 86.987 159.062 87.3099 159.062 87.6484V87.8984C159.062 88.2422 159.086 88.5703 159.133 88.8828C159.185 89.1953 159.273 89.4766 159.398 89.7266C159.529 89.9714 159.708 90.1667 159.938 90.3125C160.172 90.4583 160.469 90.5312 160.828 90.5312ZM169.703 83.5469V85.0312H164.859V83.5469H169.703ZM166.156 81.4688H168.227V89.5625C168.227 89.8125 168.26 90.0052 168.328 90.1406C168.396 90.276 168.497 90.3672 168.633 90.4141C168.768 90.4609 168.93 90.4844 169.117 90.4844C169.253 90.4844 169.378 90.4766 169.492 90.4609C169.607 90.4453 169.703 90.4297 169.781 90.4141L169.789 91.9609C169.617 92.0182 169.422 92.0651 169.203 92.1016C168.99 92.138 168.747 92.1562 168.477 92.1562C168.013 92.1562 167.607 92.0781 167.258 91.9219C166.909 91.7604 166.638 91.5026 166.445 91.1484C166.253 90.7891 166.156 90.3151 166.156 89.7266V81.4688ZM176.109 89.9922V83.5469H178.188V92H176.234L176.109 89.9922ZM176.375 88.2422L177.016 88.2266C177.016 88.7943 176.953 89.3177 176.828 89.7969C176.703 90.276 176.508 90.6927 176.242 91.0469C175.982 91.3958 175.651 91.6693 175.25 91.8672C174.849 92.0599 174.375 92.1562 173.828 92.1562C173.411 92.1562 173.031 92.099 172.688 91.9844C172.344 91.8646 172.047 91.6797 171.797 91.4297C171.552 91.1745 171.362 90.849 171.227 90.4531C171.091 90.0521 171.023 89.5703 171.023 89.0078V83.5469H173.086V89.0234C173.086 89.3047 173.117 89.5391 173.18 89.7266C173.247 89.9141 173.339 90.0677 173.453 90.1875C173.573 90.3021 173.711 90.3854 173.867 90.4375C174.029 90.4844 174.201 90.5078 174.383 90.5078C174.883 90.5078 175.276 90.4089 175.562 90.2109C175.854 90.0078 176.062 89.737 176.188 89.3984C176.312 89.0547 176.375 88.6693 176.375 88.2422ZM182.078 85.2734V92H180.016V83.5469H181.969L182.078 85.2734ZM184.648 83.4922L184.617 85.4141C184.503 85.3932 184.372 85.3776 184.227 85.3672C184.086 85.3568 183.953 85.3516 183.828 85.3516C183.51 85.3516 183.232 85.3958 182.992 85.4844C182.753 85.5677 182.552 85.6901 182.391 85.8516C182.234 86.013 182.115 86.2109 182.031 86.4453C181.948 86.6745 181.901 86.9349 181.891 87.2266L181.445 87.1719C181.445 86.6354 181.5 86.138 181.609 85.6797C181.719 85.2214 181.878 84.8203 182.086 84.4766C182.294 84.1328 182.555 83.8672 182.867 83.6797C183.185 83.487 183.549 83.3906 183.961 83.3906C184.076 83.3906 184.198 83.401 184.328 83.4219C184.464 83.4375 184.57 83.4609 184.648 83.4922ZM189.422 92.1562C188.781 92.1562 188.206 92.0521 187.695 91.8438C187.185 91.6354 186.75 91.3464 186.391 90.9766C186.036 90.6016 185.763 90.1667 185.57 89.6719C185.383 89.1719 185.289 88.6354 185.289 88.0625V87.75C185.289 87.099 185.383 86.5078 185.57 85.9766C185.758 85.4401 186.023 84.9792 186.367 84.5938C186.711 84.2083 187.122 83.9115 187.602 83.7031C188.081 83.4948 188.609 83.3906 189.188 83.3906C189.786 83.3906 190.315 83.4922 190.773 83.6953C191.232 83.8932 191.615 84.1745 191.922 84.5391C192.229 84.9036 192.461 85.3411 192.617 85.8516C192.773 86.3568 192.852 86.9167 192.852 87.5312V88.3984H186.227V86.9766H190.82V86.8203C190.81 86.4922 190.747 86.1927 190.633 85.9219C190.518 85.6458 190.341 85.4271 190.102 85.2656C189.862 85.099 189.552 85.0156 189.172 85.0156C188.865 85.0156 188.596 85.0833 188.367 85.2188C188.143 85.349 187.956 85.5365 187.805 85.7812C187.659 86.0208 187.549 86.3073 187.477 86.6406C187.404 86.974 187.367 87.3438 187.367 87.75V88.0625C187.367 88.4167 187.414 88.7448 187.508 89.0469C187.607 89.349 187.75 89.612 187.938 89.8359C188.13 90.0547 188.359 90.2266 188.625 90.3516C188.896 90.4714 189.203 90.5312 189.547 90.5312C189.979 90.5312 190.37 90.4479 190.719 90.2812C191.073 90.1094 191.38 89.8568 191.641 89.5234L192.68 90.6016C192.503 90.862 192.263 91.112 191.961 91.3516C191.664 91.5911 191.305 91.7865 190.883 91.9375C190.461 92.0833 189.974 92.1562 189.422 92.1562Z" fill="black"/>
<path d="M133.416 35.5381V38.4998C132.487 38.537 131.541 38.4494 130.611 38.4945C130.085 38.5184 129.144 38.5636 128.671 38.6353C127.6 38.8 127.274 41.1641 126.874 42.1389C126.404 43.2864 124.851 45.2176 125.603 46.2907C125.939 46.7688 128.766 49.3587 128.72 49.6217L122.936 55.338C122.812 55.3141 122.721 55.2344 122.619 55.168C121.678 54.5677 120.566 52.9766 119.548 52.2779C118.454 51.5289 116.901 52.8597 115.794 53.3298C114.771 53.7655 113.376 54.0125 112.487 54.4375C112.154 54.5969 111.864 54.9449 111.808 55.3088L111.67 60.0024H103.337L103.2 55.3088C103.143 54.9449 102.85 54.5969 102.52 54.4375C101.631 54.0125 100.236 53.7628 99.2126 53.3298C98.1057 52.8597 96.5528 51.5289 95.4593 52.2779C94.4653 52.958 93.3235 54.5703 92.3885 55.168C92.2864 55.2317 92.1951 55.3141 92.0715 55.338L86.2872 49.6217C86.2415 49.3587 89.0678 46.7715 89.4037 46.2907C90.1398 45.2415 88.7669 43.5786 88.2995 42.4869C87.9072 41.5705 87.5687 39.9263 87.1711 39.225C87.0932 39.0895 86.9239 38.9116 86.7923 38.8266C86.4511 38.6114 85.0406 38.5184 84.5247 38.4945C83.5522 38.4467 82.5608 38.5397 81.5883 38.4998V35.5381H90.7685C90.9619 35.5381 91.0855 37.1345 91.1554 37.4719C94.9059 55.6541 121.251 54.9369 124.026 36.6165C124.061 36.3881 123.967 35.5381 124.236 35.5381H133.416Z" fill="black"/>
<path d="M78.8129 29.3864L135.958 29.3545C138.808 29.915 138.631 33.8675 135.7 34.1278L79.1756 34.1225C76.4756 33.7214 76.2123 30.2018 78.8156 29.3864H78.8129Z" fill="black"/>
<path d="M106.719 27.9416H95.0644C95.051 27.9416 94.8683 27.761 94.8683 27.7477V8.69159C95.6662 7.95846 100.362 1.89152 100.811 1.81184C100.98 1.78262 101.085 1.95793 101.187 2.05621L106.719 8.56144V27.939V27.9416ZM104.083 10.203C103.686 9.80989 98.8338 10.1685 97.931 10.0463C97.1788 10.2827 97.1788 11.2204 97.931 11.4568C99.7042 11.3133 101.8 11.6587 103.53 11.4621C104.28 11.3771 104.543 10.6572 104.083 10.203ZM98.2212 14.7081C97.168 14.894 97.0471 16.0548 98.0681 16.2142C98.909 16.3443 102.689 16.3496 103.522 16.2142C104.535 16.0495 104.591 14.8515 103.388 14.6895C102.469 14.5646 99.1024 14.554 98.2212 14.7081ZM97.9552 19.4708C97.1627 19.6541 97.1842 20.6316 97.931 20.8573C98.8767 20.7112 103.597 21.107 104.062 20.7431C104.489 20.4084 104.22 19.5319 103.656 19.4469L97.9579 19.4708H97.9552ZM104.083 25.4633C104.363 25.1871 104.355 24.2441 103.785 24.2096H97.931C97.0579 24.5761 97.2003 25.5111 98.1863 25.6254C99.406 25.7661 102.149 25.7316 103.404 25.628C103.605 25.6121 103.941 25.6068 104.083 25.4633Z" fill="black"/>
<path d="M133.416 0V27.7475C133.416 27.7608 133.233 27.9414 133.22 27.9414H121.759C121.745 27.9414 121.563 27.7608 121.563 27.7475V0H133.413H133.416ZM122.957 1.3122C122.807 1.35736 122.696 1.49548 122.621 1.62564C122.406 2.00283 122.409 4.41208 122.473 4.96193C122.53 5.43474 122.683 5.73756 123.185 5.80131C123.798 5.881 125.842 5.88366 126.452 5.80131C127.444 5.6685 127.248 3.07863 127.162 2.25518C127.097 1.63361 126.976 1.36267 126.318 1.28829C125.84 1.23251 123.309 1.21126 122.954 1.31486L122.957 1.3122ZM128.432 1.31751C128.177 1.3733 127.997 1.47423 127.946 1.73986C127.882 2.08783 127.911 5.37631 128.011 5.541C128.118 5.71897 128.459 5.7774 128.661 5.79865C129.15 5.85444 131.936 5.85444 132.188 5.67647C132.282 5.61272 132.411 5.40021 132.446 5.28599C132.581 4.84505 132.57 2.65893 132.508 2.12237C132.452 1.64955 132.298 1.34673 131.796 1.28298C131.237 1.21126 128.943 1.20861 128.432 1.31751ZM123.091 7.36586C122.653 7.4668 122.524 7.76164 122.476 8.17337C122.401 8.80822 122.401 10.3754 122.476 11.0103C122.532 11.4831 122.686 11.7859 123.188 11.8497C123.801 11.9293 125.845 11.932 126.455 11.8497C127.446 11.7168 127.25 9.12697 127.164 8.30352C127.1 7.68727 126.982 7.41102 126.321 7.33664C125.748 7.27023 123.596 7.25164 123.091 7.36586ZM128.432 7.36851C128.177 7.4243 127.997 7.52523 127.946 7.79086C127.849 8.30618 127.865 10.7154 127.941 11.2732C127.997 11.6956 128.097 11.7965 128.526 11.8523C129.15 11.932 131.173 11.9347 131.793 11.8523C132.293 11.7859 132.449 11.4937 132.505 11.0129C132.581 10.3781 132.581 8.81087 132.505 8.17602C132.438 7.61024 132.234 7.4057 131.659 7.33929C131.084 7.27289 128.967 7.25429 128.43 7.37117L128.432 7.36851ZM126.871 13.5523C126.622 13.3186 123.959 13.3372 123.449 13.385C122.82 13.4408 122.554 13.555 122.476 14.2244C122.401 14.8566 122.401 16.4291 122.476 17.0613C122.503 17.303 122.589 17.6324 122.796 17.7758C123.078 17.9724 126.6 17.9724 126.855 17.7758C127.328 17.4172 127.317 13.9614 126.874 13.5497L126.871 13.5523ZM128.107 13.5497C127.865 13.7887 127.857 17.4571 128.064 17.7174C128.191 17.8741 128.344 17.8794 128.526 17.9033C129.15 17.983 131.173 17.9857 131.793 17.9033C132.293 17.8369 132.449 17.5447 132.505 17.0639C132.581 16.4317 132.581 14.8566 132.505 14.227C132.462 13.8711 132.363 13.5683 131.989 13.4487C131.573 13.3159 128.336 13.3239 128.105 13.5523L128.107 13.5497ZM123.091 19.4705C122.653 19.5715 122.524 19.8663 122.476 20.278C122.401 20.9129 122.401 22.4801 122.476 23.1149C122.53 23.5798 122.691 23.8507 123.15 23.9915C123.709 24.1642 126.433 24.1854 126.847 23.8268C127.261 23.4682 127.242 21.0324 127.17 20.4055C127.1 19.8132 126.796 19.5077 126.192 19.4386C125.638 19.3749 123.58 19.359 123.091 19.4679V19.4705ZM128.561 19.4705C128.279 19.5316 128.008 19.7308 127.949 20.0257C127.855 20.5065 127.868 22.8493 127.941 23.3779C128.072 24.3448 130.326 24.1482 131.143 24.0845C131.745 24.0393 132.417 23.9835 132.511 23.2477C132.591 22.6288 132.581 20.9076 132.505 20.278C132.438 19.7122 132.234 19.5077 131.659 19.4413C131.084 19.3749 129.072 19.359 128.559 19.4705H128.561Z" fill="black"/>
<path d="M108.283 27.9409V14.293H119.937C119.951 14.293 120.133 14.4736 120.133 14.4869V27.7497C120.133 27.763 119.951 27.9436 119.937 27.9436H108.283V27.9409Z" fill="black"/>
<path d="M93.4363 19.5713V27.7473C93.4363 27.7606 93.2536 27.9412 93.2402 27.9412H81.779C81.7656 27.9412 81.5829 27.7606 81.5829 27.7473V19.5713H93.4336H93.4363Z" fill="black"/>
<path d="M125.603 20.9873H124.04V22.5333H125.603V20.9873Z" fill="black"/>
<path d="M130.942 20.9873H129.378V22.5333H130.942V20.9873Z" fill="black"/>
<path d="M125.603 2.7041H124.04V4.38021H125.603V2.7041Z" fill="black"/>
<path d="M125.603 8.75488H124.04V10.431H125.603V8.75488Z" fill="black"/>
<path d="M125.603 14.8057H124.04V16.4818H125.603V14.8057Z" fill="black"/>
<path d="M130.942 2.7041H129.378V4.38021H130.942V2.7041Z" fill="black"/>
<path d="M130.942 8.75488H129.378V10.431H130.942V8.75488Z" fill="black"/>
<path d="M130.942 14.8057H129.378V16.4818H130.942V14.8057Z" fill="black"/>
</svg>
